%FSLAX25Y25*%
%MOIN*%
G70*
G01*
G75*
G04 Layer_Color=255*
%ADD10C,0.02500*%
%ADD11C,0.04724*%
%ADD12C,0.20000*%
%ADD13C,0.07874*%
%ADD14C,0.05906*%
%ADD15R,0.05906X0.05906*%
%ADD16R,0.05906X0.05906*%
%ADD17R,0.07874X0.07874*%
%ADD18R,0.05000X0.05000*%
%ADD19C,0.05000*%
%ADD20R,0.07874X0.07874*%
%ADD21C,0.05512*%
%ADD22C,0.02500*%
%ADD23R,0.02756X0.05118*%
%ADD24R,0.04331X0.02559*%
%ADD25R,0.03543X0.06299*%
%ADD26R,0.03543X0.02362*%
%ADD27R,0.02362X0.03543*%
%ADD28R,0.04921X0.07874*%
%ADD29R,0.05118X0.02756*%
%ADD30R,0.11000X0.15000*%
%ADD31C,0.07500*%
%ADD32C,0.05000*%
%ADD33C,0.03000*%
%ADD34C,0.04000*%
D11*
X4438890Y1902500D02*
D03*
X4425110D02*
D03*
Y1867000D02*
D03*
X4438890D02*
D03*
D12*
X4460000Y1978500D02*
D03*
X4126500D02*
D03*
Y1747500D02*
D03*
X4460000D02*
D03*
D13*
X4280000Y1825000D02*
D03*
X4280500Y1838500D02*
D03*
X4353000Y1825000D02*
D03*
X4353500Y1838500D02*
D03*
Y1812500D02*
D03*
X4280185Y1812185D02*
D03*
X4218500Y1811500D02*
D03*
X4219000Y1838500D02*
D03*
X4218500Y1825000D02*
D03*
X4280185Y1785106D02*
D03*
X4240815D02*
D03*
X4314315D02*
D03*
X4353685D02*
D03*
X4179591Y1839000D02*
D03*
X4196590Y1855000D02*
D03*
X4155000Y1867909D02*
D03*
X4138000D02*
D03*
D14*
X4408890Y1813500D02*
D03*
X4418890D02*
D03*
X4428890D02*
D03*
X4275264Y1760500D02*
D03*
X4245736D02*
D03*
X4319236D02*
D03*
X4348764D02*
D03*
X4320500Y1912000D02*
D03*
X4143040Y1953460D02*
D03*
X4156960Y1939540D02*
D03*
X4201185Y1953000D02*
D03*
X4181500D02*
D03*
X4202185Y1914000D02*
D03*
X4182500D02*
D03*
X4236500Y1955343D02*
D03*
Y1935657D02*
D03*
X4399524Y1924303D02*
D03*
Y1949500D02*
D03*
X4338500Y1899106D02*
D03*
Y1911705D02*
D03*
Y1924303D02*
D03*
Y1936902D02*
D03*
Y1949500D02*
D03*
D15*
X4438890Y1813500D02*
D03*
D16*
X4320500Y1958000D02*
D03*
D17*
X4138409Y1839000D02*
D03*
X4155409Y1855000D02*
D03*
D18*
X4271500Y1912500D02*
D03*
D19*
X4281500D02*
D03*
X4301500D02*
D03*
X4271500Y1942500D02*
D03*
X4281500D02*
D03*
X4291500D02*
D03*
X4301500D02*
D03*
D20*
X4155000Y1909091D02*
D03*
X4138000D02*
D03*
D21*
X4138500Y1811500D02*
D03*
X4188500D02*
D03*
D23*
X4421740Y1963000D02*
D03*
X4414260D02*
D03*
X4443740D02*
D03*
X4436260D02*
D03*
X4286740Y1892500D02*
D03*
X4279260D02*
D03*
X4286740Y1901000D02*
D03*
X4279260D02*
D03*
X4438740Y1857000D02*
D03*
X4431260D02*
D03*
D24*
X4377776Y1753260D02*
D03*
Y1757000D02*
D03*
Y1760740D02*
D03*
X4387225D02*
D03*
Y1757000D02*
D03*
Y1753260D02*
D03*
D25*
X4185791Y1962000D02*
D03*
X4197209D02*
D03*
X4183291Y1904500D02*
D03*
X4194709D02*
D03*
X4304209Y1958000D02*
D03*
X4292791D02*
D03*
D26*
X4295500Y1894047D02*
D03*
Y1899953D02*
D03*
D27*
X4263453Y1912500D02*
D03*
X4257547D02*
D03*
X4279953Y1920500D02*
D03*
X4274047D02*
D03*
D28*
X4305118Y1898500D02*
D03*
X4319882D02*
D03*
D29*
X4281500Y1950260D02*
D03*
Y1957740D02*
D03*
X4270000D02*
D03*
Y1950260D02*
D03*
D30*
X4444000Y1946000D02*
D03*
X4414000D02*
D03*
M02*
