%FSLAX25Y25*%
%MOIN*%
G70*
G01*
G75*
G04 Layer_Physical_Order=2*
G04 Layer_Color=16711680*
%ADD10C,0.02500*%
%ADD11C,0.04724*%
%ADD12C,0.20000*%
%ADD13C,0.07874*%
%ADD14C,0.05906*%
%ADD15R,0.05906X0.05906*%
%ADD16R,0.05906X0.05906*%
%ADD17R,0.07874X0.07874*%
%ADD18R,0.05000X0.05000*%
%ADD19C,0.05000*%
%ADD20R,0.07874X0.07874*%
%ADD21C,0.05512*%
%ADD22C,0.02500*%
%ADD23R,0.02756X0.05118*%
%ADD24R,0.04331X0.02559*%
%ADD25R,0.03543X0.06299*%
%ADD26R,0.03543X0.02362*%
%ADD27R,0.02362X0.03543*%
%ADD28R,0.04921X0.07874*%
%ADD29R,0.05118X0.02756*%
%ADD30R,0.11000X0.15000*%
%ADD31C,0.07500*%
%ADD32C,0.05000*%
%ADD33C,0.03000*%
%ADD34C,0.04000*%
G36*
X4338423Y1944521D02*
D01*
X4338000Y1944500D01*
X4338423D01*
X4338423Y1944500D01*
Y1944500D01*
X4343419D01*
Y1944500D01*
X4343420Y1944500D01*
X4343420Y1944500D01*
X4345097Y1943991D01*
X4346660Y1943155D01*
X4348031Y1942031D01*
X4349155Y1940660D01*
X4349991Y1939097D01*
X4350506Y1937400D01*
X4350675Y1935679D01*
X4350636Y1935636D01*
X4350636D01*
X4350636Y1935636D01*
X4350477Y1869571D01*
X4350284Y1867611D01*
X4349712Y1865726D01*
X4348784Y1863988D01*
X4347534Y1862466D01*
X4346011Y1861216D01*
X4344274Y1860288D01*
X4342389Y1859716D01*
X4340477Y1859527D01*
X4340429Y1859571D01*
Y1859571D01*
X4217071Y1859523D01*
X4215111Y1859716D01*
X4213226Y1860288D01*
X4211488Y1861216D01*
X4209966Y1862466D01*
X4208716Y1863988D01*
X4207788Y1865726D01*
X4207216Y1867611D01*
X4207027Y1869523D01*
X4207071Y1869571D01*
X4207071D01*
X4207000Y1874000D01*
X4192500Y1888500D01*
Y1915500D01*
X4222000Y1945000D01*
X4338423Y1944521D01*
D02*
G37*
G36*
X4403818Y1927855D02*
X4405703Y1927283D01*
X4407441Y1926355D01*
X4408963Y1925105D01*
X4430332Y1905744D01*
X4430332Y1905744D01*
X4430332Y1905744D01*
X4430397Y1905741D01*
X4431616Y1904256D01*
X4432545Y1902518D01*
X4433117Y1900633D01*
X4433310Y1898673D01*
X4433429Y1837071D01*
X4433429Y1837071D01*
X4433429D01*
X4433472Y1837023D01*
X4433284Y1835111D01*
X4432713Y1833226D01*
X4431784Y1831488D01*
X4430534Y1829966D01*
X4429012Y1828716D01*
X4427274Y1827788D01*
X4425389Y1827216D01*
X4423429Y1827023D01*
X4399500Y1827000D01*
X4399500Y1827000D01*
Y1827000D01*
X4399461Y1826966D01*
X4398325Y1827116D01*
X4397231Y1827569D01*
X4396291Y1828291D01*
X4395569Y1829231D01*
X4395116Y1830325D01*
X4394961Y1831500D01*
X4395000Y1924500D01*
X4395000D01*
X4394974Y1924530D01*
X4395090Y1925414D01*
X4395443Y1926265D01*
X4396004Y1926996D01*
X4396735Y1927557D01*
X4397586Y1927910D01*
X4398500Y1928030D01*
X4401858Y1928000D01*
Y1928000D01*
X4401906Y1928044D01*
X4403818Y1927855D01*
D02*
G37*
%LPC*%
G36*
X4339000Y1929095D02*
X4338953Y1929050D01*
X4338443Y1929081D01*
X4337073Y1928946D01*
X4335755Y1928547D01*
X4334541Y1927897D01*
X4333476Y1927024D01*
Y1927024D01*
X4333466Y1927000D01*
X4306707Y1927033D01*
X4306041Y1926901D01*
X4305476Y1926524D01*
X4305500Y1926500D01*
X4302740Y1923674D01*
X4301942Y1923140D01*
X4301484Y1923049D01*
X4282134D01*
Y1923272D01*
X4277772D01*
Y1923272D01*
X4277534Y1923034D01*
X4276228Y1923036D01*
Y1923272D01*
X4271866D01*
Y1923272D01*
X4271637Y1923043D01*
X4270621Y1923044D01*
X4269284Y1922868D01*
X4268039Y1922352D01*
X4266969Y1921531D01*
Y1921531D01*
X4266969Y1921469D01*
X4260174Y1914741D01*
X4259640Y1913942D01*
X4259453Y1913000D01*
X4259453D01*
X4259500Y1912953D01*
X4259453Y1906914D01*
X4259640Y1905972D01*
X4260174Y1905174D01*
X4260972Y1904640D01*
X4261914Y1904453D01*
Y1904500D01*
X4279000Y1904549D01*
X4279976Y1904355D01*
X4280803Y1903802D01*
X4281355Y1902975D01*
X4281540Y1902048D01*
X4281500Y1902000D01*
X4281500D01*
X4281500Y1902000D01*
X4281461Y1891500D01*
X4281616Y1890325D01*
X4282069Y1889231D01*
X4282791Y1888291D01*
X4283731Y1887569D01*
X4284825Y1887116D01*
X4286000Y1886961D01*
Y1886961D01*
X4286039Y1887000D01*
X4336906Y1886963D01*
X4338390Y1887110D01*
X4339817Y1887543D01*
X4341133Y1888246D01*
X4342286Y1889192D01*
X4343232Y1890344D01*
X4343935Y1891660D01*
X4344368Y1893087D01*
X4344514Y1894571D01*
X4344514D01*
X4344477Y1894608D01*
X4344525Y1923570D01*
X4344336Y1925000D01*
X4343784Y1926332D01*
X4342907Y1927477D01*
X4341762Y1928355D01*
X4340430Y1928906D01*
X4339000Y1929095D01*
Y1929095D01*
D02*
G37*
%LPD*%
D10*
X4387000Y1738000D02*
Y1753035D01*
X4371000Y1760750D02*
X4371010Y1760740D01*
X4377776D01*
X4387225Y1757000D02*
X4399000D01*
X4368000D02*
X4377776D01*
X4371000Y1753260D02*
X4377776D01*
X4387225Y1760740D02*
X4395240D01*
X4421740Y1963000D02*
X4436260D01*
X4444000Y1946000D02*
Y1962740D01*
X4414260Y1946260D02*
Y1963000D01*
X4286740Y1892500D02*
X4288287Y1894047D01*
X4295500D01*
X4287787Y1899953D02*
X4295500D01*
X4286740Y1901000D02*
X4287787Y1899953D01*
X4263453Y1912500D02*
X4271500D01*
Y1917953D01*
X4274047Y1920500D01*
X4286740Y1901000D02*
Y1907260D01*
X4281500Y1912500D02*
X4286740Y1907260D01*
X4295500Y1894047D02*
X4300665D01*
X4305118Y1898500D01*
D11*
X4438890Y1902500D02*
D03*
X4425110D02*
D03*
Y1867000D02*
D03*
X4438890D02*
D03*
D12*
X4460000Y1978500D02*
D03*
X4126500D02*
D03*
Y1747500D02*
D03*
X4460000D02*
D03*
D13*
X4280000Y1825000D02*
D03*
X4280500Y1838500D02*
D03*
X4353000Y1825000D02*
D03*
X4353500Y1838500D02*
D03*
Y1812500D02*
D03*
X4280185Y1812185D02*
D03*
X4218500Y1811500D02*
D03*
X4219000Y1838500D02*
D03*
X4218500Y1825000D02*
D03*
X4280185Y1785106D02*
D03*
X4240815D02*
D03*
X4314315D02*
D03*
X4353685D02*
D03*
X4179591Y1839000D02*
D03*
X4196590Y1855000D02*
D03*
X4155000Y1867909D02*
D03*
X4138000D02*
D03*
D14*
X4408890Y1813500D02*
D03*
X4418890D02*
D03*
X4428890D02*
D03*
X4275264Y1760500D02*
D03*
X4245736D02*
D03*
X4319236D02*
D03*
X4348764D02*
D03*
X4320500Y1912000D02*
D03*
X4143040Y1953460D02*
D03*
X4156960Y1939540D02*
D03*
X4201185Y1953000D02*
D03*
X4181500D02*
D03*
X4202185Y1914000D02*
D03*
X4182500D02*
D03*
X4236500Y1955343D02*
D03*
Y1935657D02*
D03*
X4399524Y1924303D02*
D03*
Y1949500D02*
D03*
X4338500Y1899106D02*
D03*
Y1911705D02*
D03*
Y1924303D02*
D03*
Y1936902D02*
D03*
Y1949500D02*
D03*
D15*
X4438890Y1813500D02*
D03*
D16*
X4320500Y1958000D02*
D03*
D17*
X4138409Y1839000D02*
D03*
X4155409Y1855000D02*
D03*
D18*
X4271500Y1912500D02*
D03*
D19*
X4281500D02*
D03*
X4301500D02*
D03*
X4271500Y1942500D02*
D03*
X4281500D02*
D03*
X4291500D02*
D03*
X4301500D02*
D03*
D20*
X4155000Y1909091D02*
D03*
X4138000D02*
D03*
D21*
X4138500Y1811500D02*
D03*
X4188500D02*
D03*
D22*
X4387000Y1738000D02*
D03*
X4371000Y1760740D02*
D03*
X4399000Y1757000D02*
D03*
X4395240Y1760740D02*
D03*
X4371000Y1753260D02*
D03*
X4368000Y1757000D02*
D03*
D23*
X4421740Y1963000D02*
D03*
X4414260D02*
D03*
X4443740D02*
D03*
X4436260D02*
D03*
X4286740Y1892500D02*
D03*
X4279260D02*
D03*
X4286740Y1901000D02*
D03*
X4279260D02*
D03*
X4438740Y1857000D02*
D03*
X4431260D02*
D03*
D24*
X4377776Y1753260D02*
D03*
Y1757000D02*
D03*
Y1760740D02*
D03*
X4387225D02*
D03*
Y1757000D02*
D03*
Y1753260D02*
D03*
D25*
X4185791Y1962000D02*
D03*
X4197209D02*
D03*
X4183291Y1904500D02*
D03*
X4194709D02*
D03*
X4304209Y1958000D02*
D03*
X4292791D02*
D03*
D26*
X4295500Y1894047D02*
D03*
Y1899953D02*
D03*
D27*
X4263453Y1912500D02*
D03*
X4257547D02*
D03*
X4279953Y1920500D02*
D03*
X4274047D02*
D03*
D28*
X4305118Y1898500D02*
D03*
X4319882D02*
D03*
D29*
X4281500Y1950260D02*
D03*
Y1957740D02*
D03*
X4270000D02*
D03*
Y1950260D02*
D03*
D30*
X4444000Y1946000D02*
D03*
X4414000D02*
D03*
D31*
X4353500Y1812500D02*
X4353685Y1785106D01*
X4280185D02*
Y1812185D01*
X4303709Y1774500D02*
X4314315Y1785106D01*
X4251421Y1774500D02*
X4303709D01*
X4240815Y1785106D02*
X4251421Y1774500D01*
X4240815Y1785106D02*
Y1798685D01*
X4228000Y1811500D02*
X4240815Y1798685D01*
X4218500Y1811500D02*
X4228000D01*
X4418890Y1813500D02*
Y1836000D01*
X4204500Y1838500D02*
X4219000D01*
X4192576Y1826576D02*
X4204500Y1838500D01*
X4155424Y1826576D02*
X4192576D01*
X4280500Y1838500D02*
X4353500D01*
X4219000D02*
X4280500D01*
X4155409Y1826591D02*
X4155424Y1826576D01*
X4218500Y1825000D02*
X4353000D01*
X4188500Y1811500D02*
X4218500D01*
X4155409Y1826591D02*
Y1855000D01*
X4138500Y1811500D02*
Y1838091D01*
X4138000Y1841409D02*
Y1867909D01*
Y1909091D02*
X4155000D01*
Y1855409D02*
Y1867909D01*
D32*
X4302090Y1911909D02*
X4320500D01*
X4201528Y1956343D02*
X4235000D01*
X4241583Y1949760D01*
X4338500D01*
X4180091Y1838500D02*
X4196590Y1855000D01*
X4182792Y1885709D02*
Y1904500D01*
Y1914000D01*
X4138000Y1948419D02*
X4143540Y1953960D01*
X4444500Y1908110D02*
Y1946000D01*
X4410500Y1949500D02*
X4414000Y1946000D01*
X4399524Y1949500D02*
X4410500D01*
X4143540Y1953960D02*
X4178500D01*
X4138000Y1909091D02*
Y1948419D01*
X4156960Y1939540D02*
X4182500Y1914000D01*
X4182792Y1885709D02*
X4196590Y1871909D01*
X4320705Y1911705D02*
X4338500D01*
X4320488Y1899106D02*
X4338500D01*
X4301500Y1912500D02*
X4302090Y1911909D01*
X4438890Y1813500D02*
Y1902500D01*
X4444500Y1908110D01*
X4201185Y1953000D02*
X4204528Y1956343D01*
X4196590Y1855000D02*
Y1871909D01*
D33*
X4270000Y1957740D02*
X4292551D01*
X4307803Y1924303D02*
X4338500D01*
X4304000Y1920500D02*
X4307803Y1924303D01*
X4279953Y1920500D02*
X4304000D01*
D34*
X4304209Y1958000D02*
X4320500D01*
X4181500Y1957709D02*
X4185791Y1962000D01*
X4181500Y1953000D02*
Y1957709D01*
X4201185Y1953000D02*
Y1958024D01*
X4197209Y1962000D02*
X4201185Y1958024D01*
M02*
