%FSLAX25Y25*%
%MOIN*%
G70*
G01*
G75*
G04 Layer_Color=32896*
%ADD10C,0.02500*%
%ADD11R,0.07874X0.07874*%
%ADD12C,0.07874*%
%ADD13C,0.08661*%
%ADD14C,0.07087*%
%ADD15C,0.04724*%
%ADD16C,0.20000*%
%ADD17C,0.05906*%
%ADD18R,0.05906X0.05906*%
%ADD19R,0.07874X0.07874*%
%ADD20R,0.05000X0.05000*%
%ADD21C,0.05000*%
%ADD22C,0.02500*%
%ADD23R,0.04921X0.07874*%
%ADD24R,0.02756X0.05118*%
%ADD25R,0.04331X0.02559*%
%ADD26R,0.03543X0.06299*%
%ADD27R,0.03543X0.02362*%
%ADD28R,0.02362X0.03543*%
%ADD29R,0.05118X0.02756*%
%ADD30R,0.11000X0.15000*%
%ADD31C,0.07500*%
%ADD32C,0.05000*%
%ADD33C,0.03000*%
%ADD34C,0.04000*%
%ADD35C,0.01000*%
%ADD36C,0.00787*%
%ADD37R,0.11110X0.03543*%
%ADD38R,0.03150X0.11024*%
%ADD39R,0.11024X0.03150*%
%ADD40R,0.08674X0.08674*%
%ADD41C,0.08674*%
%ADD42C,0.09461*%
%ADD43C,0.07887*%
%ADD44C,0.05524*%
%ADD45C,0.20800*%
%ADD46C,0.06706*%
%ADD47R,0.06706X0.06706*%
%ADD48R,0.08674X0.08674*%
%ADD49R,0.05800X0.05800*%
%ADD50C,0.05800*%
%ADD51C,0.03300*%
%ADD52R,0.05721X0.08674*%
%ADD53R,0.03556X0.05918*%
%ADD54R,0.05131X0.03359*%
%ADD55R,0.04343X0.07099*%
%ADD56R,0.04343X0.03162*%
%ADD57R,0.03162X0.04343*%
%ADD58R,0.05918X0.03556*%
%ADD59R,0.11800X0.15800*%
%ADD60C,0.00984*%
%ADD61C,0.00500*%
G36*
X4390100Y1768521D02*
Y1768410D01*
X4390094Y1768304D01*
X4390089Y1768204D01*
X4390078Y1768110D01*
X4390067Y1768027D01*
X4390055Y1767949D01*
X4390039Y1767877D01*
X4390028Y1767810D01*
X4390017Y1767749D01*
X4390000Y1767699D01*
X4389989Y1767655D01*
X4389978Y1767621D01*
X4389967Y1767594D01*
X4389961Y1767571D01*
X4389956Y1767561D01*
Y1767555D01*
X4389894Y1767433D01*
X4389817Y1767322D01*
X4389739Y1767233D01*
X4389656Y1767155D01*
X4389584Y1767094D01*
X4389523Y1767050D01*
X4389500Y1767039D01*
X4389484Y1767028D01*
X4389473Y1767016D01*
X4389467D01*
X4389328Y1766956D01*
X4389184Y1766911D01*
X4389034Y1766878D01*
X4388896Y1766856D01*
X4388835Y1766850D01*
X4388774Y1766845D01*
X4388718Y1766839D01*
X4388674D01*
X4388635Y1766833D01*
X4388585D01*
X4388385Y1766845D01*
X4388296Y1766856D01*
X4388213Y1766867D01*
X4388130Y1766883D01*
X4388058Y1766900D01*
X4387991Y1766917D01*
X4387930Y1766939D01*
X4387875Y1766961D01*
X4387830Y1766978D01*
X4387786Y1766994D01*
X4387753Y1767011D01*
X4387725Y1767028D01*
X4387708Y1767033D01*
X4387697Y1767044D01*
X4387691D01*
X4387569Y1767127D01*
X4387469Y1767222D01*
X4387392Y1767311D01*
X4387325Y1767399D01*
X4387275Y1767477D01*
X4387242Y1767538D01*
X4387231Y1767561D01*
X4387220Y1767577D01*
X4387214Y1767588D01*
Y1767594D01*
X4387192Y1767660D01*
X4387170Y1767732D01*
X4387136Y1767882D01*
X4387114Y1768038D01*
X4387098Y1768188D01*
X4387092Y1768254D01*
X4387086Y1768321D01*
Y1768376D01*
X4387081Y1768426D01*
Y1768465D01*
Y1768493D01*
Y1768515D01*
Y1768521D01*
Y1770741D01*
X4387592D01*
Y1768521D01*
Y1768393D01*
X4387603Y1768271D01*
X4387614Y1768165D01*
X4387630Y1768065D01*
X4387647Y1767977D01*
X4387669Y1767893D01*
X4387686Y1767821D01*
X4387708Y1767760D01*
X4387730Y1767710D01*
X4387753Y1767660D01*
X4387775Y1767627D01*
X4387791Y1767594D01*
X4387808Y1767571D01*
X4387819Y1767555D01*
X4387825Y1767549D01*
X4387830Y1767544D01*
X4387880Y1767499D01*
X4387936Y1767461D01*
X4388058Y1767399D01*
X4388185Y1767355D01*
X4388319Y1767327D01*
X4388441Y1767305D01*
X4388491Y1767300D01*
X4388540D01*
X4388574Y1767294D01*
X4388629D01*
X4388746Y1767300D01*
X4388851Y1767316D01*
X4388951Y1767333D01*
X4389029Y1767361D01*
X4389095Y1767383D01*
X4389145Y1767399D01*
X4389173Y1767416D01*
X4389184Y1767422D01*
X4389262Y1767472D01*
X4389328Y1767533D01*
X4389384Y1767594D01*
X4389423Y1767649D01*
X4389456Y1767705D01*
X4389484Y1767744D01*
X4389495Y1767771D01*
X4389500Y1767782D01*
X4389517Y1767832D01*
X4389528Y1767882D01*
X4389550Y1767999D01*
X4389567Y1768121D01*
X4389578Y1768243D01*
X4389584Y1768349D01*
Y1768398D01*
X4389589Y1768437D01*
Y1768471D01*
Y1768498D01*
Y1768515D01*
Y1768521D01*
Y1770741D01*
X4390100D01*
Y1768521D01*
D02*
G37*
G36*
X4385255Y1770752D02*
X4385349Y1770746D01*
X4385438Y1770729D01*
X4385521Y1770713D01*
X4385599Y1770691D01*
X4385671Y1770668D01*
X4385738Y1770641D01*
X4385799Y1770613D01*
X4385854Y1770585D01*
X4385899Y1770557D01*
X4385938Y1770535D01*
X4385971Y1770513D01*
X4385999Y1770496D01*
X4386015Y1770480D01*
X4386026Y1770474D01*
X4386032Y1770469D01*
X4386087Y1770413D01*
X4386137Y1770352D01*
X4386187Y1770285D01*
X4386226Y1770219D01*
X4386293Y1770086D01*
X4386337Y1769953D01*
X4386354Y1769891D01*
X4386370Y1769830D01*
X4386382Y1769780D01*
X4386393Y1769736D01*
X4386398Y1769697D01*
Y1769670D01*
X4386404Y1769653D01*
Y1769647D01*
X4385921Y1769597D01*
X4385910Y1769725D01*
X4385888Y1769836D01*
X4385854Y1769936D01*
X4385815Y1770014D01*
X4385782Y1770080D01*
X4385749Y1770125D01*
X4385727Y1770152D01*
X4385715Y1770163D01*
X4385632Y1770230D01*
X4385543Y1770280D01*
X4385449Y1770319D01*
X4385366Y1770341D01*
X4385288Y1770358D01*
X4385221Y1770363D01*
X4385199Y1770369D01*
X4385166D01*
X4385049Y1770363D01*
X4384944Y1770341D01*
X4384855Y1770308D01*
X4384777Y1770274D01*
X4384716Y1770236D01*
X4384678Y1770208D01*
X4384650Y1770186D01*
X4384639Y1770174D01*
X4384572Y1770097D01*
X4384522Y1770019D01*
X4384483Y1769941D01*
X4384461Y1769864D01*
X4384444Y1769803D01*
X4384439Y1769747D01*
X4384433Y1769714D01*
Y1769708D01*
Y1769703D01*
X4384444Y1769603D01*
X4384467Y1769497D01*
X4384505Y1769403D01*
X4384544Y1769314D01*
X4384589Y1769242D01*
X4384628Y1769181D01*
X4384639Y1769159D01*
X4384650Y1769142D01*
X4384661Y1769137D01*
Y1769131D01*
X4384705Y1769070D01*
X4384761Y1769009D01*
X4384822Y1768942D01*
X4384888Y1768876D01*
X4385027Y1768743D01*
X4385166Y1768609D01*
X4385238Y1768548D01*
X4385299Y1768493D01*
X4385360Y1768443D01*
X4385410Y1768398D01*
X4385449Y1768365D01*
X4385482Y1768337D01*
X4385505Y1768321D01*
X4385510Y1768315D01*
X4385649Y1768199D01*
X4385777Y1768088D01*
X4385882Y1767988D01*
X4385965Y1767905D01*
X4386037Y1767832D01*
X4386087Y1767782D01*
X4386115Y1767749D01*
X4386126Y1767744D01*
Y1767738D01*
X4386204Y1767644D01*
X4386265Y1767555D01*
X4386320Y1767466D01*
X4386365Y1767388D01*
X4386398Y1767322D01*
X4386420Y1767272D01*
X4386432Y1767239D01*
X4386437Y1767233D01*
Y1767227D01*
X4386459Y1767166D01*
X4386470Y1767111D01*
X4386481Y1767055D01*
X4386487Y1767005D01*
X4386493Y1766961D01*
Y1766928D01*
Y1766906D01*
Y1766900D01*
X4383945D01*
Y1767355D01*
X4385838D01*
X4385771Y1767450D01*
X4385738Y1767488D01*
X4385710Y1767527D01*
X4385682Y1767561D01*
X4385660Y1767583D01*
X4385643Y1767599D01*
X4385638Y1767605D01*
X4385610Y1767633D01*
X4385577Y1767660D01*
X4385499Y1767732D01*
X4385410Y1767816D01*
X4385316Y1767899D01*
X4385227Y1767971D01*
X4385188Y1768004D01*
X4385155Y1768038D01*
X4385127Y1768060D01*
X4385105Y1768077D01*
X4385094Y1768088D01*
X4385088Y1768093D01*
X4384999Y1768171D01*
X4384911Y1768243D01*
X4384833Y1768315D01*
X4384761Y1768376D01*
X4384694Y1768437D01*
X4384639Y1768493D01*
X4384583Y1768543D01*
X4384539Y1768587D01*
X4384494Y1768632D01*
X4384461Y1768665D01*
X4384433Y1768693D01*
X4384406Y1768720D01*
X4384378Y1768754D01*
X4384367Y1768765D01*
X4384289Y1768859D01*
X4384222Y1768942D01*
X4384167Y1769026D01*
X4384122Y1769092D01*
X4384089Y1769153D01*
X4384067Y1769198D01*
X4384056Y1769225D01*
X4384050Y1769237D01*
X4384017Y1769320D01*
X4383995Y1769403D01*
X4383973Y1769481D01*
X4383962Y1769547D01*
X4383956Y1769608D01*
X4383950Y1769653D01*
Y1769680D01*
Y1769692D01*
X4383956Y1769775D01*
X4383967Y1769853D01*
X4383978Y1769930D01*
X4384000Y1769997D01*
X4384056Y1770130D01*
X4384111Y1770236D01*
X4384145Y1770285D01*
X4384172Y1770324D01*
X4384200Y1770363D01*
X4384228Y1770391D01*
X4384250Y1770413D01*
X4384261Y1770435D01*
X4384272Y1770441D01*
X4384278Y1770446D01*
X4384339Y1770502D01*
X4384406Y1770552D01*
X4384478Y1770591D01*
X4384550Y1770624D01*
X4384694Y1770680D01*
X4384838Y1770718D01*
X4384900Y1770729D01*
X4384961Y1770741D01*
X4385016Y1770746D01*
X4385061Y1770752D01*
X4385099Y1770757D01*
X4385155D01*
X4385255Y1770752D01*
D02*
G37*
D35*
X4317500Y1890998D02*
Y1885000D01*
X4314501D01*
X4313501Y1886000D01*
Y1889998D01*
X4314501Y1890998D01*
X4317500D01*
X4307503D02*
X4309502Y1889998D01*
X4311502Y1887999D01*
Y1886000D01*
X4310502Y1885000D01*
X4308503D01*
X4307503Y1886000D01*
Y1886999D01*
X4308503Y1887999D01*
X4311502D01*
X4422500Y1967500D02*
Y1973498D01*
X4419501D01*
X4418501Y1972498D01*
Y1970499D01*
X4419501Y1969499D01*
X4422500D01*
X4420501D02*
X4418501Y1967500D01*
X4416502Y1972498D02*
X4415502Y1973498D01*
X4413503D01*
X4412503Y1972498D01*
Y1971499D01*
X4413503Y1970499D01*
X4412503Y1969499D01*
Y1968500D01*
X4413503Y1967500D01*
X4415502D01*
X4416502Y1968500D01*
Y1969499D01*
X4415502Y1970499D01*
X4416502Y1971499D01*
Y1972498D01*
X4415502Y1970499D02*
X4413503D01*
X4440501Y1972498D02*
X4441501Y1973498D01*
X4443500D01*
X4444500Y1972498D01*
Y1968500D01*
X4443500Y1967500D01*
X4441501D01*
X4440501Y1968500D01*
X4434503Y1973498D02*
X4436502Y1972498D01*
X4438502Y1970499D01*
Y1968500D01*
X4437502Y1967500D01*
X4435503D01*
X4434503Y1968500D01*
Y1969499D01*
X4435503Y1970499D01*
X4438502D01*
X4440500Y1845000D02*
Y1850998D01*
X4437501D01*
X4436501Y1849998D01*
Y1847999D01*
X4437501Y1846999D01*
X4440500D01*
X4438501D02*
X4436501Y1845000D01*
X4434502Y1846000D02*
X4433502Y1845000D01*
X4431503D01*
X4430503Y1846000D01*
Y1849998D01*
X4431503Y1850998D01*
X4433502D01*
X4434502Y1849998D01*
Y1848999D01*
X4433502Y1847999D01*
X4430503D01*
X4296700Y1904500D02*
Y1910498D01*
X4293701D01*
X4292701Y1909498D01*
Y1907499D01*
X4293701Y1906499D01*
X4296700D01*
X4294701D02*
X4292701Y1904500D01*
X4290702Y1910498D02*
X4286703D01*
Y1909498D01*
X4290702Y1905500D01*
Y1904500D01*
X4264000Y1917700D02*
Y1923698D01*
X4261001D01*
X4260001Y1922698D01*
Y1920699D01*
X4261001Y1919699D01*
X4264000D01*
X4262001D02*
X4260001Y1917700D01*
X4254003Y1923698D02*
X4256002Y1922698D01*
X4258002Y1920699D01*
Y1918700D01*
X4257002Y1917700D01*
X4255003D01*
X4254003Y1918700D01*
Y1919699D01*
X4255003Y1920699D01*
X4258002D01*
X4280500Y1925700D02*
Y1931698D01*
X4277501D01*
X4276501Y1930698D01*
Y1928699D01*
X4277501Y1927699D01*
X4280500D01*
X4278501D02*
X4276501Y1925700D01*
X4270503Y1931698D02*
X4274502D01*
Y1928699D01*
X4272503Y1929699D01*
X4271503D01*
X4270503Y1928699D01*
Y1926700D01*
X4271503Y1925700D01*
X4273502D01*
X4274502Y1926700D01*
X4303500Y1963500D02*
Y1969498D01*
X4300501D01*
X4299501Y1968498D01*
Y1966499D01*
X4300501Y1965499D01*
X4303500D01*
X4301501D02*
X4299501Y1963500D01*
X4294503D02*
Y1969498D01*
X4297502Y1966499D01*
X4293503D01*
X4272000Y1962500D02*
Y1968498D01*
X4269001D01*
X4268001Y1967498D01*
Y1965499D01*
X4269001Y1964499D01*
X4272000D01*
X4270001D02*
X4268001Y1962500D01*
X4266002Y1967498D02*
X4265002Y1968498D01*
X4263003D01*
X4262003Y1967498D01*
Y1966499D01*
X4263003Y1965499D01*
X4264003D01*
X4263003D01*
X4262003Y1964499D01*
Y1963500D01*
X4263003Y1962500D01*
X4265002D01*
X4266002Y1963500D01*
X4193500Y1893000D02*
Y1898998D01*
X4190501D01*
X4189501Y1897998D01*
Y1895999D01*
X4190501Y1894999D01*
X4193500D01*
X4191501D02*
X4189501Y1893000D01*
X4183503D02*
X4187502D01*
X4183503Y1896999D01*
Y1897998D01*
X4184503Y1898998D01*
X4186502D01*
X4187502Y1897998D01*
X4210500Y1958500D02*
Y1964498D01*
X4207501D01*
X4206501Y1963498D01*
Y1961499D01*
X4207501Y1960499D01*
X4210500D01*
X4208501D02*
X4206501Y1958500D01*
X4204502D02*
X4202502D01*
X4203502D01*
Y1964498D01*
X4204502Y1963498D01*
X4434500Y1930498D02*
Y1924500D01*
X4431501D01*
X4430501Y1925500D01*
Y1929498D01*
X4431501Y1930498D01*
X4434500D01*
X4428502D02*
X4424503D01*
Y1929498D01*
X4428502Y1925500D01*
Y1924500D01*
X4271001Y1894498D02*
X4272001Y1895498D01*
X4274000D01*
X4275000Y1894498D01*
Y1890500D01*
X4274000Y1889500D01*
X4272001D01*
X4271001Y1890500D01*
X4265003Y1895498D02*
X4269002D01*
Y1892499D01*
X4267002Y1893499D01*
X4266003D01*
X4265003Y1892499D01*
Y1890500D01*
X4266003Y1889500D01*
X4268002D01*
X4269002Y1890500D01*
X4271501Y1903998D02*
X4272501Y1904998D01*
X4274500D01*
X4275500Y1903998D01*
Y1900000D01*
X4274500Y1899000D01*
X4272501D01*
X4271501Y1900000D01*
X4266503Y1899000D02*
Y1904998D01*
X4269502Y1901999D01*
X4265503D01*
X4282001Y1967498D02*
X4283001Y1968498D01*
X4285000D01*
X4286000Y1967498D01*
Y1963500D01*
X4285000Y1962500D01*
X4283001D01*
X4282001Y1963500D01*
X4280002Y1967498D02*
X4279002Y1968498D01*
X4277003D01*
X4276003Y1967498D01*
Y1966499D01*
X4277003Y1965499D01*
X4278003D01*
X4277003D01*
X4276003Y1964499D01*
Y1963500D01*
X4277003Y1962500D01*
X4279002D01*
X4280002Y1963500D01*
D36*
X4381516Y1750898D02*
X4383484D01*
X4381516Y1763102D02*
X4383484D01*
X4381516Y1750898D02*
Y1763102D01*
X4383484Y1750898D02*
Y1763102D01*
D60*
X4378268Y1749815D02*
G03*
X4378268Y1749815I-492J0D01*
G01*
D61*
X4423500Y1934000D02*
Y1958000D01*
X4416000Y1955500D02*
Y1958000D01*
X4444000D01*
Y1955500D02*
Y1958000D01*
Y1934000D02*
Y1936500D01*
X4416000Y1934000D02*
X4444000D01*
X4416000D02*
Y1936500D01*
M02*
