%FSLAX25Y25*%
%MOIN*%
G70*
G01*
G75*
G04 Layer_Physical_Order=1*
G04 Layer_Color=255*
%ADD10C,0.02500*%
%ADD11C,0.04724*%
%ADD12C,0.20000*%
%ADD13C,0.07874*%
%ADD14C,0.05906*%
%ADD15R,0.05906X0.05906*%
%ADD16R,0.05906X0.05906*%
%ADD17R,0.07874X0.07874*%
%ADD18R,0.05000X0.05000*%
%ADD19C,0.05000*%
%ADD20R,0.07874X0.07874*%
%ADD21C,0.05512*%
%ADD22C,0.02500*%
D10*
X4268236Y1738000D02*
X4387000D01*
X4245736Y1760500D02*
X4268236Y1738000D01*
X4293764Y1742000D02*
X4390500D01*
X4275264Y1760500D02*
X4293764Y1742000D01*
X4390500D02*
X4438890Y1790390D01*
X4408890Y1781390D02*
Y1813500D01*
X4384500Y1757000D02*
X4408890Y1781390D01*
X4368000Y1757000D02*
X4384500D01*
X4349004Y1760740D02*
X4371000D01*
X4399000Y1757000D02*
X4429000Y1787000D01*
Y1813500D01*
X4419000Y1784500D02*
Y1813500D01*
X4387760Y1753260D02*
X4419000Y1784500D01*
X4371000Y1753260D02*
X4387760D01*
X4319236Y1760500D02*
X4337618Y1742118D01*
X4438890Y1790390D02*
Y1813500D01*
D11*
X4438890Y1902500D02*
D03*
X4425110D02*
D03*
Y1867000D02*
D03*
X4438890D02*
D03*
D12*
X4460000Y1978500D02*
D03*
X4126500D02*
D03*
Y1747500D02*
D03*
X4460000D02*
D03*
D13*
X4280000Y1825000D02*
D03*
X4280500Y1838500D02*
D03*
X4353000Y1825000D02*
D03*
X4353500Y1838500D02*
D03*
Y1812500D02*
D03*
X4280185Y1812185D02*
D03*
X4218500Y1811500D02*
D03*
X4219000Y1838500D02*
D03*
X4218500Y1825000D02*
D03*
X4280185Y1785106D02*
D03*
X4240815D02*
D03*
X4314315D02*
D03*
X4353685D02*
D03*
X4179591Y1839000D02*
D03*
X4196590Y1855000D02*
D03*
X4155000Y1867909D02*
D03*
X4138000D02*
D03*
D14*
X4408890Y1813500D02*
D03*
X4418890D02*
D03*
X4428890D02*
D03*
X4275264Y1760500D02*
D03*
X4245736D02*
D03*
X4319236D02*
D03*
X4348764D02*
D03*
X4320500Y1912000D02*
D03*
X4143040Y1953460D02*
D03*
X4156960Y1939540D02*
D03*
X4201185Y1953000D02*
D03*
X4181500D02*
D03*
X4202185Y1914000D02*
D03*
X4182500D02*
D03*
X4236500Y1955343D02*
D03*
Y1935657D02*
D03*
X4399524Y1924303D02*
D03*
Y1949500D02*
D03*
X4338500Y1899106D02*
D03*
Y1911705D02*
D03*
Y1924303D02*
D03*
Y1936902D02*
D03*
Y1949500D02*
D03*
D15*
X4438890Y1813500D02*
D03*
D16*
X4320500Y1958000D02*
D03*
D17*
X4138409Y1839000D02*
D03*
X4155409Y1855000D02*
D03*
D18*
X4271500Y1912500D02*
D03*
D19*
X4281500D02*
D03*
X4301500D02*
D03*
X4271500Y1942500D02*
D03*
X4281500D02*
D03*
X4291500D02*
D03*
X4301500D02*
D03*
D20*
X4155000Y1909091D02*
D03*
X4138000D02*
D03*
D21*
X4138500Y1811500D02*
D03*
X4188500D02*
D03*
D22*
X4387000Y1738000D02*
D03*
X4371000Y1760740D02*
D03*
X4399000Y1757000D02*
D03*
X4395240Y1760740D02*
D03*
X4371000Y1753260D02*
D03*
X4368000Y1757000D02*
D03*
M02*
