%FSLAX25Y25*%
%MOIN*%
G70*
G01*
G75*
%ADD10C,0.01969*%
%ADD11R,0.04134X0.08661*%
%ADD12R,0.03937X0.04134*%
%ADD13R,0.05118X0.08071*%
%ADD14R,0.04724X0.02756*%
%ADD15R,0.04724X0.04724*%
%ADD16R,0.02756X0.04724*%
%ADD17R,0.09449X0.07480*%
%ADD18R,0.02362X0.01969*%
%ADD19R,0.01969X0.02362*%
%ADD20C,0.01000*%
%ADD21C,0.02200*%
%ADD22R,0.07874X0.07874*%
D11*
X279331Y375394D02*
D03*
X295079D02*
D03*
D12*
X287205Y369390D02*
D03*
D13*
X370177Y375689D02*
D03*
X343012D02*
D03*
D14*
X301000Y327717D02*
D03*
Y322992D02*
D03*
Y318268D02*
D03*
Y313543D02*
D03*
Y308819D02*
D03*
Y304094D02*
D03*
Y299370D02*
D03*
Y294646D02*
D03*
Y289921D02*
D03*
Y285197D02*
D03*
X347063D02*
D03*
Y289921D02*
D03*
Y294646D02*
D03*
Y299370D02*
D03*
Y304095D02*
D03*
Y308819D02*
D03*
Y313543D02*
D03*
Y318268D02*
D03*
Y322992D02*
D03*
Y327717D02*
D03*
D15*
X301000Y277913D02*
D03*
X347063D02*
D03*
Y335000D02*
D03*
X301000D02*
D03*
D16*
X307496Y277913D02*
D03*
X312220D02*
D03*
X316945D02*
D03*
X321669D02*
D03*
X326394D02*
D03*
X331118D02*
D03*
X335843D02*
D03*
X340567D02*
D03*
X307496Y335000D02*
D03*
X312220D02*
D03*
X316945D02*
D03*
X321669D02*
D03*
X326394D02*
D03*
X331118D02*
D03*
X335843D02*
D03*
X340567D02*
D03*
D17*
X315567Y320630D02*
D03*
X332496D02*
D03*
Y306457D02*
D03*
X315567D02*
D03*
X332496Y292283D02*
D03*
X315567D02*
D03*
D18*
X321555Y373622D02*
D03*
Y369685D02*
D03*
X334449Y373622D02*
D03*
Y369685D02*
D03*
X312205Y364173D02*
D03*
Y360236D02*
D03*
D19*
X326083Y373622D02*
D03*
X330020D02*
D03*
X355020Y284941D02*
D03*
X358957D02*
D03*
X355020Y303937D02*
D03*
X358957D02*
D03*
X312205Y360236D02*
D03*
X308268D02*
D03*
M02*
