%FSLAX25Y25*%
%MOIN*%
G70*
G01*
G75*
%ADD10C,0.01969*%
%ADD11R,0.04134X0.08661*%
%ADD12R,0.03937X0.04134*%
%ADD13R,0.05118X0.08071*%
%ADD14R,0.04724X0.02756*%
%ADD15R,0.04724X0.04724*%
%ADD16R,0.02756X0.04724*%
%ADD17R,0.09449X0.07480*%
%ADD18R,0.02362X0.01969*%
%ADD19R,0.01969X0.02362*%
%ADD20C,0.01000*%
%ADD21C,0.02200*%
%ADD22R,0.07874X0.07874*%
%ADD23C,0.00394*%
D20*
X294701Y327716D02*
G03*
X294701Y327716I-1134J0D01*
G01*
X279429Y381398D02*
Y383366D01*
X294587D01*
Y381398D02*
Y383366D01*
X279429Y365453D02*
Y368307D01*
Y365453D02*
X295079D01*
Y368406D01*
X351492Y273484D02*
Y339429D01*
X296571Y273484D02*
X351492D01*
X296571Y339429D02*
X351492D01*
X296571Y273484D02*
Y339429D01*
D23*
X300394Y373917D02*
Y375885D01*
X301378D01*
X301706Y375557D01*
Y374901D01*
X301378Y374573D01*
X300394D01*
X303674Y375885D02*
X303017Y375557D01*
X302362Y374901D01*
Y374245D01*
X302690Y373917D01*
X303345D01*
X303674Y374245D01*
Y374573D01*
X303345Y374901D01*
X302362D01*
X352362Y367126D02*
Y368438D01*
X353018Y369094D01*
X353674Y368438D01*
Y367126D01*
Y368110D01*
X352362D01*
X354330Y367126D02*
Y369094D01*
X355642Y367126D01*
Y369094D01*
X356298D02*
X357610D01*
X356954D01*
Y367126D01*
X358266D02*
X358922D01*
X358594D01*
Y369094D01*
X358266Y368766D01*
X340650Y344389D02*
Y342749D01*
X340978Y342421D01*
X341634D01*
X341962Y342749D01*
Y344389D01*
X343929Y342421D02*
X342618D01*
X343929Y343733D01*
Y344061D01*
X343601Y344389D01*
X342945D01*
X342618Y344061D01*
X322834Y366929D02*
X320866D01*
Y365617D01*
Y363649D02*
Y364961D01*
X322178Y363649D01*
X322506D01*
X322834Y363977D01*
Y364633D01*
X322506Y364961D01*
X335432Y367028D02*
X333465D01*
Y365716D01*
Y365060D02*
Y364404D01*
Y364732D01*
X335432D01*
X335104Y365060D01*
X326903Y369061D02*
X326574Y369389D01*
X325919D01*
X325591Y369061D01*
Y367749D01*
X325919Y367421D01*
X326574D01*
X326903Y367749D01*
X327558Y367421D02*
X328214D01*
X327886D01*
Y369389D01*
X327558Y369061D01*
X330182Y367421D02*
Y369389D01*
X329198Y368405D01*
X330510D01*
X356135Y281463D02*
X355807Y281791D01*
X355151D01*
X354823Y281463D01*
Y280151D01*
X355151Y279823D01*
X355807D01*
X356135Y280151D01*
X356791Y279823D02*
X357447D01*
X357119D01*
Y281791D01*
X356791Y281463D01*
X358431D02*
X358759Y281791D01*
X359415D01*
X359742Y281463D01*
Y281135D01*
X359415Y280807D01*
X359742Y280479D01*
Y280151D01*
X359415Y279823D01*
X358759D01*
X358431Y280151D01*
Y280479D01*
X358759Y280807D01*
X358431Y281135D01*
Y281463D01*
X358759Y280807D02*
X359415D01*
X355938Y300754D02*
X355610Y301082D01*
X354954D01*
X354626Y300754D01*
Y299442D01*
X354954Y299114D01*
X355610D01*
X355938Y299442D01*
X356594Y299114D02*
X357250D01*
X356922D01*
Y301082D01*
X356594Y300754D01*
X358234Y301082D02*
X359546D01*
Y300754D01*
X358234Y299442D01*
Y299114D01*
X317191Y362960D02*
X317519Y363288D01*
Y363944D01*
X317191Y364272D01*
X315879D01*
X315551Y363944D01*
Y363288D01*
X315879Y362960D01*
X315551Y362304D02*
Y361648D01*
Y361976D01*
X317519D01*
X317191Y362304D01*
X317519Y359352D02*
Y360664D01*
X316535D01*
X316863Y360008D01*
Y359680D01*
X316535Y359352D01*
X315879D01*
X315551Y359680D01*
Y360336D01*
X315879Y360664D01*
X309284Y356758D02*
X308956Y357086D01*
X308300D01*
X307972Y356758D01*
Y355446D01*
X308300Y355118D01*
X308956D01*
X309284Y355446D01*
X309940Y355118D02*
X310596D01*
X310268D01*
Y357086D01*
X309940Y356758D01*
X312892Y357086D02*
X312236Y356758D01*
X311580Y356102D01*
Y355446D01*
X311908Y355118D01*
X312564D01*
X312892Y355446D01*
Y355774D01*
X312564Y356102D01*
X311580D01*
M02*
