%FSLAX25Y25*%
%MOIN*%
G70*
G01*
G75*
G04 Layer_Physical_Order=1*
G04 Layer_Color=255*
%ADD10C,0.01969*%
%ADD11R,0.04134X0.08661*%
%ADD12R,0.03937X0.04134*%
%ADD13R,0.05118X0.08071*%
%ADD14R,0.04724X0.02756*%
%ADD15R,0.04724X0.04724*%
%ADD16R,0.02756X0.04724*%
%ADD17R,0.09449X0.07480*%
%ADD18R,0.02362X0.01969*%
%ADD19R,0.01969X0.02362*%
%ADD20C,0.01000*%
%ADD21C,0.02200*%
G36*
X337697Y375645D02*
X332004D01*
Y375803D01*
X324098D01*
Y375645D01*
X321555D01*
X321555Y375645D01*
X317618D01*
X317588Y375639D01*
X316167Y375499D01*
X314772Y375076D01*
X313486Y374389D01*
X312358Y373464D01*
X311434Y372336D01*
X310746Y371050D01*
X310323Y369655D01*
X310183Y368234D01*
X310177Y368204D01*
Y366158D01*
X310024D01*
Y362417D01*
X306284D01*
Y362259D01*
X293169D01*
X293169Y362259D01*
D01*
Y362259D01*
D01*
D01*
Y362259D01*
D01*
D01*
X293169D01*
X293169D01*
X293169D01*
D01*
D01*
Y362259D01*
X293169Y362259D01*
X293169D01*
Y362259D01*
D01*
X293100Y362246D01*
X292143Y362372D01*
X291187Y362768D01*
X290366Y363398D01*
X289736Y364219D01*
X289340Y365175D01*
X289239Y365947D01*
X289568Y366323D01*
X290173D01*
Y372457D01*
X284236D01*
Y366323D01*
X284571D01*
X285182Y366201D01*
X285182Y366201D01*
X285182Y366201D01*
X285182Y366197D01*
X285335Y364643D01*
X285790Y363144D01*
X286528Y361763D01*
X287521Y360553D01*
X288732Y359560D01*
X290113Y358822D01*
X291611Y358367D01*
X293165Y358214D01*
X293169Y358213D01*
X306284D01*
Y358055D01*
X310197D01*
Y338362D01*
X307996D01*
Y335000D01*
Y331638D01*
X316445D01*
Y335000D01*
Y338362D01*
X314244D01*
Y358252D01*
X314386D01*
Y362189D01*
Y366158D01*
X314223D01*
Y368204D01*
X314212Y368259D01*
X314321Y369087D01*
X314662Y369911D01*
X315205Y370617D01*
X315912Y371160D01*
X316735Y371501D01*
X317564Y371610D01*
X317618Y371599D01*
X319374D01*
Y370185D01*
X323736D01*
Y371441D01*
X324098D01*
Y371441D01*
X332004D01*
D01*
X332004D01*
X332268Y371177D01*
Y370185D01*
X336630D01*
Y371599D01*
X337697D01*
Y358563D01*
X374902D01*
Y256594D01*
X273721D01*
Y384842D01*
X337697D01*
Y375645D01*
D02*
G37*
%LPC*%
G36*
X331996Y297024D02*
X326772D01*
Y292783D01*
X331996D01*
Y297024D01*
D02*
G37*
G36*
X321291D02*
X316067D01*
Y292783D01*
X321291D01*
Y297024D01*
D02*
G37*
G36*
X350425Y313043D02*
X343701D01*
Y311165D01*
Y306441D01*
Y301717D01*
Y299870D01*
X350425D01*
Y301717D01*
Y301977D01*
X352996D01*
Y287052D01*
X350780Y287041D01*
X350425Y287394D01*
Y287543D01*
Y289421D01*
X343701D01*
Y287543D01*
Y282819D01*
X350425D01*
Y282993D01*
X352789Y283005D01*
X353035Y282760D01*
Y282760D01*
X358457D01*
Y284941D01*
Y287122D01*
X357043D01*
Y293252D01*
X359840D01*
X360433Y293134D01*
X361252Y293297D01*
X361947Y293762D01*
X362411Y294456D01*
X362574Y295276D01*
X362411Y296095D01*
X361947Y296790D01*
X361252Y297254D01*
X360433Y297417D01*
X359840Y297299D01*
X357043D01*
Y301756D01*
X358457D01*
Y303937D01*
Y306118D01*
X353035D01*
Y306023D01*
X350425D01*
Y306441D01*
Y307290D01*
X354685D01*
X355270Y307406D01*
X355714Y307702D01*
X356528Y307864D01*
X357223Y308329D01*
X357687Y309023D01*
X357850Y309842D01*
X357687Y310662D01*
X357223Y311356D01*
X356528Y311821D01*
X355709Y311984D01*
X354889Y311821D01*
X354195Y311356D01*
X353731Y310662D01*
X353668Y310348D01*
X350425D01*
Y311165D01*
Y313043D01*
D02*
G37*
G36*
X338220Y297024D02*
X332996D01*
Y292783D01*
X338220D01*
Y297024D01*
D02*
G37*
G36*
X315067D02*
X309843D01*
Y292783D01*
X315067D01*
Y297024D01*
D02*
G37*
G36*
X338220Y291783D02*
X332996D01*
Y287543D01*
X338220D01*
Y291783D01*
D02*
G37*
G36*
X331996D02*
X326772D01*
Y287543D01*
X331996D01*
Y291783D01*
D02*
G37*
G36*
X321291D02*
X316067D01*
Y287543D01*
X321291D01*
Y291783D01*
D02*
G37*
G36*
X350425Y294146D02*
X343701D01*
Y292268D01*
Y290421D01*
X350425D01*
Y292268D01*
Y294146D01*
D02*
G37*
G36*
Y298870D02*
X343701D01*
Y296992D01*
Y295146D01*
X350425D01*
Y296992D01*
Y298870D01*
D02*
G37*
G36*
X315067Y311197D02*
X309843D01*
Y306957D01*
X315067D01*
Y311197D01*
D02*
G37*
G36*
X360941Y306118D02*
X359457D01*
Y304437D01*
X360941D01*
Y306118D01*
D02*
G37*
G36*
X331996Y311197D02*
X326772D01*
Y306957D01*
X331996D01*
Y311197D01*
D02*
G37*
G36*
X321291D02*
X316067D01*
Y306957D01*
X321291D01*
Y311197D01*
D02*
G37*
G36*
X360941Y303437D02*
X359457D01*
Y301756D01*
X360941D01*
Y303437D01*
D02*
G37*
G36*
X321291Y305957D02*
X316067D01*
Y301716D01*
X321291D01*
Y305957D01*
D02*
G37*
G36*
X315067D02*
X309843D01*
Y301716D01*
X315067D01*
Y305957D01*
D02*
G37*
G36*
X338220D02*
X332996D01*
Y301716D01*
X338220D01*
Y305957D01*
D02*
G37*
G36*
X331996D02*
X326772D01*
Y301716D01*
X331996D01*
Y305957D01*
D02*
G37*
G36*
X315067Y291783D02*
X309843D01*
Y287543D01*
X315067D01*
Y291783D01*
D02*
G37*
G36*
X346563Y277413D02*
X343701D01*
Y274551D01*
X346563D01*
Y277413D01*
D02*
G37*
G36*
X342945D02*
X341067D01*
Y274551D01*
X342945D01*
Y277413D01*
D02*
G37*
G36*
X300500Y281276D02*
X297638D01*
Y278413D01*
X300500D01*
Y281276D01*
D02*
G37*
G36*
X350425Y277413D02*
X347563D01*
Y274551D01*
X350425D01*
Y277413D01*
D02*
G37*
G36*
X306996D02*
X305118D01*
Y274551D01*
X306996D01*
Y277413D01*
D02*
G37*
G36*
X340067Y281276D02*
X331618D01*
Y277913D01*
Y274551D01*
X334494D01*
Y272849D01*
X334046Y272178D01*
X333882Y271358D01*
X334046Y270539D01*
X334510Y269844D01*
X335204Y269380D01*
X336024Y269217D01*
X336843Y269380D01*
X337538Y269844D01*
X338002Y270539D01*
X338165Y271358D01*
X338002Y272178D01*
X337553Y272849D01*
Y274551D01*
X340067D01*
Y277913D01*
Y281276D01*
D02*
G37*
G36*
X330618D02*
X307996D01*
Y277913D01*
Y274551D01*
X310691D01*
Y272849D01*
X310242Y272178D01*
X310079Y271358D01*
X310242Y270539D01*
X310706Y269844D01*
X311401Y269380D01*
X312220Y269217D01*
X313040Y269380D01*
X313734Y269844D01*
X314199Y270539D01*
X314333Y271213D01*
X314833D01*
X314967Y270539D01*
X315431Y269844D01*
X316125Y269380D01*
X316945Y269217D01*
X317764Y269380D01*
X318459Y269844D01*
X318923Y270539D01*
X318993Y270890D01*
X319493D01*
X319563Y270539D01*
X320027Y269844D01*
X320722Y269380D01*
X321541Y269217D01*
X322360Y269380D01*
X323055Y269844D01*
X323519Y270539D01*
X323682Y271358D01*
X323519Y272178D01*
X323070Y272849D01*
Y274551D01*
X324864D01*
Y272578D01*
X324597Y272178D01*
X324434Y271358D01*
X324597Y270539D01*
X325061Y269844D01*
X325755Y269380D01*
X326575Y269217D01*
X327394Y269380D01*
X328089Y269844D01*
X328553Y270539D01*
X328716Y271358D01*
X328553Y272178D01*
X328089Y272872D01*
X327923Y272983D01*
Y274551D01*
X330618D01*
Y277913D01*
Y281276D01*
D02*
G37*
G36*
X304362Y277413D02*
X301500D01*
Y274551D01*
X304362D01*
Y277413D01*
D02*
G37*
G36*
X300500D02*
X297638D01*
Y274551D01*
X300500D01*
Y277413D01*
D02*
G37*
G36*
X304362Y281276D02*
X301500D01*
Y278413D01*
X304362D01*
Y281276D01*
D02*
G37*
G36*
Y284697D02*
X301500D01*
Y282819D01*
X304362D01*
Y284697D01*
D02*
G37*
G36*
X300500D02*
X297638D01*
Y282819D01*
X300500D01*
Y284697D01*
D02*
G37*
G36*
X304362Y289421D02*
X297638D01*
Y287543D01*
Y285697D01*
X304362D01*
Y287543D01*
Y289421D01*
D02*
G37*
G36*
X360941Y287122D02*
X359457D01*
Y285441D01*
X360941D01*
Y287122D01*
D02*
G37*
G36*
Y284441D02*
X359457D01*
Y282760D01*
X360941D01*
Y284441D01*
D02*
G37*
G36*
X342945Y281276D02*
X341067D01*
Y278413D01*
X342945D01*
Y281276D01*
D02*
G37*
G36*
X306996D02*
X305118D01*
Y278413D01*
X306996D01*
Y281276D01*
D02*
G37*
G36*
X350425D02*
X347563D01*
Y278413D01*
X350425D01*
Y281276D01*
D02*
G37*
G36*
X346563D02*
X343701D01*
Y278413D01*
X346563D01*
Y281276D01*
D02*
G37*
G36*
X350425Y338362D02*
X347563D01*
Y335500D01*
X350425D01*
Y338362D01*
D02*
G37*
G36*
X346563D02*
X343701D01*
Y335500D01*
X346563D01*
Y338362D01*
D02*
G37*
G36*
X323736Y369185D02*
X322055D01*
Y367701D01*
X323736D01*
Y369185D01*
D02*
G37*
G36*
X321055D02*
X319374D01*
Y367701D01*
X321055D01*
Y369185D01*
D02*
G37*
G36*
X306996Y338362D02*
X305118D01*
Y335500D01*
X306996D01*
Y338362D01*
D02*
G37*
G36*
X350425Y334500D02*
X347563D01*
Y331638D01*
X350425D01*
Y334500D01*
D02*
G37*
G36*
X346563D02*
X343701D01*
Y331638D01*
X346563D01*
Y334500D01*
D02*
G37*
G36*
X304362Y338362D02*
X301500D01*
Y335500D01*
X304362D01*
Y338362D01*
D02*
G37*
G36*
X300500D02*
X297638D01*
Y335500D01*
X300500D01*
Y338362D01*
D02*
G37*
G36*
X333949Y369185D02*
X332268D01*
Y367701D01*
X333949D01*
Y369185D01*
D02*
G37*
G36*
X282398Y380725D02*
X279831D01*
Y375894D01*
X282398D01*
Y380725D01*
D02*
G37*
G36*
X278831D02*
X276264D01*
Y375894D01*
X278831D01*
Y380725D01*
D02*
G37*
G36*
X298146D02*
X295579D01*
Y375894D01*
X298146D01*
Y380725D01*
D02*
G37*
G36*
X294579D02*
X292012D01*
Y375894D01*
X294579D01*
Y380725D01*
D02*
G37*
G36*
X298146Y374894D02*
X295579D01*
Y370063D01*
X298146D01*
Y374894D01*
D02*
G37*
G36*
X278831D02*
X276264D01*
Y370063D01*
X278831D01*
Y374894D01*
D02*
G37*
G36*
X336630Y369185D02*
X334949D01*
Y367701D01*
X336630D01*
Y369185D01*
D02*
G37*
G36*
X294579Y374894D02*
X292012D01*
Y370063D01*
X294579D01*
Y374894D01*
D02*
G37*
G36*
X282398D02*
X279831D01*
Y370063D01*
X282398D01*
Y374894D01*
D02*
G37*
G36*
X342945Y338362D02*
X331618D01*
Y335000D01*
Y331638D01*
X342945D01*
Y338362D01*
D02*
G37*
G36*
X315067Y325370D02*
X309843D01*
Y321130D01*
X315067D01*
Y325370D01*
D02*
G37*
G36*
X350425Y330095D02*
X343701D01*
Y325339D01*
Y320614D01*
Y315890D01*
Y314043D01*
X350425D01*
Y315890D01*
Y316679D01*
X353135D01*
X353807Y316231D01*
X354626Y316068D01*
X355445Y316231D01*
X356140Y316695D01*
X356604Y317389D01*
X356767Y318209D01*
X356604Y319028D01*
X356140Y319723D01*
X355445Y320187D01*
X354626Y320350D01*
X353807Y320187D01*
X353135Y319738D01*
X350425D01*
Y320614D01*
Y325339D01*
Y330095D01*
D02*
G37*
G36*
X331996Y325370D02*
X326772D01*
Y321130D01*
X331996D01*
Y325370D01*
D02*
G37*
G36*
X321291D02*
X316067D01*
Y321130D01*
X321291D01*
Y325370D01*
D02*
G37*
G36*
X338220Y320130D02*
X332996D01*
Y315890D01*
X338220D01*
Y320130D01*
D02*
G37*
G36*
X315067D02*
X309843D01*
Y315890D01*
X315067D01*
Y320130D01*
D02*
G37*
G36*
X338220Y311197D02*
X332996D01*
Y306957D01*
X338220D01*
Y311197D01*
D02*
G37*
G36*
X331996Y320130D02*
X326772D01*
Y315890D01*
X331996D01*
Y320130D01*
D02*
G37*
G36*
X321291D02*
X316067D01*
Y315890D01*
X321291D01*
Y320130D01*
D02*
G37*
G36*
X338220Y325370D02*
X332996D01*
Y321130D01*
X338220D01*
Y325370D01*
D02*
G37*
G36*
X321169Y338362D02*
X317445D01*
Y335000D01*
Y331638D01*
X321169D01*
Y335000D01*
Y338362D01*
D02*
G37*
G36*
X306996Y334500D02*
X305118D01*
Y331638D01*
X306996D01*
Y334500D01*
D02*
G37*
G36*
X330618Y338362D02*
X326894D01*
Y335000D01*
Y331638D01*
X330618D01*
Y335000D01*
Y338362D01*
D02*
G37*
G36*
X325894D02*
X322169D01*
Y335000D01*
Y331638D01*
X325894D01*
Y335000D01*
Y338362D01*
D02*
G37*
G36*
X304362Y334500D02*
X301500D01*
Y331638D01*
X304362D01*
Y334500D01*
D02*
G37*
G36*
X300500Y330095D02*
X297638D01*
Y328217D01*
X300500D01*
Y330095D01*
D02*
G37*
G36*
X304362Y327217D02*
X297638D01*
Y325339D01*
Y324659D01*
X295192D01*
X294520Y325108D01*
X293701Y325271D01*
X292881Y325108D01*
X292187Y324644D01*
X291723Y323949D01*
X291560Y323130D01*
X291723Y322310D01*
X292187Y321616D01*
X292881Y321152D01*
X293701Y320989D01*
X294520Y321152D01*
X295192Y321601D01*
X297638D01*
Y320614D01*
Y315890D01*
Y314915D01*
X295192D01*
X294520Y315364D01*
X293701Y315527D01*
X292881Y315364D01*
X292187Y314900D01*
X291723Y314205D01*
X291560Y313386D01*
X291723Y312566D01*
X292187Y311872D01*
X292881Y311408D01*
X293701Y311245D01*
X294520Y311408D01*
X295192Y311856D01*
X297638D01*
Y311165D01*
Y310348D01*
X296811D01*
X296226Y310232D01*
X295730Y309900D01*
X293800Y307971D01*
X293469Y307475D01*
X293353Y306890D01*
Y301575D01*
X293469Y300990D01*
X293800Y300493D01*
X296005Y298289D01*
X296005D01*
X296005Y298288D01*
X296005D01*
X296005Y298288D01*
Y298288D01*
X296005Y298288D01*
Y298288D01*
X296501Y297957D01*
X297087Y297841D01*
X297638D01*
Y296992D01*
Y292268D01*
Y290421D01*
X304362D01*
Y292268D01*
Y296992D01*
Y301716D01*
Y306441D01*
Y311165D01*
Y315890D01*
Y320614D01*
Y325339D01*
Y327217D01*
D02*
G37*
G36*
X300500Y334500D02*
X297638D01*
Y331638D01*
X300500D01*
Y334500D01*
D02*
G37*
G36*
X304362Y330095D02*
X301500D01*
Y328217D01*
X304362D01*
Y330095D01*
D02*
G37*
%LPD*%
D10*
X317618Y373622D02*
G03*
X312200Y368204I0J-5418D01*
G01*
X287205Y366201D02*
G03*
X293169Y360236I5965J0D01*
G01*
X287205Y366201D02*
G03*
X293169Y360236I5965J0D01*
G01*
X347260Y285000D02*
X355020D01*
Y303937D01*
X355118Y295276D02*
X360433D01*
X347157Y304000D02*
X355020D01*
X321555Y373622D02*
X326083D01*
X317618Y373622D02*
X321555D01*
X293169Y360236D02*
X308268D01*
X312220Y335000D02*
Y360315D01*
X312200Y364173D02*
Y368204D01*
X347063Y322992D02*
Y327717D01*
X335843Y335000D02*
X340567D01*
X287205Y366201D02*
Y369390D01*
X334449Y373622D02*
X343012D01*
X330020D02*
X334449D01*
D11*
X279331Y375394D02*
D03*
X295079D02*
D03*
D12*
X287205Y369390D02*
D03*
D13*
X370177Y375689D02*
D03*
X343012D02*
D03*
D14*
X301000Y327717D02*
D03*
Y322992D02*
D03*
Y318268D02*
D03*
Y313543D02*
D03*
Y308819D02*
D03*
Y304094D02*
D03*
Y299370D02*
D03*
Y294646D02*
D03*
Y289921D02*
D03*
Y285197D02*
D03*
X347063D02*
D03*
Y289921D02*
D03*
Y294646D02*
D03*
Y299370D02*
D03*
Y304095D02*
D03*
Y308819D02*
D03*
Y313543D02*
D03*
Y318268D02*
D03*
Y322992D02*
D03*
Y327717D02*
D03*
D15*
X301000Y277913D02*
D03*
X347063D02*
D03*
Y335000D02*
D03*
X301000D02*
D03*
D16*
X307496Y277913D02*
D03*
X312220D02*
D03*
X316945D02*
D03*
X321669D02*
D03*
X326394D02*
D03*
X331118D02*
D03*
X335843D02*
D03*
X340567D02*
D03*
X307496Y335000D02*
D03*
X312220D02*
D03*
X316945D02*
D03*
X321669D02*
D03*
X326394D02*
D03*
X331118D02*
D03*
X335843D02*
D03*
X340567D02*
D03*
D17*
X315567Y320630D02*
D03*
X332496D02*
D03*
Y306457D02*
D03*
X315567D02*
D03*
X332496Y292283D02*
D03*
X315567D02*
D03*
D18*
X321555Y373622D02*
D03*
Y369685D02*
D03*
X334449Y373622D02*
D03*
Y369685D02*
D03*
X312205Y364173D02*
D03*
Y360236D02*
D03*
D19*
X326083Y373622D02*
D03*
X330020D02*
D03*
X355020Y284941D02*
D03*
X358957D02*
D03*
X355020Y303937D02*
D03*
X358957D02*
D03*
X312205Y360236D02*
D03*
X308268D02*
D03*
D20*
X347063Y308819D02*
X354685D01*
X355709Y309842D01*
X347342Y318209D02*
X354626D01*
X326394Y271834D02*
Y277913D01*
Y271834D02*
X326575Y271654D01*
X312220Y271358D02*
Y277913D01*
X321541Y271358D02*
Y277785D01*
X316945Y271358D02*
Y277913D01*
X336024Y271358D02*
Y277732D01*
X297087Y299370D02*
X301000D01*
X294882Y301575D02*
X297087Y299370D01*
X294882Y301575D02*
Y306890D01*
X296811Y308819D01*
X301000D01*
X293701Y313386D02*
X300842D01*
X293701Y323130D02*
X300862D01*
D21*
X323917Y351969D02*
D03*
X330315Y365453D02*
D03*
X306988Y380413D02*
D03*
X369882Y270177D02*
D03*
X280020Y336417D02*
D03*
X368209Y303543D02*
D03*
X369980Y319783D02*
D03*
X367421Y287008D02*
D03*
X276870Y269488D02*
D03*
X278150Y286910D02*
D03*
X279134Y303150D02*
D03*
X280020Y319783D02*
D03*
X307579Y285138D02*
D03*
X307087Y299606D02*
D03*
X307382Y313386D02*
D03*
X324606Y328051D02*
D03*
X340158Y328642D02*
D03*
Y314075D02*
D03*
Y298917D02*
D03*
X340748Y284547D02*
D03*
X323425Y283661D02*
D03*
X323622Y299803D02*
D03*
X323917Y313386D02*
D03*
X368307Y336516D02*
D03*
X357382Y325787D02*
D03*
X355709Y309842D02*
D03*
X360433Y295276D02*
D03*
X355413Y275984D02*
D03*
X355118Y266634D02*
D03*
X359252Y259547D02*
D03*
X333268Y259350D02*
D03*
X314961Y261024D02*
D03*
X291142Y261614D02*
D03*
X288189Y276279D02*
D03*
X291634Y285531D02*
D03*
X288189Y295965D02*
D03*
X292028Y306201D02*
D03*
X298622Y380807D02*
D03*
X301181Y371850D02*
D03*
X326969Y359252D02*
D03*
X357874Y346358D02*
D03*
X335630Y344390D02*
D03*
X291240Y333366D02*
D03*
X291437Y344980D02*
D03*
X287008Y381398D02*
D03*
X279724Y355807D02*
D03*
X334744Y382579D02*
D03*
X354626Y318209D02*
D03*
X284941Y374705D02*
D03*
X372146Y355118D02*
D03*
X366847D02*
D03*
X361549D02*
D03*
X356250D02*
D03*
X350952D02*
D03*
X345653D02*
D03*
X340354D02*
D03*
X335827Y356594D02*
D03*
X335138Y361024D02*
D03*
X335039Y365354D02*
D03*
X327854Y369488D02*
D03*
X321457Y365748D02*
D03*
X317126Y369291D02*
D03*
X316339Y365158D02*
D03*
Y360335D02*
D03*
Y355512D02*
D03*
X316240Y350590D02*
D03*
Y345571D02*
D03*
X316142Y340453D02*
D03*
X316634Y329626D02*
D03*
X312303Y329724D02*
D03*
X307972Y329626D02*
D03*
X334646Y377854D02*
D03*
X330020Y377953D02*
D03*
X324902D02*
D03*
X319193D02*
D03*
X313878Y377461D02*
D03*
X310039Y374508D02*
D03*
X307972Y369783D02*
D03*
Y364469D02*
D03*
X302854Y364370D02*
D03*
X297441D02*
D03*
X292717Y367323D02*
D03*
X289469Y374803D02*
D03*
X281988Y367224D02*
D03*
X283760Y361319D02*
D03*
X287205Y357382D02*
D03*
X292618Y355906D02*
D03*
X298622D02*
D03*
X303642Y356004D02*
D03*
X308071Y355610D02*
D03*
X308366Y350590D02*
D03*
X308268Y345571D02*
D03*
Y340453D02*
D03*
X312220Y271358D02*
D03*
X316945D02*
D03*
X321541D02*
D03*
X326575D02*
D03*
X336024D02*
D03*
X293701Y313386D02*
D03*
Y323130D02*
D03*
M02*
