%FSLAX25Y25*%
%MOIN*%
G70*
G01*
G75*
G04 Layer_Physical_Order=3*
G04 Layer_Color=36540*
%ADD10C,0.01969*%
%ADD11R,0.04134X0.08661*%
%ADD12R,0.03937X0.04134*%
%ADD13R,0.05118X0.08071*%
%ADD14R,0.04724X0.02756*%
%ADD15R,0.04724X0.04724*%
%ADD16R,0.02756X0.04724*%
%ADD17R,0.09449X0.07480*%
%ADD18R,0.02362X0.01969*%
%ADD19R,0.01969X0.02362*%
%ADD20C,0.01000*%
%ADD21C,0.02200*%
G36*
X337697Y383366D02*
Y358563D01*
X374902D01*
Y256594D01*
X273721D01*
Y384842D01*
X337697D01*
Y383366D01*
D02*
G37*
%LPC*%
G36*
X321541Y273499D02*
X320722Y273337D01*
X320027Y272872D01*
X319563Y272178D01*
X319493Y271826D01*
X318993D01*
X318923Y272178D01*
X318459Y272872D01*
X317764Y273337D01*
X316945Y273499D01*
X316125Y273337D01*
X315431Y272872D01*
X314967Y272178D01*
X314833Y271504D01*
X314333D01*
X314199Y272178D01*
X313734Y272872D01*
X313040Y273337D01*
X312220Y273499D01*
X311401Y273337D01*
X310706Y272872D01*
X310242Y272178D01*
X310079Y271358D01*
X310242Y270539D01*
X310706Y269844D01*
X311401Y269380D01*
X312220Y269217D01*
X313040Y269380D01*
X313734Y269844D01*
X314199Y270539D01*
X314333Y271213D01*
X314833D01*
X314967Y270539D01*
X315431Y269844D01*
X316125Y269380D01*
X316945Y269217D01*
X317764Y269380D01*
X318459Y269844D01*
X318923Y270539D01*
X318993Y270890D01*
X319493D01*
X319563Y270539D01*
X320027Y269844D01*
X320722Y269380D01*
X321541Y269217D01*
X322360Y269380D01*
X323055Y269844D01*
X323519Y270539D01*
X323682Y271358D01*
X323519Y272178D01*
X323055Y272872D01*
X322360Y273337D01*
X321541Y273499D01*
D02*
G37*
G36*
X336024D02*
X335204Y273337D01*
X334510Y272872D01*
X334046Y272178D01*
X333882Y271358D01*
X334046Y270539D01*
X334510Y269844D01*
X335204Y269380D01*
X336024Y269217D01*
X336843Y269380D01*
X337538Y269844D01*
X338002Y270539D01*
X338165Y271358D01*
X338002Y272178D01*
X337538Y272872D01*
X336843Y273337D01*
X336024Y273499D01*
D02*
G37*
G36*
X326575D02*
X325755Y273337D01*
X325061Y272872D01*
X324597Y272178D01*
X324434Y271358D01*
X324597Y270539D01*
X325061Y269844D01*
X325755Y269380D01*
X326575Y269217D01*
X327394Y269380D01*
X328089Y269844D01*
X328553Y270539D01*
X328716Y271358D01*
X328553Y272178D01*
X328089Y272872D01*
X327394Y273337D01*
X326575Y273499D01*
D02*
G37*
G36*
X360433Y297417D02*
X359614Y297254D01*
X358919Y296790D01*
X358455Y296095D01*
X358292Y295276D01*
X358455Y294456D01*
X358919Y293762D01*
X359614Y293297D01*
X360433Y293134D01*
X361252Y293297D01*
X361947Y293762D01*
X362411Y294456D01*
X362574Y295276D01*
X362411Y296095D01*
X361947Y296790D01*
X361252Y297254D01*
X360433Y297417D01*
D02*
G37*
G36*
X354626Y320350D02*
X353807Y320187D01*
X353112Y319723D01*
X352648Y319028D01*
X352485Y318209D01*
X352648Y317389D01*
X353112Y316695D01*
X353807Y316231D01*
X354626Y316068D01*
X355445Y316231D01*
X356140Y316695D01*
X356604Y317389D01*
X356767Y318209D01*
X356604Y319028D01*
X356140Y319723D01*
X355445Y320187D01*
X354626Y320350D01*
D02*
G37*
G36*
X293701Y325271D02*
X292881Y325108D01*
X292187Y324644D01*
X291723Y323949D01*
X291560Y323130D01*
X291723Y322310D01*
X292187Y321616D01*
X292881Y321152D01*
X293701Y320989D01*
X294520Y321152D01*
X295215Y321616D01*
X295679Y322310D01*
X295842Y323130D01*
X295679Y323949D01*
X295215Y324644D01*
X294520Y325108D01*
X293701Y325271D01*
D02*
G37*
G36*
X355709Y311984D02*
X354889Y311821D01*
X354195Y311356D01*
X353731Y310662D01*
X353568Y309842D01*
X353731Y309023D01*
X354195Y308329D01*
X354889Y307864D01*
X355709Y307701D01*
X356528Y307864D01*
X357223Y308329D01*
X357687Y309023D01*
X357850Y309842D01*
X357687Y310662D01*
X357223Y311356D01*
X356528Y311821D01*
X355709Y311984D01*
D02*
G37*
G36*
X293701Y315527D02*
X292881Y315364D01*
X292187Y314900D01*
X291723Y314205D01*
X291560Y313386D01*
X291723Y312566D01*
X292187Y311872D01*
X292881Y311408D01*
X293701Y311245D01*
X294520Y311408D01*
X295215Y311872D01*
X295679Y312566D01*
X295842Y313386D01*
X295679Y314205D01*
X295215Y314900D01*
X294520Y315364D01*
X293701Y315527D01*
D02*
G37*
%LPD*%
D21*
X323917Y351969D02*
D03*
X330315Y365453D02*
D03*
X306988Y380413D02*
D03*
X369882Y270177D02*
D03*
X280020Y336417D02*
D03*
X368209Y303543D02*
D03*
X369980Y319783D02*
D03*
X367421Y287008D02*
D03*
X276870Y269488D02*
D03*
X278150Y286910D02*
D03*
X279134Y303150D02*
D03*
X280020Y319783D02*
D03*
X307579Y285138D02*
D03*
X307087Y299606D02*
D03*
X307382Y313386D02*
D03*
X324606Y328051D02*
D03*
X340158Y328642D02*
D03*
Y314075D02*
D03*
Y298917D02*
D03*
X340748Y284547D02*
D03*
X323425Y283661D02*
D03*
X323622Y299803D02*
D03*
X323917Y313386D02*
D03*
X368307Y336516D02*
D03*
X357382Y325787D02*
D03*
X355413Y275984D02*
D03*
X355118Y266634D02*
D03*
X359252Y259547D02*
D03*
X333268Y259350D02*
D03*
X314961Y261024D02*
D03*
X291142Y261614D02*
D03*
X288189Y276279D02*
D03*
X291634Y285531D02*
D03*
X288189Y295965D02*
D03*
X292028Y306201D02*
D03*
X298622Y380807D02*
D03*
X301181Y371850D02*
D03*
X326969Y359252D02*
D03*
X357874Y346358D02*
D03*
X335630Y344390D02*
D03*
X291240Y333366D02*
D03*
X291437Y344980D02*
D03*
X287008Y381398D02*
D03*
X279724Y355807D02*
D03*
X334744Y382579D02*
D03*
X284941Y374705D02*
D03*
X372146Y355118D02*
D03*
X366847D02*
D03*
X361549D02*
D03*
X356250D02*
D03*
X350952D02*
D03*
X345653D02*
D03*
X340354D02*
D03*
X335827Y356594D02*
D03*
X335138Y361024D02*
D03*
X335039Y365354D02*
D03*
X327854Y369488D02*
D03*
X321457Y365748D02*
D03*
X317126Y369291D02*
D03*
X316339Y365158D02*
D03*
Y360335D02*
D03*
Y355512D02*
D03*
X316240Y350590D02*
D03*
Y345571D02*
D03*
X316142Y340453D02*
D03*
X316634Y329626D02*
D03*
X312303Y329724D02*
D03*
X307972Y329626D02*
D03*
X334646Y377854D02*
D03*
X330020Y377953D02*
D03*
X324902D02*
D03*
X319193D02*
D03*
X313878Y377461D02*
D03*
X310039Y374508D02*
D03*
X307972Y369783D02*
D03*
Y364469D02*
D03*
X302854Y364370D02*
D03*
X297441D02*
D03*
X292717Y367323D02*
D03*
X289469Y374803D02*
D03*
X281988Y367224D02*
D03*
X283760Y361319D02*
D03*
X287205Y357382D02*
D03*
X292618Y355906D02*
D03*
X298622D02*
D03*
X303642Y356004D02*
D03*
X308071Y355610D02*
D03*
X308366Y350590D02*
D03*
X308268Y345571D02*
D03*
Y340453D02*
D03*
M02*
