M48
;Layer_Color=9474304
;FILE_FORMAT=2:5
INCH,LZ
;TYPE=PLATED
T1F00S00C0.01000
%
T01
X0314961Y0261024
X0316945Y0271358
X0321541
X0326575
X0336024
X0333268Y025935
X0359252Y0259547
X0355118Y0266634
X0355413Y0275984
X0369882Y0270177
X0367421Y0287008
X0360433Y0295276
X0368209Y0303543
X0355709Y0309842
X0340158Y0298917
X0340748Y0284547
X0323425Y0283661
X0323622Y0299803
X0307087Y0299606
X0307579Y0285138
X0291634Y0285531
X0288189Y0276279
X0291142Y0261614
X027687Y0269488
X027815Y028691
X0279134Y030315
X0292028Y0306201
X0288189Y0295965
X031222Y0271358
X0307382Y0313386
X0293701
Y032313
X029124Y0333366
X0291437Y034498
X0292618Y0355906
X0298622
X0303642Y0356004
X0308071Y035561
X0308366Y035059
X0308268Y0345571
Y0340453
X0307972Y0329626
X0312303Y0329724
X028002Y0336417
Y0319783
X0279724Y0355807
X0287205Y0357382
X028376Y0361319
X0281988Y0367224
X0284941Y0374705
X0289469Y0374803
X0287008Y0381398
X0298622Y0380807
X0306988Y0380413
X0310039Y0374508
X0307972Y0369783
Y0364469
X0302854Y036437
X0297441
X0292717Y0367323
X0301181Y037185
X0313878Y0377461
X0319193Y0377953
X0324902
X033002
X0334646Y0377854
X0334744Y0382579
X0335039Y0365354
X0335138Y0361024
X0335827Y0356594
X0340354Y0355118
X0345653
X0350952
X035625
X0361549
X0366847
X0372146
X0368307Y0336516
X036998Y0319783
X0354626Y0318209
X0357382Y0325787
X0340158Y0328642
Y0314075
X0323917Y0313386
X0324606Y0328051
X0316634Y0329626
X0316142Y0340453
X031624Y0345571
Y035059
X0316339Y0355512
Y0360335
Y0365158
X0317126Y0369291
X0321457Y0365748
X0330315Y0365453
X0327854Y0369488
X0326969Y0359252
X0323917Y0351969
X033563Y034439
X0357874Y0346358
M30
