M48
;Layer_Color=9474304
;FILE_FORMAT=2:5
INCH,LZ
;TYPE=PLATED
T1F00S00C0.01000
T2F00S00C0.03543
%
T01
X08635Y1079
X0908Y1089
X09306Y10925
X09362Y10816
X09268Y10762
X09342Y10656
X09535Y10869
X09749Y10841
X09803Y10925
X09967Y1078
X1005096Y1081056
X10255Y1092
X1044Y1081
X1047Y1042
Y1025
X09735Y10212
X09661Y10268
X09735Y10348
X09624Y10485
X09889Y1046808
X09704Y10036
X09787Y11021
X09648Y1118
X09592Y1128134
X09397Y11248
X0942Y11138
Y11567
X09479Y11513
X09535Y11568
X09558Y11696
X096Y1172
X09696Y1167
X09674Y11613
X09743Y11543
X09799Y11471
X09815Y114
X09829Y11369
X0988624Y11365
X09714Y11393
X09745Y1174
X0971Y11965
X09895Y1195
X1008828Y1186928
X1034Y11905
X1036528Y12023
X1035512Y1216
X10445Y12235
X10315Y12335
X1030791Y12437
X10215Y1225
X10045Y1237
X099Y12255
X0963Y1234
X09539Y12437
X0942Y12495
X09497Y12219
Y1214
X0962Y1209
X10485Y1196
X10355Y1173
X10128Y1135
X10188Y11229
X09289Y11196
X0919365Y11251
X0913928Y11252
X0911122Y11268
X09092Y11291
X091415Y11308
X0903248Y11323
X09077Y11375
X09079Y11461
X0915Y11438
X0920228Y114
X09286Y11393
X092755Y11532
X09217Y11613
X0932Y1164
X0919Y1172
X0915428Y11696
X09171Y11786
X090896Y117794
X09056Y11776
X0906448Y11731
X0899811Y11613
X08885Y11635
X08917Y11481
X0891556Y1141756
X08962Y11441
X08833Y11433
X0878011Y11443
X0874204Y11403
X08726Y11484
X08551
X08635Y11226
X08735Y11125
X08855Y1122
X0896Y11265
X0897Y1104
X0912Y1109
X0915059Y1116
X09155Y10985
X092395Y11035
X0930204Y1104404
X088Y1094
X0889Y1184
X08465Y1194
X08495Y12085
X087Y12305
X088674Y12355
X0935Y12385
X09905Y12545
X09819Y12702
X1009883Y12603
X10215Y1253
X10425Y12535
X1033991Y1271409
X1030978Y1269922
X10375Y1278
T02
X0897Y1007
Y1017
X0907
Y1007
X0917
Y1017
X0927
Y1007
X0937
Y1017
X09365Y1050961
Y1060961
X09265
X09165
X09065
X08965
X08865
X08765
X08665
X08565
Y1050961
X08665
X08765
X08865
X08965
X09065
X09165
X09265
X09465
Y1060961
X09565
X09665
X09765
X09865
X09965
X10065
X10165
X10265
X10365
X10465
Y1050961
X10365
X10265
X10165
X10065
X09965
X09865
X09765
X09665
X09565
X0957Y1017
X0947
Y1007
X0957
X0967
Y1017
X0977
Y1007
X0987
Y1017
X0997
Y1007
X1007
Y1017
X1017
Y1007
X1027
Y1017
X1037
Y1007
X1047
Y1017
X10475Y10975
Y11075
Y11175
Y11275
X10375
Y11175
Y11075
Y10975
X1049Y11535
Y11635
Y11735
X1023
Y11635
Y11535
X1
Y11435
Y11635
Y11735
X08365Y1194
Y1204
Y1214
Y1224
X08355Y1256
X08455
X08555
X08655
X08755
X08855
X08955
X09055
X09155
X09255
Y1266
X09155
X09055
X08955
X08855
X08755
X08655
X08555
X08455
X08355
M30
