M48
;Layer_Color=9474304
;FILE_FORMAT=2:5
INCH,TZ
;TYPE=PLATED
T1F00S00C0.01500
T2F00S00C0.02000
T3F00S00C0.03346
T4F00S00C0.03937
T5F00S00C0.04724
T6F00S00C0.05118
T7F00S00C0.13583
%
T01
X5052559Y2810925
X5025394Y2798819
X5029725Y2776279
X4999705Y2774508
X4995669Y2794784
X4964665Y2795276
X4973622Y2773228
X4945669Y2776772
X4927854Y2772342
X4934055Y2796457
X4899705Y2784842
X4897835Y2773524
X4888287Y2773622
X4877067Y2773917
X4866339Y2773721
X4857087Y2773819
X4859063Y2784260
Y2789996
Y2795732
Y2801468
X4869291Y2799213
X4883464Y2801181
X4898819Y2807284
X4875098Y2785925
X4841043Y2796358
X4829036Y2807087
X4820275Y2808268
X4835925Y2773327
X4841032Y2818677
Y2824413
Y2830150
Y2835886
Y2841622
X4819685Y2854724
X4799902Y2834350
X4801083Y2877559
X4817913Y2895079
X4801181Y2917618
X4796555Y2943307
X4832775Y2939075
Y2919980
X4843209Y2913583
X4820374Y2963386
X4849508Y2959941
X4865591Y2952008
X4869528Y2950098
X4873465Y2952224
X4877402Y2950098
X4881339Y2952126
X4900984Y2952362
X4904626Y2967028
X4908858Y2967815
X4930709Y2949705
X4924803Y2932776
X4914665Y2921555
X4894193Y2926673
X4904036Y2902461
X4926870Y2899016
X4947047Y2890846
X4948425Y2913681
X4967815Y2913287
X4966634Y2935236
X4982480Y2934842
X4997638Y2927165
Y2903937
X4982874Y2902362
X4999902Y2873327
X4993012Y2856102
X4972540Y2833268
X4985630Y2816535
X4953445Y2815551
X4886417Y2818799
X4873425Y2829331
X4866240Y2840846
X4883071Y2840748
X4877415Y2856022
X4871821
X4860632
X4855037
X4843898Y2855020
X4844193Y2883169
X4864665Y2871752
X4887598Y2871457
X4888878Y2863583
X4899016Y2863681
X4920079Y2860138
X4935040Y2875492
X4879725Y2887402
X4863091Y2896555
X4850787Y2933071
X4950787Y2934449
X4964075Y2967028
X4971949
X4979764
X4860925Y2820177
X5010040Y2818012
X5005413Y2837992
X5027165Y2848524
X5020275Y2867716
X5011811Y2885138
X5011909Y2890945
Y2896752
Y2902559
X5000098Y2890846
Y2885072
Y2879298
X5031988Y2891339
X5047933Y2882382
X5068406Y2886713
X5067126Y2920571
X5051968Y2909547
X5020571Y2923917
X5022736Y2952559
X5039468Y2946260
X5063779Y2966831
X5053248Y2856988
X5066831Y2836713
X5040453Y2829331
X5044685Y2978937
X5059941
X5066020Y2976575
X5063583Y2973031
X5067225Y2969980
X5026575Y2981201
X5007185Y2980020
Y2974409
X5011909Y2989075
X5051870Y3016437
X5034351Y3035335
X5020866Y3048721
X5021063Y3072441
X5020275Y3109252
X5061516Y3107480
X4990847Y3118504
X4972835Y3100098
X4940354Y3107776
X4935827Y3082382
X4940945Y3069390
X4920866Y3069193
X4916536Y3065354
X4915649Y3076575
X4909843Y3070965
X4900689Y3078740
X4895177Y3082382
X4888386Y3072835
X4875295Y3065059
X4867618Y3057480
X4854232Y3052854
X4849409Y3052658
X4845669Y3050295
Y3035827
X4849409Y3038189
X4854232Y3039469
X4867618Y3024606
X4864764Y3010433
X4859941Y2992520
X4875984Y2992716
X4885236Y2986811
X4889213Y2984547
X4893150Y2982382
X4897087Y2980020
X4913091Y2968898
X4928642Y2981496
X4932520Y2983858
X4936516Y2986221
X4940354Y2988779
X4945079Y2995177
X4945374Y2999705
X4938091Y3006102
X4950814Y3008366
Y3012894
Y3017323
Y3021681
X4970768
Y3017323
Y3012894
Y3008366
X4970964Y3025984
X4988976Y3029528
X4993406Y3020177
X4993504Y3004035
X4992225Y2990551
X4983563Y2969094
X4975827Y2968984
X4968110
X4960146
X4956146Y2971484
X4952146Y2973984
X4952165Y2980020
X4948228Y2976476
X4944331Y2979193
X4927165Y2987402
X4926870Y2997835
X4889764Y3002264
X4889862Y3018209
X4892913Y3022244
X4903347Y3027362
X4903051Y3040059
X4911713Y3043898
X4912697Y3032087
X4914370Y3054429
X4918701
X4923032
X4902165Y3054528
X4898327Y3052461
X4881594Y3091339
X4873622Y3086417
X4882972Y3109547
X4903149Y3105512
X4912106
X4846457Y3095472
X4845079Y3123425
X4855413Y3067224
X4845964Y2978445
X4954850Y3043575
X4963189Y3068898
X4988287Y3060236
X4840256Y3060039
X4841929Y3047933
Y3033268
X4842520Y3027362
X4811614Y3033366
X4811516Y3047736
X4796161Y3061417
Y3025394
X4795768Y2981201
X4824606Y3002461
X4825295Y3105709
X4802460Y3101279
X4804134Y3138386
X4838779Y3150098
X4865256Y3161221
X4858169Y3125787
X4884055Y3132972
X4914665Y3141929
X4932677Y3132480
X4961417Y3125984
X4987008Y3133169
X4944094Y3164469
X4906496Y3163779
X5022047Y3167421
T02
X5002559Y2969390
T03
X5052165Y2963484
Y2971358
Y2979232
Y2987106
T04
X5056771Y3112815
X5046772
Y3102815
X5056771
Y3092815
X5046772
Y3082815
X5056771
Y3072815
X5046772
Y3062815
X5056771
Y3052815
X5046772
Y3042815
X5056771
Y3032815
X5046772
Y3022815
X5056771
T05
X4987398Y3142646
X4977398
X4967398
X4884272Y3142646
X4874272
X4864272
T06
X4815591Y2824748
Y3127898
X5033701
T07
X5053445Y2789370
X4813681
Y3162008
X4858760Y3176661
X4889783
X4961886Y3176661
X4992909
X5053445Y3162008
M30
