M48
;Layer_Color=9474304
;FILE_FORMAT=2:5
INCH,LZ
;TYPE=PLATED
T1F00S00C0.01200
T2F00S00C0.02500
T3F00S00C0.02756
T4F00S00C0.03543
T5F00S00C0.03937
T6F00S00C0.04724
T7F00S00C0.05512
T8F00S00C0.06693
T9F00S00C0.10000
%
T01
X4399Y1757
X439524Y176074
X4387Y1738
X4371Y175326
X4368Y1757
X4371Y176074
T02
X43015Y19425
X42915
X42815
X42715
Y19125
X42815
X43015
T03
X443889Y1867
X442511
Y19025
X443889
T04
X443889Y18135
X442889
X441889
X440889
X4202185Y1914
X41825
X41815Y1953
X4201185
X415696Y193954
X414304Y195346
X42365Y1955343
Y1935657
X43385Y1936902
Y1924303
Y1911705
Y1899106
Y19495
X4399524
Y1924303
T05
X4348764Y17605
X4319236
X4275264
X4245736
T06
X419659Y1855
X4179591Y1839
X4155409Y1855
X4155Y1867909
X4138
X4138409Y1839
X413863Y17905
X421737
X4155Y1909091
X4138
X43205Y1912
Y1958
T07
X4353685Y1785106
X4314315
X4280185
X4240815
T08
X43535Y1842591
Y1827
Y1811409
X42805
Y1827
Y1842591
X42185
Y1827
Y1811409
T09
X446Y17475
X41265
Y19785
X446
M30
