%FSLAX25Y25*%
%MOIN*%
G70*
G01*
G75*
%ADD10R,0.07874X0.21654*%
%ADD11R,0.03543X0.02362*%
%ADD12R,0.02362X0.03543*%
%ADD13R,0.02362X0.01969*%
%ADD14R,0.05118X0.02756*%
%ADD15R,0.01181X0.04724*%
%ADD16R,0.04724X0.01181*%
%ADD17R,0.11811X0.06299*%
%ADD18R,0.24410X0.22835*%
%ADD19R,0.02835X0.02835*%
%ADD20R,0.02835X0.02835*%
%ADD21R,0.02756X0.05118*%
%ADD22R,0.05512X0.08268*%
%ADD23C,0.01000*%
%ADD24C,0.00800*%
%ADD25R,0.05906X0.05906*%
%ADD26C,0.05906*%
%ADD27R,0.05906X0.05906*%
%ADD28C,0.02200*%
%ADD29C,0.00787*%
D23*
X837575Y1149197D02*
X842595D01*
X837575Y1099886D02*
Y1149197D01*
Y1099886D02*
X842004D01*
X854209D02*
X859130D01*
Y1149197D01*
X854405D02*
X859130D01*
X831500Y1273500D02*
Y1279498D01*
X834499D01*
X835499Y1278498D01*
Y1276499D01*
X834499Y1275499D01*
X831500D01*
X837498Y1273500D02*
X839497D01*
X838498D01*
Y1279498D01*
X837498Y1278498D01*
X826500Y1126498D02*
Y1125498D01*
X828499Y1123499D01*
X830499Y1125498D01*
Y1126498D01*
X828499Y1123499D02*
Y1120500D01*
X832498D02*
X834497D01*
X833498D01*
Y1126498D01*
X832498Y1125498D01*
X913000Y1212498D02*
Y1207500D01*
X914000Y1206500D01*
X915999D01*
X916999Y1207500D01*
Y1212498D01*
X921997Y1206500D02*
Y1212498D01*
X918998Y1209499D01*
X922997D01*
X971500Y1276598D02*
Y1271600D01*
X972500Y1270600D01*
X974499D01*
X975499Y1271600D01*
Y1276598D01*
X977498Y1275598D02*
X978498Y1276598D01*
X980497D01*
X981497Y1275598D01*
Y1274599D01*
X980497Y1273599D01*
X979497D01*
X980497D01*
X981497Y1272599D01*
Y1271600D01*
X980497Y1270600D01*
X978498D01*
X977498Y1271600D01*
X932000Y1173998D02*
Y1169000D01*
X933000Y1168000D01*
X934999D01*
X935999Y1169000D01*
Y1173998D01*
X937998Y1168000D02*
X939997D01*
X938998D01*
Y1173998D01*
X937998Y1172998D01*
X939499Y1238398D02*
X938499Y1239398D01*
X936500D01*
X935500Y1238398D01*
Y1237399D01*
X936500Y1236399D01*
X938499D01*
X939499Y1235399D01*
Y1234400D01*
X938499Y1233400D01*
X936500D01*
X935500Y1234400D01*
X941498Y1233400D02*
X943497D01*
X942498D01*
Y1239398D01*
X941498Y1238398D01*
X999000Y1196000D02*
Y1201998D01*
X1001999D01*
X1002999Y1200998D01*
Y1198999D01*
X1001999Y1197999D01*
X999000D01*
X1000999D02*
X1002999Y1196000D01*
X1004998Y1201998D02*
X1008997D01*
Y1200998D01*
X1004998Y1197000D01*
Y1196000D01*
X948000Y1243000D02*
Y1248998D01*
X950999D01*
X951999Y1247998D01*
Y1245999D01*
X950999Y1244999D01*
X948000D01*
X949999D02*
X951999Y1243000D01*
X957997Y1248998D02*
X955997Y1247998D01*
X953998Y1245999D01*
Y1244000D01*
X954998Y1243000D01*
X956997D01*
X957997Y1244000D01*
Y1244999D01*
X956997Y1245999D01*
X953998D01*
X1033500Y1176000D02*
X1039498D01*
Y1173001D01*
X1038498Y1172001D01*
X1036499D01*
X1035499Y1173001D01*
Y1176000D01*
Y1174001D02*
X1033500Y1172001D01*
X1039498Y1166003D02*
Y1170002D01*
X1036499D01*
X1037499Y1168003D01*
Y1167003D01*
X1036499Y1166003D01*
X1034500D01*
X1033500Y1167003D01*
Y1169002D01*
X1034500Y1170002D01*
X871000Y1119000D02*
Y1124998D01*
X873999D01*
X874999Y1123998D01*
Y1121999D01*
X873999Y1120999D01*
X871000D01*
X872999D02*
X874999Y1119000D01*
X879997D02*
Y1124998D01*
X876998Y1121999D01*
X880997D01*
X973500Y1147000D02*
X979498D01*
Y1144001D01*
X978498Y1143001D01*
X976499D01*
X975499Y1144001D01*
Y1147000D01*
Y1145001D02*
X973500Y1143001D01*
Y1137003D02*
Y1141002D01*
X977499Y1137003D01*
X978498D01*
X979498Y1138003D01*
Y1140002D01*
X978498Y1141002D01*
X973000Y1167500D02*
X978998D01*
Y1164501D01*
X977998Y1163501D01*
X975999D01*
X974999Y1164501D01*
Y1167500D01*
Y1165501D02*
X973000Y1163501D01*
Y1161502D02*
Y1159503D01*
Y1160502D01*
X978998D01*
X977998Y1161502D01*
X991500Y1183000D02*
Y1188998D01*
X994499D01*
X995499Y1187998D01*
Y1185999D01*
X994499Y1184999D01*
X991500D01*
X997498Y1183000D02*
X999497D01*
X998498D01*
Y1188998D01*
X997498Y1187998D01*
X1005495Y1183000D02*
Y1188998D01*
X1002496Y1185999D01*
X1006495D01*
X1018650Y1181850D02*
Y1187848D01*
X1021649D01*
X1022649Y1186848D01*
Y1184849D01*
X1021649Y1183849D01*
X1018650D01*
X1028647Y1187848D02*
X1024648D01*
Y1184849D01*
X1026647Y1185849D01*
X1027647D01*
X1028647Y1184849D01*
Y1182850D01*
X1027647Y1181850D01*
X1025648D01*
X1024648Y1182850D01*
X1044650Y1181850D02*
Y1187848D01*
X1047649D01*
X1048649Y1186848D01*
Y1184849D01*
X1047649Y1183849D01*
X1044650D01*
X1053647Y1181850D02*
Y1187848D01*
X1050648Y1184849D01*
X1054647D01*
X1033150Y1140650D02*
Y1146648D01*
X1036149D01*
X1037149Y1145648D01*
Y1143649D01*
X1036149Y1142649D01*
X1033150D01*
X1039148Y1145648D02*
X1040148Y1146648D01*
X1042147D01*
X1043147Y1145648D01*
Y1144649D01*
X1042147Y1143649D01*
X1041147D01*
X1042147D01*
X1043147Y1142649D01*
Y1141650D01*
X1042147Y1140650D01*
X1040148D01*
X1039148Y1141650D01*
X832100Y1232400D02*
Y1238398D01*
X835099D01*
X836099Y1237398D01*
Y1235399D01*
X835099Y1234399D01*
X832100D01*
X842097Y1232400D02*
X838098D01*
X842097Y1236399D01*
Y1237398D01*
X841097Y1238398D01*
X839098D01*
X838098Y1237398D01*
X878999Y1238498D02*
X877999Y1239498D01*
X876000D01*
X875000Y1238498D01*
Y1234500D01*
X876000Y1233500D01*
X877999D01*
X878999Y1234500D01*
X884997Y1233500D02*
X880998D01*
X884997Y1237499D01*
Y1238498D01*
X883997Y1239498D01*
X881998D01*
X880998Y1238498D01*
X889995Y1233500D02*
Y1239498D01*
X886996Y1236499D01*
X890995D01*
X857498Y1194501D02*
X858498Y1195501D01*
Y1197500D01*
X857498Y1198500D01*
X853500D01*
X852500Y1197500D01*
Y1195501D01*
X853500Y1194501D01*
X852500Y1188503D02*
Y1192502D01*
X856499Y1188503D01*
X857498D01*
X858498Y1189503D01*
Y1191502D01*
X857498Y1192502D01*
Y1186504D02*
X858498Y1185504D01*
Y1183505D01*
X857498Y1182505D01*
X856499D01*
X855499Y1183505D01*
Y1184505D01*
Y1183505D01*
X854499Y1182505D01*
X853500D01*
X852500Y1183505D01*
Y1185504D01*
X853500Y1186504D01*
X945999Y1264498D02*
X944999Y1265498D01*
X943000D01*
X942000Y1264498D01*
Y1260500D01*
X943000Y1259500D01*
X944999D01*
X945999Y1260500D01*
X951997Y1259500D02*
X947998D01*
X951997Y1263499D01*
Y1264498D01*
X950997Y1265498D01*
X948998D01*
X947998Y1264498D01*
X957995Y1259500D02*
X953996D01*
X957995Y1263499D01*
Y1264498D01*
X956995Y1265498D01*
X954996D01*
X953996Y1264498D01*
X1027999Y1274998D02*
X1026999Y1275998D01*
X1025000D01*
X1024000Y1274998D01*
Y1271000D01*
X1025000Y1270000D01*
X1026999D01*
X1027999Y1271000D01*
X1033997Y1270000D02*
X1029998D01*
X1033997Y1273999D01*
Y1274998D01*
X1032997Y1275998D01*
X1030998D01*
X1029998Y1274998D01*
X1035996Y1270000D02*
X1037996D01*
X1036996D01*
Y1275998D01*
X1035996Y1274998D01*
X945999Y1256498D02*
X944999Y1257498D01*
X943000D01*
X942000Y1256498D01*
Y1252500D01*
X943000Y1251500D01*
X944999D01*
X945999Y1252500D01*
X951997Y1251500D02*
X947998D01*
X951997Y1255499D01*
Y1256498D01*
X950997Y1257498D01*
X948998D01*
X947998Y1256498D01*
X953996D02*
X954996Y1257498D01*
X956995D01*
X957995Y1256498D01*
Y1252500D01*
X956995Y1251500D01*
X954996D01*
X953996Y1252500D01*
Y1256498D01*
X1027499Y1282998D02*
X1026499Y1283998D01*
X1024500D01*
X1023500Y1282998D01*
Y1279000D01*
X1024500Y1278000D01*
X1026499D01*
X1027499Y1279000D01*
X1029498Y1278000D02*
X1031497D01*
X1030498D01*
Y1283998D01*
X1029498Y1282998D01*
X1034496Y1279000D02*
X1035496Y1278000D01*
X1037496D01*
X1038495Y1279000D01*
Y1282998D01*
X1037496Y1283998D01*
X1035496D01*
X1034496Y1282998D01*
Y1281999D01*
X1035496Y1280999D01*
X1038495D01*
X833499Y1160998D02*
X832499Y1161998D01*
X830500D01*
X829500Y1160998D01*
Y1157000D01*
X830500Y1156000D01*
X832499D01*
X833499Y1157000D01*
X835498Y1156000D02*
X837497D01*
X836498D01*
Y1161998D01*
X835498Y1160998D01*
X840496D02*
X841496Y1161998D01*
X843495D01*
X844495Y1160998D01*
Y1159999D01*
X843495Y1158999D01*
X842496D01*
X843495D01*
X844495Y1157999D01*
Y1157000D01*
X843495Y1156000D01*
X841496D01*
X840496Y1157000D01*
X831999Y1091998D02*
X830999Y1092998D01*
X829000D01*
X828000Y1091998D01*
Y1088000D01*
X829000Y1087000D01*
X830999D01*
X831999Y1088000D01*
X833998Y1087000D02*
X835997D01*
X834998D01*
Y1092998D01*
X833998Y1091998D01*
X842995Y1087000D02*
X838996D01*
X842995Y1090999D01*
Y1091998D01*
X841996Y1092998D01*
X839996D01*
X838996Y1091998D01*
X965998Y1179501D02*
X966998Y1180501D01*
Y1182500D01*
X965998Y1183500D01*
X962000D01*
X961000Y1182500D01*
Y1180501D01*
X962000Y1179501D01*
X961000Y1177502D02*
Y1175503D01*
Y1176502D01*
X966998D01*
X965998Y1177502D01*
X961000Y1172504D02*
Y1170504D01*
Y1171504D01*
X966998D01*
X965998Y1172504D01*
X921498Y1100001D02*
X922498Y1101001D01*
Y1103000D01*
X921498Y1104000D01*
X917500D01*
X916500Y1103000D01*
Y1101001D01*
X917500Y1100001D01*
X916500Y1098002D02*
Y1096003D01*
Y1097002D01*
X922498D01*
X921498Y1098002D01*
Y1093004D02*
X922498Y1092004D01*
Y1090005D01*
X921498Y1089005D01*
X917500D01*
X916500Y1090005D01*
Y1092004D01*
X917500Y1093004D01*
X921498D01*
X953499Y1154498D02*
X952499Y1155498D01*
X950500D01*
X949500Y1154498D01*
Y1150500D01*
X950500Y1149500D01*
X952499D01*
X953499Y1150500D01*
X955498D02*
X956498Y1149500D01*
X958497D01*
X959497Y1150500D01*
Y1154498D01*
X958497Y1155498D01*
X956498D01*
X955498Y1154498D01*
Y1153499D01*
X956498Y1152499D01*
X959497D01*
X903998Y1176501D02*
X904998Y1177501D01*
Y1179500D01*
X903998Y1180500D01*
X900000D01*
X899000Y1179500D01*
Y1177501D01*
X900000Y1176501D01*
X903998Y1174502D02*
X904998Y1173502D01*
Y1171503D01*
X903998Y1170503D01*
X902999D01*
X901999Y1171503D01*
X900999Y1170503D01*
X900000D01*
X899000Y1171503D01*
Y1173502D01*
X900000Y1174502D01*
X900999D01*
X901999Y1173502D01*
X902999Y1174502D01*
X903998D01*
X901999Y1173502D02*
Y1171503D01*
X953499Y1162998D02*
X952499Y1163998D01*
X950500D01*
X949500Y1162998D01*
Y1159000D01*
X950500Y1158000D01*
X952499D01*
X953499Y1159000D01*
X955498Y1163998D02*
X959497D01*
Y1162998D01*
X955498Y1159000D01*
Y1158000D01*
X930498Y1100001D02*
X931498Y1101001D01*
Y1103000D01*
X930498Y1104000D01*
X926500D01*
X925500Y1103000D01*
Y1101001D01*
X926500Y1100001D01*
X931498Y1094003D02*
X930498Y1096003D01*
X928499Y1098002D01*
X926500D01*
X925500Y1097002D01*
Y1095003D01*
X926500Y1094003D01*
X927499D01*
X928499Y1095003D01*
Y1098002D01*
X900998Y1099501D02*
X901998Y1100501D01*
Y1102500D01*
X900998Y1103500D01*
X897000D01*
X896000Y1102500D01*
Y1100501D01*
X897000Y1099501D01*
X901998Y1093503D02*
Y1097502D01*
X898999D01*
X899999Y1095503D01*
Y1094503D01*
X898999Y1093503D01*
X897000D01*
X896000Y1094503D01*
Y1096502D01*
X897000Y1097502D01*
X874999Y1143998D02*
X873999Y1144998D01*
X872000D01*
X871000Y1143998D01*
Y1140000D01*
X872000Y1139000D01*
X873999D01*
X874999Y1140000D01*
X879997Y1139000D02*
Y1144998D01*
X876998Y1141999D01*
X880997D01*
X882998Y1173001D02*
X883998Y1174001D01*
Y1176000D01*
X882998Y1177000D01*
X879000D01*
X878000Y1176000D01*
Y1174001D01*
X879000Y1173001D01*
X882998Y1171002D02*
X883998Y1170002D01*
Y1168003D01*
X882998Y1167003D01*
X881999D01*
X880999Y1168003D01*
Y1169003D01*
Y1168003D01*
X879999Y1167003D01*
X879000D01*
X878000Y1168003D01*
Y1170002D01*
X879000Y1171002D01*
X875498Y1173001D02*
X876498Y1174001D01*
Y1176000D01*
X875498Y1177000D01*
X871500D01*
X870500Y1176000D01*
Y1174001D01*
X871500Y1173001D01*
X870500Y1167003D02*
Y1171002D01*
X874499Y1167003D01*
X875498D01*
X876498Y1168003D01*
Y1170002D01*
X875498Y1171002D01*
X891998Y1098501D02*
X892998Y1099501D01*
Y1101500D01*
X891998Y1102500D01*
X888000D01*
X887000Y1101500D01*
Y1099501D01*
X888000Y1098501D01*
X887000Y1096502D02*
Y1094503D01*
Y1095502D01*
X892998D01*
X891998Y1096502D01*
D24*
X826168Y1258000D02*
X829500D01*
X826168Y1254668D01*
Y1253835D01*
X827001Y1253002D01*
X828667D01*
X829500Y1253835D01*
X824502D02*
X823669Y1253002D01*
X822002D01*
X821169Y1253835D01*
Y1257167D01*
X822002Y1258000D01*
X823669D01*
X824502Y1257167D01*
Y1253835D01*
X829500Y1268000D02*
X827834D01*
X828667D01*
Y1263002D01*
X829500Y1263835D01*
X825335Y1267167D02*
X824502Y1268000D01*
X822836D01*
X822002Y1267167D01*
Y1263835D01*
X822836Y1263002D01*
X824502D01*
X825335Y1263835D01*
Y1264668D01*
X824502Y1265501D01*
X822002D01*
X935500Y1268000D02*
X933834D01*
X934667D01*
Y1263002D01*
X935500Y1263835D01*
X932168Y1258000D02*
X935500D01*
X932168Y1254668D01*
Y1253835D01*
X933001Y1253002D01*
X934667D01*
X935500Y1253835D01*
X1039500Y1090832D02*
Y1087500D01*
X1036168Y1090832D01*
X1035335D01*
X1034502Y1089999D01*
Y1088333D01*
X1035335Y1087500D01*
X1049500Y1089500D02*
Y1091166D01*
Y1090333D01*
X1044502D01*
X1045335Y1089500D01*
X1044502Y1133500D02*
Y1136832D01*
X1045335D01*
X1048667Y1133500D01*
X1049500D01*
X1035335D02*
X1034502Y1134333D01*
Y1135999D01*
X1035335Y1136832D01*
X1036168D01*
X1037001Y1135999D01*
X1037834Y1136832D01*
X1038667D01*
X1039500Y1135999D01*
Y1134333D01*
X1038667Y1133500D01*
X1037834D01*
X1037001Y1134333D01*
X1036168Y1133500D01*
X1035335D01*
X1037001Y1134333D02*
Y1135999D01*
D29*
X830500Y1251000D02*
Y1271000D01*
X923000D02*
X930500D01*
Y1251000D02*
Y1271000D01*
X923000Y1251000D02*
X930500D01*
X830500D02*
X923000D01*
X830500Y1271000D02*
X923000D01*
X995000Y1178500D02*
X1005000D01*
Y1138500D02*
Y1178500D01*
X995000Y1138500D02*
Y1178500D01*
Y1138500D02*
X1005000D01*
X891969Y1156437D02*
X896437Y1160906D01*
X928307D01*
Y1124567D02*
Y1160906D01*
X891969Y1124567D02*
X928307D01*
X891969D02*
Y1156437D01*
X1083335Y1206028D02*
Y1267248D01*
X970933Y1206028D02*
X1083335D01*
X970933D02*
Y1267248D01*
X1083335D01*
X831500Y1189000D02*
X841500D01*
X831500D02*
Y1229000D01*
X841500Y1189000D02*
Y1229000D01*
X831500D02*
X841500D01*
X1052500Y1092500D02*
Y1132500D01*
X1032500Y1092500D02*
Y1132500D01*
Y1092500D02*
X1052500D01*
X1032500Y1132500D02*
X1052500D01*
X1054000Y1148500D02*
Y1178500D01*
X1044000D02*
X1054000D01*
X1044000Y1148500D02*
Y1178500D01*
Y1148500D02*
X1054000D01*
X1028000D02*
Y1178500D01*
X1018000D02*
X1028000D01*
X1018000Y1148500D02*
Y1178500D01*
Y1148500D02*
X1028000D01*
M02*
