%FSLAX25Y25*%
%MOIN*%
G70*
G01*
G75*
G04 Layer_Color=8421504*
%ADD10R,0.07874X0.21654*%
%ADD11R,0.03543X0.02362*%
%ADD12R,0.02362X0.03543*%
%ADD13R,0.02362X0.01969*%
%ADD14R,0.05118X0.02756*%
%ADD15R,0.01181X0.04724*%
%ADD16R,0.04724X0.01181*%
%ADD17R,0.11811X0.06299*%
%ADD18R,0.24410X0.22835*%
%ADD19R,0.02835X0.02835*%
%ADD20R,0.02835X0.02835*%
%ADD21R,0.02756X0.05118*%
%ADD22R,0.05512X0.08268*%
%ADD23C,0.01000*%
%ADD24C,0.00800*%
%ADD25R,0.05906X0.05906*%
%ADD26C,0.05906*%
%ADD27R,0.05906X0.05906*%
%ADD28C,0.02200*%
%ADD29C,0.00787*%
D10*
X848106Y1105299D02*
D03*
X848500Y1142701D02*
D03*
D11*
X1036500Y1161453D02*
D03*
Y1155547D02*
D03*
X921000Y1108047D02*
D03*
Y1113953D02*
D03*
X955500Y1176547D02*
D03*
Y1182453D02*
D03*
X874500Y1163453D02*
D03*
Y1157547D02*
D03*
X894500Y1177453D02*
D03*
Y1171547D02*
D03*
X899000Y1108047D02*
D03*
Y1113953D02*
D03*
X880000Y1163453D02*
D03*
Y1157547D02*
D03*
X927000Y1108047D02*
D03*
Y1113953D02*
D03*
X1013500Y1196547D02*
D03*
Y1202453D02*
D03*
D12*
X944953Y1153500D02*
D03*
X939047D02*
D03*
X873047Y1129500D02*
D03*
X878953D02*
D03*
X944953Y1159500D02*
D03*
X939047D02*
D03*
X873047Y1135000D02*
D03*
X878953D02*
D03*
X967953Y1248000D02*
D03*
X962047D02*
D03*
X1047953Y1276500D02*
D03*
X1042047D02*
D03*
X962047Y1259000D02*
D03*
X967953D02*
D03*
X962047Y1253500D02*
D03*
X967953D02*
D03*
X1047953Y1271000D02*
D03*
X1042047D02*
D03*
X985047Y1143500D02*
D03*
X990953D02*
D03*
X984047Y1163500D02*
D03*
X989953D02*
D03*
D13*
X848500Y1156531D02*
D03*
Y1160469D02*
D03*
X848000Y1091469D02*
D03*
Y1087532D02*
D03*
D14*
X891000Y1106760D02*
D03*
Y1114240D02*
D03*
X856000Y1211740D02*
D03*
Y1204260D02*
D03*
D15*
X895374Y1165374D02*
D03*
X897343D02*
D03*
X899311D02*
D03*
X901280D02*
D03*
X903248D02*
D03*
X905217D02*
D03*
X907185D02*
D03*
X909154D02*
D03*
X911122D02*
D03*
X913091D02*
D03*
X915059D02*
D03*
X917028D02*
D03*
X918996D02*
D03*
X920965D02*
D03*
X922933D02*
D03*
X924902D02*
D03*
Y1120098D02*
D03*
X922933D02*
D03*
X920965D02*
D03*
X918996D02*
D03*
X917028D02*
D03*
X915059D02*
D03*
X913091D02*
D03*
X911122D02*
D03*
X909154D02*
D03*
X907185D02*
D03*
X905217D02*
D03*
X903248D02*
D03*
X901280D02*
D03*
X899311D02*
D03*
X897343D02*
D03*
X895374D02*
D03*
D16*
X932776Y1157500D02*
D03*
Y1155532D02*
D03*
Y1153563D02*
D03*
Y1151595D02*
D03*
Y1149626D02*
D03*
Y1147658D02*
D03*
Y1145689D02*
D03*
Y1143721D02*
D03*
Y1141752D02*
D03*
Y1139784D02*
D03*
Y1137815D02*
D03*
Y1135847D02*
D03*
Y1133878D02*
D03*
Y1131910D02*
D03*
Y1129941D02*
D03*
Y1127973D02*
D03*
X887500D02*
D03*
Y1129941D02*
D03*
Y1131910D02*
D03*
Y1133878D02*
D03*
Y1135847D02*
D03*
Y1137815D02*
D03*
Y1139784D02*
D03*
Y1141752D02*
D03*
Y1143721D02*
D03*
Y1145689D02*
D03*
Y1147658D02*
D03*
Y1149626D02*
D03*
Y1151595D02*
D03*
Y1153563D02*
D03*
Y1155532D02*
D03*
Y1157500D02*
D03*
D17*
X868000Y1200008D02*
D03*
Y1218000D02*
D03*
D18*
X896268Y1209004D02*
D03*
D19*
X1053000Y1259002D02*
D03*
Y1253407D02*
D03*
Y1247813D02*
D03*
Y1242219D02*
D03*
Y1236624D02*
D03*
Y1231030D02*
D03*
Y1225435D02*
D03*
Y1219841D02*
D03*
Y1214246D02*
D03*
X974166D02*
D03*
Y1219841D02*
D03*
Y1225435D02*
D03*
Y1231030D02*
D03*
Y1236624D02*
D03*
Y1242219D02*
D03*
Y1247813D02*
D03*
Y1253407D02*
D03*
Y1259002D02*
D03*
D20*
X1048000Y1209248D02*
D03*
X1042264D02*
D03*
X1036528D02*
D03*
X1030791D02*
D03*
X1025055D02*
D03*
X1019319D02*
D03*
X1013583D02*
D03*
X1007846D02*
D03*
X1002110D02*
D03*
X996374D02*
D03*
X990638D02*
D03*
X984902D02*
D03*
X979165D02*
D03*
Y1264000D02*
D03*
X984902D02*
D03*
X990638D02*
D03*
X996374D02*
D03*
X1002110D02*
D03*
X1007846D02*
D03*
X1013583D02*
D03*
X1019319D02*
D03*
X1025055D02*
D03*
X1030791D02*
D03*
X1036528D02*
D03*
X1042264D02*
D03*
X1048000D02*
D03*
D21*
X875760Y1227500D02*
D03*
X883240D02*
D03*
D22*
X955358Y1225913D02*
D03*
Y1190087D02*
D03*
X937642Y1225913D02*
D03*
Y1190087D02*
D03*
M02*
