%FSLAX25Y25*%
%MOIN*%
G70*
G01*
G75*
G04 Layer_Physical_Order=1*
G04 Layer_Color=255*
%ADD10R,0.03543X0.02362*%
%ADD11R,0.05906X0.07874*%
%ADD12R,0.14961X0.07874*%
%ADD13R,0.05118X0.02756*%
%ADD14R,0.02362X0.03543*%
%ADD15R,0.05709X0.02362*%
%ADD16R,0.03937X0.19685*%
%ADD17R,0.01181X0.04724*%
%ADD18R,0.04724X0.01181*%
%ADD19R,0.05512X0.08268*%
%ADD20R,0.03937X0.07874*%
%ADD21R,0.02835X0.02835*%
%ADD22R,0.02835X0.02835*%
%ADD23C,0.00800*%
%ADD24C,0.01200*%
%ADD25C,0.01000*%
%ADD26C,0.02000*%
%ADD27C,0.05000*%
%ADD28C,0.06299*%
%ADD29O,0.07087X0.09843*%
%ADD30C,0.15748*%
%ADD31C,0.25000*%
%ADD32O,0.07087X0.05512*%
%ADD33R,0.07087X0.07087*%
%ADD34C,0.07087*%
%ADD35C,0.02500*%
%ADD36C,0.03200*%
G36*
X5076673Y2766240D02*
X4901911D01*
Y2767288D01*
X4897676D01*
Y2766240D01*
X4896316D01*
Y2767288D01*
X4892081D01*
Y2766240D01*
X4890722D01*
Y2767288D01*
X4886487D01*
Y2766240D01*
X4885127D01*
Y2767288D01*
X4880893D01*
Y2766240D01*
X4879533D01*
Y2767288D01*
X4875298D01*
Y2766240D01*
X4873938D01*
Y2767288D01*
X4869704D01*
Y2766240D01*
X4868344D01*
Y2767288D01*
X4864109D01*
Y2766240D01*
X4862749D01*
Y2767288D01*
X4858515D01*
Y2766240D01*
X4857154D01*
Y2767288D01*
X4852920D01*
Y2766240D01*
X4789862D01*
Y3107451D01*
Y3185630D01*
X4857249D01*
X4857273Y3185131D01*
X4857079Y3185111D01*
X4855463Y3184621D01*
X4853973Y3183825D01*
X4852668Y3182754D01*
X4851596Y3181448D01*
X4850800Y3179958D01*
X4850310Y3178342D01*
X4850144Y3176661D01*
X4850310Y3174981D01*
X4850800Y3173364D01*
X4851596Y3171875D01*
X4852668Y3170569D01*
X4853973Y3169498D01*
X4855463Y3168702D01*
X4857079Y3168212D01*
X4858760Y3168046D01*
X4860440Y3168212D01*
X4862057Y3168702D01*
X4863546Y3169498D01*
X4864852Y3170569D01*
X4865923Y3171875D01*
X4866719Y3173364D01*
X4867210Y3174981D01*
X4867375Y3176661D01*
X4867210Y3178342D01*
X4866719Y3179958D01*
X4865923Y3181448D01*
X4864852Y3182754D01*
X4863546Y3183825D01*
X4862057Y3184621D01*
X4860440Y3185111D01*
X4860246Y3185131D01*
X4860271Y3185630D01*
X4888272D01*
X4888297Y3185131D01*
X4888103Y3185111D01*
X4886486Y3184621D01*
X4884997Y3183825D01*
X4883691Y3182754D01*
X4882620Y3181448D01*
X4881824Y3179958D01*
X4881334Y3178342D01*
X4881168Y3176661D01*
X4881334Y3174981D01*
X4881824Y3173364D01*
X4882620Y3171875D01*
X4883691Y3170569D01*
X4884997Y3169498D01*
X4886486Y3168702D01*
X4888103Y3168212D01*
X4889783Y3168046D01*
X4891464Y3168212D01*
X4893081Y3168702D01*
X4894570Y3169498D01*
X4895876Y3170569D01*
X4896947Y3171875D01*
X4897743Y3173364D01*
X4898233Y3174981D01*
X4898399Y3176661D01*
X4898233Y3178342D01*
X4897743Y3179958D01*
X4896947Y3181448D01*
X4895876Y3182754D01*
X4894570Y3183825D01*
X4893081Y3184621D01*
X4891464Y3185111D01*
X4891270Y3185131D01*
X4891294Y3185630D01*
X4960375D01*
X4960399Y3185131D01*
X4960205Y3185111D01*
X4958589Y3184621D01*
X4957099Y3183825D01*
X4955794Y3182754D01*
X4954722Y3181448D01*
X4953926Y3179958D01*
X4953436Y3178342D01*
X4953270Y3176661D01*
X4953436Y3174981D01*
X4953926Y3173364D01*
X4954722Y3171875D01*
X4955794Y3170569D01*
X4957099Y3169498D01*
X4958589Y3168702D01*
X4960205Y3168212D01*
X4961886Y3168046D01*
X4963567Y3168212D01*
X4965183Y3168702D01*
X4966672Y3169498D01*
X4967978Y3170569D01*
X4969049Y3171875D01*
X4969846Y3173364D01*
X4970336Y3174981D01*
X4970501Y3176661D01*
X4970336Y3178342D01*
X4969846Y3179958D01*
X4969049Y3181448D01*
X4967978Y3182754D01*
X4966672Y3183825D01*
X4965183Y3184621D01*
X4963567Y3185111D01*
X4963372Y3185131D01*
X4963397Y3185630D01*
X4991399D01*
X4991423Y3185131D01*
X4991228Y3185111D01*
X4989613Y3184621D01*
X4988123Y3183825D01*
X4986818Y3182754D01*
X4985746Y3181448D01*
X4984950Y3179958D01*
X4984460Y3178342D01*
X4984294Y3176661D01*
X4984460Y3174981D01*
X4984950Y3173364D01*
X4985746Y3171875D01*
X4986818Y3170569D01*
X4988123Y3169498D01*
X4989613Y3168702D01*
X4991228Y3168212D01*
X4992909Y3168046D01*
X4994590Y3168212D01*
X4996207Y3168702D01*
X4997696Y3169498D01*
X4999001Y3170569D01*
X5000073Y3171875D01*
X5000869Y3173364D01*
X5001360Y3174981D01*
X5001525Y3176661D01*
X5001360Y3178342D01*
X5000869Y3179958D01*
X5000073Y3181448D01*
X4999001Y3182754D01*
X4997696Y3183825D01*
X4996207Y3184621D01*
X4994590Y3185111D01*
X4994396Y3185131D01*
X4994420Y3185630D01*
X5076673D01*
Y2766240D01*
D02*
G37*
%LPC*%
G36*
X5000098Y2887060D02*
X4999338Y2886909D01*
X4998692Y2886478D01*
X4998262Y2885833D01*
X4998110Y2885072D01*
X4998177Y2884737D01*
X4916030Y2802590D01*
X4906908D01*
Y2803586D01*
X4902674D01*
Y2799351D01*
X4906908D01*
Y2800347D01*
X4916495D01*
X4916495Y2800347D01*
X4916924Y2800432D01*
X4917288Y2800675D01*
X4999763Y2883151D01*
X5000098Y2883084D01*
X5000859Y2883235D01*
X5001504Y2883666D01*
X5001935Y2884311D01*
X5002087Y2885072D01*
X5001935Y2885833D01*
X5001504Y2886478D01*
X5000859Y2886909D01*
X5000098Y2887060D01*
D02*
G37*
G36*
Y2881286D02*
X4999338Y2881135D01*
X4998692Y2880704D01*
X4998262Y2880059D01*
X4998110Y2879298D01*
X4998177Y2878963D01*
X4916005Y2796791D01*
X4906908D01*
Y2797849D01*
X4902674D01*
Y2793615D01*
X4906908D01*
Y2794548D01*
X4916470D01*
X4916470Y2794548D01*
X4916899Y2794633D01*
X4917263Y2794876D01*
X4999763Y2877376D01*
X5000098Y2877310D01*
X5000859Y2877461D01*
X5001504Y2877892D01*
X5001935Y2878537D01*
X5002087Y2879298D01*
X5001935Y2880059D01*
X5001504Y2880704D01*
X5000859Y2881135D01*
X5000098Y2881286D01*
D02*
G37*
G36*
X4842894Y2934028D02*
X4839840D01*
Y2932647D01*
X4842894D01*
Y2934028D01*
D02*
G37*
G36*
X5000098Y2892835D02*
X4999338Y2892683D01*
X4998692Y2892252D01*
X4998262Y2891607D01*
X4998110Y2890846D01*
X4998177Y2890511D01*
X4921729Y2814062D01*
X4906908D01*
Y2815058D01*
X4902674D01*
Y2810824D01*
X4906908D01*
Y2811819D01*
X4922193D01*
X4922193Y2811819D01*
X4922622Y2811905D01*
X4922986Y2812148D01*
X4999763Y2888925D01*
X5000098Y2888858D01*
X5000859Y2889010D01*
X5001504Y2889441D01*
X5001935Y2890086D01*
X5002087Y2890846D01*
X5001935Y2891607D01*
X5001504Y2892252D01*
X5000859Y2892683D01*
X5000098Y2892835D01*
D02*
G37*
G36*
X4899291Y2860621D02*
X4897320D01*
Y2859240D01*
X4899291D01*
Y2860621D01*
D02*
G37*
G36*
X4891263D02*
X4889291D01*
Y2859240D01*
X4891263D01*
Y2860621D01*
D02*
G37*
G36*
X4999902Y2875315D02*
X4999141Y2875164D01*
X4998496Y2874733D01*
X4998065Y2874088D01*
X4997913Y2873327D01*
X4997947Y2873156D01*
X4915910Y2791118D01*
X4906908D01*
Y2792113D01*
X4902674D01*
Y2787879D01*
X4906908D01*
Y2788874D01*
X4916374D01*
X4916374Y2788874D01*
X4916803Y2788960D01*
X4917167Y2789203D01*
X4999402Y2871438D01*
X4999902Y2871339D01*
X5000662Y2871490D01*
X5001307Y2871921D01*
X5001738Y2872566D01*
X5001890Y2873327D01*
X5001738Y2874088D01*
X5001307Y2874733D01*
X5000662Y2875164D01*
X4999902Y2875315D01*
D02*
G37*
G36*
X4902263Y2860621D02*
X4900291D01*
Y2859240D01*
X4902263D01*
Y2860621D01*
D02*
G37*
G36*
X4846948Y2934028D02*
X4843894D01*
Y2932647D01*
X4846948D01*
Y2934028D01*
D02*
G37*
G36*
X4969204Y2942709D02*
X4967035D01*
Y2938572D01*
X4969204D01*
Y2942709D01*
D02*
G37*
G36*
X4966035D02*
X4963867D01*
Y2938572D01*
X4966035D01*
Y2942709D01*
D02*
G37*
G36*
X4984952D02*
X4982784D01*
Y2938572D01*
X4984952D01*
Y2942709D01*
D02*
G37*
G36*
X4981784D02*
X4979615D01*
Y2938572D01*
X4981784D01*
Y2942709D01*
D02*
G37*
G36*
X4846948Y2936409D02*
X4843894D01*
Y2935028D01*
X4846948D01*
Y2936409D01*
D02*
G37*
G36*
X4842894D02*
X4839840D01*
Y2935028D01*
X4842894D01*
Y2936409D01*
D02*
G37*
G36*
X4953456Y2942709D02*
X4951287D01*
Y2938572D01*
X4953456D01*
Y2942709D01*
D02*
G37*
G36*
X4950287D02*
X4948119D01*
Y2938572D01*
X4950287D01*
Y2942709D01*
D02*
G37*
G36*
X4868344Y2848739D02*
X4866726D01*
Y2847122D01*
X4868344D01*
Y2848739D01*
D02*
G37*
G36*
X4865726D02*
X4864109D01*
Y2847122D01*
X4865726D01*
Y2848739D01*
D02*
G37*
G36*
X4885127D02*
X4883510D01*
Y2847122D01*
X4885127D01*
Y2848739D01*
D02*
G37*
G36*
X4882510D02*
X4880893D01*
Y2847122D01*
X4882510D01*
Y2848739D01*
D02*
G37*
G36*
Y2846122D02*
X4880893D01*
Y2844504D01*
X4882510D01*
Y2846122D01*
D02*
G37*
G36*
X4877415Y2858010D02*
X4876654Y2857858D01*
X4876009Y2857427D01*
X4875579Y2856782D01*
X4875427Y2856022D01*
X4875579Y2855261D01*
X4876009Y2854616D01*
X4876294Y2854426D01*
Y2848739D01*
X4875298D01*
Y2844504D01*
X4879533D01*
Y2848739D01*
X4878537D01*
Y2854426D01*
X4878821Y2854616D01*
X4879252Y2855261D01*
X4879404Y2856022D01*
X4879252Y2856782D01*
X4878821Y2857427D01*
X4878176Y2857858D01*
X4877415Y2858010D01*
D02*
G37*
G36*
X4891263Y2854716D02*
X4886320D01*
Y2850953D01*
X4887670D01*
Y2848739D01*
X4886487D01*
Y2844504D01*
X4890722D01*
Y2848739D01*
X4889913D01*
Y2850953D01*
X4891263D01*
Y2854716D01*
D02*
G37*
G36*
X4885127Y2846122D02*
X4883510D01*
Y2844504D01*
X4885127D01*
Y2846122D01*
D02*
G37*
G36*
X4893791Y2858240D02*
X4891820D01*
Y2856859D01*
X4893791D01*
Y2858240D01*
D02*
G37*
G36*
Y2860621D02*
X4891820D01*
Y2859240D01*
X4893791D01*
Y2860621D01*
D02*
G37*
G36*
X4902263Y2858240D02*
X4900291D01*
Y2856859D01*
X4902263D01*
Y2858240D01*
D02*
G37*
G36*
X4888291Y2860621D02*
X4886320D01*
Y2859240D01*
X4888291D01*
Y2860621D01*
D02*
G37*
G36*
X4896763Y2860621D02*
X4894791D01*
Y2859240D01*
X4896763D01*
Y2860621D01*
D02*
G37*
G36*
X4888291Y2858240D02*
X4886320D01*
Y2856859D01*
X4888291D01*
Y2858240D01*
D02*
G37*
G36*
X4896763Y2858240D02*
X4894791D01*
Y2856859D01*
X4896763D01*
Y2858240D01*
D02*
G37*
G36*
X4899291Y2858240D02*
X4897320D01*
Y2856859D01*
X4899291D01*
Y2858240D01*
D02*
G37*
G36*
X4891263D02*
X4889291D01*
Y2856859D01*
X4891263D01*
Y2858240D01*
D02*
G37*
G36*
X5033358Y2983082D02*
X5031387D01*
Y2981701D01*
X5033358D01*
Y2983082D01*
D02*
G37*
G36*
X5052953Y2982718D02*
X5052665D01*
Y2979732D01*
X5056372D01*
X5056320Y2980134D01*
X5055972Y2980975D01*
X5055418Y2981697D01*
X5054696Y2982251D01*
X5053855Y2982599D01*
X5052953Y2982718D01*
D02*
G37*
G36*
X5003445Y3155867D02*
X4868602D01*
X4867939Y3155735D01*
X4867377Y3155359D01*
X4867377Y3155359D01*
X4863046Y3151029D01*
X4862670Y3150467D01*
X4862539Y3149803D01*
Y3147899D01*
X4862132Y3147730D01*
X4861245Y3147050D01*
X4860565Y3146164D01*
X4860138Y3145131D01*
X4859992Y3144024D01*
Y3141268D01*
X4860138Y3140160D01*
X4860565Y3139128D01*
X4861245Y3138241D01*
X4862132Y3137561D01*
X4862539Y3137393D01*
Y3133476D01*
X4862391D01*
Y3128532D01*
X4862539D01*
Y3126979D01*
X4862292D01*
Y3122036D01*
X4866054D01*
Y3126979D01*
X4866005D01*
Y3128532D01*
X4866153D01*
Y3133476D01*
X4866005D01*
Y3137393D01*
X4866412Y3137561D01*
X4867298Y3138241D01*
X4867978Y3139128D01*
X4868406Y3140160D01*
X4868552Y3141268D01*
Y3144024D01*
X4868406Y3145131D01*
X4867978Y3146164D01*
X4867298Y3147050D01*
X4866412Y3147730D01*
X4866005Y3147899D01*
Y3149085D01*
X4869320Y3152401D01*
X4965664D01*
Y3147899D01*
X4965258Y3147730D01*
X4964371Y3147050D01*
X4963691Y3146164D01*
X4963263Y3145131D01*
X4963118Y3144024D01*
Y3141268D01*
X4963263Y3140160D01*
X4963691Y3139128D01*
X4964371Y3138241D01*
X4965258Y3137561D01*
X4965664Y3137393D01*
Y3133377D01*
X4965442D01*
Y3128434D01*
X4965590D01*
Y3127472D01*
X4965442D01*
Y3122528D01*
X4969204D01*
Y3127472D01*
X4969056D01*
Y3128434D01*
X4969204D01*
Y3133377D01*
X4969131D01*
Y3137393D01*
X4969538Y3137561D01*
X4970424Y3138241D01*
X4971104Y3139128D01*
X4971532Y3140160D01*
X4971678Y3141268D01*
Y3144024D01*
X4971532Y3145131D01*
X4971104Y3146164D01*
X4970424Y3147050D01*
X4969538Y3147730D01*
X4969131Y3147899D01*
Y3152401D01*
X5002727D01*
X5019247Y3135881D01*
X5019809Y3135505D01*
X5020472Y3135373D01*
X5020472Y3135373D01*
X5066310D01*
X5070905Y3130778D01*
Y2997076D01*
X5062668Y2988840D01*
X5055975D01*
X5055972Y2988849D01*
X5055418Y2989571D01*
X5054696Y2990125D01*
X5053855Y2990473D01*
X5052953Y2990592D01*
X5051378D01*
X5050476Y2990473D01*
X5049635Y2990125D01*
X5048913Y2989571D01*
X5048359Y2988849D01*
X5048355Y2988840D01*
X5036330D01*
Y2988987D01*
X5031387D01*
Y2988987D01*
X5031082Y2988987D01*
X5017269Y3002800D01*
X5016706Y3003176D01*
X5016043Y3003308D01*
X5015168D01*
Y3003653D01*
X5013643D01*
Y3007272D01*
X5015365D01*
Y3016546D01*
X5008060D01*
Y3007272D01*
X5010176D01*
Y3003653D01*
X5008651D01*
Y2999497D01*
X5015168D01*
Y2999497D01*
X5015670Y2999497D01*
X5029286Y2985881D01*
X5029286D01*
X5029286Y2985881D01*
X5029286Y2985881D01*
Y2985881D01*
X5029848Y2985505D01*
X5030512Y2985373D01*
X5031387D01*
Y2985225D01*
X5036330D01*
Y2985373D01*
X5048355D01*
X5048359Y2985363D01*
X5048913Y2984641D01*
X5049635Y2984088D01*
X5050476Y2983739D01*
X5051378Y2983621D01*
X5052953D01*
X5053855Y2983739D01*
X5054696Y2984088D01*
X5055418Y2984641D01*
X5055972Y2985363D01*
X5055975Y2985373D01*
X5063386D01*
X5064049Y2985505D01*
X5064611Y2985881D01*
X5064611Y2985881D01*
X5064611Y2985881D01*
X5073863Y2995133D01*
X5073863Y2995133D01*
X5073863Y2995133D01*
X5074239Y2995695D01*
X5074371Y2996358D01*
Y3131496D01*
X5074371Y3131496D01*
X5074239Y3132159D01*
X5073863Y3132722D01*
X5068253Y3138332D01*
X5067691Y3138708D01*
X5067028Y3138840D01*
X5021190D01*
X5004670Y3155359D01*
X5004108Y3155735D01*
X5003445Y3155867D01*
D02*
G37*
G36*
X5036330Y2983082D02*
X5034358D01*
Y2981701D01*
X5036330D01*
Y2983082D01*
D02*
G37*
G36*
X5033358Y2980701D02*
X5031387D01*
Y2979320D01*
X5033358D01*
Y2980701D01*
D02*
G37*
G36*
X4845964Y2980433D02*
X4845204Y2980282D01*
X4844559Y2979851D01*
X4844128Y2979206D01*
X4843976Y2978445D01*
X4844043Y2978110D01*
X4842774Y2976840D01*
X4842531Y2976476D01*
X4842445Y2976047D01*
X4842445Y2976047D01*
Y2956102D01*
X4841048D01*
Y2952339D01*
X4845991D01*
Y2956102D01*
X4844688D01*
Y2975583D01*
X4845629Y2976523D01*
X4845964Y2976457D01*
X4846725Y2976608D01*
X4847371Y2977039D01*
X4847802Y2977684D01*
X4847953Y2978445D01*
X4847802Y2979206D01*
X4847371Y2979851D01*
X4846725Y2980282D01*
X4845964Y2980433D01*
D02*
G37*
G36*
X5051665Y2982718D02*
X5051378D01*
X5050476Y2982599D01*
X5049635Y2982251D01*
X5048913Y2981697D01*
X5048359Y2980975D01*
X5048011Y2980134D01*
X5047958Y2979732D01*
X5051665D01*
Y2982718D01*
D02*
G37*
G36*
X5036330Y2980701D02*
X5034358D01*
Y2979320D01*
X5036330D01*
Y2980701D01*
D02*
G37*
G36*
X5011409Y2993595D02*
X5008651D01*
Y2992016D01*
X5011409D01*
Y2993595D01*
D02*
G37*
G36*
X4993102Y3016546D02*
X4989949D01*
Y3012409D01*
X4993102D01*
Y3016546D01*
D02*
G37*
G36*
X4997255Y3011409D02*
X4994102D01*
Y3007272D01*
X4997255D01*
Y3011409D01*
D02*
G37*
G36*
X5046772Y3027095D02*
X5045664Y3026949D01*
X5044632Y3026521D01*
X5043745Y3025841D01*
X5043065Y3024955D01*
X5042638Y3023923D01*
X5042492Y3022815D01*
X5042638Y3021707D01*
X5043065Y3020675D01*
X5043745Y3019789D01*
X5044632Y3019108D01*
X5045664Y3018681D01*
X5046772Y3018535D01*
X5047879Y3018681D01*
X5048912Y3019108D01*
X5049798Y3019789D01*
X5050478Y3020675D01*
X5050906Y3021707D01*
X5051052Y3022815D01*
X5050906Y3023923D01*
X5050478Y3024955D01*
X5049798Y3025841D01*
X5048912Y3026521D01*
X5047879Y3026949D01*
X5046772Y3027095D01*
D02*
G37*
G36*
X4997255Y3016546D02*
X4994102D01*
Y3012409D01*
X4997255D01*
Y3016546D01*
D02*
G37*
G36*
X5011409Y2996172D02*
X5008651D01*
Y2994595D01*
X5011409D01*
Y2996172D01*
D02*
G37*
G36*
X5015168Y2993595D02*
X5012409D01*
Y2992016D01*
X5015168D01*
Y2993595D01*
D02*
G37*
G36*
X4993102Y3011409D02*
X4989949D01*
Y3007272D01*
X4993102D01*
Y3011409D01*
D02*
G37*
G36*
X5015168Y2996172D02*
X5012409D01*
Y2994595D01*
X5015168D01*
Y2996172D01*
D02*
G37*
G36*
X4950287Y2947846D02*
X4948119D01*
Y2943709D01*
X4950287D01*
Y2947846D01*
D02*
G37*
G36*
X4881339Y2954114D02*
X4880578Y2953963D01*
X4879933Y2953532D01*
X4879502Y2952887D01*
X4879351Y2952126D01*
X4879502Y2951365D01*
X4879933Y2950720D01*
X4880578Y2950289D01*
X4881339Y2950138D01*
X4881554Y2950180D01*
X4883422Y2948312D01*
Y2946102D01*
X4882174D01*
Y2942339D01*
X4887117D01*
Y2946102D01*
X4885869D01*
Y2948819D01*
X4885776Y2949287D01*
X4885511Y2949684D01*
X4883284Y2951911D01*
X4883327Y2952126D01*
X4883176Y2952887D01*
X4882745Y2953532D01*
X4882100Y2953963D01*
X4881339Y2954114D01*
D02*
G37*
G36*
X4966035Y2947846D02*
X4963867D01*
Y2943709D01*
X4966035D01*
Y2947846D01*
D02*
G37*
G36*
X4953456D02*
X4951287D01*
Y2943709D01*
X4953456D01*
Y2947846D01*
D02*
G37*
G36*
X4845991Y2950196D02*
X4841048D01*
Y2946434D01*
X4842398D01*
Y2943889D01*
X4839840D01*
Y2940127D01*
X4846948D01*
Y2943889D01*
X4844641D01*
Y2946434D01*
X4845991D01*
Y2950196D01*
D02*
G37*
G36*
X4887117Y2940196D02*
X4882174D01*
Y2939389D01*
X4881367D01*
Y2940196D01*
X4876424D01*
Y2939389D01*
X4875617D01*
Y2940196D01*
X4870674D01*
Y2939389D01*
X4869867D01*
Y2940196D01*
X4864924D01*
Y2939389D01*
X4864117D01*
Y2940196D01*
X4859174D01*
Y2939389D01*
X4856200D01*
Y2940149D01*
X4849091D01*
Y2936387D01*
X4856200D01*
Y2937146D01*
X4859174D01*
Y2936434D01*
X4864117D01*
Y2937146D01*
X4864924D01*
Y2936434D01*
X4869867D01*
Y2937146D01*
X4870674D01*
Y2936434D01*
X4875617D01*
Y2937146D01*
X4876424D01*
Y2936434D01*
X4881367D01*
Y2937146D01*
X4882174D01*
Y2936434D01*
X4887117D01*
Y2940196D01*
D02*
G37*
G36*
X4877402Y2952087D02*
X4876641Y2951935D01*
X4875996Y2951504D01*
X4875565Y2950859D01*
X4875414Y2950098D01*
X4875565Y2949338D01*
X4875996Y2948693D01*
X4876641Y2948262D01*
X4877402Y2948110D01*
X4877672Y2946750D01*
Y2946102D01*
X4876424D01*
Y2942339D01*
X4881367D01*
Y2946102D01*
X4880119D01*
Y2948604D01*
X4880026Y2949073D01*
X4879920Y2949232D01*
X4879761Y2949470D01*
X4879347Y2949883D01*
X4879390Y2950098D01*
X4879239Y2950859D01*
X4878807Y2951504D01*
X4878162Y2951935D01*
X4877402Y2952087D01*
D02*
G37*
G36*
X4873465Y2954213D02*
X4872704Y2954061D01*
X4872059Y2953630D01*
X4871628Y2952985D01*
X4871476Y2952224D01*
X4871628Y2951464D01*
X4872059Y2950818D01*
X4872241Y2950697D01*
Y2946102D01*
X4870674D01*
Y2942339D01*
X4875617D01*
Y2946102D01*
X4874688D01*
Y2950697D01*
X4874871Y2950818D01*
X4875301Y2951464D01*
X4875453Y2952224D01*
X4875301Y2952985D01*
X4874871Y2953630D01*
X4874226Y2954061D01*
X4873465Y2954213D01*
D02*
G37*
G36*
X4969204Y2947846D02*
X4967035D01*
Y2943709D01*
X4969204D01*
Y2947846D01*
D02*
G37*
G36*
X5007185Y2982008D02*
X5006424Y2981857D01*
X5005779Y2981426D01*
X5005348Y2980780D01*
X5005197Y2980020D01*
X5005348Y2979259D01*
X5005779Y2978614D01*
X5006424Y2978183D01*
X5007185Y2978032D01*
X5007520Y2978098D01*
X5015054Y2970565D01*
X5015054Y2970565D01*
X5015417Y2970322D01*
X5015417Y2970322D01*
X5015417Y2970322D01*
D01*
X5015417Y2970322D01*
X5015417Y2970322D01*
X5015847Y2970237D01*
X5048102D01*
X5048359Y2969615D01*
X5048913Y2968893D01*
X5049635Y2968340D01*
X5050476Y2967991D01*
X5051378Y2967872D01*
X5052953D01*
X5053855Y2967991D01*
X5054696Y2968340D01*
X5055418Y2968893D01*
X5055972Y2969615D01*
X5056320Y2970456D01*
X5056438Y2971358D01*
X5056320Y2972260D01*
X5055972Y2973101D01*
X5055418Y2973823D01*
X5054696Y2974377D01*
X5053855Y2974725D01*
X5052953Y2974844D01*
X5051378D01*
X5050476Y2974725D01*
X5049635Y2974377D01*
X5048913Y2973823D01*
X5048359Y2973101D01*
X5048102Y2972480D01*
X5016311D01*
X5009106Y2979684D01*
X5009173Y2980020D01*
X5009022Y2980780D01*
X5008591Y2981426D01*
X5007946Y2981857D01*
X5007185Y2982008D01*
D02*
G37*
G36*
Y2976398D02*
X5006424Y2976246D01*
X5005779Y2975815D01*
X5005348Y2975170D01*
X5005197Y2974409D01*
X5005348Y2973649D01*
X5005779Y2973004D01*
X5006424Y2972573D01*
X5007185Y2972421D01*
X5007520Y2972488D01*
X5017317Y2962691D01*
X5017317Y2962691D01*
X5017681Y2962448D01*
X5017681Y2962448D01*
X5017681Y2962448D01*
D01*
X5017681Y2962448D01*
X5017681Y2962448D01*
X5018110Y2962363D01*
X5018110Y2962363D01*
X5048102D01*
X5048359Y2961741D01*
X5048913Y2961020D01*
X5049635Y2960465D01*
X5050476Y2960117D01*
X5051378Y2959999D01*
X5052953D01*
X5053855Y2960117D01*
X5054696Y2960465D01*
X5055418Y2961020D01*
X5055972Y2961741D01*
X5056320Y2962582D01*
X5056438Y2963484D01*
X5056320Y2964386D01*
X5055972Y2965227D01*
X5055418Y2965949D01*
X5054696Y2966503D01*
X5053855Y2966851D01*
X5052953Y2966970D01*
X5051378D01*
X5050476Y2966851D01*
X5049635Y2966503D01*
X5048913Y2965949D01*
X5048359Y2965227D01*
X5048102Y2964606D01*
X5018575D01*
X5009106Y2974074D01*
X5009173Y2974409D01*
X5009022Y2975170D01*
X5008591Y2975815D01*
X5007946Y2976246D01*
X5007185Y2976398D01*
D02*
G37*
G36*
X5056372Y2978732D02*
X5052665D01*
Y2975747D01*
X5052953D01*
X5053855Y2975865D01*
X5054696Y2976214D01*
X5055418Y2976768D01*
X5055972Y2977489D01*
X5056320Y2978330D01*
X5056372Y2978732D01*
D02*
G37*
G36*
X5051665D02*
X5047958D01*
X5048011Y2978330D01*
X5048359Y2977489D01*
X5048913Y2976768D01*
X5049635Y2976214D01*
X5050476Y2975865D01*
X5051378Y2975747D01*
X5051665D01*
Y2978732D01*
D02*
G37*
G36*
X4984952Y2947846D02*
X4982784D01*
Y2943709D01*
X4984952D01*
Y2947846D01*
D02*
G37*
G36*
X4981784D02*
X4979615D01*
Y2943709D01*
X4981784D01*
Y2947846D01*
D02*
G37*
G36*
X4865591Y2953996D02*
X4864830Y2953845D01*
X4864185Y2953414D01*
X4863754Y2952769D01*
X4863602Y2952008D01*
X4863645Y2951793D01*
X4860780Y2948928D01*
X4860515Y2948531D01*
X4860422Y2948063D01*
Y2946102D01*
X4859174D01*
Y2942339D01*
X4864117D01*
Y2946102D01*
X4862869D01*
Y2947556D01*
X4865376Y2950063D01*
X4865591Y2950020D01*
X4866351Y2950171D01*
X4866996Y2950602D01*
X4867200Y2950907D01*
X4867662Y2950716D01*
X4867540Y2950098D01*
X4867582Y2949883D01*
X4866531Y2948832D01*
X4866265Y2948435D01*
X4866172Y2947966D01*
Y2946102D01*
X4864924D01*
Y2942339D01*
X4869867D01*
Y2946102D01*
X4868619D01*
Y2947460D01*
X4869313Y2948153D01*
X4869528Y2948110D01*
X4870288Y2948262D01*
X4870934Y2948693D01*
X4871365Y2949338D01*
X4871516Y2950098D01*
X4871365Y2950859D01*
X4870934Y2951504D01*
X4870288Y2951935D01*
X4869528Y2952087D01*
X4868767Y2951935D01*
X4868122Y2951504D01*
X4867918Y2951199D01*
X4867456Y2951391D01*
X4867579Y2952008D01*
X4867427Y2952769D01*
X4866996Y2953414D01*
X4866351Y2953845D01*
X4865591Y2953996D01*
D02*
G37*
G36*
X5066020Y2978563D02*
X5065259Y2978412D01*
X5064614Y2977981D01*
X5064183Y2977336D01*
X5064032Y2976575D01*
X5064183Y2975814D01*
X5064524Y2975303D01*
X5064246Y2974888D01*
X5063583Y2975020D01*
X5062822Y2974868D01*
X5062177Y2974437D01*
X5061746Y2973792D01*
X5061594Y2973031D01*
X5061746Y2972271D01*
X5062177Y2971626D01*
X5062822Y2971195D01*
X5063583Y2971043D01*
X5064344Y2971195D01*
X5064988Y2971626D01*
X5065179Y2971910D01*
X5065741D01*
X5065886Y2971432D01*
X5065818Y2971386D01*
X5065387Y2970741D01*
X5065236Y2969980D01*
X5065387Y2969220D01*
X5065818Y2968574D01*
X5066103Y2968385D01*
Y2967688D01*
X5065616Y2967592D01*
X5065186Y2968237D01*
X5064540Y2968668D01*
X5063779Y2968819D01*
X5063019Y2968668D01*
X5062374Y2968237D01*
X5061943Y2967592D01*
X5061791Y2966831D01*
X5061943Y2966070D01*
X5062374Y2965425D01*
X5062658Y2965235D01*
Y2954894D01*
X5012245Y2904481D01*
X5011909Y2904547D01*
X5011148Y2904396D01*
X5010504Y2903965D01*
X5010073Y2903320D01*
X5009921Y2902559D01*
X5010073Y2901798D01*
X5010504Y2901153D01*
X5011148Y2900722D01*
X5011909Y2900571D01*
X5012670Y2900722D01*
X5013315Y2901153D01*
X5013746Y2901798D01*
X5013898Y2902559D01*
X5013831Y2902894D01*
X5064573Y2953636D01*
X5064816Y2954000D01*
X5064901Y2954429D01*
X5064901Y2954429D01*
Y2965235D01*
X5065186Y2965425D01*
X5065616Y2966070D01*
X5066103Y2965973D01*
Y2952531D01*
X5012245Y2898673D01*
X5011909Y2898740D01*
X5011148Y2898589D01*
X5010504Y2898158D01*
X5010073Y2897513D01*
X5009921Y2896752D01*
X5010073Y2895991D01*
X5010504Y2895346D01*
X5011148Y2894915D01*
X5011909Y2894764D01*
X5012670Y2894915D01*
X5013315Y2895346D01*
X5013746Y2895991D01*
X5013898Y2896752D01*
X5013831Y2897087D01*
X5068018Y2951274D01*
X5068018Y2951274D01*
X5068261Y2951638D01*
X5068261Y2951638D01*
X5068261Y2951638D01*
X5068346Y2952067D01*
X5068346Y2952067D01*
Y2968385D01*
X5068630Y2968574D01*
X5068774Y2968789D01*
X5069252Y2968644D01*
Y2949874D01*
X5012245Y2892866D01*
X5011909Y2892933D01*
X5011148Y2892782D01*
X5010504Y2892351D01*
X5010073Y2891706D01*
X5009921Y2890945D01*
X5010073Y2890184D01*
X5010504Y2889539D01*
X5011148Y2889108D01*
X5011909Y2888957D01*
X5012670Y2889108D01*
X5013315Y2889539D01*
X5013746Y2890184D01*
X5013898Y2890945D01*
X5013831Y2891280D01*
X5071167Y2948616D01*
X5071167Y2948616D01*
X5071410Y2948980D01*
X5071495Y2949409D01*
X5071495Y2949409D01*
Y2971260D01*
X5071495Y2971260D01*
X5071410Y2971689D01*
X5071167Y2972053D01*
X5071167Y2972053D01*
X5069395Y2973825D01*
X5069032Y2974068D01*
X5068602Y2974153D01*
X5068602Y2974153D01*
X5066391D01*
X5066342Y2974651D01*
X5066780Y2974738D01*
X5067426Y2975169D01*
X5067616Y2975453D01*
X5068728D01*
X5072205Y2971976D01*
Y2947118D01*
X5012146Y2887059D01*
X5011811Y2887126D01*
X5011050Y2886975D01*
X5010405Y2886544D01*
X5009974Y2885899D01*
X5009823Y2885138D01*
X5009974Y2884377D01*
X5010405Y2883732D01*
X5011050Y2883301D01*
X5011811Y2883150D01*
X5012572Y2883301D01*
X5013217Y2883732D01*
X5013648Y2884377D01*
X5013799Y2885138D01*
X5013733Y2885473D01*
X5074120Y2945860D01*
X5074120Y2945860D01*
X5074363Y2946224D01*
X5074363Y2946224D01*
X5074363Y2946224D01*
X5074448Y2946654D01*
X5074448Y2946654D01*
Y2972441D01*
X5074448Y2972441D01*
X5074363Y2972870D01*
X5074120Y2973234D01*
X5074120Y2973234D01*
X5069986Y2977368D01*
X5069622Y2977611D01*
X5069193Y2977696D01*
X5069193Y2977696D01*
X5067616D01*
X5067426Y2977981D01*
X5066780Y2978412D01*
X5066020Y2978563D01*
D02*
G37*
G36*
X4849539Y2772287D02*
X4847922D01*
Y2770670D01*
X4849539D01*
Y2772287D01*
D02*
G37*
G36*
X4922255Y2772039D02*
X4920284D01*
Y2770658D01*
X4922255D01*
Y2772039D01*
D02*
G37*
G36*
X4904291Y2772287D02*
X4902674D01*
Y2770670D01*
X4904291D01*
Y2772287D01*
D02*
G37*
G36*
X4852157D02*
X4850539D01*
Y2770670D01*
X4852157D01*
Y2772287D01*
D02*
G37*
G36*
X4911311Y2772039D02*
X4909340D01*
Y2770658D01*
X4911311D01*
Y2772039D01*
D02*
G37*
G36*
X4901911Y2769905D02*
X4900293D01*
Y2768288D01*
X4901911D01*
Y2769905D01*
D02*
G37*
G36*
X4919284Y2772039D02*
X4917312D01*
Y2770658D01*
X4919284D01*
Y2772039D01*
D02*
G37*
G36*
X4914283D02*
X4912311D01*
Y2770658D01*
X4914283D01*
Y2772039D01*
D02*
G37*
G36*
X4906908Y2772287D02*
X4905291D01*
Y2770670D01*
X4906908D01*
Y2772287D01*
D02*
G37*
G36*
X4852157Y2774905D02*
X4850539D01*
Y2773287D01*
X4852157D01*
Y2774905D01*
D02*
G37*
G36*
X4849539D02*
X4847922D01*
Y2773287D01*
X4849539D01*
Y2774905D01*
D02*
G37*
G36*
X4906908D02*
X4905291D01*
Y2773287D01*
X4906908D01*
Y2774905D01*
D02*
G37*
G36*
X4904291D02*
X4902674D01*
Y2773287D01*
X4904291D01*
Y2774905D01*
D02*
G37*
G36*
X4914283Y2774420D02*
X4912311D01*
Y2773039D01*
X4914283D01*
Y2774420D01*
D02*
G37*
G36*
X4911311D02*
X4909340D01*
Y2773039D01*
X4911311D01*
Y2774420D01*
D02*
G37*
G36*
X4922255D02*
X4920284D01*
Y2773039D01*
X4922255D01*
Y2774420D01*
D02*
G37*
G36*
X4919284D02*
X4917312D01*
Y2773039D01*
X4919284D01*
Y2774420D01*
D02*
G37*
G36*
X4868344Y2769905D02*
X4866726D01*
Y2768288D01*
X4868344D01*
Y2769905D01*
D02*
G37*
G36*
X4865726D02*
X4864109D01*
Y2768288D01*
X4865726D01*
Y2769905D01*
D02*
G37*
G36*
X4873938D02*
X4872321D01*
Y2768288D01*
X4873938D01*
Y2769905D01*
D02*
G37*
G36*
X4871321D02*
X4869704D01*
Y2768288D01*
X4871321D01*
Y2769905D01*
D02*
G37*
G36*
X4857154D02*
X4855537D01*
Y2768288D01*
X4857154D01*
Y2769905D01*
D02*
G37*
G36*
X4854537D02*
X4852920D01*
Y2768288D01*
X4854537D01*
Y2769905D01*
D02*
G37*
G36*
X4862749D02*
X4861132D01*
Y2768288D01*
X4862749D01*
Y2769905D01*
D02*
G37*
G36*
X4860132D02*
X4858515D01*
Y2768288D01*
X4860132D01*
Y2769905D01*
D02*
G37*
G36*
X4876915D02*
X4875298D01*
Y2768288D01*
X4876915D01*
Y2769905D01*
D02*
G37*
G36*
X4893699D02*
X4892081D01*
Y2768288D01*
X4893699D01*
Y2769905D01*
D02*
G37*
G36*
X4890722D02*
X4889104D01*
Y2768288D01*
X4890722D01*
Y2769905D01*
D02*
G37*
G36*
X4899293D02*
X4897676D01*
Y2768288D01*
X4899293D01*
Y2769905D01*
D02*
G37*
G36*
X4896316D02*
X4894699D01*
Y2768288D01*
X4896316D01*
Y2769905D01*
D02*
G37*
G36*
X4882510D02*
X4880893D01*
Y2768288D01*
X4882510D01*
Y2769905D01*
D02*
G37*
G36*
X4879533D02*
X4877915D01*
Y2768288D01*
X4879533D01*
Y2769905D01*
D02*
G37*
G36*
X4888104D02*
X4886487D01*
Y2768288D01*
X4888104D01*
Y2769905D01*
D02*
G37*
G36*
X4885127D02*
X4883510D01*
Y2768288D01*
X4885127D01*
Y2769905D01*
D02*
G37*
G36*
X4906908Y2809322D02*
X4902674D01*
Y2808405D01*
X4900415D01*
X4900225Y2808689D01*
X4899580Y2809120D01*
X4898819Y2809272D01*
X4898058Y2809120D01*
X4897413Y2808689D01*
X4896982Y2808044D01*
X4896831Y2807284D01*
X4896982Y2806523D01*
X4897413Y2805878D01*
X4898058Y2805447D01*
X4898819Y2805295D01*
X4899580Y2805447D01*
X4900225Y2805878D01*
X4900415Y2806162D01*
X4902674D01*
Y2805087D01*
X4906908D01*
Y2809322D01*
D02*
G37*
G36*
X4852157D02*
X4847922D01*
Y2808362D01*
X4843763D01*
Y2809121D01*
X4838820D01*
Y2805359D01*
X4843763D01*
Y2806119D01*
X4847922D01*
Y2805087D01*
X4852157D01*
Y2809322D01*
D02*
G37*
G36*
X4815591Y2828631D02*
X4814585Y2828498D01*
X4813649Y2828111D01*
X4812845Y2827494D01*
X4812228Y2826689D01*
X4811840Y2825753D01*
X4811708Y2824748D01*
X4811840Y2823743D01*
X4812228Y2822807D01*
X4812845Y2822002D01*
X4813649Y2821385D01*
X4814585Y2820997D01*
X4815591Y2820865D01*
X4816595Y2820997D01*
X4817532Y2821385D01*
X4818336Y2822002D01*
X4818953Y2822807D01*
X4819341Y2823743D01*
X4819473Y2824748D01*
X4819341Y2825753D01*
X4818953Y2826689D01*
X4818336Y2827494D01*
X4817532Y2828111D01*
X4816595Y2828498D01*
X4815591Y2828631D01*
D02*
G37*
G36*
X4852157Y2820794D02*
X4847922D01*
Y2819799D01*
X4842627D01*
X4842437Y2820083D01*
X4841792Y2820514D01*
X4841032Y2820665D01*
X4840271Y2820514D01*
X4839626Y2820083D01*
X4839194Y2819438D01*
X4839043Y2818677D01*
X4839194Y2817916D01*
X4839626Y2817271D01*
X4840271Y2816840D01*
X4841032Y2816689D01*
X4841792Y2816840D01*
X4842437Y2817271D01*
X4842627Y2817556D01*
X4847922D01*
Y2816560D01*
X4852157D01*
Y2820794D01*
D02*
G37*
G36*
Y2803586D02*
X4847922D01*
Y2799351D01*
X4852157D01*
Y2800347D01*
X4857467D01*
X4857657Y2800063D01*
X4858302Y2799632D01*
X4859063Y2799480D01*
X4859824Y2799632D01*
X4860469Y2800063D01*
X4860900Y2800707D01*
X4861051Y2801468D01*
X4860900Y2802229D01*
X4860469Y2802874D01*
X4859824Y2803305D01*
X4859063Y2803457D01*
X4858302Y2803305D01*
X4857657Y2802874D01*
X4857467Y2802590D01*
X4852157D01*
Y2803586D01*
D02*
G37*
G36*
X4843763Y2800835D02*
X4841791D01*
Y2799454D01*
X4843763D01*
Y2800835D01*
D02*
G37*
G36*
Y2803216D02*
X4841791D01*
Y2801835D01*
X4843763D01*
Y2803216D01*
D02*
G37*
G36*
X4840791D02*
X4838820D01*
Y2801835D01*
X4840791D01*
Y2803216D01*
D02*
G37*
G36*
X4852157Y2826531D02*
X4847922D01*
Y2825535D01*
X4842627D01*
X4842437Y2825819D01*
X4841792Y2826250D01*
X4841032Y2826402D01*
X4840271Y2826250D01*
X4839626Y2825819D01*
X4839194Y2825174D01*
X4839043Y2824413D01*
X4839194Y2823652D01*
X4839626Y2823008D01*
X4840271Y2822577D01*
X4841032Y2822425D01*
X4841792Y2822577D01*
X4842437Y2823008D01*
X4842627Y2823292D01*
X4847922D01*
Y2822296D01*
X4852157D01*
Y2826531D01*
D02*
G37*
G36*
X4865726Y2846122D02*
X4864109D01*
Y2844504D01*
X4865726D01*
Y2846122D01*
D02*
G37*
G36*
X4860632Y2858010D02*
X4859871Y2857858D01*
X4859226Y2857427D01*
X4858795Y2856782D01*
X4858644Y2856022D01*
X4858795Y2855261D01*
X4859226Y2854616D01*
X4859510Y2854426D01*
Y2848739D01*
X4858515D01*
Y2844504D01*
X4862749D01*
Y2848739D01*
X4861753D01*
Y2854426D01*
X4862038Y2854616D01*
X4862469Y2855261D01*
X4862620Y2856022D01*
X4862469Y2856782D01*
X4862038Y2857427D01*
X4861393Y2857858D01*
X4860632Y2858010D01*
D02*
G37*
G36*
X4871821D02*
X4871060Y2857858D01*
X4870415Y2857427D01*
X4869984Y2856782D01*
X4869833Y2856022D01*
X4869984Y2855261D01*
X4870415Y2854616D01*
X4870699Y2854426D01*
Y2848739D01*
X4869704D01*
Y2844504D01*
X4873938D01*
Y2848739D01*
X4872942D01*
Y2854426D01*
X4873227Y2854616D01*
X4873658Y2855261D01*
X4873809Y2856022D01*
X4873658Y2856782D01*
X4873227Y2857427D01*
X4872582Y2857858D01*
X4871821Y2858010D01*
D02*
G37*
G36*
X4868344Y2846122D02*
X4866726D01*
Y2844504D01*
X4868344D01*
Y2846122D01*
D02*
G37*
G36*
X4852157Y2838003D02*
X4847922D01*
Y2837007D01*
X4842627D01*
X4842437Y2837292D01*
X4841792Y2837723D01*
X4841032Y2837874D01*
X4840271Y2837723D01*
X4839626Y2837292D01*
X4839194Y2836647D01*
X4839043Y2835886D01*
X4839194Y2835125D01*
X4839626Y2834480D01*
X4840271Y2834049D01*
X4841032Y2833898D01*
X4841792Y2834049D01*
X4842437Y2834480D01*
X4842627Y2834764D01*
X4847922D01*
Y2833768D01*
X4852157D01*
Y2838003D01*
D02*
G37*
G36*
Y2832267D02*
X4847922D01*
Y2831271D01*
X4842627D01*
X4842437Y2831556D01*
X4841792Y2831986D01*
X4841032Y2832138D01*
X4840271Y2831986D01*
X4839626Y2831556D01*
X4839194Y2830910D01*
X4839043Y2830150D01*
X4839194Y2829389D01*
X4839626Y2828744D01*
X4840271Y2828313D01*
X4841032Y2828161D01*
X4841792Y2828313D01*
X4842437Y2828744D01*
X4842627Y2829028D01*
X4847922D01*
Y2828032D01*
X4852157D01*
Y2832267D01*
D02*
G37*
G36*
X4855037Y2858010D02*
X4854277Y2857858D01*
X4853632Y2857427D01*
X4853201Y2856782D01*
X4853049Y2856022D01*
X4853201Y2855261D01*
X4853632Y2854616D01*
X4853916Y2854426D01*
Y2848739D01*
X4852920D01*
Y2844504D01*
X4857154D01*
Y2848739D01*
X4856159D01*
Y2854426D01*
X4856443Y2854616D01*
X4856874Y2855261D01*
X4857026Y2856022D01*
X4856874Y2856782D01*
X4856443Y2857427D01*
X4855798Y2857858D01*
X4855037Y2858010D01*
D02*
G37*
G36*
X4852157Y2843739D02*
X4847922D01*
Y2842743D01*
X4842627D01*
X4842437Y2843028D01*
X4841792Y2843459D01*
X4841032Y2843610D01*
X4840271Y2843459D01*
X4839626Y2843028D01*
X4839194Y2842383D01*
X4839043Y2841622D01*
X4839194Y2840861D01*
X4839626Y2840216D01*
X4840271Y2839785D01*
X4841032Y2839634D01*
X4841792Y2839785D01*
X4842437Y2840216D01*
X4842627Y2840500D01*
X4847922D01*
Y2839505D01*
X4852157D01*
Y2843739D01*
D02*
G37*
G36*
X4904291Y2783760D02*
X4902674D01*
Y2782142D01*
X4904291D01*
Y2783760D01*
D02*
G37*
G36*
X4832775Y2921968D02*
X4832015Y2921817D01*
X4831370Y2921386D01*
X4830939Y2920741D01*
X4830787Y2919980D01*
X4830939Y2919220D01*
X4831370Y2918574D01*
X4831654Y2918385D01*
Y2790945D01*
X4831654Y2790945D01*
X4831739Y2790516D01*
X4831982Y2790152D01*
X4844404Y2777731D01*
X4844404Y2777731D01*
X4844768Y2777487D01*
X4845197Y2777402D01*
X4847922D01*
Y2776406D01*
X4852157D01*
Y2780641D01*
X4847922D01*
Y2779645D01*
X4845662D01*
X4833897Y2791409D01*
Y2918385D01*
X4834182Y2918574D01*
X4834612Y2919220D01*
X4834764Y2919980D01*
X4834612Y2920741D01*
X4834182Y2921386D01*
X4833537Y2921817D01*
X4832775Y2921968D01*
D02*
G37*
G36*
X4852157Y2786377D02*
X4847922D01*
Y2782142D01*
X4852157D01*
Y2783138D01*
X4857467D01*
X4857657Y2782854D01*
X4858302Y2782423D01*
X4859063Y2782272D01*
X4859824Y2782423D01*
X4860469Y2782854D01*
X4860900Y2783499D01*
X4861051Y2784260D01*
X4860900Y2785021D01*
X4860469Y2785666D01*
X4859824Y2786097D01*
X4859063Y2786248D01*
X4858302Y2786097D01*
X4857657Y2785666D01*
X4857467Y2785381D01*
X4852157D01*
Y2786377D01*
D02*
G37*
G36*
X4906908Y2783760D02*
X4905291D01*
Y2782142D01*
X4906908D01*
Y2783760D01*
D02*
G37*
G36*
X4826883Y2788870D02*
X4814181D01*
Y2776169D01*
X4815752Y2776292D01*
X4817773Y2776777D01*
X4819692Y2777572D01*
X4821464Y2778658D01*
X4823044Y2780007D01*
X4824393Y2781587D01*
X4825479Y2783359D01*
X4826274Y2785278D01*
X4826759Y2787299D01*
X4826883Y2788870D01*
D02*
G37*
G36*
X4813181D02*
X4800480D01*
X4800603Y2787299D01*
X4801088Y2785278D01*
X4801883Y2783359D01*
X4802969Y2781587D01*
X4804318Y2780007D01*
X4805898Y2778658D01*
X4807670Y2777572D01*
X4809589Y2776777D01*
X4811610Y2776292D01*
X4813181Y2776169D01*
Y2788870D01*
D02*
G37*
G36*
X5066646D02*
X5053945D01*
Y2776169D01*
X5055516Y2776292D01*
X5057536Y2776777D01*
X5059456Y2777572D01*
X5061227Y2778658D01*
X5062807Y2780007D01*
X5064157Y2781587D01*
X5065242Y2783359D01*
X5066038Y2785278D01*
X5066523Y2787299D01*
X5066646Y2788870D01*
D02*
G37*
G36*
X5052945D02*
X5040244D01*
X5040367Y2787299D01*
X5040852Y2785278D01*
X5041647Y2783359D01*
X5042733Y2781587D01*
X5044082Y2780007D01*
X5045662Y2778658D01*
X5047434Y2777572D01*
X5049353Y2776777D01*
X5051374Y2776292D01*
X5052945Y2776169D01*
Y2788870D01*
D02*
G37*
G36*
X4904291Y2786377D02*
X4902674D01*
Y2784760D01*
X4904291D01*
Y2786377D01*
D02*
G37*
G36*
X5053945Y2802571D02*
Y2789870D01*
X5066646D01*
X5066523Y2791441D01*
X5066038Y2793462D01*
X5065242Y2795381D01*
X5064157Y2797153D01*
X5062807Y2798733D01*
X5061227Y2800082D01*
X5059456Y2801168D01*
X5057536Y2801963D01*
X5055516Y2802448D01*
X5053945Y2802571D01*
D02*
G37*
G36*
X5052945D02*
X5051374Y2802448D01*
X5049353Y2801963D01*
X5047434Y2801168D01*
X5045662Y2800082D01*
X5044082Y2798733D01*
X5042733Y2797153D01*
X5041647Y2795381D01*
X5040852Y2793462D01*
X5040367Y2791441D01*
X5040244Y2789870D01*
X5052945D01*
Y2802571D01*
D02*
G37*
G36*
X4840791Y2800835D02*
X4838820D01*
Y2799454D01*
X4840791D01*
Y2800835D01*
D02*
G37*
G36*
X4852157Y2797849D02*
X4847922D01*
Y2793615D01*
X4852157D01*
Y2794611D01*
X4857467D01*
X4857657Y2794326D01*
X4858302Y2793895D01*
X4859063Y2793744D01*
X4859824Y2793895D01*
X4860469Y2794326D01*
X4860900Y2794971D01*
X4861051Y2795732D01*
X4860900Y2796493D01*
X4860469Y2797138D01*
X4859824Y2797569D01*
X4859063Y2797720D01*
X4858302Y2797569D01*
X4857657Y2797138D01*
X4857467Y2796854D01*
X4852157D01*
Y2797849D01*
D02*
G37*
G36*
Y2792113D02*
X4847922D01*
Y2787879D01*
X4852157D01*
Y2788874D01*
X4857467D01*
X4857657Y2788590D01*
X4858302Y2788159D01*
X4859063Y2788008D01*
X4859824Y2788159D01*
X4860469Y2788590D01*
X4860900Y2789235D01*
X4861051Y2789996D01*
X4860900Y2790757D01*
X4860469Y2791402D01*
X4859824Y2791833D01*
X4859063Y2791984D01*
X4858302Y2791833D01*
X4857657Y2791402D01*
X4857467Y2791118D01*
X4852157D01*
Y2792113D01*
D02*
G37*
G36*
X4906908Y2786377D02*
X4905291D01*
Y2784760D01*
X4906908D01*
Y2786377D01*
D02*
G37*
G36*
X4814181Y2802571D02*
Y2789870D01*
X4826883D01*
X4826759Y2791441D01*
X4826274Y2793462D01*
X4825479Y2795381D01*
X4824393Y2797153D01*
X4823044Y2798733D01*
X4821464Y2800082D01*
X4819692Y2801168D01*
X4817773Y2801963D01*
X4815752Y2802448D01*
X4814181Y2802571D01*
D02*
G37*
G36*
X4813181D02*
X4811610Y2802448D01*
X4809589Y2801963D01*
X4807670Y2801168D01*
X4805898Y2800082D01*
X4804318Y2798733D01*
X4802969Y2797153D01*
X4801883Y2795381D01*
X4801088Y2793462D01*
X4800603Y2791441D01*
X4800480Y2789870D01*
X4813181D01*
Y2802571D01*
D02*
G37*
G36*
X5056272Y3022315D02*
X5052557D01*
X5052637Y3021707D01*
X5053065Y3020675D01*
X5053745Y3019789D01*
X5054632Y3019108D01*
X5055664Y3018681D01*
X5056272Y3018601D01*
Y3022315D01*
D02*
G37*
G36*
X4983243Y3099898D02*
X4980288D01*
Y3095564D01*
X4983243D01*
Y3099898D01*
D02*
G37*
G36*
X4979287D02*
X4976331D01*
Y3095564D01*
X4979287D01*
Y3099898D01*
D02*
G37*
G36*
X5056272Y3102315D02*
X5052557D01*
X5052637Y3101707D01*
X5053065Y3100675D01*
X5053745Y3099789D01*
X5054632Y3099108D01*
X5055664Y3098681D01*
X5056272Y3098601D01*
Y3102315D01*
D02*
G37*
G36*
X5000960Y3105231D02*
X4994048D01*
Y3095564D01*
X5000960D01*
Y3105231D01*
D02*
G37*
G36*
X5060986Y3092315D02*
X5057272D01*
Y3088601D01*
X5057879Y3088681D01*
X5058912Y3089108D01*
X5059798Y3089789D01*
X5060478Y3090675D01*
X5060906Y3091707D01*
X5060986Y3092315D01*
D02*
G37*
G36*
X5056272D02*
X5052557D01*
X5052637Y3091707D01*
X5053065Y3090675D01*
X5053745Y3089789D01*
X5054632Y3089108D01*
X5055664Y3088681D01*
X5056272Y3088601D01*
Y3092315D01*
D02*
G37*
G36*
X5057272Y3097029D02*
Y3093315D01*
X5060986D01*
X5060906Y3093923D01*
X5060478Y3094955D01*
X5059798Y3095841D01*
X5058912Y3096522D01*
X5057879Y3096949D01*
X5057272Y3097029D01*
D02*
G37*
G36*
X5056272D02*
X5055664Y3096949D01*
X5054632Y3096522D01*
X5053745Y3095841D01*
X5053065Y3094955D01*
X5052637Y3093923D01*
X5052557Y3093315D01*
X5056272D01*
Y3097029D01*
D02*
G37*
G36*
X5060986Y3102315D02*
X5057272D01*
Y3098601D01*
X5057879Y3098681D01*
X5058912Y3099108D01*
X5059798Y3099789D01*
X5060478Y3100675D01*
X5060906Y3101707D01*
X5060986Y3102315D01*
D02*
G37*
G36*
X4914578Y3112019D02*
X4909635D01*
Y3108257D01*
X4910985D01*
Y3107108D01*
X4910700Y3106918D01*
X4910270Y3106273D01*
X4910118Y3105512D01*
X4910270Y3104751D01*
X4910700Y3104106D01*
X4911345Y3103675D01*
X4912106Y3103524D01*
X4912867Y3103675D01*
X4913512Y3104106D01*
X4913943Y3104751D01*
X4914095Y3105512D01*
X4913943Y3106273D01*
X4913512Y3106918D01*
X4913228Y3107108D01*
Y3108257D01*
X4914578D01*
Y3112019D01*
D02*
G37*
G36*
X4905621Y3112117D02*
X4900678D01*
Y3108355D01*
X4902028D01*
Y3107108D01*
X4901744Y3106918D01*
X4901313Y3106273D01*
X4901162Y3105512D01*
X4901313Y3104751D01*
X4901744Y3104106D01*
X4902389Y3103675D01*
X4903149Y3103524D01*
X4903910Y3103675D01*
X4904556Y3104106D01*
X4904987Y3104751D01*
X4905138Y3105512D01*
X4904987Y3106273D01*
X4904556Y3106918D01*
X4904271Y3107108D01*
Y3108355D01*
X4905621D01*
Y3112117D01*
D02*
G37*
G36*
X4920877Y3109638D02*
X4918906D01*
Y3108257D01*
X4920877D01*
Y3109638D01*
D02*
G37*
G36*
X4917905D02*
X4915934D01*
Y3108257D01*
X4917905D01*
Y3109638D01*
D02*
G37*
G36*
X4983243Y3105231D02*
X4980288D01*
Y3100898D01*
X4983243D01*
Y3105231D01*
D02*
G37*
G36*
X4979287D02*
X4976331D01*
Y3100898D01*
X4979287D01*
Y3105231D01*
D02*
G37*
G36*
X5057272Y3107029D02*
Y3103315D01*
X5060986D01*
X5060906Y3103923D01*
X5060478Y3104955D01*
X5059798Y3105841D01*
X5058912Y3106521D01*
X5057879Y3106949D01*
X5057272Y3107029D01*
D02*
G37*
G36*
X5056272D02*
X5055664Y3106949D01*
X5054632Y3106521D01*
X5053745Y3105841D01*
X5053065Y3104955D01*
X5052637Y3103923D01*
X5052557Y3103315D01*
X5056272D01*
Y3107029D01*
D02*
G37*
G36*
X5046772Y3097095D02*
X5045664Y3096949D01*
X5044632Y3096522D01*
X5043745Y3095841D01*
X5043065Y3094955D01*
X5042638Y3093923D01*
X5042492Y3092815D01*
X5042638Y3091707D01*
X5043065Y3090675D01*
X5043745Y3089789D01*
X5044632Y3089108D01*
X5045664Y3088681D01*
X5046772Y3088535D01*
X5047879Y3088681D01*
X5048912Y3089108D01*
X5049798Y3089789D01*
X5050478Y3090675D01*
X5050906Y3091707D01*
X5051052Y3092815D01*
X5050906Y3093923D01*
X5050478Y3094955D01*
X5049798Y3095841D01*
X5048912Y3096522D01*
X5047879Y3096949D01*
X5046772Y3097095D01*
D02*
G37*
G36*
X4946055Y3067531D02*
X4943296D01*
Y3065953D01*
X4946055D01*
Y3067531D01*
D02*
G37*
G36*
X4941448Y3065759D02*
X4939476D01*
Y3064378D01*
X4941448D01*
Y3065759D01*
D02*
G37*
G36*
X5046772Y3077095D02*
X5045664Y3076949D01*
X5044632Y3076521D01*
X5043745Y3075841D01*
X5043065Y3074955D01*
X5042638Y3073923D01*
X5042492Y3072815D01*
X5042638Y3071707D01*
X5043065Y3070675D01*
X5043745Y3069789D01*
X5044632Y3069108D01*
X5045664Y3068681D01*
X5046772Y3068535D01*
X5047879Y3068681D01*
X5048912Y3069108D01*
X5049798Y3069789D01*
X5050478Y3070675D01*
X5050906Y3071707D01*
X5051052Y3072815D01*
X5050906Y3073923D01*
X5050478Y3074955D01*
X5049798Y3075841D01*
X5048912Y3076521D01*
X5047879Y3076949D01*
X5046772Y3077095D01*
D02*
G37*
G36*
X4949814Y3067531D02*
X4947055D01*
Y3065953D01*
X4949814D01*
Y3067531D01*
D02*
G37*
G36*
X4946055Y3064953D02*
X4943296D01*
Y3063375D01*
X4946055D01*
Y3064953D01*
D02*
G37*
G36*
X5057272Y3067029D02*
Y3063315D01*
X5060986D01*
X5060906Y3063923D01*
X5060478Y3064955D01*
X5059798Y3065841D01*
X5058912Y3066521D01*
X5057879Y3066949D01*
X5057272Y3067029D01*
D02*
G37*
G36*
X4938477Y3065759D02*
X4936505D01*
Y3064378D01*
X4938477D01*
Y3065759D01*
D02*
G37*
G36*
X4949814Y3064953D02*
X4947055D01*
Y3063375D01*
X4949814D01*
Y3064953D01*
D02*
G37*
G36*
X5056272Y3072315D02*
X5052557D01*
X5052637Y3071707D01*
X5053065Y3070675D01*
X5053745Y3069789D01*
X5054632Y3069108D01*
X5055664Y3068681D01*
X5056272Y3068601D01*
Y3072315D01*
D02*
G37*
G36*
X5060986Y3082315D02*
X5057272D01*
Y3078601D01*
X5057879Y3078681D01*
X5058912Y3079108D01*
X5059798Y3079789D01*
X5060478Y3080675D01*
X5060906Y3081707D01*
X5060986Y3082315D01*
D02*
G37*
G36*
X5056272D02*
X5052557D01*
X5052637Y3081707D01*
X5053065Y3080675D01*
X5053745Y3079789D01*
X5054632Y3079108D01*
X5055664Y3078681D01*
X5056272Y3078601D01*
Y3082315D01*
D02*
G37*
G36*
X5057272Y3087029D02*
Y3083315D01*
X5060986D01*
X5060906Y3083923D01*
X5060478Y3084955D01*
X5059798Y3085841D01*
X5058912Y3086522D01*
X5057879Y3086949D01*
X5057272Y3087029D01*
D02*
G37*
G36*
X5056272D02*
X5055664Y3086949D01*
X5054632Y3086522D01*
X5053745Y3085841D01*
X5053065Y3084955D01*
X5052637Y3083923D01*
X5052557Y3083315D01*
X5056272D01*
Y3087029D01*
D02*
G37*
G36*
Y3077029D02*
X5055664Y3076949D01*
X5054632Y3076521D01*
X5053745Y3075841D01*
X5053065Y3074955D01*
X5052637Y3073923D01*
X5052557Y3073315D01*
X5056272D01*
Y3077029D01*
D02*
G37*
G36*
X5060986Y3072315D02*
X5057272D01*
Y3068601D01*
X5057879Y3068681D01*
X5058912Y3069108D01*
X5059798Y3069789D01*
X5060478Y3070675D01*
X5060906Y3071707D01*
X5060986Y3072315D01*
D02*
G37*
G36*
X5046772Y3087095D02*
X5045664Y3086949D01*
X5044632Y3086522D01*
X5043745Y3085841D01*
X5043065Y3084955D01*
X5042638Y3083923D01*
X5042492Y3082815D01*
X5042638Y3081707D01*
X5043065Y3080675D01*
X5043745Y3079789D01*
X5044632Y3079108D01*
X5045664Y3078681D01*
X5046772Y3078535D01*
X5047879Y3078681D01*
X5048912Y3079108D01*
X5049798Y3079789D01*
X5050478Y3080675D01*
X5050906Y3081707D01*
X5051052Y3082815D01*
X5050906Y3083923D01*
X5050478Y3084955D01*
X5049798Y3085841D01*
X5048912Y3086522D01*
X5047879Y3086949D01*
X5046772Y3087095D01*
D02*
G37*
G36*
X5057272Y3077029D02*
Y3073315D01*
X5060986D01*
X5060906Y3073923D01*
X5060478Y3074955D01*
X5059798Y3075841D01*
X5058912Y3076521D01*
X5057879Y3076949D01*
X5057272Y3077029D01*
D02*
G37*
G36*
X4894972Y3109736D02*
X4893001D01*
Y3108355D01*
X4894972D01*
Y3109736D01*
D02*
G37*
G36*
X4986898Y3148238D02*
X4986290Y3148158D01*
X4985258Y3147730D01*
X4984371Y3147050D01*
X4983691Y3146164D01*
X4983263Y3145131D01*
X4983118Y3144024D01*
Y3143146D01*
X4986898D01*
Y3148238D01*
D02*
G37*
G36*
X4888552Y3142146D02*
X4884772D01*
Y3137054D01*
X4885379Y3137134D01*
X4886412Y3137561D01*
X4887298Y3138241D01*
X4887978Y3139128D01*
X4888406Y3140160D01*
X4888552Y3141268D01*
Y3142146D01*
D02*
G37*
G36*
X4883772Y3148238D02*
X4883164Y3148158D01*
X4882132Y3147730D01*
X4881245Y3147050D01*
X4880565Y3146164D01*
X4880138Y3145131D01*
X4879992Y3144024D01*
Y3143146D01*
X4883772D01*
Y3148238D01*
D02*
G37*
G36*
X4987897Y3148238D02*
Y3143146D01*
X4991677D01*
Y3144024D01*
X4991532Y3145131D01*
X4991104Y3146164D01*
X4990424Y3147050D01*
X4989537Y3147730D01*
X4988506Y3148158D01*
X4987897Y3148238D01*
D02*
G37*
G36*
X4986898Y3142146D02*
X4983118D01*
Y3141268D01*
X4983263Y3140160D01*
X4983691Y3139128D01*
X4984371Y3138241D01*
X4985258Y3137561D01*
X4986290Y3137134D01*
X4986898Y3137054D01*
Y3142146D01*
D02*
G37*
G36*
X4874272Y3148304D02*
X4873164Y3148158D01*
X4872132Y3147730D01*
X4871245Y3147050D01*
X4870565Y3146164D01*
X4870138Y3145131D01*
X4869992Y3144024D01*
Y3141268D01*
X4870138Y3140160D01*
X4870565Y3139128D01*
X4871245Y3138241D01*
X4872132Y3137561D01*
X4873150Y3137139D01*
Y3134382D01*
X4869286Y3130518D01*
X4869043Y3130154D01*
X4868957Y3129725D01*
X4868957Y3129724D01*
Y3126979D01*
X4868198D01*
Y3122036D01*
X4868957D01*
Y3115748D01*
X4868957Y3115748D01*
X4869043Y3115319D01*
X4869286Y3114955D01*
X4872501Y3111740D01*
Y3088013D01*
X4872216Y3087823D01*
X4871785Y3087178D01*
X4871634Y3086417D01*
X4871785Y3085657D01*
X4872216Y3085011D01*
X4872861Y3084580D01*
X4873622Y3084429D01*
X4874383Y3084580D01*
X4875028Y3085011D01*
X4875459Y3085657D01*
X4875610Y3086417D01*
X4875459Y3087178D01*
X4875028Y3087823D01*
X4874744Y3088013D01*
Y3112205D01*
X4874658Y3112634D01*
X4874415Y3112998D01*
X4874415Y3112998D01*
X4871200Y3116213D01*
Y3122036D01*
X4871960D01*
Y3126979D01*
X4871200D01*
Y3129260D01*
X4875065Y3133124D01*
X4875065Y3133124D01*
X4875308Y3133488D01*
X4875308Y3133488D01*
X4875308Y3133488D01*
X4875393Y3133917D01*
X4875393Y3133917D01*
Y3137139D01*
X4876411Y3137561D01*
X4877298Y3138241D01*
X4877978Y3139128D01*
X4878406Y3140160D01*
X4878551Y3141268D01*
Y3144024D01*
X4878406Y3145131D01*
X4877978Y3146164D01*
X4877298Y3147050D01*
X4876411Y3147730D01*
X4875380Y3148158D01*
X4874272Y3148304D01*
D02*
G37*
G36*
X4883772Y3142146D02*
X4879992D01*
Y3141268D01*
X4880138Y3140160D01*
X4880565Y3139128D01*
X4881245Y3138241D01*
X4882132Y3137561D01*
X4883164Y3137134D01*
X4883772Y3137054D01*
Y3142146D01*
D02*
G37*
G36*
X4991677Y3142146D02*
X4987897D01*
Y3137054D01*
X4988506Y3137134D01*
X4989537Y3137561D01*
X4990424Y3138241D01*
X4991104Y3139128D01*
X4991532Y3140160D01*
X4991677Y3141268D01*
Y3142146D01*
D02*
G37*
G36*
X4884772Y3148238D02*
Y3143146D01*
X4888552D01*
Y3144024D01*
X4888406Y3145131D01*
X4887978Y3146164D01*
X4887298Y3147050D01*
X4886412Y3147730D01*
X4885379Y3148158D01*
X4884772Y3148238D01*
D02*
G37*
G36*
X4814181Y3175209D02*
Y3162508D01*
X4826883D01*
X4826759Y3164079D01*
X4826274Y3166100D01*
X4825479Y3168019D01*
X4824393Y3169791D01*
X4823044Y3171371D01*
X4821464Y3172720D01*
X4819692Y3173805D01*
X4817773Y3174601D01*
X4815752Y3175086D01*
X4814181Y3175209D01*
D02*
G37*
G36*
X4813181D02*
X4811610Y3175086D01*
X4809589Y3174601D01*
X4807670Y3173805D01*
X4805898Y3172720D01*
X4804318Y3171371D01*
X4802969Y3169791D01*
X4801883Y3168019D01*
X4801088Y3166100D01*
X4800603Y3164079D01*
X4800480Y3162508D01*
X4813181D01*
Y3175209D01*
D02*
G37*
G36*
X5053945D02*
Y3162508D01*
X5066646D01*
X5066523Y3164079D01*
X5066038Y3166100D01*
X5065242Y3168019D01*
X5064157Y3169791D01*
X5062807Y3171371D01*
X5061227Y3172720D01*
X5059456Y3173805D01*
X5057536Y3174601D01*
X5055516Y3175086D01*
X5053945Y3175209D01*
D02*
G37*
G36*
X5052945D02*
X5051374Y3175086D01*
X5049353Y3174601D01*
X5047434Y3173805D01*
X5045662Y3172720D01*
X5044082Y3171371D01*
X5042733Y3169791D01*
X5041647Y3168019D01*
X5040852Y3166100D01*
X5040367Y3164079D01*
X5040244Y3162508D01*
X5052945D01*
Y3175209D01*
D02*
G37*
G36*
X4826883Y3161508D02*
X4814181D01*
Y3148806D01*
X4815752Y3148930D01*
X4817773Y3149415D01*
X4819692Y3150210D01*
X4821464Y3151296D01*
X4823044Y3152645D01*
X4824393Y3154225D01*
X4825479Y3155997D01*
X4826274Y3157916D01*
X4826759Y3159937D01*
X4826883Y3161508D01*
D02*
G37*
G36*
X4813181D02*
X4800480D01*
X4800603Y3159937D01*
X4801088Y3157916D01*
X4801883Y3155997D01*
X4802969Y3154225D01*
X4804318Y3152645D01*
X4805898Y3151296D01*
X4807670Y3150210D01*
X4809589Y3149415D01*
X4811610Y3148930D01*
X4813181Y3148806D01*
Y3161508D01*
D02*
G37*
G36*
X5066646D02*
X5053945D01*
Y3148806D01*
X5055516Y3148930D01*
X5057536Y3149415D01*
X5059456Y3150210D01*
X5061227Y3151296D01*
X5062807Y3152645D01*
X5064157Y3154225D01*
X5065242Y3155997D01*
X5066038Y3157916D01*
X5066523Y3159937D01*
X5066646Y3161508D01*
D02*
G37*
G36*
X5052945D02*
X5040244D01*
X5040367Y3159937D01*
X5040852Y3157916D01*
X5041647Y3155997D01*
X5042733Y3154225D01*
X5044082Y3152645D01*
X5045662Y3151296D01*
X5047434Y3150210D01*
X5049353Y3149415D01*
X5051374Y3148930D01*
X5052945Y3148806D01*
Y3161508D01*
D02*
G37*
G36*
X4860247Y3133476D02*
X4858866D01*
Y3131504D01*
X4860247D01*
Y3133476D01*
D02*
G37*
G36*
X4920877Y3117924D02*
X4915934D01*
Y3117165D01*
X4914578D01*
Y3117924D01*
X4909635D01*
Y3114162D01*
X4914578D01*
Y3114922D01*
X4915934D01*
Y3114162D01*
X4920877D01*
Y3117924D01*
D02*
G37*
G36*
X4897944Y3112117D02*
X4895972D01*
Y3110736D01*
X4897944D01*
Y3112117D01*
D02*
G37*
G36*
X4977398Y3148304D02*
X4976290Y3148158D01*
X4975258Y3147730D01*
X4974371Y3147050D01*
X4973691Y3146164D01*
X4973264Y3145131D01*
X4973118Y3144024D01*
Y3141268D01*
X4973264Y3140160D01*
X4973691Y3139128D01*
X4974371Y3138241D01*
X4975258Y3137561D01*
X4976276Y3137139D01*
Y3134358D01*
X4972435Y3130518D01*
X4972192Y3130154D01*
X4972107Y3129724D01*
X4972107Y3129724D01*
Y3127472D01*
X4971347D01*
Y3122528D01*
X4972107D01*
Y3120937D01*
X4946976Y3095807D01*
X4929232D01*
X4928803Y3095721D01*
X4928439Y3095478D01*
X4928439Y3095478D01*
X4906446Y3073485D01*
X4905984Y3073676D01*
Y3083917D01*
X4905984Y3083917D01*
X4905898Y3084347D01*
X4905655Y3084710D01*
X4905655Y3084710D01*
X4902958Y3087407D01*
X4902595Y3087650D01*
X4902165Y3087736D01*
X4902165Y3087736D01*
X4883029D01*
X4882711Y3088122D01*
X4882716Y3088145D01*
X4882716Y3088145D01*
Y3089743D01*
X4883000Y3089933D01*
X4883431Y3090578D01*
X4883583Y3091339D01*
X4883431Y3092099D01*
X4883000Y3092744D01*
X4882355Y3093175D01*
X4881594Y3093327D01*
X4880833Y3093175D01*
X4880189Y3092744D01*
X4879758Y3092099D01*
X4879606Y3091339D01*
X4879758Y3090578D01*
X4880189Y3089933D01*
X4880473Y3089743D01*
Y3088610D01*
X4870887Y3079023D01*
X4812537D01*
X4812537Y3079023D01*
X4812108Y3078938D01*
X4811744Y3078695D01*
X4802408Y3069358D01*
X4802164Y3068995D01*
X4802079Y3068566D01*
X4802079Y3068565D01*
Y2939319D01*
X4802079Y2939319D01*
X4802164Y2938890D01*
X4802408Y2938526D01*
X4827914Y2913020D01*
Y2808682D01*
X4827629Y2808492D01*
X4827198Y2807848D01*
X4827047Y2807087D01*
X4827198Y2806326D01*
X4827629Y2805681D01*
X4828275Y2805250D01*
X4829036Y2805098D01*
X4829796Y2805250D01*
X4830441Y2805681D01*
X4830872Y2806326D01*
X4831024Y2807087D01*
X4830872Y2807848D01*
X4830441Y2808492D01*
X4830157Y2808682D01*
Y2913484D01*
X4830072Y2913914D01*
X4829829Y2914277D01*
X4829829Y2914277D01*
X4804322Y2939783D01*
Y2951115D01*
X4804784Y2951307D01*
X4833754Y2922337D01*
X4833754Y2922337D01*
X4834118Y2922094D01*
X4834547Y2922008D01*
X4855244D01*
X4903406Y2873846D01*
Y2843739D01*
X4902674D01*
Y2839505D01*
X4906908D01*
Y2843739D01*
X4905649D01*
Y2874311D01*
X4905649Y2874311D01*
X4905564Y2874740D01*
X4905321Y2875104D01*
X4856502Y2923923D01*
X4856138Y2924166D01*
X4855709Y2924252D01*
X4855709Y2924252D01*
X4835012D01*
X4805822Y2953441D01*
Y2957391D01*
X4806284Y2957582D01*
X4835920Y2927947D01*
X4835920Y2927947D01*
X4836283Y2927704D01*
X4836283Y2927704D01*
X4836283Y2927704D01*
D01*
X4836283Y2927704D01*
X4836283Y2927704D01*
X4836713Y2927619D01*
X4836713Y2927619D01*
X4859575D01*
X4909607Y2877587D01*
Y2838260D01*
X4908354Y2837007D01*
X4906908D01*
Y2838003D01*
X4902674D01*
Y2833768D01*
X4906908D01*
Y2834764D01*
X4908819D01*
X4908819Y2834764D01*
X4909248Y2834850D01*
X4909612Y2835093D01*
X4911522Y2837002D01*
X4911522Y2837002D01*
X4911765Y2837366D01*
X4911765Y2837366D01*
X4911765Y2837366D01*
X4911850Y2837795D01*
X4911850Y2837795D01*
Y2878051D01*
X4911765Y2878480D01*
X4911522Y2878844D01*
X4911522Y2878844D01*
X4860832Y2929533D01*
X4860469Y2929776D01*
X4860040Y2929862D01*
X4860039Y2929862D01*
X4837177D01*
X4807322Y2959716D01*
Y3066858D01*
X4814244Y3073780D01*
X4871354D01*
X4871545Y3073318D01*
X4853439Y3055212D01*
X4853196Y3054848D01*
X4853118Y3054455D01*
X4852826Y3054260D01*
X4852395Y3053615D01*
X4852244Y3052854D01*
X4852395Y3052094D01*
X4852515Y3051914D01*
Y3051791D01*
X4852054Y3051599D01*
X4851331Y3052322D01*
X4851398Y3052658D01*
X4851246Y3053418D01*
X4850815Y3054063D01*
X4850170Y3054494D01*
X4849409Y3054646D01*
X4848648Y3054494D01*
X4848004Y3054063D01*
X4847573Y3053418D01*
X4847421Y3052658D01*
X4847573Y3051897D01*
X4848004Y3051252D01*
X4848648Y3050821D01*
X4849409Y3050669D01*
X4849745Y3050736D01*
X4850850Y3049631D01*
X4850659Y3049169D01*
X4847890D01*
X4847509Y3049549D01*
X4847657Y3050295D01*
X4847506Y3051056D01*
X4847075Y3051701D01*
X4846430Y3052132D01*
X4845669Y3052283D01*
X4844909Y3052132D01*
X4844263Y3051701D01*
X4843832Y3051056D01*
X4843681Y3050295D01*
X4843832Y3049534D01*
X4844263Y3048889D01*
X4844909Y3048458D01*
X4845557Y3048329D01*
X4846224Y3047662D01*
X4846033Y3047200D01*
X4844248D01*
X4843851Y3047598D01*
X4843917Y3047933D01*
X4843766Y3048694D01*
X4843335Y3049339D01*
X4842690Y3049770D01*
X4841929Y3049921D01*
X4841168Y3049770D01*
X4840523Y3049339D01*
X4840092Y3048694D01*
X4839941Y3047933D01*
X4840092Y3047172D01*
X4840523Y3046527D01*
X4841168Y3046096D01*
X4841929Y3045945D01*
X4842234Y3046005D01*
X4842551Y3045619D01*
X4842391Y3045232D01*
X4832240D01*
X4829267Y3048205D01*
Y3049142D01*
X4830814D01*
Y3070228D01*
X4825477D01*
Y3060807D01*
X4814184D01*
Y3061527D01*
X4809241D01*
Y3057765D01*
X4814184D01*
Y3058563D01*
X4825477D01*
Y3049142D01*
X4827024D01*
Y3047740D01*
X4827024Y3047740D01*
X4827110Y3047311D01*
X4827353Y3046947D01*
X4830983Y3043317D01*
X4830983Y3043317D01*
X4831021Y3043291D01*
X4831070Y3042794D01*
X4826959Y3038683D01*
X4826716Y3038319D01*
X4826630Y3037890D01*
X4826630Y3037890D01*
Y3032826D01*
X4825084D01*
Y3023405D01*
X4814086D01*
Y3024027D01*
X4809143D01*
Y3020265D01*
X4814086D01*
Y3021162D01*
X4825084D01*
Y3011741D01*
X4830421D01*
Y3032826D01*
X4828873D01*
Y3037425D01*
X4832468Y3041020D01*
X4852394D01*
X4852629Y3040579D01*
X4852395Y3040229D01*
X4852244Y3039469D01*
X4852395Y3038708D01*
X4852826Y3038063D01*
X4853471Y3037632D01*
X4854232Y3037480D01*
X4854993Y3037632D01*
X4855638Y3038063D01*
X4856069Y3038708D01*
X4856137Y3039052D01*
X4857482D01*
X4857673Y3038590D01*
X4850895Y3031811D01*
X4850433Y3032003D01*
Y3036527D01*
X4850815Y3036783D01*
X4851246Y3037428D01*
X4851398Y3038189D01*
X4851246Y3038950D01*
X4850815Y3039595D01*
X4850170Y3040026D01*
X4849409Y3040177D01*
X4848648Y3040026D01*
X4848004Y3039595D01*
X4847573Y3038950D01*
X4847421Y3038189D01*
X4847573Y3037428D01*
X4848004Y3036783D01*
X4848190Y3036659D01*
Y3031346D01*
X4847738Y3030894D01*
X4846791Y3031841D01*
Y3034231D01*
X4847075Y3034421D01*
X4847506Y3035066D01*
X4847657Y3035827D01*
X4847506Y3036588D01*
X4847075Y3037233D01*
X4846430Y3037664D01*
X4845669Y3037815D01*
X4844909Y3037664D01*
X4844263Y3037233D01*
X4843832Y3036588D01*
X4843681Y3035827D01*
X4843832Y3035066D01*
X4844263Y3034421D01*
X4844548Y3034231D01*
Y3032616D01*
X4844210Y3032476D01*
X4843823Y3032793D01*
X4843917Y3033268D01*
X4843766Y3034029D01*
X4843335Y3034674D01*
X4842690Y3035105D01*
X4841929Y3035256D01*
X4841168Y3035105D01*
X4840523Y3034674D01*
X4840092Y3034029D01*
X4839941Y3033268D01*
X4840092Y3032507D01*
X4840523Y3031862D01*
X4841168Y3031431D01*
X4841929Y3031280D01*
X4842038Y3031301D01*
X4844066Y3029273D01*
X4843749Y3028886D01*
X4843280Y3029199D01*
X4842520Y3029350D01*
X4841759Y3029199D01*
X4841114Y3028768D01*
X4840683Y3028123D01*
X4840532Y3027362D01*
X4840683Y3026601D01*
X4841114Y3025956D01*
X4841398Y3025766D01*
Y2985898D01*
X4831982Y2976482D01*
X4831739Y2976118D01*
X4831654Y2975689D01*
X4831654Y2975689D01*
Y2940671D01*
X4831370Y2940481D01*
X4830939Y2939836D01*
X4830787Y2939075D01*
X4830939Y2938314D01*
X4831370Y2937669D01*
X4832015Y2937238D01*
X4832775Y2937087D01*
X4833537Y2937238D01*
X4834182Y2937669D01*
X4834612Y2938314D01*
X4834764Y2939075D01*
X4834612Y2939836D01*
X4834182Y2940481D01*
X4833897Y2940671D01*
Y2975224D01*
X4843313Y2984640D01*
X4843313Y2984640D01*
X4843556Y2985004D01*
X4843641Y2985433D01*
Y3025616D01*
X4844082Y3025852D01*
X4844402Y3025638D01*
Y2986378D01*
X4844402Y2986378D01*
X4844487Y2985949D01*
X4844731Y2985585D01*
X4862900Y2967416D01*
X4862900Y2967416D01*
X4863264Y2967172D01*
X4863264Y2967172D01*
X4863264Y2967172D01*
D01*
X4863264Y2967172D01*
X4863264Y2967172D01*
X4863693Y2967087D01*
X4902589D01*
X4902638Y2967027D01*
X4902789Y2966267D01*
X4903220Y2965622D01*
X4903865Y2965191D01*
X4904626Y2965039D01*
X4905387Y2965191D01*
X4906032Y2965622D01*
X4906463Y2966267D01*
X4906584Y2966877D01*
X4907075Y2966974D01*
X4907452Y2966409D01*
X4908097Y2965978D01*
X4908858Y2965827D01*
X4909619Y2965978D01*
X4910264Y2966409D01*
X4910695Y2967054D01*
X4910846Y2967815D01*
X4910833Y2967884D01*
X4911295Y2968076D01*
X4911685Y2967492D01*
X4912330Y2967061D01*
X4913091Y2966909D01*
X4913852Y2967061D01*
X4914496Y2967492D01*
X4914927Y2968137D01*
X4914938Y2968187D01*
X4915416Y2968333D01*
X4918057Y2965691D01*
X4918057Y2965691D01*
X4918421Y2965448D01*
X4918850Y2965363D01*
X4918850Y2965363D01*
X4963057D01*
X4963314Y2965191D01*
X4964075Y2965039D01*
X4964836Y2965191D01*
X4965481Y2965622D01*
X4965912Y2966267D01*
X4966063Y2967028D01*
X4965912Y2967788D01*
X4965481Y2968433D01*
X4964836Y2968864D01*
X4964075Y2969016D01*
X4963314Y2968864D01*
X4962669Y2968433D01*
X4962463Y2968125D01*
X4962001Y2968317D01*
X4962134Y2968984D01*
X4961982Y2969745D01*
X4961552Y2970390D01*
X4960907Y2970821D01*
X4960146Y2970972D01*
X4959385Y2970821D01*
X4958740Y2970390D01*
X4958570Y2970136D01*
X4958071Y2970161D01*
X4957864Y2970547D01*
X4957983Y2970723D01*
X4958134Y2971484D01*
X4957983Y2972245D01*
X4957552Y2972890D01*
X4956907Y2973321D01*
X4956146Y2973473D01*
X4955385Y2973321D01*
X4954740Y2972890D01*
X4954570Y2972636D01*
X4954071Y2972661D01*
X4953865Y2973047D01*
X4953983Y2973223D01*
X4954134Y2973984D01*
X4953983Y2974745D01*
X4953551Y2975390D01*
X4952906Y2975821D01*
X4952146Y2975973D01*
X4951385Y2975821D01*
X4950740Y2975390D01*
X4950619Y2975209D01*
X4950120Y2975234D01*
X4949952Y2975547D01*
X4950065Y2975715D01*
X4950217Y2976476D01*
X4950065Y2977237D01*
X4949634Y2977882D01*
X4948989Y2978313D01*
X4948228Y2978465D01*
X4947467Y2978313D01*
X4946822Y2977882D01*
X4946638Y2977606D01*
X4946146D01*
X4945910Y2978047D01*
X4946167Y2978432D01*
X4946319Y2979193D01*
X4946167Y2979954D01*
X4945736Y2980599D01*
X4945092Y2981030D01*
X4944483Y2981151D01*
X4944337Y2981629D01*
X4958854Y2996145D01*
X4959315Y2995954D01*
Y2983625D01*
X4959315Y2983625D01*
X4959401Y2983196D01*
X4959644Y2982832D01*
X4966989Y2975487D01*
Y2970580D01*
X4966705Y2970390D01*
X4966273Y2969745D01*
X4966122Y2968984D01*
X4966273Y2968223D01*
X4966705Y2967578D01*
X4967349Y2967147D01*
X4968110Y2966996D01*
X4968871Y2967147D01*
X4969516Y2967578D01*
X4969593Y2967694D01*
X4970055Y2967502D01*
X4969961Y2967028D01*
X4970112Y2966267D01*
X4970543Y2965622D01*
X4971188Y2965191D01*
X4971949Y2965039D01*
X4972710Y2965191D01*
X4973355Y2965622D01*
X4973786Y2966267D01*
X4973937Y2967028D01*
X4973826Y2967586D01*
X4974288Y2967777D01*
X4974421Y2967578D01*
X4975066Y2967147D01*
X4975827Y2966996D01*
X4976588Y2967147D01*
X4977232Y2967578D01*
X4977450Y2967903D01*
X4977505Y2967880D01*
D01*
X4977912Y2967712D01*
X4977776Y2967028D01*
X4977927Y2966267D01*
X4978358Y2965622D01*
X4979003Y2965191D01*
X4979764Y2965039D01*
X4980524Y2965191D01*
X4981170Y2965622D01*
X4981601Y2966267D01*
X4981752Y2967028D01*
X4981643Y2967576D01*
X4982105Y2967767D01*
X4982157Y2967689D01*
X4982802Y2967258D01*
X4983563Y2967106D01*
X4984324Y2967258D01*
X4984969Y2967689D01*
X4985400Y2968334D01*
X4985551Y2969094D01*
X4985507Y2969317D01*
X4985948Y2969553D01*
X4989753Y2965748D01*
Y2957545D01*
X4988841Y2956633D01*
X4950098D01*
X4950098Y2956633D01*
X4949669Y2956548D01*
X4949305Y2956305D01*
X4949305Y2956305D01*
X4942120Y2949120D01*
X4941877Y2948756D01*
X4941792Y2948327D01*
X4941792Y2948327D01*
Y2947846D01*
X4940245D01*
Y2938572D01*
X4945582D01*
Y2947846D01*
X4944672D01*
X4944480Y2948308D01*
X4950563Y2954390D01*
X4961895D01*
X4962086Y2953928D01*
X4957868Y2949710D01*
X4957625Y2949347D01*
X4957540Y2948917D01*
X4957540Y2948917D01*
Y2947846D01*
X4955993D01*
Y2938572D01*
X4957438D01*
Y2881117D01*
X4907694Y2831373D01*
X4906908D01*
Y2832267D01*
X4902674D01*
Y2828032D01*
X4906908D01*
Y2828926D01*
X4908201D01*
X4908669Y2829019D01*
X4909066Y2829284D01*
X4959526Y2879745D01*
X4959792Y2880142D01*
X4959885Y2880610D01*
X4959885Y2880610D01*
X4959885Y2880610D01*
Y2880610D01*
Y2938572D01*
X4961330D01*
Y2947846D01*
X4959783D01*
Y2948453D01*
X4964146Y2952815D01*
X4976560D01*
X4976752Y2952353D01*
X4973616Y2949218D01*
X4973373Y2948854D01*
X4973288Y2948425D01*
X4973288Y2948425D01*
Y2947846D01*
X4971741D01*
Y2938572D01*
X4973186D01*
Y2887613D01*
X4911210Y2825637D01*
X4906908D01*
Y2826531D01*
X4902674D01*
Y2822296D01*
X4906908D01*
Y2823190D01*
X4911716D01*
X4912185Y2823283D01*
X4912582Y2823548D01*
X4912582Y2823548D01*
X4912582Y2823548D01*
X4975275Y2886241D01*
X4975434Y2886479D01*
X4975540Y2886638D01*
X4975633Y2887106D01*
Y2938572D01*
X4977078D01*
Y2947846D01*
X4976069D01*
X4975878Y2948308D01*
X4978886Y2951315D01*
X4989233D01*
X4989425Y2950854D01*
X4989364Y2950793D01*
X4989121Y2950429D01*
X4989036Y2950000D01*
X4989036Y2950000D01*
Y2947846D01*
X4987489D01*
Y2938572D01*
X4988934D01*
Y2892436D01*
X4916399Y2819901D01*
X4906908D01*
Y2820794D01*
X4902674D01*
Y2816560D01*
X4906908D01*
Y2817454D01*
X4916906D01*
X4917374Y2817547D01*
X4917771Y2817812D01*
X4917771Y2817812D01*
X4917771Y2817812D01*
X4991022Y2891064D01*
X4991288Y2891461D01*
X4991288Y2891461D01*
X4991288Y2891461D01*
X4991381Y2891929D01*
Y2938572D01*
X4992826D01*
Y2947846D01*
X4991279D01*
Y2949535D01*
X4996167Y2954424D01*
X4996167Y2954424D01*
X4996410Y2954787D01*
X4996410Y2954787D01*
X4996429Y2954797D01*
X4996910Y2954749D01*
Y2947846D01*
X4995363D01*
Y2938572D01*
X5000700D01*
Y2947846D01*
X4999153D01*
Y2967618D01*
X4999153Y2967618D01*
X4999068Y2968047D01*
X4998824Y2968411D01*
X4998824Y2968411D01*
X4980748Y2986488D01*
Y3017323D01*
X4980662Y3017752D01*
X4980419Y3018116D01*
X4980419Y3018116D01*
X4972886Y3025649D01*
X4972953Y3025984D01*
X4972802Y3026745D01*
X4972371Y3027390D01*
X4971725Y3027821D01*
X4970964Y3027972D01*
X4970204Y3027821D01*
X4969559Y3027390D01*
X4969128Y3026745D01*
X4968976Y3025984D01*
X4969128Y3025223D01*
X4969559Y3024578D01*
X4970204Y3024147D01*
X4970432Y3024102D01*
Y3023602D01*
X4970007Y3023518D01*
X4969362Y3023087D01*
X4968931Y3022442D01*
X4968779Y3021681D01*
X4968931Y3020920D01*
X4969362Y3020275D01*
X4970007Y3019844D01*
X4970470Y3019752D01*
Y3019252D01*
X4970007Y3019160D01*
X4969362Y3018729D01*
X4968931Y3018084D01*
X4968779Y3017323D01*
X4968931Y3016562D01*
X4969362Y3015917D01*
X4970007Y3015486D01*
X4970649Y3015358D01*
Y3014858D01*
X4970007Y3014731D01*
X4969362Y3014300D01*
X4968931Y3013655D01*
X4968779Y3012894D01*
X4968931Y3012133D01*
X4969362Y3011488D01*
X4970007Y3011057D01*
X4970768Y3010905D01*
X4970951Y3010942D01*
X4971249Y3010540D01*
X4971113Y3010286D01*
X4970768Y3010354D01*
X4970007Y3010203D01*
X4969362Y3009772D01*
X4968931Y3009127D01*
X4968779Y3008366D01*
X4968931Y3007605D01*
X4969362Y3006960D01*
X4970007Y3006529D01*
X4970768Y3006378D01*
X4971103Y3006445D01*
X4972430Y3005118D01*
Y2983536D01*
X4972430Y2983535D01*
X4972515Y2983106D01*
X4972758Y2982742D01*
X4984021Y2971479D01*
X4983785Y2971038D01*
X4983563Y2971083D01*
X4983136Y2970998D01*
X4967559Y2986575D01*
Y3026968D01*
X4967559Y3026969D01*
X4967473Y3027398D01*
X4967230Y3027762D01*
X4967230Y3027762D01*
X4953374Y3041618D01*
X4953691Y3042004D01*
X4954089Y3041738D01*
X4954850Y3041587D01*
X4955611Y3041738D01*
X4956256Y3042169D01*
X4956687Y3042814D01*
X4956838Y3043575D01*
X4956687Y3044336D01*
X4956256Y3044981D01*
X4955611Y3045412D01*
X4954850Y3045563D01*
X4954515Y3045497D01*
X4951171Y3048840D01*
X4950807Y3049083D01*
X4950378Y3049169D01*
X4950378Y3049169D01*
X4949322D01*
Y3050780D01*
X4945560D01*
Y3049169D01*
X4943417D01*
Y3053751D01*
X4939654D01*
Y3051137D01*
X4935484D01*
Y3053172D01*
X4938403Y3056091D01*
X4941448D01*
Y3056239D01*
X4943296D01*
Y3055894D01*
X4949814D01*
Y3056239D01*
X4961290D01*
X4979812Y3037717D01*
Y3034831D01*
X4986330D01*
Y3034979D01*
X4994477D01*
Y3032076D01*
X4999430D01*
Y3016546D01*
X4999005D01*
Y3007272D01*
X5000924D01*
Y2971064D01*
X5000901Y2971048D01*
X5000393Y2970287D01*
X5000214Y2969390D01*
X5000393Y2968492D01*
X5000901Y2967732D01*
X5001662Y2967223D01*
X5002181Y2967120D01*
X5004172Y2965129D01*
Y2947846D01*
X5003237D01*
Y2938572D01*
X5004172D01*
Y2856427D01*
X4927829Y2780084D01*
X4922255Y2780115D01*
Y2780326D01*
X4917312D01*
Y2780277D01*
X4914283D01*
Y2780326D01*
X4909340D01*
Y2780257D01*
X4906908D01*
Y2780641D01*
X4902674D01*
Y2780257D01*
X4897883D01*
X4895932Y2782208D01*
Y2844504D01*
X4896316D01*
Y2844888D01*
X4897676D01*
Y2844504D01*
X4901911D01*
Y2848739D01*
X4901525D01*
Y2850953D01*
X4902263D01*
Y2854716D01*
X4897320D01*
Y2850953D01*
X4898058D01*
Y2848739D01*
X4897676D01*
Y2848355D01*
X4896316D01*
Y2848739D01*
X4896025D01*
Y2850953D01*
X4896763D01*
Y2854716D01*
X4891820D01*
Y2850953D01*
X4892558D01*
Y2848739D01*
X4892081D01*
Y2844504D01*
X4892465D01*
Y2814674D01*
X4852157D01*
Y2815058D01*
X4847922D01*
Y2810824D01*
X4852157D01*
Y2811208D01*
X4892465D01*
Y2781490D01*
X4892598Y2780827D01*
X4892973Y2780265D01*
X4892973Y2780265D01*
X4892973Y2780265D01*
X4895940Y2777298D01*
X4896217Y2777113D01*
X4896493Y2776926D01*
X4896498Y2776925D01*
X4896502Y2776922D01*
X4896829Y2776857D01*
X4897156Y2776790D01*
X4902674Y2776759D01*
Y2776406D01*
X4906908D01*
Y2776406D01*
X4907238Y2776733D01*
X4909340Y2776722D01*
Y2776564D01*
X4914283D01*
Y2776564D01*
X4914413Y2776693D01*
X4917312Y2776677D01*
Y2776564D01*
X4922255D01*
Y2776564D01*
X4922340Y2776648D01*
X4928534Y2776613D01*
X4928539Y2776614D01*
X4928543Y2776613D01*
X4928870Y2776678D01*
X4929198Y2776741D01*
X4929202Y2776744D01*
X4929206Y2776745D01*
X4929483Y2776930D01*
X4929762Y2777114D01*
X4929765Y2777118D01*
X4929769Y2777121D01*
X5007131Y2854483D01*
X5007131Y2854483D01*
X5007131Y2854483D01*
X5007507Y2855045D01*
X5007639Y2855709D01*
Y2938572D01*
X5008574D01*
Y2941475D01*
X5011111D01*
Y2938572D01*
X5016448D01*
Y2947846D01*
X5011111D01*
Y2944942D01*
X5008574D01*
Y2947846D01*
X5007639D01*
Y2965846D01*
X5007507Y2966510D01*
X5007131Y2967072D01*
X5004889Y2969314D01*
X5004904Y2969390D01*
X5004726Y2970287D01*
X5004391Y2970788D01*
Y3007272D01*
X5006310D01*
Y3016546D01*
X5005885D01*
Y3032076D01*
X5010838D01*
Y3034979D01*
X5016014D01*
X5040999Y3009995D01*
X5041561Y3009619D01*
X5042225Y3009487D01*
X5042225Y3009487D01*
X5061614D01*
X5062278Y3009619D01*
X5062840Y3009995D01*
X5062840Y3009995D01*
X5062840Y3009995D01*
X5066875Y3014030D01*
X5066875Y3014030D01*
X5066875Y3014030D01*
X5067251Y3014593D01*
X5067383Y3015256D01*
Y3109163D01*
X5067251Y3109826D01*
X5066875Y3110389D01*
X5063223Y3114041D01*
X5062661Y3114416D01*
X5061998Y3114548D01*
X5060646D01*
X5060478Y3114955D01*
X5059798Y3115841D01*
X5058912Y3116521D01*
X5057879Y3116949D01*
X5056771Y3117095D01*
X5055664Y3116949D01*
X5054632Y3116521D01*
X5053745Y3115841D01*
X5053065Y3114955D01*
X5052897Y3114548D01*
X5051015D01*
Y3117058D01*
X5042528D01*
Y3108572D01*
X5051015D01*
Y3111082D01*
X5052897D01*
X5053065Y3110675D01*
X5053745Y3109789D01*
X5054632Y3109108D01*
X5055664Y3108681D01*
X5056771Y3108535D01*
X5057879Y3108681D01*
X5058912Y3109108D01*
X5059798Y3109789D01*
X5060478Y3110675D01*
X5060646Y3111082D01*
X5061280D01*
X5063916Y3108445D01*
Y3015974D01*
X5060896Y3012954D01*
X5042942D01*
X5017958Y3037938D01*
X5017396Y3038314D01*
X5016732Y3038446D01*
X5010838D01*
Y3041350D01*
X4994477D01*
Y3038446D01*
X4986330D01*
Y3038987D01*
X4983444D01*
X4963234Y3059198D01*
X4962671Y3059574D01*
X4962008Y3059706D01*
X4949814D01*
Y3060050D01*
X4943296D01*
Y3059706D01*
X4941448D01*
Y3059854D01*
X4936505D01*
Y3057942D01*
X4931872Y3053310D01*
X4928461D01*
X4927953Y3053209D01*
X4927523Y3052921D01*
X4923610Y3049008D01*
X4923323Y3048578D01*
X4923222Y3048071D01*
Y3020527D01*
X4900282D01*
Y3024425D01*
X4900181Y3024932D01*
X4899894Y3025363D01*
X4896345Y3028911D01*
Y3051055D01*
X4896824Y3051200D01*
X4896921Y3051055D01*
X4897566Y3050624D01*
X4898327Y3050472D01*
X4899088Y3050624D01*
X4899733Y3051055D01*
X4900164Y3051700D01*
X4900315Y3052461D01*
X4900189Y3053092D01*
X4900651Y3053284D01*
X4900760Y3053122D01*
X4901405Y3052691D01*
X4902165Y3052539D01*
X4902926Y3052691D01*
X4903571Y3053122D01*
X4904002Y3053767D01*
X4904153Y3054528D01*
X4904002Y3055288D01*
X4903571Y3055933D01*
X4902996Y3056318D01*
X4903141Y3056796D01*
X4913723D01*
X4913773Y3056298D01*
X4913609Y3056266D01*
X4912964Y3055835D01*
X4912533Y3055190D01*
X4912382Y3054429D01*
X4912533Y3053668D01*
X4912964Y3053023D01*
X4913609Y3052592D01*
X4914370Y3052441D01*
X4915131Y3052592D01*
X4915776Y3053023D01*
X4916207Y3053668D01*
X4916285Y3054063D01*
X4916785D01*
X4916864Y3053668D01*
X4917295Y3053023D01*
X4917940Y3052592D01*
X4918701Y3052441D01*
X4919461Y3052592D01*
X4920107Y3053023D01*
X4920538Y3053668D01*
X4920616Y3054063D01*
X4921116D01*
X4921194Y3053668D01*
X4921626Y3053023D01*
X4922271Y3052592D01*
X4923032Y3052441D01*
X4923792Y3052592D01*
X4924437Y3053023D01*
X4924868Y3053668D01*
X4925020Y3054429D01*
X4924868Y3055190D01*
X4924437Y3055835D01*
X4923792Y3056266D01*
X4923629Y3056298D01*
X4923678Y3056796D01*
X4925838D01*
Y3062920D01*
X4925669D01*
Y3076642D01*
X4932945Y3083918D01*
X4933978D01*
X4934213Y3083477D01*
X4933990Y3083143D01*
X4933839Y3082382D01*
X4933990Y3081621D01*
X4934421Y3080976D01*
X4935066Y3080545D01*
X4935827Y3080394D01*
X4936588Y3080545D01*
X4937233Y3080976D01*
X4937423Y3081260D01*
X4979228D01*
X4994048Y3066441D01*
Y3059737D01*
X4996477D01*
Y3057456D01*
X4995717D01*
Y3052513D01*
X4999480D01*
Y3057456D01*
X4998720D01*
Y3059737D01*
X5000960D01*
Y3063449D01*
X5024551D01*
X5043060Y3044941D01*
X5042638Y3043923D01*
X5042492Y3042815D01*
X5042638Y3041707D01*
X5043065Y3040675D01*
X5043745Y3039789D01*
X5044632Y3039108D01*
X5045664Y3038681D01*
X5046772Y3038535D01*
X5047879Y3038681D01*
X5048912Y3039108D01*
X5049798Y3039789D01*
X5050478Y3040675D01*
X5050906Y3041707D01*
X5051052Y3042815D01*
X5050906Y3043923D01*
X5050478Y3044955D01*
X5049798Y3045841D01*
X5048912Y3046522D01*
X5047879Y3046949D01*
X5046772Y3047095D01*
X5045664Y3046949D01*
X5044645Y3046527D01*
X5025809Y3065364D01*
X5025445Y3065607D01*
X5025016Y3065692D01*
X5025016Y3065692D01*
X5000960D01*
Y3069405D01*
X4994256D01*
X4980486Y3083175D01*
X4980122Y3083418D01*
X4980111Y3083420D01*
X4980160Y3083918D01*
X5008000D01*
X5019141Y3072776D01*
X5019075Y3072441D01*
X5019226Y3071680D01*
X5019657Y3071035D01*
X5020302Y3070604D01*
X5021063Y3070453D01*
X5021824Y3070604D01*
X5022469Y3071035D01*
X5022900Y3071680D01*
X5023051Y3072441D01*
X5022900Y3073202D01*
X5022469Y3073847D01*
X5021824Y3074278D01*
X5021063Y3074429D01*
X5020728Y3074362D01*
X5010134Y3084956D01*
X5010326Y3085418D01*
X5012583D01*
X5043060Y3054941D01*
X5042638Y3053923D01*
X5042492Y3052815D01*
X5042638Y3051707D01*
X5043065Y3050675D01*
X5043745Y3049789D01*
X5044632Y3049108D01*
X5045664Y3048681D01*
X5046772Y3048535D01*
X5047879Y3048681D01*
X5048912Y3049108D01*
X5049798Y3049789D01*
X5050478Y3050675D01*
X5050906Y3051707D01*
X5051052Y3052815D01*
X5050906Y3053923D01*
X5050478Y3054955D01*
X5049798Y3055841D01*
X5048912Y3056521D01*
X5047879Y3056949D01*
X5046772Y3057095D01*
X5045664Y3056949D01*
X5044645Y3056527D01*
X5014717Y3086456D01*
X5014908Y3086918D01*
X5031996D01*
X5031996Y3086918D01*
X5032425Y3087003D01*
X5032789Y3087246D01*
X5044645Y3099103D01*
X5045664Y3098681D01*
X5046772Y3098535D01*
X5047879Y3098681D01*
X5048912Y3099108D01*
X5049798Y3099789D01*
X5050478Y3100675D01*
X5050906Y3101707D01*
X5051052Y3102815D01*
X5050906Y3103923D01*
X5050478Y3104955D01*
X5049798Y3105841D01*
X5048912Y3106521D01*
X5047879Y3106949D01*
X5046772Y3107095D01*
X5045664Y3106949D01*
X5044632Y3106521D01*
X5043745Y3105841D01*
X5043065Y3104955D01*
X5042638Y3103923D01*
X5042492Y3102815D01*
X5042638Y3101707D01*
X5043060Y3100689D01*
X5031532Y3089161D01*
X4931238D01*
X4931238Y3089161D01*
X4930809Y3089075D01*
X4930445Y3088832D01*
X4930445Y3088832D01*
X4912254Y3070642D01*
X4911813Y3070878D01*
X4911831Y3070965D01*
X4911679Y3071725D01*
X4911248Y3072370D01*
X4910603Y3072801D01*
X4909843Y3072953D01*
X4909743Y3072933D01*
X4909507Y3073374D01*
X4929697Y3093563D01*
X4947441D01*
X4947441Y3093563D01*
X4947870Y3093649D01*
X4948234Y3093892D01*
X4974022Y3119679D01*
X4974022Y3119679D01*
X4974265Y3120043D01*
X4974265Y3120043D01*
X4974265Y3120043D01*
X4974350Y3120472D01*
X4974350Y3120473D01*
Y3122528D01*
X4975109D01*
Y3127472D01*
X4974350D01*
Y3129260D01*
X4978191Y3133101D01*
X4978434Y3133464D01*
X4978519Y3133894D01*
X4978519Y3133894D01*
Y3137139D01*
X4979538Y3137561D01*
X4980424Y3138241D01*
X4981104Y3139128D01*
X4981532Y3140160D01*
X4981678Y3141268D01*
Y3144024D01*
X4981532Y3145131D01*
X4981104Y3146164D01*
X4980424Y3147050D01*
X4979538Y3147730D01*
X4978505Y3148158D01*
X4977398Y3148304D01*
D02*
G37*
G36*
X4905621Y3118023D02*
X4900678D01*
Y3117263D01*
X4897944D01*
Y3118023D01*
X4893001D01*
Y3114261D01*
X4897944D01*
Y3115020D01*
X4900678D01*
Y3114261D01*
X4905621D01*
Y3118023D01*
D02*
G37*
G36*
X4917905Y3112019D02*
X4915934D01*
Y3110638D01*
X4917905D01*
Y3112019D01*
D02*
G37*
G36*
X4897944Y3109736D02*
X4895972D01*
Y3108355D01*
X4897944D01*
Y3109736D01*
D02*
G37*
G36*
X4894972Y3112117D02*
X4893001D01*
Y3110736D01*
X4894972D01*
Y3112117D01*
D02*
G37*
G36*
X4920877Y3112019D02*
X4918906D01*
Y3110638D01*
X4920877D01*
Y3112019D01*
D02*
G37*
G36*
X4815591Y3131780D02*
X4814585Y3131648D01*
X4813649Y3131260D01*
X4812845Y3130643D01*
X4812228Y3129839D01*
X4811840Y3128903D01*
X4811708Y3127898D01*
X4811840Y3126893D01*
X4812228Y3125956D01*
X4812845Y3125152D01*
X4813649Y3124535D01*
X4814585Y3124147D01*
X4815591Y3124015D01*
X4816595Y3124147D01*
X4817532Y3124535D01*
X4818336Y3125152D01*
X4818953Y3125956D01*
X4819341Y3126893D01*
X4819473Y3127898D01*
X4819341Y3128903D01*
X4818953Y3129839D01*
X4818336Y3130643D01*
X4817532Y3131260D01*
X4816595Y3131648D01*
X4815591Y3131780D01*
D02*
G37*
G36*
X4960917Y3133377D02*
X4959536D01*
Y3131405D01*
X4960917D01*
Y3133377D01*
D02*
G37*
G36*
X4860247Y3130504D02*
X4858866D01*
Y3128532D01*
X4860247D01*
Y3130504D01*
D02*
G37*
G36*
X4857866Y3133476D02*
X4856485D01*
Y3131504D01*
X4857866D01*
Y3133476D01*
D02*
G37*
G36*
X4963298Y3133377D02*
X4961917D01*
Y3131405D01*
X4963298D01*
Y3133377D01*
D02*
G37*
G36*
X4960917Y3130405D02*
X4959536D01*
Y3128434D01*
X4960917D01*
Y3130405D01*
D02*
G37*
G36*
X5033701Y3131780D02*
X5032696Y3131648D01*
X5031759Y3131260D01*
X5030955Y3130643D01*
X5030338Y3129839D01*
X5029950Y3128903D01*
X5029818Y3127898D01*
X5029950Y3126893D01*
X5030338Y3125956D01*
X5030955Y3125152D01*
X5031759Y3124535D01*
X5032696Y3124147D01*
X5033701Y3124015D01*
X5034706Y3124147D01*
X5035642Y3124535D01*
X5036446Y3125152D01*
X5037063Y3125956D01*
X5037451Y3126893D01*
X5037584Y3127898D01*
X5037451Y3128903D01*
X5037063Y3129839D01*
X5036446Y3130643D01*
X5035642Y3131260D01*
X5034706Y3131648D01*
X5033701Y3131780D01*
D02*
G37*
G36*
X4857866Y3130504D02*
X4856485D01*
Y3128532D01*
X4857866D01*
Y3130504D01*
D02*
G37*
G36*
X4963298Y3130405D02*
X4961917D01*
Y3128434D01*
X4963298D01*
Y3130405D01*
D02*
G37*
G36*
X5056272Y3067029D02*
X5055664Y3066949D01*
X5054632Y3066521D01*
X5053745Y3065841D01*
X5053065Y3064955D01*
X5052637Y3063923D01*
X5052557Y3063315D01*
X5056272D01*
Y3067029D01*
D02*
G37*
G36*
X5060986Y3042315D02*
X5057272D01*
Y3038601D01*
X5057879Y3038681D01*
X5058912Y3039108D01*
X5059798Y3039789D01*
X5060478Y3040675D01*
X5060906Y3041707D01*
X5060986Y3042315D01*
D02*
G37*
G36*
X5056272Y3047029D02*
X5055664Y3046949D01*
X5054632Y3046522D01*
X5053745Y3045841D01*
X5053065Y3044955D01*
X5052637Y3043923D01*
X5052557Y3043315D01*
X5056272D01*
Y3047029D01*
D02*
G37*
G36*
X5057272D02*
Y3043315D01*
X5060986D01*
X5060906Y3043923D01*
X5060478Y3044955D01*
X5059798Y3045841D01*
X5058912Y3046522D01*
X5057879Y3046949D01*
X5057272Y3047029D01*
D02*
G37*
G36*
X5056272Y3037029D02*
X5055664Y3036949D01*
X5054632Y3036522D01*
X5053745Y3035841D01*
X5053065Y3034955D01*
X5052637Y3033923D01*
X5052557Y3033315D01*
X5056272D01*
Y3037029D01*
D02*
G37*
G36*
X5057272D02*
Y3033315D01*
X5060986D01*
X5060906Y3033923D01*
X5060478Y3034955D01*
X5059798Y3035841D01*
X5058912Y3036522D01*
X5057879Y3036949D01*
X5057272Y3037029D01*
D02*
G37*
G36*
X5056272Y3042315D02*
X5052557D01*
X5052637Y3041707D01*
X5053065Y3040675D01*
X5053745Y3039789D01*
X5054632Y3039108D01*
X5055664Y3038681D01*
X5056272Y3038601D01*
Y3042315D01*
D02*
G37*
G36*
Y3052315D02*
X5052557D01*
X5052637Y3051707D01*
X5053065Y3050675D01*
X5053745Y3049789D01*
X5054632Y3049108D01*
X5055664Y3048681D01*
X5056272Y3048601D01*
Y3052315D01*
D02*
G37*
G36*
X4811213Y3053240D02*
X4809241D01*
Y3051859D01*
X4811213D01*
Y3053240D01*
D02*
G37*
G36*
X4814184D02*
X4812213D01*
Y3051859D01*
X4814184D01*
Y3053240D01*
D02*
G37*
G36*
X4991193Y3054484D02*
X4989812D01*
Y3052513D01*
X4991193D01*
Y3054484D01*
D02*
G37*
G36*
X5060986Y3052315D02*
X5057272D01*
Y3048601D01*
X5057879Y3048681D01*
X5058912Y3049108D01*
X5059798Y3049789D01*
X5060478Y3050675D01*
X5060906Y3051707D01*
X5060986Y3052315D01*
D02*
G37*
G36*
X4946941Y3053751D02*
X4945560D01*
Y3051780D01*
X4946941D01*
Y3053751D01*
D02*
G37*
G36*
X4949322D02*
X4947941D01*
Y3051780D01*
X4949322D01*
Y3053751D01*
D02*
G37*
G36*
X4986330Y3031507D02*
X4983571D01*
Y3029929D01*
X4986330D01*
Y3031507D01*
D02*
G37*
G36*
X4811114Y3027551D02*
X4809143D01*
Y3026170D01*
X4811114D01*
Y3027551D01*
D02*
G37*
G36*
X4814086D02*
X4812114D01*
Y3026170D01*
X4814086D01*
Y3027551D01*
D02*
G37*
G36*
X4982571Y3028929D02*
X4979812D01*
Y3027351D01*
X4982571D01*
Y3028929D01*
D02*
G37*
G36*
X5060986Y3022315D02*
X5057272D01*
Y3018601D01*
X5057879Y3018681D01*
X5058912Y3019108D01*
X5059798Y3019789D01*
X5060478Y3020675D01*
X5060906Y3021707D01*
X5060986Y3022315D01*
D02*
G37*
G36*
X5056272Y3027029D02*
X5055664Y3026949D01*
X5054632Y3026521D01*
X5053745Y3025841D01*
X5053065Y3024955D01*
X5052637Y3023923D01*
X5052557Y3023315D01*
X5056272D01*
Y3027029D01*
D02*
G37*
G36*
X5057272D02*
Y3023315D01*
X5060986D01*
X5060906Y3023923D01*
X5060478Y3024955D01*
X5059798Y3025841D01*
X5058912Y3026521D01*
X5057879Y3026949D01*
X5057272Y3027029D01*
D02*
G37*
G36*
X4986330Y3028929D02*
X4983571D01*
Y3027351D01*
X4986330D01*
Y3028929D01*
D02*
G37*
G36*
X5056272Y3032315D02*
X5052557D01*
X5052637Y3031707D01*
X5053065Y3030675D01*
X5053745Y3029789D01*
X5054632Y3029108D01*
X5055664Y3028681D01*
X5056272Y3028601D01*
Y3032315D01*
D02*
G37*
G36*
X5060986D02*
X5057272D01*
Y3028601D01*
X5057879Y3028681D01*
X5058912Y3029108D01*
X5059798Y3029789D01*
X5060478Y3030675D01*
X5060906Y3031707D01*
X5060986Y3032315D01*
D02*
G37*
G36*
X4982571Y3031507D02*
X4979812D01*
Y3029929D01*
X4982571D01*
Y3031507D01*
D02*
G37*
G36*
X5046772Y3037095D02*
X5045664Y3036949D01*
X5044632Y3036522D01*
X5043745Y3035841D01*
X5043065Y3034955D01*
X5042638Y3033923D01*
X5042492Y3032815D01*
X5042638Y3031707D01*
X5043065Y3030675D01*
X5043745Y3029789D01*
X5044632Y3029108D01*
X5045664Y3028681D01*
X5046772Y3028535D01*
X5047879Y3028681D01*
X5048912Y3029108D01*
X5049798Y3029789D01*
X5050478Y3030675D01*
X5050906Y3031707D01*
X5051052Y3032815D01*
X5050906Y3033923D01*
X5050478Y3034955D01*
X5049798Y3035841D01*
X5048912Y3036522D01*
X5047879Y3036949D01*
X5046772Y3037095D01*
D02*
G37*
G36*
X4811114Y3029932D02*
X4809143D01*
Y3028551D01*
X4811114D01*
Y3029932D01*
D02*
G37*
G36*
X4814086D02*
X4812114D01*
Y3028551D01*
X4814086D01*
Y3029932D01*
D02*
G37*
G36*
X4993574Y3054484D02*
X4992193D01*
Y3052513D01*
X4993574D01*
Y3054484D01*
D02*
G37*
G36*
X5046772Y3067095D02*
X5045664Y3066949D01*
X5044632Y3066521D01*
X5043745Y3065841D01*
X5043065Y3064955D01*
X5042638Y3063923D01*
X5042492Y3062815D01*
X5042638Y3061707D01*
X5043065Y3060675D01*
X5043745Y3059789D01*
X5044632Y3059108D01*
X5045664Y3058681D01*
X5046772Y3058535D01*
X5047879Y3058681D01*
X5048912Y3059108D01*
X5049798Y3059789D01*
X5050478Y3060675D01*
X5050906Y3061707D01*
X5051052Y3062815D01*
X5050906Y3063923D01*
X5050478Y3064955D01*
X5049798Y3065841D01*
X5048912Y3066521D01*
X5047879Y3066949D01*
X5046772Y3067095D01*
D02*
G37*
G36*
X4938477Y3063378D02*
X4936505D01*
Y3061997D01*
X4938477D01*
Y3063378D01*
D02*
G37*
G36*
X4941448D02*
X4939476D01*
Y3061997D01*
X4941448D01*
Y3063378D01*
D02*
G37*
G36*
X5056272Y3062315D02*
X5052557D01*
X5052637Y3061707D01*
X5053065Y3060675D01*
X5053745Y3059789D01*
X5054632Y3059108D01*
X5055664Y3058681D01*
X5056272Y3058601D01*
Y3062315D01*
D02*
G37*
G36*
X5060986D02*
X5057272D01*
Y3058601D01*
X5057879Y3058681D01*
X5058912Y3059108D01*
X5059798Y3059789D01*
X5060478Y3060675D01*
X5060906Y3061707D01*
X5060986Y3062315D01*
D02*
G37*
G36*
X4983243Y3069405D02*
X4976331D01*
Y3059737D01*
X4983243D01*
Y3069405D01*
D02*
G37*
G36*
X4811213Y3055621D02*
X4809241D01*
Y3054240D01*
X4811213D01*
Y3055621D01*
D02*
G37*
G36*
X5057272Y3057029D02*
Y3053315D01*
X5060986D01*
X5060906Y3053923D01*
X5060478Y3054955D01*
X5059798Y3055841D01*
X5058912Y3056521D01*
X5057879Y3056949D01*
X5057272Y3057029D01*
D02*
G37*
G36*
X5056272D02*
X5055664Y3056949D01*
X5054632Y3056521D01*
X5053745Y3055841D01*
X5053065Y3054955D01*
X5052637Y3053923D01*
X5052557Y3053315D01*
X5056272D01*
Y3057029D01*
D02*
G37*
G36*
X4991193Y3057456D02*
X4989812D01*
Y3055484D01*
X4991193D01*
Y3057456D01*
D02*
G37*
G36*
X4993574D02*
X4992193D01*
Y3055484D01*
X4993574D01*
Y3057456D01*
D02*
G37*
G36*
X4814184Y3055621D02*
X4812213D01*
Y3054240D01*
X4814184D01*
Y3055621D01*
D02*
G37*
%LPD*%
G36*
X4929359Y3050355D02*
Y3048725D01*
Y3046757D01*
Y3044788D01*
Y3042820D01*
Y3040851D01*
Y3038883D01*
Y3036914D01*
Y3034946D01*
Y3032977D01*
Y3031009D01*
Y3029040D01*
Y3027072D01*
Y3025103D01*
Y3023135D01*
Y3021166D01*
X4935484D01*
Y3021335D01*
X4936259D01*
X4948893Y3008702D01*
X4948826Y3008366D01*
X4948978Y3007605D01*
X4949409Y3006960D01*
X4950054Y3006529D01*
X4950814Y3006378D01*
X4951575Y3006529D01*
X4952221Y3006960D01*
X4952651Y3007605D01*
X4952803Y3008366D01*
X4952651Y3009127D01*
X4952221Y3009772D01*
X4951575Y3010203D01*
X4950814Y3010354D01*
X4950631Y3010318D01*
X4950333Y3010719D01*
X4950469Y3010974D01*
X4950814Y3010905D01*
X4951575Y3011057D01*
X4952221Y3011488D01*
X4952651Y3012133D01*
X4952803Y3012894D01*
X4952651Y3013655D01*
X4952221Y3014300D01*
X4951575Y3014731D01*
X4950933Y3014858D01*
Y3015358D01*
X4951575Y3015486D01*
X4952221Y3015917D01*
X4952651Y3016562D01*
X4952803Y3017323D01*
X4952651Y3018084D01*
X4952221Y3018729D01*
X4951575Y3019160D01*
X4951112Y3019252D01*
Y3019752D01*
X4951575Y3019844D01*
X4952221Y3020275D01*
X4952651Y3020920D01*
X4952760Y3021465D01*
X4952914Y3021512D01*
X4953315Y3021214D01*
Y3000143D01*
X4947358Y2994186D01*
X4946917Y2994421D01*
X4947067Y2995177D01*
X4946915Y2995938D01*
X4946485Y2996583D01*
X4945840Y2997014D01*
X4945079Y2997165D01*
X4944970Y2997714D01*
X4945374Y2997717D01*
X4945374D01*
X4946135Y2997868D01*
X4946780Y2998299D01*
X4947211Y2998944D01*
X4947362Y2999705D01*
X4947211Y3000466D01*
X4946780Y3001111D01*
X4946135Y3001542D01*
X4945374Y3001693D01*
X4944613Y3001542D01*
X4943968Y3001111D01*
X4943537Y3000466D01*
X4943386Y2999705D01*
X4943452Y2999369D01*
X4938118Y2994035D01*
X4925322D01*
X4921732Y2997625D01*
Y3000678D01*
X4923417D01*
Y3002559D01*
Y3004440D01*
X4921732D01*
Y3006584D01*
X4926389D01*
Y3010346D01*
X4923700D01*
Y3011520D01*
X4925838D01*
Y3012973D01*
X4926300Y3013164D01*
X4927320Y3012144D01*
Y3010346D01*
X4927253D01*
Y3006584D01*
X4932196D01*
Y3010346D01*
X4929971D01*
Y3012693D01*
X4929971Y3012693D01*
X4929971Y3012693D01*
Y3012693D01*
X4929971D01*
X4929971Y3012693D01*
X4929870Y3013200D01*
X4929583Y3013630D01*
X4927693Y3015520D01*
X4927263Y3015807D01*
X4926756Y3015908D01*
X4925873D01*
Y3019202D01*
X4925873Y3019202D01*
X4925873Y3019202D01*
Y3019202D01*
Y3047522D01*
X4928897Y3050546D01*
X4929359Y3050355D01*
D02*
G37*
G36*
X4915552Y3010346D02*
X4912883D01*
Y3006584D01*
X4917520D01*
Y3004440D01*
X4915854D01*
Y3002559D01*
Y3000678D01*
X4917520D01*
Y2997008D01*
X4917520Y2997008D01*
X4917606Y2996579D01*
X4917849Y2996215D01*
X4923443Y2990620D01*
X4923443Y2990620D01*
X4923807Y2990377D01*
X4923807Y2990377D01*
X4923807Y2990377D01*
D01*
X4923807Y2990377D01*
X4923807Y2990377D01*
X4924236Y2990292D01*
X4938489D01*
X4938725Y2989851D01*
X4938517Y2989540D01*
X4938366Y2988779D01*
X4938517Y2988019D01*
X4938675Y2987783D01*
X4938523Y2987498D01*
X4938023Y2987474D01*
X4937922Y2987626D01*
X4937276Y2988057D01*
X4936516Y2988209D01*
X4935755Y2988057D01*
X4935110Y2987626D01*
X4934679Y2986981D01*
X4934528Y2986221D01*
X4934679Y2985460D01*
X4934705Y2985421D01*
X4934541Y2985115D01*
X4934042Y2985090D01*
X4933926Y2985264D01*
X4933281Y2985695D01*
X4932520Y2985847D01*
X4931759Y2985695D01*
X4931114Y2985264D01*
X4930683Y2984619D01*
X4930531Y2983858D01*
X4930683Y2983097D01*
X4930701Y2983071D01*
X4930590Y2982863D01*
X4930090Y2982838D01*
X4930048Y2982902D01*
X4929403Y2983333D01*
X4928642Y2983484D01*
X4927881Y2983333D01*
X4927236Y2982902D01*
X4926805Y2982257D01*
X4926654Y2981496D01*
X4926805Y2980735D01*
X4926823Y2980709D01*
X4926587Y2980268D01*
X4917633D01*
X4911889Y2986011D01*
Y3011520D01*
X4915552D01*
Y3010346D01*
D02*
G37*
G36*
X4903741Y3083453D02*
Y3074913D01*
X4902075D01*
Y3073031D01*
Y3071150D01*
X4903741D01*
Y3069007D01*
X4899103D01*
Y3065245D01*
X4901772D01*
Y3062920D01*
X4897488D01*
Y3059858D01*
X4896488D01*
Y3062920D01*
X4896243D01*
Y3065146D01*
X4896271D01*
Y3068909D01*
X4891328D01*
Y3065146D01*
X4893796D01*
Y3062920D01*
X4893729D01*
Y3060034D01*
X4893694Y3059858D01*
Y3053310D01*
X4881617D01*
Y3054412D01*
X4876674D01*
Y3053857D01*
X4876117D01*
Y3054412D01*
X4871174D01*
Y3051137D01*
X4855960D01*
X4855725Y3051578D01*
X4856069Y3052094D01*
X4856221Y3052854D01*
X4856069Y3053615D01*
X4855647Y3054247D01*
X4882660Y3081260D01*
X4893581D01*
X4893771Y3080976D01*
X4894416Y3080545D01*
X4895177Y3080394D01*
X4895938Y3080545D01*
X4896583Y3080976D01*
X4897014Y3081621D01*
X4897165Y3082382D01*
X4897014Y3083143D01*
X4896857Y3083378D01*
X4896957Y3083566D01*
X4897451Y3083640D01*
X4899567Y3081524D01*
Y3080336D01*
X4899283Y3080146D01*
X4898852Y3079501D01*
X4898701Y3078740D01*
X4898852Y3077979D01*
X4899283Y3077334D01*
X4899928Y3076903D01*
X4900689Y3076752D01*
X4901450Y3076903D01*
X4902095Y3077334D01*
X4902526Y3077979D01*
X4902677Y3078740D01*
X4902526Y3079501D01*
X4902095Y3080146D01*
X4901810Y3080336D01*
Y3081988D01*
X4901725Y3082417D01*
X4901482Y3082781D01*
X4901482Y3082781D01*
X4899232Y3085031D01*
X4899424Y3085493D01*
X4901701D01*
X4903741Y3083453D01*
D02*
G37*
G36*
X4893694Y3029688D02*
X4890208D01*
Y3029831D01*
X4884084D01*
Y3029688D01*
X4880523D01*
Y3029834D01*
X4876761D01*
Y3024891D01*
X4879832D01*
X4879896Y3024738D01*
X4879618Y3024322D01*
X4876761D01*
Y3019379D01*
X4880523D01*
Y3021756D01*
X4883622Y3024854D01*
X4884084Y3024663D01*
Y3023135D01*
Y3021166D01*
X4890208D01*
Y3021335D01*
X4891175D01*
X4891507Y3020838D01*
X4892152Y3020407D01*
X4892913Y3020256D01*
X4893674Y3020407D01*
X4894319Y3020838D01*
X4894750Y3021483D01*
X4894902Y3022244D01*
X4894750Y3023005D01*
X4894319Y3023650D01*
X4893674Y3024081D01*
X4892913Y3024232D01*
X4892152Y3024081D01*
X4891507Y3023650D01*
X4891460Y3023578D01*
X4890208D01*
Y3025103D01*
Y3027037D01*
X4894471D01*
X4897631Y3023876D01*
Y3019202D01*
Y3017645D01*
X4897488D01*
Y3014583D01*
Y3011520D01*
X4897631D01*
Y3010918D01*
X4897353Y3010247D01*
Y3010247D01*
D01*
X4892410D01*
Y3009593D01*
X4883475D01*
Y3010739D01*
X4879713D01*
Y3005796D01*
X4883475D01*
Y3006942D01*
X4892410D01*
Y3006485D01*
X4897353D01*
Y3007041D01*
X4897540D01*
X4898046Y3007142D01*
X4898476Y3007429D01*
X4899240Y3008192D01*
X4899702Y3008001D01*
Y3003007D01*
X4897815Y3001121D01*
X4897353Y3001312D01*
Y3001961D01*
X4895382D01*
Y3000579D01*
X4896621D01*
X4896812Y3000117D01*
X4885451Y2988756D01*
X4885236Y2988799D01*
X4884475Y2988648D01*
X4883830Y2988217D01*
X4883400Y2987572D01*
X4883248Y2986811D01*
X4883400Y2986050D01*
X4883830Y2985405D01*
X4884475Y2984974D01*
X4885236Y2984823D01*
X4885997Y2984974D01*
X4886642Y2985405D01*
X4887073Y2986050D01*
X4887225Y2986811D01*
X4887181Y2987026D01*
X4901208Y3001053D01*
X4901670Y3000861D01*
Y2998735D01*
X4889428Y2986493D01*
X4889213Y2986535D01*
X4888452Y2986384D01*
X4887807Y2985953D01*
X4887376Y2985308D01*
X4887225Y2984547D01*
X4887376Y2983786D01*
X4887807Y2983141D01*
X4888452Y2982710D01*
X4889213Y2982559D01*
X4889973Y2982710D01*
X4890619Y2983141D01*
X4891050Y2983786D01*
X4891201Y2984547D01*
X4891158Y2984762D01*
X4903177Y2996781D01*
X4903639Y2996590D01*
Y2994601D01*
X4893365Y2984327D01*
X4893150Y2984370D01*
X4892389Y2984219D01*
X4891744Y2983788D01*
X4891313Y2983143D01*
X4891161Y2982382D01*
X4891313Y2981621D01*
X4891744Y2980976D01*
X4892389Y2980545D01*
X4893150Y2980394D01*
X4893911Y2980545D01*
X4894556Y2980976D01*
X4894986Y2981621D01*
X4895138Y2982382D01*
X4895095Y2982597D01*
X4905145Y2992647D01*
X4905607Y2992456D01*
Y2990270D01*
X4897302Y2981965D01*
X4897087Y2982008D01*
X4896326Y2981857D01*
X4895681Y2981425D01*
X4895250Y2980780D01*
X4895098Y2980020D01*
X4895250Y2979259D01*
X4895576Y2978771D01*
X4895340Y2978330D01*
X4867886D01*
X4855649Y2990567D01*
Y3027030D01*
X4859797Y3031178D01*
X4884084D01*
Y3031009D01*
Y3030831D01*
X4890208D01*
Y3031009D01*
Y3032977D01*
Y3034946D01*
Y3036914D01*
Y3038883D01*
Y3040851D01*
Y3042820D01*
Y3044788D01*
Y3046757D01*
Y3048725D01*
Y3050659D01*
X4893694D01*
Y3029688D01*
D02*
G37*
%LPC*%
G36*
X4894382Y3004342D02*
X4892410D01*
Y3002961D01*
X4894382D01*
Y3004342D01*
D02*
G37*
G36*
X4932196Y3002059D02*
X4930224D01*
Y3000678D01*
X4932196D01*
Y3002059D01*
D02*
G37*
G36*
X4914854D02*
X4912883D01*
Y3000678D01*
X4914854D01*
Y3002059D01*
D02*
G37*
G36*
X4894382Y3001961D02*
X4892410D01*
Y3000579D01*
X4894382D01*
Y3001961D01*
D02*
G37*
G36*
X4929224Y3002059D02*
X4927253D01*
Y3000678D01*
X4929224D01*
Y3002059D01*
D02*
G37*
G36*
X4926389D02*
X4924417D01*
Y3000678D01*
X4926389D01*
Y3002059D01*
D02*
G37*
G36*
X4897353Y3004342D02*
X4895382D01*
Y3002961D01*
X4897353D01*
Y3004342D01*
D02*
G37*
G36*
X4896488Y3017645D02*
X4893729D01*
Y3015704D01*
X4879839D01*
X4879409Y3015619D01*
X4879045Y3015376D01*
X4879045Y3015376D01*
X4874896Y3011226D01*
X4874653Y3010862D01*
X4874628Y3010739D01*
X4873808D01*
Y3007973D01*
X4860276Y2994441D01*
X4859941Y2994508D01*
X4859180Y2994357D01*
X4858535Y2993926D01*
X4858104Y2993280D01*
X4857953Y2992520D01*
X4858104Y2991759D01*
X4858535Y2991114D01*
X4859180Y2990683D01*
X4859941Y2990532D01*
X4860702Y2990683D01*
X4861347Y2991114D01*
X4861778Y2991759D01*
X4861929Y2992520D01*
X4861863Y2992855D01*
X4874804Y3005796D01*
X4877570D01*
Y3010728D01*
X4880303Y3013461D01*
X4893729D01*
Y3011520D01*
X4896488D01*
Y3014583D01*
Y3017645D01*
D02*
G37*
G36*
X4872236Y3024322D02*
X4870855D01*
Y3022350D01*
X4872236D01*
Y3024322D01*
D02*
G37*
G36*
Y3021350D02*
X4870855D01*
Y3019379D01*
X4872236D01*
Y3021350D01*
D02*
G37*
G36*
X4874617D02*
X4873236D01*
Y3019379D01*
X4874617D01*
Y3021350D01*
D02*
G37*
G36*
Y3024322D02*
X4873236D01*
Y3022350D01*
X4874617D01*
Y3024322D01*
D02*
G37*
G36*
X4926389Y3004440D02*
X4924417D01*
Y3003059D01*
X4926389D01*
Y3004440D01*
D02*
G37*
G36*
X4914854D02*
X4912883D01*
Y3003059D01*
X4914854D01*
Y3004440D01*
D02*
G37*
G36*
X4932196D02*
X4930224D01*
Y3003059D01*
X4932196D01*
Y3004440D01*
D02*
G37*
G36*
X4929224D02*
X4927253D01*
Y3003059D01*
X4929224D01*
Y3004440D01*
D02*
G37*
G36*
X4881617Y3057937D02*
X4879646D01*
Y3056556D01*
X4881617D01*
Y3057937D01*
D02*
G37*
G36*
X4878646D02*
X4876674D01*
Y3056556D01*
X4878646D01*
Y3057937D01*
D02*
G37*
G36*
X4896271Y3072433D02*
X4894299D01*
Y3071052D01*
X4896271D01*
Y3072433D01*
D02*
G37*
G36*
X4901075Y3072532D02*
X4899103D01*
Y3071150D01*
X4901075D01*
Y3072532D01*
D02*
G37*
G36*
X4893299Y3074814D02*
X4891328D01*
Y3073433D01*
X4893299D01*
Y3074814D01*
D02*
G37*
G36*
X4876117Y3057937D02*
X4874146D01*
Y3056556D01*
X4876117D01*
Y3057937D01*
D02*
G37*
G36*
X4873146D02*
X4871174D01*
Y3056556D01*
X4873146D01*
Y3057937D01*
D02*
G37*
G36*
X4896271Y3074814D02*
X4894299D01*
Y3073433D01*
X4896271D01*
Y3074814D01*
D02*
G37*
G36*
X4901075Y3074913D02*
X4899103D01*
Y3073532D01*
X4901075D01*
Y3074913D01*
D02*
G37*
G36*
X4881617Y3060318D02*
X4879646D01*
Y3058937D01*
X4881617D01*
Y3060318D01*
D02*
G37*
G36*
X4878646D02*
X4876674D01*
Y3058937D01*
X4878646D01*
Y3060318D01*
D02*
G37*
G36*
X4872236Y3026862D02*
X4870855D01*
Y3024891D01*
X4872236D01*
Y3026862D01*
D02*
G37*
G36*
X4874617D02*
X4873236D01*
Y3024891D01*
X4874617D01*
Y3026862D01*
D02*
G37*
G36*
X4876117Y3060318D02*
X4874146D01*
Y3058937D01*
X4876117D01*
Y3060318D01*
D02*
G37*
G36*
X4874617Y3029834D02*
X4873236D01*
Y3027862D01*
X4874617D01*
Y3029834D01*
D02*
G37*
G36*
X4893299Y3072433D02*
X4891328D01*
Y3071052D01*
X4893299D01*
Y3072433D01*
D02*
G37*
G36*
X4873146Y3060318D02*
X4871174D01*
Y3058937D01*
X4873146D01*
Y3060318D01*
D02*
G37*
G36*
X4872236Y3029834D02*
X4870855D01*
Y3027862D01*
X4872236D01*
Y3029834D01*
D02*
G37*
%LPD*%
D10*
X5033858Y2981201D02*
D03*
Y2987106D02*
D03*
X4843520Y2954221D02*
D03*
Y2948315D02*
D03*
X4884646Y2944221D02*
D03*
Y2938315D02*
D03*
X4878896Y2944221D02*
D03*
Y2938315D02*
D03*
X4873146Y2944221D02*
D03*
Y2938315D02*
D03*
X4867396Y2944221D02*
D03*
Y2938315D02*
D03*
X4861646Y2944221D02*
D03*
Y2938315D02*
D03*
X4923917Y3002559D02*
D03*
Y3008465D02*
D03*
X4938976Y3063878D02*
D03*
Y3057972D02*
D03*
X4873646Y3058437D02*
D03*
Y3052531D02*
D03*
X4893799Y3072933D02*
D03*
Y3067027D02*
D03*
X4894882Y3002461D02*
D03*
Y3008366D02*
D03*
X4879146Y3058437D02*
D03*
Y3052531D02*
D03*
X4929725Y3002559D02*
D03*
Y3008465D02*
D03*
X4841291Y2801335D02*
D03*
Y2807240D02*
D03*
X4888791Y2852835D02*
D03*
Y2858740D02*
D03*
X4919783Y2772539D02*
D03*
Y2778445D02*
D03*
X4899791Y2858740D02*
D03*
Y2852835D02*
D03*
X4911811Y2772539D02*
D03*
Y2778445D02*
D03*
X4915354Y3002559D02*
D03*
Y3008465D02*
D03*
X4811614Y3022146D02*
D03*
Y3028051D02*
D03*
X4811713Y3059646D02*
D03*
Y3053740D02*
D03*
X4901575Y3067126D02*
D03*
Y3073031D02*
D03*
X4894291Y2852835D02*
D03*
Y2858740D02*
D03*
X4918406Y3116043D02*
D03*
Y3110138D02*
D03*
X4895472Y3116142D02*
D03*
Y3110236D02*
D03*
X4903149Y3116142D02*
D03*
Y3110236D02*
D03*
X4912106Y3116043D02*
D03*
Y3110138D02*
D03*
D11*
X4993602Y3011909D02*
D03*
X5002657D02*
D03*
X5011713D02*
D03*
D12*
X5002657Y3036713D02*
D03*
D13*
X4983071Y3036909D02*
D03*
Y3029429D02*
D03*
X5011909Y3001575D02*
D03*
Y2994094D02*
D03*
X4946555Y3057972D02*
D03*
Y3065453D02*
D03*
D14*
X4961417Y3130906D02*
D03*
X4967323D02*
D03*
X4858366Y3131004D02*
D03*
X4864272D02*
D03*
X4881594Y3008268D02*
D03*
X4875689D02*
D03*
X4967323Y3125000D02*
D03*
X4973228D02*
D03*
X4870079Y3124508D02*
D03*
X4864173D02*
D03*
X4947441Y3051279D02*
D03*
X4941536D02*
D03*
X4872736Y3021850D02*
D03*
X4878642D02*
D03*
X4872736Y3027362D02*
D03*
X4878642D02*
D03*
X4991693Y3054984D02*
D03*
X4997599D02*
D03*
D15*
X4852646Y2938268D02*
D03*
X4843394Y2934528D02*
D03*
Y2942008D02*
D03*
D16*
X4828146Y3059685D02*
D03*
X4827752Y3022284D02*
D03*
D17*
X4895020Y3059858D02*
D03*
X4896988D02*
D03*
X4898957D02*
D03*
X4900925D02*
D03*
X4902894D02*
D03*
X4904862D02*
D03*
X4906831D02*
D03*
X4908799D02*
D03*
X4910768D02*
D03*
X4912736D02*
D03*
X4914705D02*
D03*
X4916673D02*
D03*
X4918642D02*
D03*
X4920610D02*
D03*
X4922579D02*
D03*
X4924547D02*
D03*
Y3014583D02*
D03*
X4922579D02*
D03*
X4920610D02*
D03*
X4918642D02*
D03*
X4916673D02*
D03*
X4914705D02*
D03*
X4912736D02*
D03*
X4910768D02*
D03*
X4908799D02*
D03*
X4906831D02*
D03*
X4904862D02*
D03*
X4902894D02*
D03*
X4900925D02*
D03*
X4898957D02*
D03*
X4896988D02*
D03*
X4895020D02*
D03*
D18*
X4932421Y3051984D02*
D03*
Y3050016D02*
D03*
Y3048047D02*
D03*
Y3046079D02*
D03*
Y3044110D02*
D03*
Y3042142D02*
D03*
Y3040173D02*
D03*
Y3038205D02*
D03*
Y3036236D02*
D03*
Y3034268D02*
D03*
Y3032299D02*
D03*
Y3030331D02*
D03*
Y3028362D02*
D03*
Y3026394D02*
D03*
Y3024425D02*
D03*
Y3022457D02*
D03*
X4887146D02*
D03*
Y3024425D02*
D03*
Y3026394D02*
D03*
Y3028362D02*
D03*
Y3030331D02*
D03*
Y3032299D02*
D03*
Y3034268D02*
D03*
Y3036236D02*
D03*
Y3038205D02*
D03*
Y3040173D02*
D03*
Y3042142D02*
D03*
Y3044110D02*
D03*
Y3046079D02*
D03*
Y3048047D02*
D03*
Y3050016D02*
D03*
Y3051984D02*
D03*
D19*
X4979787Y3064571D02*
D03*
Y3100398D02*
D03*
X4997504Y3064571D02*
D03*
Y3100398D02*
D03*
D20*
X5013779Y2943209D02*
D03*
X5005906D02*
D03*
X4998032D02*
D03*
X4990157D02*
D03*
X4982283D02*
D03*
X4974409D02*
D03*
X4966536D02*
D03*
X4958661D02*
D03*
X4950787D02*
D03*
X4942913D02*
D03*
D21*
X4899793Y2767788D02*
D03*
X4894199D02*
D03*
X4888604D02*
D03*
X4883010D02*
D03*
X4877415D02*
D03*
X4871821D02*
D03*
X4866226D02*
D03*
X4860632D02*
D03*
X4855037D02*
D03*
Y2846622D02*
D03*
X4860632D02*
D03*
X4866226D02*
D03*
X4871821D02*
D03*
X4877415D02*
D03*
X4883010D02*
D03*
X4888604D02*
D03*
X4894199D02*
D03*
X4899793D02*
D03*
D22*
X4850039Y2772787D02*
D03*
Y2778524D02*
D03*
Y2784260D02*
D03*
Y2789996D02*
D03*
Y2795732D02*
D03*
Y2801468D02*
D03*
Y2807205D02*
D03*
Y2812941D02*
D03*
Y2818677D02*
D03*
Y2824413D02*
D03*
Y2830150D02*
D03*
Y2835886D02*
D03*
Y2841622D02*
D03*
X4904791D02*
D03*
Y2835886D02*
D03*
Y2830150D02*
D03*
Y2824413D02*
D03*
Y2818677D02*
D03*
Y2812941D02*
D03*
Y2807205D02*
D03*
Y2801468D02*
D03*
Y2795732D02*
D03*
Y2789996D02*
D03*
Y2784260D02*
D03*
Y2778524D02*
D03*
Y2772787D02*
D03*
D23*
X4971949Y2967028D02*
Y2974235D01*
X4963531Y2966484D02*
X4964075Y2967028D01*
X4918642Y3054429D02*
Y3059858D01*
X4898327Y3052461D02*
X4898957Y3053090D01*
Y3059858D01*
X4900925Y3055768D02*
X4902165Y3054528D01*
X4900925Y3055768D02*
Y3059858D01*
X4920610Y3056850D02*
X4923032Y3054429D01*
X4920610Y3056850D02*
Y3059858D01*
X4914370Y3054429D02*
X4916673Y3056732D01*
Y3059858D01*
X4910780Y2971209D02*
X4912992Y2968996D01*
X4864936Y2971209D02*
X4910780D01*
X4903445Y2968209D02*
X4904626Y2967028D01*
X4917168Y2979146D02*
X4944284D01*
X4910768Y2985547D02*
X4917168Y2979146D01*
X4917709Y2976484D02*
X4948220D01*
X4908799Y2985394D02*
X4917709Y2976484D01*
X4917847Y2973984D02*
X4952146D01*
X4914622Y2977209D02*
X4917847Y2973984D01*
X4867421Y2977209D02*
X4914622D01*
X4913957Y2975709D02*
X4918181Y2971484D01*
X4866800Y2975709D02*
X4913957D01*
X4913291Y2974209D02*
X4918516Y2968984D01*
X4866179Y2974209D02*
X4913291D01*
X4918181Y2971484D02*
X4956146D01*
X4918516Y2968984D02*
X4960146D01*
X4912626Y2972709D02*
X4918850Y2966484D01*
X4865557Y2972709D02*
X4912626D01*
X4918850Y2966484D02*
X4963531D01*
X4942630Y2981508D02*
X4958937Y2997815D01*
X4944284Y2979146D02*
X4944331Y2979193D01*
X4928642Y2981496D02*
X4928740Y2981594D01*
Y2981508D02*
X4942630D01*
X4932520Y2983858D02*
X4942859D01*
X4849311Y3030881D02*
Y3038189D01*
X4848524Y3030094D02*
X4849311Y3030881D01*
X4848524Y2987621D02*
Y3030094D01*
X4845669Y3031377D02*
Y3035827D01*
Y3049803D02*
Y3050295D01*
X4849409Y3052658D02*
X4852051Y3050016D01*
X4845669Y3050295D02*
Y3050492D01*
Y3049803D02*
X4847425Y3048047D01*
X4854232Y3052854D02*
Y3054419D01*
X4843567Y2976047D02*
X4845964Y2978445D01*
X4806201Y2959252D02*
X4836713Y2928740D01*
X4804701Y2952976D02*
X4834547Y2923130D01*
X4842520Y2985433D02*
Y3027362D01*
X4832775Y2975689D02*
X4842520Y2985433D01*
X4832775Y2790945D02*
X4845197Y2778524D01*
X4845523Y2986378D02*
Y3029401D01*
Y2986378D02*
X4863693Y2968209D01*
X4847024Y2987000D02*
Y3030022D01*
Y2987000D02*
X4864315Y2969709D01*
X4848524Y2987621D02*
X4864936Y2971209D01*
X4850027Y3029358D02*
X4858874Y3038205D01*
X4850027Y2988238D02*
Y3029358D01*
Y2988238D02*
X4865557Y2972709D01*
X4851528Y3028737D02*
X4859027Y3036236D01*
X4851528Y2988860D02*
Y3028737D01*
Y2988860D02*
X4866179Y2974209D01*
X4853028Y3028116D02*
X4859180Y3034268D01*
X4853028Y2989481D02*
Y3028116D01*
Y2989481D02*
X4866800Y2975709D01*
X4854528Y3027494D02*
X4859333Y3032299D01*
X4854528Y2990102D02*
Y3027494D01*
Y2990102D02*
X4867421Y2977209D01*
X4841929Y3032996D02*
X4845523Y3029401D01*
X4845669Y3031377D02*
X4847024Y3030022D01*
X4829036Y2807087D02*
Y2913484D01*
X4803201Y2939319D02*
X4829036Y2913484D01*
X4803201Y2939319D02*
Y3068566D01*
X4860040Y2928740D02*
X4910728Y2878051D01*
Y2837795D02*
Y2878051D01*
X4908819Y2835886D02*
X4910728Y2837795D01*
X4836713Y2928740D02*
X4860040D01*
X4855709Y2923130D02*
X4904528Y2874311D01*
X5073327Y2946654D02*
Y2972441D01*
X5011811Y2885138D02*
X5073327Y2946654D01*
X5070374Y2949409D02*
Y2971260D01*
X5011909Y2890945D02*
X5070374Y2949409D01*
X5067225Y2952067D02*
Y2969980D01*
X5011909Y2896752D02*
X5067225Y2952067D01*
X5063779Y2954429D02*
Y2966831D01*
X5011909Y2902559D02*
X5063779Y2954429D01*
X4916374Y2789996D02*
X4999902Y2873524D01*
Y2873327D02*
Y2873524D01*
X4916470Y2795669D02*
X5000098Y2879298D01*
X4916495Y2801468D02*
X5000098Y2885072D01*
X4922193Y2812941D02*
X5000098Y2890846D01*
X4904791Y2812941D02*
X4922193D01*
X4904528Y2841425D02*
Y2874311D01*
X4845197Y2778524D02*
X4850039D01*
X4904791Y2801468D02*
X4916495D01*
X4904791Y2795669D02*
X4916470D01*
X4904791Y2789996D02*
X4916374D01*
X4990157Y2943209D02*
Y2950000D01*
X4904791Y2835886D02*
X4908819D01*
X4947441Y3094685D02*
X4973228Y3120472D01*
X4929232Y3094685D02*
X4947441D01*
X4906831Y3072283D02*
X4929232Y3094685D01*
X4898819Y2807284D02*
X4904713D01*
X4803201Y3068566D02*
X4812537Y3077902D01*
X4871351D01*
X4881594Y3088145D01*
Y3091339D01*
X4813779Y3074902D02*
X4872594D01*
X4854232Y3054419D02*
X4882195Y3082382D01*
X4895177D01*
X4882633Y3084941D02*
X4897736D01*
X4872594Y3074902D02*
X4882633Y3084941D01*
X4813158Y3076402D02*
X4871972D01*
X4804701Y3067944D02*
X4813158Y3076402D01*
X4806201Y3067323D02*
X4813779Y3074902D01*
X4804701Y2952976D02*
Y3067944D01*
X4806201Y2959252D02*
Y3067323D01*
X4920866Y3069193D02*
X4922579Y3067480D01*
Y3059858D02*
Y3067480D01*
X4914705Y3063524D02*
X4916536Y3065354D01*
X4914705Y3059858D02*
Y3063524D01*
X4970964Y3025984D02*
X4979626Y3017323D01*
Y2986024D02*
Y3017323D01*
Y2986024D02*
X4998032Y2967618D01*
Y2943209D02*
Y2967618D01*
X4897736Y3084941D02*
X4900689Y3081988D01*
Y3078740D02*
Y3081988D01*
X4908799Y3069921D02*
X4909843Y3070965D01*
X4906831Y3059858D02*
Y3072283D01*
X4908799Y3059858D02*
Y3069921D01*
X4904862Y3059858D02*
Y3083917D01*
X4938583Y2992913D02*
X4945374Y2999705D01*
X4924857Y2992913D02*
X4938583D01*
X5015847Y2971358D02*
X5052165D01*
X5007185Y2980020D02*
X5015847Y2971358D01*
X5018110Y2963484D02*
X5052165D01*
X5007185Y2974409D02*
X5018110Y2963484D01*
X4920610Y2997161D02*
Y3014583D01*
Y2997161D02*
X4924857Y2992913D01*
X4918642Y2997008D02*
Y3014583D01*
X4941315Y2991413D02*
X4945079Y2995177D01*
X4924236Y2991413D02*
X4941315D01*
X4918642Y2997008D02*
X4924236Y2991413D01*
X5069193Y2976575D02*
X5073327Y2972441D01*
X5068602Y2973031D02*
X5070374Y2971260D01*
X5066020Y2976575D02*
X5069193D01*
X5063583Y2973031D02*
X5068602D01*
X4977398Y3133894D02*
Y3142646D01*
X4973228Y3129724D02*
X4977398Y3133894D01*
X4973228Y3125000D02*
Y3129724D01*
X4874272Y3133917D02*
Y3142646D01*
X4870079Y3129725D02*
X4874272Y3133917D01*
X4870079Y3124508D02*
Y3129725D01*
X5031996Y3088039D02*
X5046772Y3102815D01*
X4931238Y3088039D02*
X5031996D01*
X5013047Y3086539D02*
X5046772Y3052815D01*
X4931859Y3086539D02*
X5013047D01*
X4910768Y3067569D02*
X4931238Y3088039D01*
X4912736Y3067417D02*
X4931859Y3086539D01*
X5008464Y3085039D02*
X5021063Y3072441D01*
X4932480Y3085039D02*
X5008464D01*
X4924547Y3077106D02*
X4932480Y3085039D01*
X4870079Y3115748D02*
Y3124508D01*
X4887146Y3022457D02*
X4892701D01*
X4997504Y3064571D02*
X5025016D01*
X4997504D02*
X4997599Y3064476D01*
X4979693Y3082382D02*
X4997504Y3064571D01*
X4935827Y3082382D02*
X4979693D01*
X4910768Y3059858D02*
Y3067569D01*
X4912736Y3059858D02*
Y3067417D01*
X4924547Y3059858D02*
Y3077106D01*
X5025016Y3064571D02*
X5046772Y3042815D01*
X4997599Y3054984D02*
Y3064476D01*
X4950378Y3048047D02*
X4954850Y3043575D01*
X4932421Y3048047D02*
X4950378D01*
X4973228Y3120472D02*
Y3125000D01*
X4973551Y2983535D02*
X4990874Y2966213D01*
Y2957080D02*
Y2966213D01*
X4989305Y2955512D02*
X4990874Y2957080D01*
X4975051Y2984157D02*
X4992374Y2966834D01*
Y2956459D02*
Y2966834D01*
X4989852Y2953937D02*
X4992374Y2956459D01*
X4976551Y2984778D02*
X4993874Y2967455D01*
Y2955838D02*
Y2967455D01*
X4990473Y2952437D02*
X4993874Y2955838D01*
X4978051Y2985399D02*
X4995374Y2968077D01*
Y2955216D02*
Y2968077D01*
X4990157Y2950000D02*
X4995374Y2955216D01*
X4950098Y2955512D02*
X4989305D01*
X4942913Y2948327D02*
X4950098Y2955512D01*
X4942913Y2943209D02*
Y2948327D01*
X4978421Y2952437D02*
X4990473D01*
X4974409Y2948425D02*
X4978421Y2952437D01*
X4974409Y2943209D02*
Y2948425D01*
X4963681Y2953937D02*
X4989852D01*
X4958661Y2948917D02*
X4963681Y2953937D01*
X4958661Y2943209D02*
Y2948917D01*
X4978051Y2985399D02*
Y3014397D01*
X4976551Y2984778D02*
Y3011791D01*
X4975051Y2984157D02*
Y3008610D01*
X4973551Y2983535D02*
Y3005583D01*
X4970768Y3008366D02*
X4973551Y3005583D01*
X4970768Y3012894D02*
X4975051Y3008610D01*
X4971019Y3017323D02*
X4976551Y3011791D01*
X4970768Y3021681D02*
X4978051Y3014397D01*
X4970768Y3017323D02*
X4971019D01*
X4963437Y2984868D02*
X4975827Y2972478D01*
Y2968984D02*
Y2972478D01*
X4960437Y2983625D02*
X4968110Y2975952D01*
Y2968984D02*
Y2975952D01*
X4979725Y2967028D02*
Y2970701D01*
X4964937Y2985489D02*
X4979725Y2970701D01*
X4961937Y2984246D02*
X4971949Y2974235D01*
X4946104Y3030331D02*
X4954437Y3021998D01*
Y2999679D02*
Y3021998D01*
X4943538Y2988779D02*
X4954437Y2999679D01*
X4946257Y3032299D02*
X4955937Y3022619D01*
Y2999058D02*
Y3022619D01*
X4943100Y2986221D02*
X4955937Y2999058D01*
X4946410Y3034268D02*
X4957437Y3023241D01*
Y2998436D02*
Y3023241D01*
X4942859Y2983858D02*
X4957437Y2998436D01*
X4946563Y3036236D02*
X4958937Y3023862D01*
Y2997815D02*
Y3023862D01*
X4946716Y3038205D02*
X4960437Y3024483D01*
Y2983625D02*
Y3024483D01*
X4946691Y3040350D02*
X4961937Y3025105D01*
Y2984246D02*
Y3025105D01*
X4947021Y3042142D02*
X4963437Y3025726D01*
Y2984868D02*
Y3025726D01*
X4947174Y3044110D02*
X4964937Y3026347D01*
Y2985489D02*
Y3026347D01*
X4947327Y3046079D02*
X4966437Y3026969D01*
Y2986110D02*
Y3026969D01*
Y2986110D02*
X4983563Y2968984D01*
X4936724Y3022457D02*
X4950814Y3008366D01*
X4939283Y3024425D02*
X4950814Y3012894D01*
X4941783Y3026354D02*
X4950814Y3017323D01*
X4932421Y3030331D02*
X4946104D01*
X4932421Y3032299D02*
X4946257D01*
X4932421Y3034268D02*
X4946410D01*
X4932421Y3036236D02*
X4946563D01*
X4932421Y3038205D02*
X4946716D01*
X4932598Y3040350D02*
X4946691D01*
X4932421Y3042142D02*
X4947021D01*
X4932421Y3044110D02*
X4947174D01*
X4932421Y3046079D02*
X4947327D01*
X4944133Y3028362D02*
X4950814Y3021681D01*
X4888791Y2846809D02*
Y2852835D01*
X4841291Y2807240D02*
X4850004D01*
X4940354Y2988779D02*
X4943538D01*
X4936516Y2986221D02*
X4943100D01*
X4932461Y3026354D02*
X4941783D01*
X4932421Y3022457D02*
X4936724D01*
X4932421Y3024425D02*
X4939283D01*
X4932421Y3026394D02*
X4932461Y3026354D01*
X4932421Y3028362D02*
X4944133D01*
X4932421Y3040173D02*
X4932598Y3040350D01*
X4879839Y3014583D02*
X4895020D01*
X4875689Y3010433D02*
X4879839Y3014583D01*
X4875689Y3008268D02*
Y3010433D01*
X4922579Y3008504D02*
Y3014583D01*
X4916673Y3008465D02*
Y3014583D01*
X4859941Y2992520D02*
X4875689Y3008268D01*
X4864315Y2969709D02*
X4906964D01*
X4863693Y2968209D02*
X4903445D01*
X4906964Y2969709D02*
X4908858Y2967815D01*
X4932421Y3050016D02*
X4941536D01*
X4902894Y3059858D02*
Y3066780D01*
X4843567Y2954268D02*
Y2976047D01*
X4843520Y2942134D02*
Y2948315D01*
X4852646Y2938268D02*
X4884599D01*
X4854937Y3040173D02*
X4887146D01*
X4854232Y3039469D02*
X4854937Y3040173D01*
X4832004Y3042142D02*
X4887146D01*
X4827752Y3037890D02*
X4832004Y3042142D01*
X4859333Y3032299D02*
X4887146D01*
X4859180Y3034268D02*
X4887146D01*
X4859027Y3036236D02*
X4887146D01*
X4858874Y3038205D02*
X4887146D01*
X4908799Y2985394D02*
Y3014583D01*
X4910768Y2985547D02*
Y3014583D01*
X4883575Y3026394D02*
X4887146D01*
X4878598Y3021417D02*
X4883575Y3026394D01*
X4843783Y3046079D02*
X4887146D01*
X4841929Y3047933D02*
X4843783Y3046079D01*
X4847425Y3048047D02*
X4887146D01*
X4852051Y3050016D02*
X4887146D01*
X4811894Y3059685D02*
X4828146D01*
X4811898Y3022284D02*
X4827752D01*
Y3037890D01*
X4828146Y3047740D02*
Y3059685D01*
Y3047740D02*
X4831776Y3044110D01*
X4887146D01*
X4948220Y2976484D02*
X4948228Y2976476D01*
X4871972Y3076402D02*
X4882185Y3086614D01*
X4902165D01*
X4904862Y3083917D01*
X4903149Y3105512D02*
Y3110236D01*
X4895472Y3116142D02*
X4903149D01*
X4912106Y3116043D02*
X4918406D01*
X4912106Y3105512D02*
Y3109867D01*
X4873622Y3086417D02*
Y3112205D01*
X4870079Y3115748D02*
X4873622Y3112205D01*
X4834547Y2923130D02*
X4855709D01*
X4832775Y2790945D02*
Y2919980D01*
Y2939075D02*
Y2975689D01*
X4860632Y2846622D02*
Y2856022D01*
X4855037Y2846622D02*
Y2856022D01*
X4871821Y2846622D02*
Y2856022D01*
X4877415Y2846622D02*
Y2856022D01*
X4841032Y2841622D02*
X4850039D01*
X4841032Y2835886D02*
X4850039D01*
X4841032Y2830150D02*
X4850039D01*
X4841032Y2824413D02*
X4850039D01*
X4841032Y2818677D02*
X4850039D01*
Y2801468D02*
X4859063D01*
X4850039Y2795732D02*
X4859063D01*
X4850039Y2789996D02*
X4859063D01*
X4850039Y2784260D02*
X4859063D01*
D24*
X4924547Y3019202D02*
Y3048071D01*
X4928461Y3051984D01*
X4932421D01*
X4924547Y3014583D02*
Y3019202D01*
X4898957D02*
Y3024425D01*
Y3014583D02*
Y3019202D01*
X4924547D01*
X4938311Y3057874D02*
X4938976D01*
X4895020Y3028362D02*
X4898957Y3024425D01*
X4895020Y3028362D02*
Y3051984D01*
X4887146Y3028362D02*
X4895020D01*
Y3051984D02*
Y3059858D01*
X4887146Y3051984D02*
X4895020D01*
X4898957Y3009783D02*
Y3014583D01*
X4897540Y3008366D02*
X4898957Y3009783D01*
X4894882Y3008366D02*
X4897540D01*
X4928646Y3008437D02*
Y3012693D01*
X4926756Y3014583D02*
X4928646Y3012693D01*
X4924547Y3014583D02*
X4926756D01*
X4881594Y3008268D02*
X4894882D01*
X4932421Y3051984D02*
X4938311Y3057874D01*
X4879693Y3051984D02*
X4887146D01*
X4873646Y3052531D02*
X4879146D01*
X4878740Y3028362D02*
X4887146D01*
D25*
X4885236Y2986811D02*
X4900925Y3002500D01*
X4904791Y2830150D02*
X4908201D01*
X4958661Y2880610D02*
Y2943209D01*
X4908201Y2830150D02*
X4958661Y2880610D01*
X4904791Y2824413D02*
X4911716D01*
X4904791Y2818677D02*
X4916906D01*
X4911716Y2824413D02*
X4974409Y2887106D01*
Y2943209D01*
X4990157Y2891929D02*
Y2943209D01*
X4916906Y2818677D02*
X4990157Y2891929D01*
X4895020Y3059858D02*
Y3067028D01*
X4900925Y3002500D02*
Y3014583D01*
X4897087Y2980020D02*
X4906831Y2989764D01*
Y3014583D01*
X4893150Y2982382D02*
X4904862Y2994094D01*
Y3014583D01*
X4889213Y2984547D02*
X4902894Y2998228D01*
Y3014583D01*
X4884646Y2944221D02*
Y2948819D01*
X4881339Y2952126D02*
X4884646Y2948819D01*
X4878896Y2944221D02*
Y2948604D01*
X4877402Y2950098D02*
X4878896Y2948604D01*
X4873465Y2944539D02*
Y2952224D01*
X4867396Y2944221D02*
Y2947966D01*
X4869528Y2950098D01*
X4861646Y2944221D02*
Y2948063D01*
X4865591Y2952008D01*
X4879146Y3052531D02*
X4879693Y3051984D01*
D26*
X4928543Y2778346D02*
X5005906Y2855709D01*
Y2943209D01*
X4897165Y2778524D02*
X4928543Y2778346D01*
X4894199Y2781490D02*
X4897165Y2778524D01*
X4911811Y2778543D02*
X4919783D01*
X5020472Y3137106D02*
X5067028D01*
X5003445Y3154134D02*
X5020472Y3137106D01*
X4868602Y3154134D02*
X5003445D01*
X5030512Y2987106D02*
X5052165D01*
X5016043Y3001575D02*
X5030512Y2987106D01*
X5011909Y3001575D02*
X5016043D01*
X4894199Y2781490D02*
Y2846622D01*
X4850039Y2812941D02*
X4893951D01*
X4904791Y2778524D02*
X4911575D01*
X4897165D02*
X4904791D01*
X4894199Y2846622D02*
X4899793D01*
X5005906Y2943209D02*
Y2965846D01*
X5002657Y2969094D02*
X5005906Y2965846D01*
X5002657Y2969094D02*
Y3011909D01*
X5005906Y2943209D02*
X5013779D01*
X5011909Y3001575D02*
Y3011713D01*
X5046772Y3112815D02*
X5056771D01*
X5042225Y3011221D02*
X5061614D01*
X5016732Y3036713D02*
X5042225Y3011221D01*
X5002657Y3036713D02*
X5016732D01*
X4983268D02*
X5002657D01*
X4962008Y3057972D02*
X4983268Y3036713D01*
X5052165Y2987106D02*
X5063386D01*
X4864272Y3131102D02*
X4864272D01*
Y3124606D02*
Y3131004D01*
X4967323Y3125000D02*
Y3130906D01*
X4864272Y3131102D02*
Y3142646D01*
X4894291Y2846714D02*
Y2852835D01*
X4899791Y2846624D02*
Y2852835D01*
X4938409Y3057972D02*
X4962008D01*
X4967398Y3131126D02*
Y3142646D01*
Y3154059D01*
X4864272Y3142646D02*
Y3149803D01*
X4868602Y3154134D01*
X5063386Y2987106D02*
X5072638Y2996358D01*
Y3131496D01*
X5067028Y3137106D02*
X5072638Y3131496D01*
X5061614Y3011221D02*
X5065649Y3015256D01*
X5056771Y3112815D02*
X5061998D01*
X5065649Y3109163D01*
Y3015256D02*
Y3109163D01*
D27*
X5002657Y3011909D02*
Y3036713D01*
D28*
X5033701Y3127898D02*
D03*
X4815591D02*
D03*
Y2824748D02*
D03*
D29*
X4967398Y3142646D02*
D03*
X4977398D02*
D03*
X4987398D02*
D03*
X4884272Y3142646D02*
D03*
X4874272D02*
D03*
X4864272D02*
D03*
D30*
X4992909Y3176661D02*
D03*
X4961886D02*
D03*
X4858760Y3176661D02*
D03*
X4889783D02*
D03*
D31*
X4813681Y2789370D02*
D03*
X5053445D02*
D03*
Y3162008D02*
D03*
X4813681D02*
D03*
D32*
X5052165Y2987106D02*
D03*
Y2979232D02*
D03*
Y2971358D02*
D03*
Y2963484D02*
D03*
D33*
X5046772Y3112815D02*
D03*
D34*
X5056771D02*
D03*
X5046772Y3102815D02*
D03*
X5056771D02*
D03*
X5046772Y3092815D02*
D03*
X5056771D02*
D03*
X5046772Y3082815D02*
D03*
X5056771D02*
D03*
X5046772Y3072815D02*
D03*
X5056771D02*
D03*
X5046772Y3062815D02*
D03*
X5056771D02*
D03*
X5046772Y3052815D02*
D03*
X5056771D02*
D03*
X5046772Y3042815D02*
D03*
X5056771D02*
D03*
X5046772Y3032815D02*
D03*
X5056771D02*
D03*
X5046772Y3022815D02*
D03*
X5056771D02*
D03*
D35*
X4983563Y2969094D02*
D03*
X4964075Y2967028D02*
D03*
X4849508Y2959941D02*
D03*
X4900984Y2952362D02*
D03*
X4913091Y2968898D02*
D03*
X4885236Y2986811D02*
D03*
X4840256Y3060039D02*
D03*
X4855413Y3067224D02*
D03*
X4928642Y2981496D02*
D03*
X4932520Y2983858D02*
D03*
X4918701Y3054429D02*
D03*
X4849409Y3052658D02*
D03*
X4845669Y3050295D02*
D03*
X4849409Y3038189D02*
D03*
X4854232Y3039469D02*
D03*
X4845964Y2978445D02*
D03*
X4859941Y2992520D02*
D03*
X4850787Y2933071D02*
D03*
X4841043Y2796358D02*
D03*
X4829036Y2807087D02*
D03*
X5059941Y2978937D02*
D03*
X4993406Y3020177D02*
D03*
X4993504Y3004035D02*
D03*
X4915649Y3076575D02*
D03*
X4999902Y2873327D02*
D03*
X5051870Y3016437D02*
D03*
X5061516Y3107480D02*
D03*
X4899705Y2784842D02*
D03*
X5000098Y2879298D02*
D03*
X5011811Y2885138D02*
D03*
X4884055Y3132972D02*
D03*
X4987008Y3133169D02*
D03*
X4972835Y3100098D02*
D03*
X4940945Y3069390D02*
D03*
X4889862Y3018209D02*
D03*
X4988976Y3029528D02*
D03*
X5011909Y2989075D02*
D03*
X5026575Y2981201D02*
D03*
X5044685Y2978937D02*
D03*
X4899016Y2863681D02*
D03*
X4888878Y2863583D02*
D03*
X4883071Y2840748D02*
D03*
X4866240Y2840846D02*
D03*
X4927854Y2772342D02*
D03*
X4897835Y2773524D02*
D03*
X4888287Y2773622D02*
D03*
X4877067Y2773917D02*
D03*
X4866339Y2773721D02*
D03*
X4857087Y2773819D02*
D03*
X4950787Y2934449D02*
D03*
X4966634Y2935236D02*
D03*
X4982480Y2934842D02*
D03*
X4927165Y2987402D02*
D03*
X4926870Y2997835D02*
D03*
X4867618Y3024606D02*
D03*
X4889764Y3002264D02*
D03*
X4811614Y3033366D02*
D03*
X4811516Y3047736D02*
D03*
X4888386Y3072835D02*
D03*
X4875295Y3065059D02*
D03*
X4867618Y3057480D02*
D03*
X4903347Y3027362D02*
D03*
X4912697Y3032087D02*
D03*
X4911713Y3043898D02*
D03*
X4903051Y3040059D02*
D03*
X4898819Y2807284D02*
D03*
X4881594Y3091339D02*
D03*
X4920866Y3069193D02*
D03*
X4916536Y3065354D02*
D03*
X4970964Y3025984D02*
D03*
X4900689Y3078740D02*
D03*
X4895177Y3082382D02*
D03*
X4909843Y3070965D02*
D03*
X4945374Y2999705D02*
D03*
X4945079Y2995177D02*
D03*
X5007185Y2974409D02*
D03*
Y2980020D02*
D03*
X5011909Y2902559D02*
D03*
Y2896752D02*
D03*
Y2890945D02*
D03*
X5000098Y2885072D02*
D03*
Y2890846D02*
D03*
X5063583Y2973031D02*
D03*
X5067225Y2969980D02*
D03*
X5063779Y2966831D02*
D03*
X5066020Y2976575D02*
D03*
X4842520Y3027362D02*
D03*
X4892913Y3022244D02*
D03*
X4935827Y3082382D02*
D03*
X4954850Y3043575D02*
D03*
X5021063Y3072441D02*
D03*
X4970768Y3012894D02*
D03*
Y3021681D02*
D03*
X4923032Y3054429D02*
D03*
X4914370D02*
D03*
X4970768Y3008366D02*
D03*
Y3017323D02*
D03*
X4950814Y3021681D02*
D03*
Y3008366D02*
D03*
Y3017323D02*
D03*
Y3012894D02*
D03*
X4971949Y2967028D02*
D03*
X4968110Y2968984D02*
D03*
X4979764Y2967028D02*
D03*
X4975827Y2968984D02*
D03*
X4897087Y2980020D02*
D03*
X4893150Y2982382D02*
D03*
X4889213Y2984547D02*
D03*
X4881339Y2952126D02*
D03*
X4877402Y2950098D02*
D03*
X4873465Y2952224D02*
D03*
X4869528Y2950098D02*
D03*
X4865591Y2952008D02*
D03*
X4845669Y3035827D02*
D03*
X4841929Y3033268D02*
D03*
X4854232Y3052854D02*
D03*
X4904626Y2967028D02*
D03*
X4936516Y2986221D02*
D03*
X4940354Y2988779D02*
D03*
X4908858Y2967815D02*
D03*
X4841929Y3047933D02*
D03*
X4944331Y2979193D02*
D03*
X4948228Y2976476D02*
D03*
X4952146Y2973984D02*
D03*
X4956146Y2971484D02*
D03*
X4960146Y2968984D02*
D03*
X4898327Y3052461D02*
D03*
X4902165Y3054528D02*
D03*
X4903149Y3105512D02*
D03*
X4912106D02*
D03*
X4873622Y3086417D02*
D03*
X4858169Y3125787D02*
D03*
X4961417Y3125984D02*
D03*
X4832775Y2939075D02*
D03*
Y2919980D02*
D03*
X4988287Y3060236D02*
D03*
X4855037Y2856022D02*
D03*
X4860632D02*
D03*
X4859063Y2784260D02*
D03*
Y2789996D02*
D03*
Y2795732D02*
D03*
Y2801468D02*
D03*
X4841032Y2818677D02*
D03*
Y2824413D02*
D03*
Y2830150D02*
D03*
Y2835886D02*
D03*
Y2841622D02*
D03*
X4871821Y2856022D02*
D03*
X4877415D02*
D03*
X4938091Y3006102D02*
D03*
X4875984Y2992716D02*
D03*
X4864764Y3010433D02*
D03*
X4824606Y3002461D02*
D03*
X4820374Y2963386D02*
D03*
X4801181Y2917618D02*
D03*
X4817913Y2895079D02*
D03*
X4801083Y2877559D02*
D03*
X4819685Y2854724D02*
D03*
X4799902Y2834350D02*
D03*
X4820275Y2808268D02*
D03*
X4835925Y2773327D02*
D03*
X4843209Y2913583D02*
D03*
X4863091Y2896555D02*
D03*
X4844193Y2883169D02*
D03*
X4864665Y2871752D02*
D03*
X4843898Y2855020D02*
D03*
X4887598Y2871457D02*
D03*
X4879725Y2887402D02*
D03*
X4873425Y2829331D02*
D03*
X4883464Y2801181D02*
D03*
X4869291Y2799213D02*
D03*
X4875098Y2785925D02*
D03*
X4860925Y2820177D02*
D03*
X4886417Y2818799D02*
D03*
X4934055Y2796457D02*
D03*
X4953445Y2815551D02*
D03*
X4972540Y2833268D02*
D03*
X4993012Y2856102D02*
D03*
X4920079Y2860138D02*
D03*
X4935040Y2875492D02*
D03*
X4947047Y2890846D02*
D03*
X4948425Y2913681D02*
D03*
X4924803Y2932776D02*
D03*
X4930709Y2949705D02*
D03*
X4894193Y2926673D02*
D03*
X4904036Y2902461D02*
D03*
X4926870Y2899016D02*
D03*
X4914665Y2921555D02*
D03*
X4967815Y2913287D02*
D03*
X4982874Y2902362D02*
D03*
X4997638Y2927165D02*
D03*
Y2903937D02*
D03*
X5022736Y2952559D02*
D03*
X5039468Y2946260D02*
D03*
X5020571Y2923917D02*
D03*
X5067126Y2920571D02*
D03*
X5068406Y2886713D02*
D03*
X5066831Y2836713D02*
D03*
X5052559Y2810925D02*
D03*
X5029725Y2776279D02*
D03*
X4999705Y2774508D02*
D03*
X4973622Y2773228D02*
D03*
X4945669Y2776772D02*
D03*
X4964665Y2795276D02*
D03*
X4985630Y2816535D02*
D03*
X5005413Y2837992D02*
D03*
X5020275Y2867716D02*
D03*
X5031988Y2891339D02*
D03*
X5051968Y2909547D02*
D03*
X5047933Y2882382D02*
D03*
X5053248Y2856988D02*
D03*
X5027165Y2848524D02*
D03*
X5010040Y2818012D02*
D03*
X5040453Y2829331D02*
D03*
X4995669Y2794784D02*
D03*
X5025394Y2798819D02*
D03*
X5034351Y3035335D02*
D03*
X5020866Y3048721D02*
D03*
X4963189Y3068898D02*
D03*
X4990847Y3118504D02*
D03*
X5020275Y3109252D02*
D03*
X5022047Y3167421D02*
D03*
X4944094Y3164469D02*
D03*
X4906496Y3163779D02*
D03*
X4865256Y3161221D02*
D03*
X4838779Y3150098D02*
D03*
X4804134Y3138386D02*
D03*
X4802460Y3101279D02*
D03*
X4825295Y3105709D02*
D03*
X4846457Y3095472D02*
D03*
X4845079Y3123425D02*
D03*
X4796161Y3061417D02*
D03*
Y3025394D02*
D03*
X4795768Y2981201D02*
D03*
X4796555Y2943307D02*
D03*
X4914665Y3141929D02*
D03*
X4932677Y3132480D02*
D03*
X4940354Y3107776D02*
D03*
X4882972Y3109547D02*
D03*
X4992225Y2990551D02*
D03*
X4952165Y2980020D02*
D03*
D36*
X5002559Y2969390D02*
D03*
M02*
