%FSLAX25Y25*%
%MOIN*%
G70*
G01*
G75*
G04 Layer_Color=255*
%ADD10R,0.02835X0.02835*%
%ADD11R,0.02835X0.02835*%
%ADD12R,0.03543X0.02362*%
%ADD13R,0.03937X0.07874*%
%ADD14R,0.05512X0.08268*%
%ADD15R,0.02362X0.03543*%
%ADD16R,0.04724X0.01181*%
%ADD17R,0.01181X0.04724*%
%ADD18R,0.03937X0.19685*%
%ADD19R,0.05709X0.02362*%
%ADD20R,0.05118X0.02756*%
%ADD21R,0.14961X0.07874*%
%ADD22R,0.05906X0.07874*%
%ADD23C,0.02000*%
%ADD24C,0.00800*%
%ADD25C,0.01200*%
%ADD26C,0.01000*%
%ADD27C,0.05000*%
%ADD28C,0.07087*%
%ADD29R,0.07087X0.07087*%
%ADD30O,0.07087X0.05512*%
%ADD31C,0.25000*%
%ADD32O,0.07087X0.09843*%
%ADD33C,0.15748*%
%ADD34C,0.06299*%
%ADD35C,0.02500*%
%ADD36C,0.03200*%
%ADD37R,0.01969X0.07874*%
%ADD38C,0.01400*%
D28*
X5056771Y3022815D02*
D03*
X5046772D02*
D03*
X5056771Y3032815D02*
D03*
X5046772D02*
D03*
X5056771Y3042815D02*
D03*
X5046772D02*
D03*
X5056771Y3052815D02*
D03*
X5046772D02*
D03*
X5056771Y3062815D02*
D03*
X5046772D02*
D03*
X5056771Y3072815D02*
D03*
X5046772D02*
D03*
X5056771Y3082815D02*
D03*
X5046772D02*
D03*
X5056771Y3092815D02*
D03*
X5046772D02*
D03*
X5056771Y3102815D02*
D03*
X5046772D02*
D03*
X5056771Y3112815D02*
D03*
D29*
X5046772D02*
D03*
D30*
X5052165Y2963484D02*
D03*
Y2971358D02*
D03*
Y2979232D02*
D03*
Y2987106D02*
D03*
D31*
X4813681Y3162008D02*
D03*
X5053445D02*
D03*
Y2789370D02*
D03*
X4813681D02*
D03*
D32*
X4864272Y3142646D02*
D03*
X4874272D02*
D03*
X4884272D02*
D03*
X4987398Y3142646D02*
D03*
X4977398D02*
D03*
X4967398D02*
D03*
D33*
X4889783Y3176661D02*
D03*
X4858760D02*
D03*
X4961886Y3176661D02*
D03*
X4992909D02*
D03*
D34*
X4815591Y2824748D02*
D03*
Y3127898D02*
D03*
X5033701D02*
D03*
D37*
X4853780Y2959984D02*
D03*
X4857717D02*
D03*
X4861654D02*
D03*
X4865591D02*
D03*
X4869528D02*
D03*
X4873465D02*
D03*
X4877402D02*
D03*
X4881339D02*
D03*
X4885276D02*
D03*
X4889213D02*
D03*
X4893150D02*
D03*
X4897087D02*
D03*
X4901024D02*
D03*
X4904961D02*
D03*
X4908898D02*
D03*
X4912835D02*
D03*
X4916772D02*
D03*
X4920709D02*
D03*
X4924646D02*
D03*
X4928583D02*
D03*
X4932520D02*
D03*
X4936457D02*
D03*
X4940394D02*
D03*
X4944331D02*
D03*
X4948268D02*
D03*
X4952205D02*
D03*
X4956142D02*
D03*
X4960079D02*
D03*
X4964016D02*
D03*
X4967953D02*
D03*
X4971890D02*
D03*
X4975827D02*
D03*
X4979764D02*
D03*
X4983701D02*
D03*
X4987638D02*
D03*
X4991575D02*
D03*
X4995512D02*
D03*
M02*
