%FSLAX25Y25*%
%MOIN*%
G70*
G01*
G75*
G04 Layer_Physical_Order=2*
G04 Layer_Color=16711680*
%ADD10R,0.03543X0.02362*%
%ADD11R,0.05906X0.07874*%
%ADD12R,0.14961X0.07874*%
%ADD13R,0.05118X0.02756*%
%ADD14R,0.02362X0.03543*%
%ADD15R,0.05709X0.02362*%
%ADD16R,0.03937X0.19685*%
%ADD17R,0.01181X0.04724*%
%ADD18R,0.04724X0.01181*%
%ADD19R,0.05512X0.08268*%
%ADD20R,0.03937X0.07874*%
%ADD21R,0.02835X0.02835*%
%ADD22R,0.02835X0.02835*%
%ADD23C,0.00800*%
%ADD24C,0.01200*%
%ADD25C,0.01000*%
%ADD26C,0.02000*%
%ADD27C,0.05000*%
%ADD28O,0.07087X0.09843*%
%ADD29C,0.15748*%
%ADD30C,0.25000*%
%ADD31O,0.07087X0.05512*%
%ADD32R,0.07087X0.07087*%
%ADD33C,0.07087*%
%ADD34C,0.06200*%
%ADD35C,0.02500*%
%ADD36C,0.03200*%
%ADD37R,0.01969X0.07874*%
%ADD38C,0.01400*%
G36*
X5076673Y2766240D02*
X4789862D01*
Y3185630D01*
X4857249D01*
X4857273Y3185131D01*
X4857079Y3185111D01*
X4855463Y3184621D01*
X4853973Y3183825D01*
X4852668Y3182754D01*
X4851596Y3181448D01*
X4850800Y3179958D01*
X4850310Y3178342D01*
X4850144Y3176661D01*
X4850310Y3174981D01*
X4850800Y3173364D01*
X4851596Y3171875D01*
X4852668Y3170569D01*
X4853973Y3169498D01*
X4855463Y3168702D01*
X4857079Y3168212D01*
X4858760Y3168046D01*
X4860440Y3168212D01*
X4862057Y3168702D01*
X4863546Y3169498D01*
X4864852Y3170569D01*
X4865923Y3171875D01*
X4866719Y3173364D01*
X4867210Y3174981D01*
X4867375Y3176661D01*
X4867210Y3178342D01*
X4866719Y3179958D01*
X4865923Y3181448D01*
X4864852Y3182754D01*
X4863546Y3183825D01*
X4862057Y3184621D01*
X4860440Y3185111D01*
X4860246Y3185131D01*
X4860271Y3185630D01*
X4888272D01*
X4888297Y3185131D01*
X4888103Y3185111D01*
X4886486Y3184621D01*
X4884997Y3183825D01*
X4883691Y3182754D01*
X4882620Y3181448D01*
X4881824Y3179958D01*
X4881334Y3178342D01*
X4881168Y3176661D01*
X4881334Y3174981D01*
X4881824Y3173364D01*
X4882620Y3171875D01*
X4883691Y3170569D01*
X4884997Y3169498D01*
X4886486Y3168702D01*
X4888103Y3168212D01*
X4889783Y3168046D01*
X4891464Y3168212D01*
X4893081Y3168702D01*
X4894570Y3169498D01*
X4895876Y3170569D01*
X4896947Y3171875D01*
X4897743Y3173364D01*
X4898233Y3174981D01*
X4898399Y3176661D01*
X4898233Y3178342D01*
X4897743Y3179958D01*
X4896947Y3181448D01*
X4895876Y3182754D01*
X4894570Y3183825D01*
X4893081Y3184621D01*
X4891464Y3185111D01*
X4891270Y3185131D01*
X4891294Y3185630D01*
X4960375D01*
X4960399Y3185131D01*
X4960205Y3185111D01*
X4958589Y3184621D01*
X4957099Y3183825D01*
X4955794Y3182754D01*
X4954722Y3181448D01*
X4953926Y3179958D01*
X4953436Y3178342D01*
X4953270Y3176661D01*
X4953436Y3174981D01*
X4953926Y3173364D01*
X4954722Y3171875D01*
X4955794Y3170569D01*
X4957099Y3169498D01*
X4958589Y3168702D01*
X4960205Y3168212D01*
X4961886Y3168046D01*
X4963567Y3168212D01*
X4965183Y3168702D01*
X4966672Y3169498D01*
X4967978Y3170569D01*
X4969049Y3171875D01*
X4969846Y3173364D01*
X4970336Y3174981D01*
X4970501Y3176661D01*
X4970336Y3178342D01*
X4969846Y3179958D01*
X4969049Y3181448D01*
X4967978Y3182754D01*
X4966672Y3183825D01*
X4965183Y3184621D01*
X4963567Y3185111D01*
X4963372Y3185131D01*
X4963397Y3185630D01*
X4991399D01*
X4991423Y3185131D01*
X4991228Y3185111D01*
X4989613Y3184621D01*
X4988123Y3183825D01*
X4986818Y3182754D01*
X4985746Y3181448D01*
X4984950Y3179958D01*
X4984460Y3178342D01*
X4984294Y3176661D01*
X4984460Y3174981D01*
X4984950Y3173364D01*
X4985746Y3171875D01*
X4986818Y3170569D01*
X4988123Y3169498D01*
X4989613Y3168702D01*
X4991228Y3168212D01*
X4992909Y3168046D01*
X4994590Y3168212D01*
X4996207Y3168702D01*
X4997696Y3169498D01*
X4999001Y3170569D01*
X5000073Y3171875D01*
X5000869Y3173364D01*
X5001360Y3174981D01*
X5001525Y3176661D01*
X5001360Y3178342D01*
X5000869Y3179958D01*
X5000073Y3181448D01*
X4999001Y3182754D01*
X4997696Y3183825D01*
X4996207Y3184621D01*
X4994590Y3185111D01*
X4994396Y3185131D01*
X4994420Y3185630D01*
X5076673D01*
Y2766240D01*
D02*
G37*
%LPC*%
G36*
X4936516Y2988209D02*
X4935755Y2988057D01*
X4935110Y2987626D01*
X4934679Y2986981D01*
X4934528Y2986221D01*
X4934679Y2985460D01*
X4935110Y2984815D01*
X4935335Y2984664D01*
Y2964621D01*
X4934772D01*
Y2955347D01*
X4938141D01*
Y2964621D01*
X4937578D01*
Y2984585D01*
X4937922Y2984815D01*
X4938353Y2985460D01*
X4938504Y2986221D01*
X4938353Y2986981D01*
X4937922Y2987626D01*
X4937276Y2988057D01*
X4936516Y2988209D01*
D02*
G37*
G36*
X4940354Y2990768D02*
X4939594Y2990616D01*
X4938948Y2990185D01*
X4938517Y2989540D01*
X4938366Y2988779D01*
X4938517Y2988019D01*
X4938948Y2987374D01*
X4939233Y2987184D01*
Y2964621D01*
X4938709D01*
Y2955347D01*
X4942078D01*
Y2964621D01*
X4941476D01*
Y2987184D01*
X4941760Y2987374D01*
X4942191Y2988019D01*
X4942342Y2988779D01*
X4942191Y2989540D01*
X4941760Y2990185D01*
X4941115Y2990616D01*
X4940354Y2990768D01*
D02*
G37*
G36*
X4928642Y2983484D02*
X4927881Y2983333D01*
X4927236Y2982902D01*
X4926805Y2982257D01*
X4926654Y2981496D01*
X4926805Y2980735D01*
X4927236Y2980090D01*
X4927461Y2979940D01*
Y2964621D01*
X4926899D01*
Y2955347D01*
X4930267D01*
Y2964621D01*
X4929704D01*
Y2979861D01*
X4930048Y2980090D01*
X4930479Y2980735D01*
X4930630Y2981496D01*
X4930479Y2982257D01*
X4930048Y2982902D01*
X4929403Y2983333D01*
X4928642Y2983484D01*
D02*
G37*
G36*
X4932520Y2985847D02*
X4931759Y2985695D01*
X4931114Y2985264D01*
X4930683Y2984619D01*
X4930531Y2983858D01*
X4930683Y2983097D01*
X4931114Y2982452D01*
X4931398Y2982262D01*
Y2964621D01*
X4930835D01*
Y2955347D01*
X4934204D01*
Y2964621D01*
X4933641D01*
Y2982262D01*
X4933926Y2982452D01*
X4934357Y2983097D01*
X4934508Y2983858D01*
X4934357Y2984619D01*
X4933926Y2985264D01*
X4933281Y2985695D01*
X4932520Y2985847D01*
D02*
G37*
G36*
X4952146Y2975973D02*
X4951385Y2975821D01*
X4950740Y2975390D01*
X4950309Y2974745D01*
X4950158Y2973984D01*
X4950309Y2973223D01*
X4950740Y2972578D01*
X4951024Y2972388D01*
Y2964621D01*
X4950520D01*
Y2955347D01*
X4953889D01*
Y2964621D01*
X4953267D01*
Y2972388D01*
X4953551Y2972578D01*
X4953983Y2973223D01*
X4954134Y2973984D01*
X4953983Y2974745D01*
X4953551Y2975390D01*
X4952906Y2975821D01*
X4952146Y2975973D01*
D02*
G37*
G36*
X4956146Y2973473D02*
X4955385Y2973321D01*
X4954740Y2972890D01*
X4954309Y2972245D01*
X4954158Y2971484D01*
X4954309Y2970723D01*
X4954740Y2970078D01*
X4955024Y2969888D01*
Y2964621D01*
X4954457D01*
Y2955347D01*
X4957826D01*
Y2964621D01*
X4957267D01*
Y2969888D01*
X4957552Y2970078D01*
X4957983Y2970723D01*
X4958134Y2971484D01*
X4957983Y2972245D01*
X4957552Y2972890D01*
X4956907Y2973321D01*
X4956146Y2973473D01*
D02*
G37*
G36*
X4944331Y2981181D02*
X4943570Y2981030D01*
X4942925Y2980599D01*
X4942494Y2979954D01*
X4942342Y2979193D01*
X4942494Y2978432D01*
X4942925Y2977787D01*
X4943209Y2977597D01*
Y2964621D01*
X4942646D01*
Y2955347D01*
X4946015D01*
Y2964621D01*
X4945452D01*
Y2977597D01*
X4945736Y2977787D01*
X4946167Y2978432D01*
X4946319Y2979193D01*
X4946167Y2979954D01*
X4945736Y2980599D01*
X4945092Y2981030D01*
X4944331Y2981181D01*
D02*
G37*
G36*
X4948228Y2978465D02*
X4947467Y2978313D01*
X4946822Y2977882D01*
X4946392Y2977237D01*
X4946240Y2976476D01*
X4946392Y2975715D01*
X4946822Y2975071D01*
X4947146Y2974854D01*
Y2964621D01*
X4946584D01*
Y2955347D01*
X4949952D01*
Y2964621D01*
X4949389D01*
Y2974907D01*
X4949634Y2975071D01*
X4950065Y2975715D01*
X4950217Y2976476D01*
X4950065Y2977237D01*
X4949634Y2977882D01*
X4948989Y2978313D01*
X4948228Y2978465D01*
D02*
G37*
G36*
X4885236Y2988799D02*
X4884475Y2988648D01*
X4883830Y2988217D01*
X4883400Y2987572D01*
X4883248Y2986811D01*
X4883400Y2986050D01*
X4883830Y2985405D01*
X4884052Y2985257D01*
Y2964621D01*
X4883591D01*
Y2955347D01*
X4886960D01*
Y2964621D01*
X4886499D01*
Y2985310D01*
X4886642Y2985405D01*
X4887073Y2986050D01*
X4887225Y2986811D01*
X4887073Y2987572D01*
X4886642Y2988217D01*
X4885997Y2988648D01*
X4885236Y2988799D01*
D02*
G37*
G36*
X4889213Y2986535D02*
X4888452Y2986384D01*
X4887807Y2985953D01*
X4887376Y2985308D01*
X4887225Y2984547D01*
X4887376Y2983786D01*
X4887807Y2983141D01*
X4887989Y2983019D01*
Y2964621D01*
X4887528D01*
Y2955347D01*
X4890897D01*
Y2964621D01*
X4890436D01*
Y2983019D01*
X4890619Y2983141D01*
X4891050Y2983786D01*
X4891201Y2984547D01*
X4891050Y2985308D01*
X4890619Y2985953D01*
X4889973Y2986384D01*
X4889213Y2986535D01*
D02*
G37*
G36*
X4853280Y2959484D02*
X4852095D01*
Y2955347D01*
X4853280D01*
Y2959484D01*
D02*
G37*
G36*
X4855464D02*
X4854280D01*
Y2955347D01*
X4855464D01*
Y2959484D01*
D02*
G37*
G36*
X4900524D02*
X4899339D01*
Y2955347D01*
X4900524D01*
Y2959484D01*
D02*
G37*
G36*
X4902708D02*
X4901524D01*
Y2955347D01*
X4902708D01*
Y2959484D01*
D02*
G37*
G36*
X4893150Y2984370D02*
X4892389Y2984219D01*
X4891744Y2983788D01*
X4891313Y2983143D01*
X4891161Y2982382D01*
X4891313Y2981621D01*
X4891744Y2980976D01*
X4891926Y2980854D01*
Y2964621D01*
X4891465D01*
Y2955347D01*
X4894834D01*
Y2964621D01*
X4894373D01*
Y2980854D01*
X4894556Y2980976D01*
X4894986Y2981621D01*
X4895138Y2982382D01*
X4894986Y2983143D01*
X4894556Y2983788D01*
X4893911Y2984219D01*
X4893150Y2984370D01*
D02*
G37*
G36*
X4897087Y2982008D02*
X4896326Y2981857D01*
X4895681Y2981425D01*
X4895250Y2980780D01*
X4895098Y2980020D01*
X4895250Y2979259D01*
X4895681Y2978614D01*
X4895863Y2978492D01*
Y2964621D01*
X4895403D01*
Y2955347D01*
X4898771D01*
Y2964621D01*
X4898310D01*
Y2978492D01*
X4898492Y2978614D01*
X4898923Y2979259D01*
X4899075Y2980020D01*
X4898923Y2980780D01*
X4898492Y2981425D01*
X4897847Y2981857D01*
X4897087Y2982008D01*
D02*
G37*
G36*
X5002559Y2971735D02*
X5001662Y2971556D01*
X5000901Y2971048D01*
X5000747Y2970817D01*
X4987638D01*
X4987091Y2970708D01*
X4986628Y2970399D01*
X4986319Y2969936D01*
X4986210Y2969390D01*
Y2964621D01*
X4985954D01*
Y2955347D01*
X4989322D01*
Y2964621D01*
X4989065D01*
Y2967962D01*
X4990147D01*
Y2964621D01*
X4989890D01*
Y2955347D01*
X4993259D01*
Y2964621D01*
X4993002D01*
Y2967962D01*
X5000747D01*
X5000901Y2967732D01*
X5001662Y2967223D01*
X5002559Y2967045D01*
X5003456Y2967223D01*
X5004217Y2967732D01*
X5004726Y2968492D01*
X5004904Y2969390D01*
X5004726Y2970287D01*
X5004217Y2971048D01*
X5003456Y2971556D01*
X5002559Y2971735D01*
D02*
G37*
G36*
X5052953Y2974844D02*
X5051378D01*
X5050476Y2974725D01*
X5049635Y2974377D01*
X5048913Y2973823D01*
X5048359Y2973101D01*
X5048011Y2972260D01*
X5047892Y2971358D01*
X5048011Y2970456D01*
X5048359Y2969615D01*
X5048913Y2968893D01*
X5049635Y2968340D01*
X5050476Y2967991D01*
X5051378Y2967872D01*
X5052953D01*
X5053855Y2967991D01*
X5054696Y2968340D01*
X5055418Y2968893D01*
X5055972Y2969615D01*
X5056320Y2970456D01*
X5056438Y2971358D01*
X5056320Y2972260D01*
X5055972Y2973101D01*
X5055418Y2973823D01*
X5054696Y2974377D01*
X5053855Y2974725D01*
X5052953Y2974844D01*
D02*
G37*
G36*
X4995012Y2964621D02*
X4993827D01*
Y2960484D01*
X4995012D01*
Y2964621D01*
D02*
G37*
G36*
X4997196D02*
X4996012D01*
Y2960484D01*
X4997196D01*
Y2964621D01*
D02*
G37*
G36*
X4913091Y2970886D02*
X4912330Y2970734D01*
X4911685Y2970304D01*
X4911254Y2969658D01*
X4911102Y2968898D01*
X4911116Y2968828D01*
X4910654Y2968637D01*
X4910264Y2969221D01*
X4909619Y2969652D01*
X4908858Y2969803D01*
X4908097Y2969652D01*
X4907452Y2969221D01*
X4907021Y2968576D01*
X4906900Y2967966D01*
X4906409Y2967868D01*
X4906032Y2968433D01*
X4905387Y2968864D01*
X4904626Y2969016D01*
X4903865Y2968864D01*
X4903220Y2968433D01*
X4902789Y2967788D01*
X4902638Y2967028D01*
X4902789Y2966267D01*
X4903220Y2965622D01*
X4903839Y2965208D01*
Y2964621D01*
X4903276D01*
Y2955347D01*
X4906645D01*
Y2964621D01*
X4906082D01*
Y2965697D01*
X4906463Y2966267D01*
X4906584Y2966877D01*
X4907075Y2966974D01*
X4907452Y2966409D01*
X4907737Y2966219D01*
Y2964621D01*
X4907213D01*
Y2955347D01*
X4910582D01*
Y2964621D01*
X4909980D01*
Y2966219D01*
X4910264Y2966409D01*
X4910695Y2967054D01*
X4910846Y2967815D01*
X4910833Y2967884D01*
X4911295Y2968076D01*
X4911685Y2967492D01*
X4911713Y2967473D01*
Y2964621D01*
X4911150D01*
Y2955347D01*
X4914519D01*
Y2964621D01*
X4913956D01*
Y2967131D01*
X4914496Y2967492D01*
X4914927Y2968137D01*
X4915079Y2968898D01*
X4914927Y2969658D01*
X4914496Y2970304D01*
X4913852Y2970734D01*
X4913091Y2970886D01*
D02*
G37*
G36*
X5051665Y2978732D02*
X5047958D01*
X5048011Y2978330D01*
X5048359Y2977489D01*
X5048913Y2976768D01*
X5049635Y2976214D01*
X5050476Y2975865D01*
X5051378Y2975747D01*
X5051665D01*
Y2978732D01*
D02*
G37*
G36*
X5046772Y3107095D02*
X5045664Y3106949D01*
X5044632Y3106521D01*
X5043745Y3105841D01*
X5043065Y3104955D01*
X5042638Y3103923D01*
X5042492Y3102815D01*
X5042638Y3101707D01*
X5043065Y3100675D01*
X5043745Y3099789D01*
X5044632Y3099108D01*
X5045664Y3098681D01*
X5046772Y3098535D01*
X5047879Y3098681D01*
X5048898Y3099103D01*
X5051254Y3096746D01*
X5051254Y3096746D01*
X5051618Y3096503D01*
X5052047Y3096418D01*
X5052047Y3096418D01*
X5053719D01*
X5053880Y3095944D01*
X5053745Y3095841D01*
X5053065Y3094955D01*
X5052637Y3093923D01*
X5052557Y3093315D01*
X5060986D01*
X5060906Y3093923D01*
X5060478Y3094955D01*
X5059798Y3095841D01*
X5059664Y3095944D01*
X5059734Y3096151D01*
X5060221Y3096264D01*
X5071221Y3085264D01*
Y2970051D01*
X5069122Y2967952D01*
X5068560D01*
X5068415Y2968431D01*
X5068630Y2968574D01*
X5069061Y2969220D01*
X5069213Y2969980D01*
X5069146Y2970316D01*
X5069888Y2971057D01*
X5069888Y2971057D01*
X5070131Y2971421D01*
X5070216Y2971850D01*
Y3078642D01*
X5070216Y3078642D01*
X5070131Y3079071D01*
X5069888Y3079435D01*
X5069888Y3079435D01*
X5060636Y3088687D01*
X5060272Y3088930D01*
X5059843Y3089015D01*
X5059843Y3089015D01*
X5059568D01*
X5059407Y3089489D01*
X5059798Y3089789D01*
X5060478Y3090675D01*
X5060906Y3091707D01*
X5060986Y3092315D01*
X5052557D01*
X5052637Y3091707D01*
X5053065Y3090675D01*
X5053745Y3089789D01*
X5054136Y3089489D01*
X5053975Y3089015D01*
X5052158D01*
X5050484Y3090689D01*
X5050906Y3091707D01*
X5051052Y3092815D01*
X5050906Y3093923D01*
X5050478Y3094955D01*
X5049798Y3095841D01*
X5048912Y3096522D01*
X5047879Y3096949D01*
X5046772Y3097095D01*
X5045664Y3096949D01*
X5044632Y3096522D01*
X5043745Y3095841D01*
X5043065Y3094955D01*
X5042638Y3093923D01*
X5042492Y3092815D01*
X5042638Y3091707D01*
X5043065Y3090675D01*
X5043745Y3089789D01*
X5044632Y3089108D01*
X5045664Y3088681D01*
X5046772Y3088535D01*
X5047879Y3088681D01*
X5048898Y3089103D01*
X5050900Y3087101D01*
X5050900Y3087101D01*
X5051264Y3086857D01*
X5051264Y3086857D01*
X5051264Y3086857D01*
D01*
X5051264Y3086857D01*
X5051264Y3086857D01*
X5051693Y3086772D01*
X5054181D01*
X5054341Y3086299D01*
X5053745Y3085841D01*
X5053065Y3084955D01*
X5052637Y3083923D01*
X5052557Y3083315D01*
X5060986D01*
X5060906Y3083923D01*
X5060478Y3084955D01*
X5060440Y3085004D01*
X5060817Y3085334D01*
X5067973Y3078177D01*
Y2978023D01*
X5067543Y2977892D01*
X5067427Y2977978D01*
X5067426Y2977981D01*
X5067406Y2977994D01*
X5067141Y2978190D01*
Y3070866D01*
X5067141Y3070866D01*
X5067056Y3071295D01*
X5066813Y3071659D01*
X5066813Y3071659D01*
X5059923Y3078549D01*
X5059559Y3078792D01*
X5059312Y3078841D01*
X5059198Y3079328D01*
X5059798Y3079789D01*
X5060478Y3080675D01*
X5060906Y3081707D01*
X5060986Y3082315D01*
X5052557D01*
X5052637Y3081707D01*
X5053065Y3080675D01*
X5053745Y3079789D01*
X5054316Y3079351D01*
X5054155Y3078877D01*
X5052295D01*
X5050484Y3080689D01*
X5050906Y3081707D01*
X5051052Y3082815D01*
X5050906Y3083923D01*
X5050478Y3084955D01*
X5049798Y3085841D01*
X5048912Y3086522D01*
X5047879Y3086949D01*
X5046772Y3087095D01*
X5045664Y3086949D01*
X5044632Y3086522D01*
X5043745Y3085841D01*
X5043065Y3084955D01*
X5042643Y3083937D01*
X5019823D01*
X5019823Y3083937D01*
X5019394Y3083851D01*
X5019030Y3083608D01*
X5019030Y3083608D01*
X4980119Y3044697D01*
X4956446D01*
X4956256Y3044981D01*
X4955611Y3045412D01*
X4954850Y3045563D01*
X4954089Y3045412D01*
X4953444Y3044981D01*
X4953013Y3044336D01*
X4952862Y3043575D01*
X4953013Y3042814D01*
X4953444Y3042169D01*
X4954089Y3041738D01*
X4954850Y3041587D01*
X4955611Y3041738D01*
X4956256Y3042169D01*
X4956446Y3042454D01*
X4980583D01*
X4980583Y3042454D01*
X4981012Y3042539D01*
X4981376Y3042782D01*
X5020287Y3081693D01*
X5042643D01*
X5043065Y3080675D01*
X5043745Y3079789D01*
X5044632Y3079108D01*
X5045664Y3078681D01*
X5046772Y3078535D01*
X5047879Y3078681D01*
X5048898Y3079103D01*
X5051038Y3076963D01*
X5051038Y3076963D01*
X5051402Y3076720D01*
X5051831Y3076634D01*
X5051831Y3076634D01*
X5054001D01*
X5054162Y3076161D01*
X5053745Y3075841D01*
X5053065Y3074955D01*
X5052637Y3073923D01*
X5052557Y3073315D01*
X5056771D01*
Y3072315D01*
X5052557D01*
X5052637Y3071707D01*
X5053065Y3070675D01*
X5053745Y3069789D01*
X5054239Y3069410D01*
X5054078Y3068937D01*
X5052236D01*
X5050484Y3070689D01*
X5050906Y3071707D01*
X5051052Y3072815D01*
X5050906Y3073923D01*
X5050478Y3074955D01*
X5049798Y3075841D01*
X5048912Y3076521D01*
X5047879Y3076949D01*
X5046772Y3077095D01*
X5045664Y3076949D01*
X5044632Y3076521D01*
X5043745Y3075841D01*
X5043065Y3074955D01*
X5042638Y3073923D01*
X5042590Y3073562D01*
X5022659D01*
X5022469Y3073847D01*
X5021824Y3074278D01*
X5021063Y3074429D01*
X5020302Y3074278D01*
X5019657Y3073847D01*
X5019226Y3073202D01*
X5019075Y3072441D01*
X5019226Y3071680D01*
X5019657Y3071035D01*
X5020302Y3070604D01*
X5021063Y3070453D01*
X5021824Y3070604D01*
X5022469Y3071035D01*
X5022659Y3071319D01*
X5042798D01*
X5043065Y3070675D01*
X5043745Y3069789D01*
X5044632Y3069108D01*
X5045664Y3068681D01*
X5046772Y3068535D01*
X5047879Y3068681D01*
X5048898Y3069103D01*
X5050978Y3067022D01*
X5050978Y3067022D01*
X5051342Y3066779D01*
X5051772Y3066693D01*
X5051772Y3066693D01*
X5054078D01*
X5054239Y3066220D01*
X5053745Y3065841D01*
X5053065Y3064955D01*
X5052637Y3063923D01*
X5052557Y3063315D01*
X5060986D01*
X5060906Y3063923D01*
X5060478Y3064955D01*
X5060376Y3065089D01*
X5060751Y3065418D01*
X5062264Y3063906D01*
Y2974496D01*
X5062177Y2974437D01*
X5061746Y2973792D01*
X5061594Y2973031D01*
X5061746Y2972271D01*
X5062177Y2971626D01*
X5062822Y2971195D01*
X5063583Y2971043D01*
X5064344Y2971195D01*
X5064988Y2971626D01*
X5065419Y2972271D01*
X5065571Y2973031D01*
X5065419Y2973792D01*
X5065078Y2974303D01*
X5065356Y2974719D01*
X5066020Y2974587D01*
X5066780Y2974738D01*
X5067426Y2975169D01*
X5067495Y2975272D01*
X5067973Y2975127D01*
Y2972315D01*
X5067560Y2971902D01*
X5067225Y2971968D01*
X5066463Y2971817D01*
X5065818Y2971386D01*
X5065387Y2970741D01*
X5065236Y2969980D01*
X5065387Y2969220D01*
X5065818Y2968574D01*
X5066034Y2968431D01*
X5065889Y2967952D01*
X5065376D01*
X5065186Y2968237D01*
X5064540Y2968668D01*
X5063779Y2968819D01*
X5063019Y2968668D01*
X5062374Y2968237D01*
X5061943Y2967592D01*
X5061791Y2966831D01*
X5061943Y2966070D01*
X5062374Y2965425D01*
X5063019Y2964994D01*
X5063779Y2964842D01*
X5064540Y2964994D01*
X5065186Y2965425D01*
X5065376Y2965709D01*
X5069587D01*
X5069587Y2965709D01*
X5070016Y2965795D01*
X5070380Y2966038D01*
X5073135Y2968793D01*
X5073136Y2968793D01*
X5073379Y2969157D01*
X5073379Y2969157D01*
X5073379Y2969157D01*
X5073464Y2969587D01*
X5073464Y2969587D01*
Y3085728D01*
X5073464Y3085728D01*
X5073379Y3086157D01*
X5073136Y3086521D01*
X5073135Y3086521D01*
X5061324Y3098332D01*
X5060961Y3098576D01*
X5060532Y3098661D01*
X5060531Y3098661D01*
X5059106D01*
X5058945Y3099134D01*
X5059798Y3099789D01*
X5060478Y3100675D01*
X5060906Y3101707D01*
X5060986Y3102315D01*
X5052557D01*
X5052637Y3101707D01*
X5053065Y3100675D01*
X5053745Y3099789D01*
X5054598Y3099134D01*
X5054437Y3098661D01*
X5052512D01*
X5050484Y3100689D01*
X5050906Y3101707D01*
X5051052Y3102815D01*
X5050906Y3103923D01*
X5050478Y3104955D01*
X5049798Y3105841D01*
X5048912Y3106521D01*
X5047879Y3106949D01*
X5046772Y3107095D01*
D02*
G37*
G36*
X4983563Y2971083D02*
X4982802Y2970931D01*
X4982157Y2970500D01*
X4981726Y2969855D01*
X4981575Y2969094D01*
X4981684Y2968546D01*
X4981222Y2968355D01*
X4981170Y2968433D01*
X4980524Y2968864D01*
X4979764Y2969016D01*
X4979003Y2968864D01*
X4978358Y2968433D01*
X4978141Y2968109D01*
X4978085Y2968131D01*
D01*
X4977679Y2968300D01*
X4977815Y2968984D01*
X4977663Y2969745D01*
X4977232Y2970390D01*
X4976588Y2970821D01*
X4975827Y2970972D01*
X4975066Y2970821D01*
X4974421Y2970390D01*
X4973990Y2969745D01*
X4973838Y2968984D01*
X4973949Y2968426D01*
X4973487Y2968234D01*
X4973355Y2968433D01*
X4972710Y2968864D01*
X4971949Y2969016D01*
X4971188Y2968864D01*
X4970543Y2968433D01*
X4970466Y2968318D01*
X4970004Y2968509D01*
X4970098Y2968984D01*
X4969947Y2969745D01*
X4969516Y2970390D01*
X4968871Y2970821D01*
X4968110Y2970972D01*
X4967349Y2970821D01*
X4966705Y2970390D01*
X4966273Y2969745D01*
X4966122Y2968984D01*
X4966273Y2968223D01*
X4966705Y2967578D01*
X4966831Y2967494D01*
Y2964621D01*
X4966269D01*
Y2955347D01*
X4969637D01*
Y2964621D01*
X4969074D01*
Y2967283D01*
X4969516Y2967578D01*
X4969593Y2967694D01*
X4970055Y2967502D01*
X4969961Y2967028D01*
X4970112Y2966267D01*
X4970543Y2965622D01*
X4970827Y2965432D01*
Y2964621D01*
X4970205D01*
Y2955347D01*
X4973574D01*
Y2964621D01*
X4973071D01*
Y2965432D01*
X4973355Y2965622D01*
X4973786Y2966267D01*
X4973937Y2967028D01*
X4973826Y2967586D01*
X4974288Y2967777D01*
X4974421Y2967578D01*
X4974705Y2967388D01*
Y2964621D01*
X4974142D01*
Y2955347D01*
X4977511D01*
Y2964621D01*
X4976948D01*
Y2967388D01*
X4977232Y2967578D01*
X4977450Y2967903D01*
X4977505Y2967880D01*
D01*
X4977912Y2967712D01*
X4977776Y2967028D01*
X4977927Y2966267D01*
X4978358Y2965622D01*
X4978642Y2965432D01*
Y2964621D01*
X4978079D01*
Y2955347D01*
X4981448D01*
Y2964621D01*
X4980885D01*
Y2965432D01*
X4981170Y2965622D01*
X4981601Y2966267D01*
X4981752Y2967028D01*
X4981643Y2967576D01*
X4982026Y2967734D01*
X4982441Y2967456D01*
Y2964621D01*
X4982016D01*
Y2955347D01*
X4985385D01*
Y2964621D01*
X4984684D01*
Y2967499D01*
X4984969Y2967689D01*
X4985400Y2968334D01*
X4985551Y2969094D01*
X4985400Y2969855D01*
X4984969Y2970500D01*
X4984324Y2970931D01*
X4983563Y2971083D01*
D02*
G37*
G36*
X4997196Y2959484D02*
X4996012D01*
Y2955347D01*
X4997196D01*
Y2959484D01*
D02*
G37*
G36*
X5052953Y2966970D02*
X5051378D01*
X5050476Y2966851D01*
X5049635Y2966503D01*
X5048913Y2965949D01*
X5048359Y2965227D01*
X5048011Y2964386D01*
X5047892Y2963484D01*
X5048011Y2962582D01*
X5048359Y2961741D01*
X5048913Y2961020D01*
X5049635Y2960465D01*
X5050476Y2960117D01*
X5051378Y2959999D01*
X5052953D01*
X5053855Y2960117D01*
X5054696Y2960465D01*
X5055418Y2961020D01*
X5055972Y2961741D01*
X5056320Y2962582D01*
X5056438Y2963484D01*
X5056320Y2964386D01*
X5055972Y2965227D01*
X5055418Y2965949D01*
X5054696Y2966503D01*
X5053855Y2966851D01*
X5052953Y2966970D01*
D02*
G37*
G36*
X4960146Y2970972D02*
X4959385Y2970821D01*
X4958740Y2970390D01*
X4958309Y2969745D01*
X4958157Y2968984D01*
X4958309Y2968223D01*
X4958740Y2967578D01*
X4959024Y2967388D01*
Y2964621D01*
X4958394D01*
Y2955347D01*
X4961763D01*
Y2964621D01*
X4961267D01*
Y2967388D01*
X4961552Y2967578D01*
X4961758Y2967887D01*
X4961813Y2967863D01*
Y2967863D01*
X4962219Y2967695D01*
X4962086Y2967028D01*
X4962238Y2966267D01*
X4962669Y2965622D01*
X4962894Y2965471D01*
Y2964621D01*
X4962331D01*
Y2955347D01*
X4965700D01*
Y2964621D01*
X4965137D01*
Y2965392D01*
X4965481Y2965622D01*
X4965912Y2966267D01*
X4966063Y2967028D01*
X4965912Y2967788D01*
X4965481Y2968433D01*
X4964836Y2968864D01*
X4964075Y2969016D01*
X4963314Y2968864D01*
X4962669Y2968433D01*
X4962463Y2968125D01*
X4962407Y2968148D01*
Y2968148D01*
X4962001Y2968317D01*
X4962134Y2968984D01*
X4961982Y2969745D01*
X4961552Y2970390D01*
X4960907Y2970821D01*
X4960146Y2970972D01*
D02*
G37*
G36*
X4995012Y2959484D02*
X4993827D01*
Y2955347D01*
X4995012D01*
Y2959484D01*
D02*
G37*
G36*
X4900524Y2964621D02*
X4899339D01*
Y2960484D01*
X4900524D01*
Y2964621D01*
D02*
G37*
G36*
X4902708D02*
X4901524D01*
Y2960484D01*
X4902708D01*
Y2964621D01*
D02*
G37*
G36*
X4853280D02*
X4852095D01*
Y2960484D01*
X4853280D01*
Y2964621D01*
D02*
G37*
G36*
X4855464D02*
X4854280D01*
Y2960484D01*
X4855464D01*
Y2964621D01*
D02*
G37*
G36*
X4859063Y2797720D02*
X4858302Y2797569D01*
X4857657Y2797138D01*
X4857226Y2796493D01*
X4857075Y2795732D01*
X4857226Y2794971D01*
X4857657Y2794326D01*
X4858302Y2793895D01*
X4859063Y2793744D01*
X4859824Y2793895D01*
X4860469Y2794326D01*
X4860900Y2794971D01*
X4861051Y2795732D01*
X4860900Y2796493D01*
X4860469Y2797138D01*
X4859824Y2797569D01*
X4859063Y2797720D01*
D02*
G37*
G36*
Y2803457D02*
X4858302Y2803305D01*
X4857657Y2802874D01*
X4857226Y2802229D01*
X4857075Y2801468D01*
X4857226Y2800707D01*
X4857657Y2800063D01*
X4858302Y2799632D01*
X4859063Y2799480D01*
X4859824Y2799632D01*
X4860469Y2800063D01*
X4860900Y2800707D01*
X4861051Y2801468D01*
X4860900Y2802229D01*
X4860469Y2802874D01*
X4859824Y2803305D01*
X4859063Y2803457D01*
D02*
G37*
G36*
X5052945Y2802571D02*
X5051374Y2802448D01*
X5049353Y2801963D01*
X5047434Y2801168D01*
X5045662Y2800082D01*
X5044082Y2798733D01*
X5042733Y2797153D01*
X5041647Y2795381D01*
X5040852Y2793462D01*
X5040367Y2791441D01*
X5040244Y2789870D01*
X5052945D01*
Y2802571D01*
D02*
G37*
G36*
X5053945D02*
Y2789870D01*
X5066646D01*
X5066523Y2791441D01*
X5066038Y2793462D01*
X5065242Y2795381D01*
X5064157Y2797153D01*
X5062807Y2798733D01*
X5061227Y2800082D01*
X5059456Y2801168D01*
X5057536Y2801963D01*
X5055516Y2802448D01*
X5053945Y2802571D01*
D02*
G37*
G36*
X4815591Y2828581D02*
X4814598Y2828450D01*
X4813674Y2828067D01*
X4812880Y2827458D01*
X4812271Y2826664D01*
X4811889Y2825740D01*
X4811758Y2824748D01*
X4811889Y2823756D01*
X4812271Y2822832D01*
X4812880Y2822038D01*
X4813674Y2821429D01*
X4814598Y2821046D01*
X4815591Y2820915D01*
X4816582Y2821046D01*
X4817507Y2821429D01*
X4818301Y2822038D01*
X4818910Y2822832D01*
X4819293Y2823756D01*
X4819423Y2824748D01*
X4819293Y2825740D01*
X4818910Y2826664D01*
X4818301Y2827458D01*
X4817507Y2828067D01*
X4816582Y2828450D01*
X4815591Y2828581D01*
D02*
G37*
G36*
X4841032Y2826402D02*
X4840271Y2826250D01*
X4839626Y2825819D01*
X4839194Y2825174D01*
X4839043Y2824413D01*
X4839194Y2823652D01*
X4839626Y2823008D01*
X4840271Y2822577D01*
X4841032Y2822425D01*
X4841792Y2822577D01*
X4842437Y2823008D01*
X4842868Y2823652D01*
X4843019Y2824413D01*
X4842868Y2825174D01*
X4842437Y2825819D01*
X4841792Y2826250D01*
X4841032Y2826402D01*
D02*
G37*
G36*
X4898819Y2809272D02*
X4898058Y2809120D01*
X4897413Y2808689D01*
X4897092Y2808208D01*
X4830631D01*
X4830441Y2808492D01*
X4829796Y2808924D01*
X4829036Y2809075D01*
X4828275Y2808924D01*
X4827629Y2808492D01*
X4827198Y2807848D01*
X4827047Y2807087D01*
X4827198Y2806326D01*
X4827629Y2805681D01*
X4828275Y2805250D01*
X4829036Y2805098D01*
X4829796Y2805250D01*
X4830441Y2805681D01*
X4830631Y2805965D01*
X4897355D01*
X4897413Y2805878D01*
X4898058Y2805447D01*
X4898819Y2805295D01*
X4899580Y2805447D01*
X4900225Y2805878D01*
X4900656Y2806523D01*
X4900807Y2807284D01*
X4900656Y2808044D01*
X4900225Y2808689D01*
X4899580Y2809120D01*
X4898819Y2809272D01*
D02*
G37*
G36*
X4841032Y2820665D02*
X4840271Y2820514D01*
X4839626Y2820083D01*
X4839194Y2819438D01*
X4839043Y2818677D01*
X4839194Y2817916D01*
X4839626Y2817271D01*
X4840271Y2816840D01*
X4841032Y2816689D01*
X4841792Y2816840D01*
X4842437Y2817271D01*
X4842868Y2817916D01*
X4843019Y2818677D01*
X4842868Y2819438D01*
X4842437Y2820083D01*
X4841792Y2820514D01*
X4841032Y2820665D01*
D02*
G37*
G36*
X5052945Y2788870D02*
X5040244D01*
X5040367Y2787299D01*
X5040852Y2785278D01*
X5041647Y2783359D01*
X5042733Y2781587D01*
X5044082Y2780007D01*
X5045662Y2778658D01*
X5047434Y2777572D01*
X5049353Y2776777D01*
X5051374Y2776292D01*
X5052945Y2776169D01*
Y2788870D01*
D02*
G37*
G36*
X5066646D02*
X5053945D01*
Y2776169D01*
X5055516Y2776292D01*
X5057536Y2776777D01*
X5059456Y2777572D01*
X5061227Y2778658D01*
X5062807Y2780007D01*
X5064157Y2781587D01*
X5065242Y2783359D01*
X5066038Y2785278D01*
X5066523Y2787299D01*
X5066646Y2788870D01*
D02*
G37*
G36*
X4813181D02*
X4800480D01*
X4800603Y2787299D01*
X4801088Y2785278D01*
X4801883Y2783359D01*
X4802969Y2781587D01*
X4804318Y2780007D01*
X4805898Y2778658D01*
X4807670Y2777572D01*
X4809589Y2776777D01*
X4811610Y2776292D01*
X4813181Y2776169D01*
Y2788870D01*
D02*
G37*
G36*
X4826883D02*
X4814181D01*
Y2776169D01*
X4815752Y2776292D01*
X4817773Y2776777D01*
X4819692Y2777572D01*
X4821464Y2778658D01*
X4823044Y2780007D01*
X4824393Y2781587D01*
X4825479Y2783359D01*
X4826274Y2785278D01*
X4826759Y2787299D01*
X4826883Y2788870D01*
D02*
G37*
G36*
X4813181Y2802571D02*
X4811610Y2802448D01*
X4809589Y2801963D01*
X4807670Y2801168D01*
X4805898Y2800082D01*
X4804318Y2798733D01*
X4802969Y2797153D01*
X4801883Y2795381D01*
X4801088Y2793462D01*
X4800603Y2791441D01*
X4800480Y2789870D01*
X4813181D01*
Y2802571D01*
D02*
G37*
G36*
X4814181D02*
Y2789870D01*
X4826883D01*
X4826759Y2791441D01*
X4826274Y2793462D01*
X4825479Y2795381D01*
X4824393Y2797153D01*
X4823044Y2798733D01*
X4821464Y2800082D01*
X4819692Y2801168D01*
X4817773Y2801963D01*
X4815752Y2802448D01*
X4814181Y2802571D01*
D02*
G37*
G36*
X4859063Y2786248D02*
X4858302Y2786097D01*
X4857657Y2785666D01*
X4857226Y2785021D01*
X4857075Y2784260D01*
X4857226Y2783499D01*
X4857657Y2782854D01*
X4858302Y2782423D01*
X4859063Y2782272D01*
X4859824Y2782423D01*
X4860469Y2782854D01*
X4860900Y2783499D01*
X4861051Y2784260D01*
X4860900Y2785021D01*
X4860469Y2785666D01*
X4859824Y2786097D01*
X4859063Y2786248D01*
D02*
G37*
G36*
Y2791984D02*
X4858302Y2791833D01*
X4857657Y2791402D01*
X4857226Y2790757D01*
X4857075Y2789996D01*
X4857226Y2789235D01*
X4857657Y2788590D01*
X4858302Y2788159D01*
X4859063Y2788008D01*
X4859824Y2788159D01*
X4860469Y2788590D01*
X4860900Y2789235D01*
X4861051Y2789996D01*
X4860900Y2790757D01*
X4860469Y2791402D01*
X4859824Y2791833D01*
X4859063Y2791984D01*
D02*
G37*
G36*
X5011909Y2904547D02*
X5011148Y2904396D01*
X5010504Y2903965D01*
X5010073Y2903320D01*
X5009921Y2902559D01*
X5009988Y2902224D01*
X5000516Y2892752D01*
X5000098Y2892835D01*
X4999338Y2892683D01*
X4998692Y2892252D01*
X4998262Y2891607D01*
X4998110Y2890846D01*
X4998262Y2890086D01*
X4998692Y2889441D01*
X4999338Y2889010D01*
X5000098Y2888858D01*
X5000859Y2889010D01*
X5001504Y2889441D01*
X5001935Y2890086D01*
X5002087Y2890846D01*
X5002036Y2891100D01*
X5011574Y2900637D01*
X5011909Y2900571D01*
X5012670Y2900722D01*
X5013315Y2901153D01*
X5013746Y2901798D01*
X5013898Y2902559D01*
X5013746Y2903320D01*
X5013315Y2903965D01*
X5012670Y2904396D01*
X5011909Y2904547D01*
D02*
G37*
G36*
X4832775Y2941063D02*
X4832015Y2940912D01*
X4831370Y2940481D01*
X4830939Y2939836D01*
X4830787Y2939075D01*
X4830939Y2938314D01*
X4831370Y2937669D01*
X4831654Y2937479D01*
Y2921576D01*
X4831370Y2921386D01*
X4830939Y2920741D01*
X4830787Y2919980D01*
X4830939Y2919220D01*
X4831370Y2918574D01*
X4832015Y2918143D01*
X4832775Y2917992D01*
X4833537Y2918143D01*
X4834182Y2918574D01*
X4834612Y2919220D01*
X4834764Y2919980D01*
X4834612Y2920741D01*
X4834182Y2921386D01*
X4833897Y2921576D01*
Y2937479D01*
X4834182Y2937669D01*
X4834612Y2938314D01*
X4834764Y2939075D01*
X4834612Y2939836D01*
X4834182Y2940481D01*
X4833537Y2940912D01*
X4832775Y2941063D01*
D02*
G37*
G36*
X5011909Y2892933D02*
X5011148Y2892782D01*
X5010504Y2892351D01*
X5010073Y2891706D01*
X5009921Y2890945D01*
X5009988Y2890610D01*
X5000571Y2881192D01*
X5000098Y2881286D01*
X4999338Y2881135D01*
X4998692Y2880704D01*
X4998262Y2880059D01*
X4998110Y2879298D01*
X4998262Y2878537D01*
X4998692Y2877892D01*
X4999338Y2877461D01*
X5000098Y2877310D01*
X5000859Y2877461D01*
X5001504Y2877892D01*
X5001935Y2878537D01*
X5002087Y2879298D01*
X5002047Y2879496D01*
X5011574Y2889023D01*
X5011909Y2888957D01*
X5012670Y2889108D01*
X5013315Y2889539D01*
X5013746Y2890184D01*
X5013898Y2890945D01*
X5013746Y2891706D01*
X5013315Y2892351D01*
X5012670Y2892782D01*
X5011909Y2892933D01*
D02*
G37*
G36*
Y2898740D02*
X5011148Y2898589D01*
X5010504Y2898158D01*
X5010073Y2897513D01*
X5009921Y2896752D01*
X5009966Y2896526D01*
X5000434Y2886994D01*
X5000098Y2887060D01*
X4999338Y2886909D01*
X4998692Y2886478D01*
X4998262Y2885833D01*
X4998110Y2885072D01*
X4998262Y2884311D01*
X4998692Y2883666D01*
X4999338Y2883235D01*
X5000098Y2883084D01*
X5000859Y2883235D01*
X5001504Y2883666D01*
X5001935Y2884311D01*
X5002087Y2885072D01*
X5002020Y2885407D01*
X5011465Y2894852D01*
X5011909Y2894764D01*
X5012670Y2894915D01*
X5013315Y2895346D01*
X5013746Y2895991D01*
X5013898Y2896752D01*
X5013746Y2897513D01*
X5013315Y2898158D01*
X5012670Y2898589D01*
X5011909Y2898740D01*
D02*
G37*
G36*
X4875149Y2964621D02*
X4871780D01*
Y2955347D01*
X4872241D01*
Y2953752D01*
X4872059Y2953630D01*
X4871628Y2952985D01*
X4871476Y2952224D01*
X4871628Y2951464D01*
X4872059Y2950818D01*
X4872704Y2950387D01*
X4873465Y2950236D01*
X4874226Y2950387D01*
X4874871Y2950818D01*
X4875301Y2951464D01*
X4875453Y2952224D01*
X4875301Y2952985D01*
X4874871Y2953630D01*
X4874688Y2953752D01*
Y2955347D01*
X4875149D01*
Y2964621D01*
D02*
G37*
G36*
X4871212D02*
X4867843D01*
Y2955347D01*
X4868304D01*
Y2951626D01*
X4868122Y2951504D01*
X4867918Y2951199D01*
X4867456Y2951391D01*
X4867579Y2952008D01*
X4867427Y2952769D01*
X4866996Y2953414D01*
X4866814Y2953536D01*
Y2955347D01*
X4867275D01*
Y2964621D01*
X4863906D01*
Y2955347D01*
X4864367D01*
Y2953536D01*
X4864185Y2953414D01*
X4863754Y2952769D01*
X4863602Y2952008D01*
X4863754Y2951247D01*
X4864185Y2950602D01*
X4864830Y2950171D01*
X4865591Y2950020D01*
X4866351Y2950171D01*
X4866996Y2950602D01*
X4867200Y2950907D01*
X4867662Y2950716D01*
X4867540Y2950098D01*
X4867691Y2949338D01*
X4868122Y2948693D01*
X4868767Y2948262D01*
X4869528Y2948110D01*
X4870288Y2948262D01*
X4870934Y2948693D01*
X4871365Y2949338D01*
X4871516Y2950098D01*
X4871365Y2950859D01*
X4870934Y2951504D01*
X4870751Y2951626D01*
Y2955347D01*
X4871212D01*
Y2964621D01*
D02*
G37*
G36*
X4879086D02*
X4875718D01*
Y2955347D01*
X4876178D01*
Y2951626D01*
X4875996Y2951504D01*
X4875565Y2950859D01*
X4875414Y2950098D01*
X4875565Y2949338D01*
X4875996Y2948693D01*
X4876641Y2948262D01*
X4877402Y2948110D01*
X4878162Y2948262D01*
X4878807Y2948693D01*
X4879239Y2949338D01*
X4879390Y2950098D01*
X4879239Y2950859D01*
X4878807Y2951504D01*
X4878625Y2951626D01*
Y2955347D01*
X4879086D01*
Y2964621D01*
D02*
G37*
G36*
X4883023D02*
X4879654D01*
Y2955347D01*
X4880115D01*
Y2953654D01*
X4879933Y2953532D01*
X4879502Y2952887D01*
X4879351Y2952126D01*
X4879502Y2951365D01*
X4879933Y2950720D01*
X4880578Y2950289D01*
X4881339Y2950138D01*
X4882100Y2950289D01*
X4882745Y2950720D01*
X4883176Y2951365D01*
X4883327Y2952126D01*
X4883176Y2952887D01*
X4882745Y2953532D01*
X4882562Y2953654D01*
Y2955347D01*
X4883023D01*
Y2964621D01*
D02*
G37*
G36*
X4841032Y2843610D02*
X4840271Y2843459D01*
X4839626Y2843028D01*
X4839194Y2842383D01*
X4839043Y2841622D01*
X4839194Y2840861D01*
X4839626Y2840216D01*
X4840271Y2839785D01*
X4841032Y2839634D01*
X4841792Y2839785D01*
X4842437Y2840216D01*
X4842868Y2840861D01*
X4843019Y2841622D01*
X4842868Y2842383D01*
X4842437Y2843028D01*
X4841792Y2843459D01*
X4841032Y2843610D01*
D02*
G37*
G36*
X4855037Y2858010D02*
X4854277Y2857858D01*
X4853632Y2857427D01*
X4853201Y2856782D01*
X4853049Y2856022D01*
X4853201Y2855261D01*
X4853632Y2854616D01*
X4854277Y2854185D01*
X4855037Y2854033D01*
X4855798Y2854185D01*
X4856443Y2854616D01*
X4856874Y2855261D01*
X4857026Y2856022D01*
X4856874Y2856782D01*
X4856443Y2857427D01*
X4855798Y2857858D01*
X4855037Y2858010D01*
D02*
G37*
G36*
X4841032Y2832138D02*
X4840271Y2831986D01*
X4839626Y2831556D01*
X4839194Y2830910D01*
X4839043Y2830150D01*
X4839194Y2829389D01*
X4839626Y2828744D01*
X4840271Y2828313D01*
X4841032Y2828161D01*
X4841792Y2828313D01*
X4842437Y2828744D01*
X4842868Y2829389D01*
X4843019Y2830150D01*
X4842868Y2830910D01*
X4842437Y2831556D01*
X4841792Y2831986D01*
X4841032Y2832138D01*
D02*
G37*
G36*
Y2837874D02*
X4840271Y2837723D01*
X4839626Y2837292D01*
X4839194Y2836647D01*
X4839043Y2835886D01*
X4839194Y2835125D01*
X4839626Y2834480D01*
X4840271Y2834049D01*
X4841032Y2833898D01*
X4841792Y2834049D01*
X4842437Y2834480D01*
X4842868Y2835125D01*
X4843019Y2835886D01*
X4842868Y2836647D01*
X4842437Y2837292D01*
X4841792Y2837723D01*
X4841032Y2837874D01*
D02*
G37*
G36*
X4877415Y2858010D02*
X4876654Y2857858D01*
X4876009Y2857427D01*
X4875579Y2856782D01*
X4875427Y2856022D01*
X4875579Y2855261D01*
X4876009Y2854616D01*
X4876654Y2854185D01*
X4877415Y2854033D01*
X4878176Y2854185D01*
X4878821Y2854616D01*
X4879252Y2855261D01*
X4879404Y2856022D01*
X4879252Y2856782D01*
X4878821Y2857427D01*
X4878176Y2857858D01*
X4877415Y2858010D01*
D02*
G37*
G36*
X5011811Y2887126D02*
X5011050Y2886975D01*
X5010405Y2886544D01*
X5009974Y2885899D01*
X5009823Y2885138D01*
X5009890Y2884802D01*
X5000319Y2875232D01*
X4999902Y2875315D01*
X4999141Y2875164D01*
X4998496Y2874733D01*
X4998065Y2874088D01*
X4997913Y2873327D01*
X4998065Y2872566D01*
X4998496Y2871921D01*
X4999141Y2871490D01*
X4999902Y2871339D01*
X5000662Y2871490D01*
X5001307Y2871921D01*
X5001738Y2872566D01*
X5001890Y2873327D01*
X5001839Y2873580D01*
X5011476Y2883216D01*
X5011811Y2883150D01*
X5012572Y2883301D01*
X5013217Y2883732D01*
X5013648Y2884377D01*
X5013799Y2885138D01*
X5013648Y2885899D01*
X5013217Y2886544D01*
X5012572Y2886975D01*
X5011811Y2887126D01*
D02*
G37*
G36*
X4860632Y2858010D02*
X4859871Y2857858D01*
X4859226Y2857427D01*
X4858795Y2856782D01*
X4858644Y2856022D01*
X4858795Y2855261D01*
X4859226Y2854616D01*
X4859871Y2854185D01*
X4860632Y2854033D01*
X4861393Y2854185D01*
X4862038Y2854616D01*
X4862469Y2855261D01*
X4862620Y2856022D01*
X4862469Y2856782D01*
X4862038Y2857427D01*
X4861393Y2857858D01*
X4860632Y2858010D01*
D02*
G37*
G36*
X4871821D02*
X4871060Y2857858D01*
X4870415Y2857427D01*
X4869984Y2856782D01*
X4869833Y2856022D01*
X4869984Y2855261D01*
X4870415Y2854616D01*
X4871060Y2854185D01*
X4871821Y2854033D01*
X4872582Y2854185D01*
X4873227Y2854616D01*
X4873658Y2855261D01*
X4873809Y2856022D01*
X4873658Y2856782D01*
X4873227Y2857427D01*
X4872582Y2857858D01*
X4871821Y2858010D01*
D02*
G37*
G36*
X4815591Y3131730D02*
X4814598Y3131600D01*
X4813674Y3131217D01*
X4812880Y3130608D01*
X4812271Y3129814D01*
X4811889Y3128890D01*
X4811758Y3127898D01*
X4811889Y3126906D01*
X4812271Y3125981D01*
X4812880Y3125187D01*
X4813674Y3124578D01*
X4814598Y3124195D01*
X4815591Y3124065D01*
X4816582Y3124195D01*
X4817507Y3124578D01*
X4818301Y3125187D01*
X4818910Y3125981D01*
X4819293Y3126906D01*
X4819423Y3127898D01*
X4819293Y3128890D01*
X4818910Y3129814D01*
X4818301Y3130608D01*
X4817507Y3131217D01*
X4816582Y3131600D01*
X4815591Y3131730D01*
D02*
G37*
G36*
X5033701D02*
X5032709Y3131600D01*
X5031784Y3131217D01*
X5030991Y3130608D01*
X5030381Y3129814D01*
X5029999Y3128890D01*
X5029868Y3127898D01*
X5029999Y3126906D01*
X5030381Y3125981D01*
X5030991Y3125187D01*
X5031784Y3124578D01*
X5032709Y3124195D01*
X5033701Y3124065D01*
X5034693Y3124195D01*
X5035617Y3124578D01*
X5036411Y3125187D01*
X5037020Y3125981D01*
X5037403Y3126906D01*
X5037534Y3127898D01*
X5037403Y3128890D01*
X5037020Y3129814D01*
X5036411Y3130608D01*
X5035617Y3131217D01*
X5034693Y3131600D01*
X5033701Y3131730D01*
D02*
G37*
G36*
X5056771Y3117095D02*
X5055664Y3116949D01*
X5054632Y3116521D01*
X5053745Y3115841D01*
X5053065Y3114955D01*
X5052637Y3113923D01*
X5052492Y3112815D01*
X5052637Y3111707D01*
X5053065Y3110675D01*
X5053745Y3109789D01*
X5054632Y3109108D01*
X5055664Y3108681D01*
X5056771Y3108535D01*
X5057879Y3108681D01*
X5058912Y3109108D01*
X5059798Y3109789D01*
X5060478Y3110675D01*
X5060906Y3111707D01*
X5061052Y3112815D01*
X5060906Y3113923D01*
X5060478Y3114955D01*
X5059798Y3115841D01*
X5058912Y3116521D01*
X5057879Y3116949D01*
X5056771Y3117095D01*
D02*
G37*
G36*
X5051015Y3117058D02*
X5042528D01*
Y3108572D01*
X5051015D01*
Y3117058D01*
D02*
G37*
G36*
X4864272Y3148304D02*
X4863164Y3148158D01*
X4862132Y3147730D01*
X4861245Y3147050D01*
X4860565Y3146164D01*
X4860138Y3145131D01*
X4859992Y3144024D01*
Y3141268D01*
X4860138Y3140160D01*
X4860565Y3139128D01*
X4861245Y3138241D01*
X4862132Y3137561D01*
X4863164Y3137134D01*
X4864272Y3136988D01*
X4865379Y3137134D01*
X4866412Y3137561D01*
X4867298Y3138241D01*
X4867978Y3139128D01*
X4868406Y3140160D01*
X4868552Y3141268D01*
Y3144024D01*
X4868406Y3145131D01*
X4867978Y3146164D01*
X4867298Y3147050D01*
X4866412Y3147730D01*
X4865379Y3148158D01*
X4864272Y3148304D01*
D02*
G37*
G36*
X4874272D02*
X4873164Y3148158D01*
X4872132Y3147730D01*
X4871245Y3147050D01*
X4870565Y3146164D01*
X4870138Y3145131D01*
X4869992Y3144024D01*
Y3141268D01*
X4870138Y3140160D01*
X4870565Y3139128D01*
X4871245Y3138241D01*
X4872132Y3137561D01*
X4873164Y3137134D01*
X4874272Y3136988D01*
X4875380Y3137134D01*
X4876411Y3137561D01*
X4877298Y3138241D01*
X4877978Y3139128D01*
X4878406Y3140160D01*
X4878551Y3141268D01*
Y3144024D01*
X4878406Y3145131D01*
X4877978Y3146164D01*
X4877298Y3147050D01*
X4876411Y3147730D01*
X4875380Y3148158D01*
X4874272Y3148304D01*
D02*
G37*
G36*
X4967398Y3148304D02*
X4966290Y3148158D01*
X4965258Y3147730D01*
X4964371Y3147050D01*
X4963691Y3146164D01*
X4963263Y3145131D01*
X4963118Y3144024D01*
Y3141268D01*
X4963263Y3140160D01*
X4963691Y3139128D01*
X4964371Y3138241D01*
X4965258Y3137561D01*
X4966290Y3137134D01*
X4967398Y3136988D01*
X4968505Y3137134D01*
X4969538Y3137561D01*
X4970424Y3138241D01*
X4971104Y3139128D01*
X4971532Y3140160D01*
X4971678Y3141268D01*
Y3144024D01*
X4971532Y3145131D01*
X4971104Y3146164D01*
X4970424Y3147050D01*
X4969538Y3147730D01*
X4968505Y3148158D01*
X4967398Y3148304D01*
D02*
G37*
G36*
X4977398D02*
X4976290Y3148158D01*
X4975258Y3147730D01*
X4974371Y3147050D01*
X4973691Y3146164D01*
X4973264Y3145131D01*
X4973118Y3144024D01*
Y3141268D01*
X4973264Y3140160D01*
X4973691Y3139128D01*
X4974371Y3138241D01*
X4975258Y3137561D01*
X4976290Y3137134D01*
X4977398Y3136988D01*
X4978505Y3137134D01*
X4979538Y3137561D01*
X4980424Y3138241D01*
X4981104Y3139128D01*
X4981532Y3140160D01*
X4981678Y3141268D01*
Y3144024D01*
X4981532Y3145131D01*
X4981104Y3146164D01*
X4980424Y3147050D01*
X4979538Y3147730D01*
X4978505Y3148158D01*
X4977398Y3148304D01*
D02*
G37*
G36*
X5056272Y3062315D02*
X5052557D01*
X5052637Y3061707D01*
X5053065Y3060675D01*
X5053745Y3059789D01*
X5054632Y3059108D01*
X5055664Y3058681D01*
X5056272Y3058601D01*
Y3062315D01*
D02*
G37*
G36*
X5060986D02*
X5057272D01*
Y3058601D01*
X5057879Y3058681D01*
X5058912Y3059108D01*
X5059798Y3059789D01*
X5060478Y3060675D01*
X5060906Y3061707D01*
X5060986Y3062315D01*
D02*
G37*
G36*
X4923032Y3056417D02*
X4922271Y3056266D01*
X4921626Y3055835D01*
X4921194Y3055190D01*
X4921116Y3054795D01*
X4920616D01*
X4920538Y3055190D01*
X4920107Y3055835D01*
X4919461Y3056266D01*
X4918701Y3056417D01*
X4917940Y3056266D01*
X4917295Y3055835D01*
X4916864Y3055190D01*
X4916785Y3054795D01*
X4916285D01*
X4916207Y3055190D01*
X4915776Y3055835D01*
X4915131Y3056266D01*
X4914370Y3056417D01*
X4913609Y3056266D01*
X4912964Y3055835D01*
X4912533Y3055190D01*
X4912382Y3054429D01*
X4912533Y3053668D01*
X4912964Y3053023D01*
X4913609Y3052592D01*
X4914370Y3052441D01*
X4914706Y3052508D01*
X4915650Y3051563D01*
Y2964621D01*
X4915088D01*
Y2955347D01*
X4918456D01*
Y2964621D01*
X4917893D01*
Y2965202D01*
X4918355Y2965393D01*
X4919054Y2964694D01*
X4919024Y2964621D01*
X4919024D01*
X4919024Y2964621D01*
Y2955347D01*
X4922393D01*
Y2964344D01*
X4922546Y2964407D01*
X4922961Y2964129D01*
Y2955347D01*
X4926330D01*
Y2964621D01*
X4925710D01*
X4925682Y2964760D01*
X4925439Y2965124D01*
X4921791Y2968772D01*
Y3051602D01*
X4922696Y3052508D01*
X4923032Y3052441D01*
X4923792Y3052592D01*
X4924437Y3053023D01*
X4924868Y3053668D01*
X4925020Y3054429D01*
X4924868Y3055190D01*
X4924437Y3055835D01*
X4923792Y3056266D01*
X4923032Y3056417D01*
D02*
G37*
G36*
X5046772Y3067095D02*
X5045664Y3066949D01*
X5044632Y3066521D01*
X5043745Y3065841D01*
X5043065Y3064955D01*
X5042638Y3063923D01*
X5042492Y3062815D01*
X5042638Y3061707D01*
X5043065Y3060675D01*
X5043745Y3059789D01*
X5044632Y3059108D01*
X5045664Y3058681D01*
X5046772Y3058535D01*
X5047879Y3058681D01*
X5048912Y3059108D01*
X5049798Y3059789D01*
X5050478Y3060675D01*
X5050906Y3061707D01*
X5051052Y3062815D01*
X5050906Y3063923D01*
X5050478Y3064955D01*
X5049798Y3065841D01*
X5048912Y3066521D01*
X5047879Y3066949D01*
X5046772Y3067095D01*
D02*
G37*
G36*
X5057272Y3107029D02*
Y3103315D01*
X5060986D01*
X5060906Y3103923D01*
X5060478Y3104955D01*
X5059798Y3105841D01*
X5058912Y3106521D01*
X5057879Y3106949D01*
X5057272Y3107029D01*
D02*
G37*
G36*
X4912106Y3107500D02*
X4911345Y3107349D01*
X4910700Y3106918D01*
X4910270Y3106273D01*
X4910118Y3105512D01*
X4910270Y3104751D01*
X4910700Y3104106D01*
X4910741Y3103695D01*
X4909250Y3102204D01*
X4888400D01*
X4888209Y3102666D01*
X4889933Y3104390D01*
X4901554D01*
X4901744Y3104106D01*
X4902389Y3103675D01*
X4903149Y3103524D01*
X4903910Y3103675D01*
X4904556Y3104106D01*
X4904987Y3104751D01*
X4905138Y3105512D01*
X4904987Y3106273D01*
X4904556Y3106918D01*
X4903910Y3107349D01*
X4903149Y3107500D01*
X4902389Y3107349D01*
X4901744Y3106918D01*
X4901554Y3106633D01*
X4889468D01*
X4889468Y3106633D01*
X4889039Y3106548D01*
X4888675Y3106305D01*
X4876743Y3094372D01*
X4876499Y3094008D01*
X4876414Y3093579D01*
X4876414Y3093579D01*
Y3075811D01*
X4876414Y3075811D01*
X4876499Y3075382D01*
X4876743Y3075018D01*
X4897205Y3054555D01*
Y3054057D01*
X4896921Y3053867D01*
X4896490Y3053222D01*
X4896339Y3052461D01*
X4896490Y3051700D01*
X4896921Y3051055D01*
X4897566Y3050624D01*
X4898327Y3050472D01*
X4899088Y3050624D01*
X4899733Y3051055D01*
X4900164Y3051700D01*
X4900315Y3052461D01*
X4900164Y3053222D01*
X4900281Y3053300D01*
X4900771Y3053202D01*
X4900956Y3052925D01*
X4901601Y3052494D01*
X4902362Y3052342D01*
X4903123Y3052494D01*
X4903768Y3052925D01*
X4904199Y3053570D01*
X4904350Y3054331D01*
X4904199Y3055092D01*
X4903768Y3055737D01*
X4903123Y3056168D01*
X4902362Y3056319D01*
X4902027Y3056252D01*
X4880157Y3078122D01*
Y3089424D01*
X4880598Y3089659D01*
X4880833Y3089502D01*
X4881594Y3089350D01*
X4881930Y3089417D01*
X4904916Y3066431D01*
X4904916Y3066431D01*
X4905280Y3066188D01*
X4905280Y3066188D01*
X4905280Y3066188D01*
D01*
X4905280Y3066188D01*
X4905280Y3066188D01*
X4905709Y3066103D01*
X4905709Y3066103D01*
X4911713D01*
X4911713Y3066103D01*
X4912142Y3066188D01*
X4912506Y3066431D01*
X4914146Y3068071D01*
X4919270D01*
X4919460Y3067787D01*
X4920105Y3067356D01*
X4920866Y3067205D01*
X4921627Y3067356D01*
X4922272Y3067787D01*
X4922703Y3068432D01*
X4922854Y3069193D01*
X4922703Y3069954D01*
X4922272Y3070599D01*
X4921627Y3071030D01*
X4920866Y3071181D01*
X4920105Y3071030D01*
X4919460Y3070599D01*
X4919270Y3070314D01*
X4913681D01*
X4913681Y3070314D01*
X4913252Y3070229D01*
X4912888Y3069986D01*
X4911248Y3068346D01*
X4906173D01*
X4894473Y3080046D01*
X4894709Y3080487D01*
X4895177Y3080394D01*
X4895938Y3080545D01*
X4896583Y3080976D01*
X4896773Y3081260D01*
X4934231D01*
X4934421Y3080976D01*
X4935066Y3080545D01*
X4935827Y3080394D01*
X4936588Y3080545D01*
X4937233Y3080976D01*
X4937664Y3081621D01*
X4937815Y3082382D01*
X4937664Y3083143D01*
X4937233Y3083788D01*
X4936588Y3084219D01*
X4935827Y3084370D01*
X4935066Y3084219D01*
X4934421Y3083788D01*
X4934231Y3083503D01*
X4896773D01*
X4896583Y3083788D01*
X4895938Y3084219D01*
X4895177Y3084370D01*
X4894416Y3084219D01*
X4893771Y3083788D01*
X4893340Y3083143D01*
X4893189Y3082382D01*
X4893282Y3081914D01*
X4892841Y3081678D01*
X4883516Y3091003D01*
X4883583Y3091339D01*
X4883431Y3092099D01*
X4883000Y3092744D01*
X4882355Y3093175D01*
X4881611Y3093323D01*
X4881466Y3093802D01*
X4887625Y3099961D01*
X4909715D01*
X4909715Y3099961D01*
X4910144Y3100047D01*
X4910508Y3100290D01*
X4912899Y3102681D01*
X4912899Y3102681D01*
X4913142Y3103045D01*
X4913228Y3103474D01*
X4913228Y3103474D01*
Y3103916D01*
X4913512Y3104106D01*
X4913943Y3104751D01*
X4914095Y3105512D01*
X4913943Y3106273D01*
X4913512Y3106918D01*
X4912867Y3107349D01*
X4912106Y3107500D01*
D02*
G37*
G36*
X4900689Y3080728D02*
X4899928Y3080577D01*
X4899283Y3080146D01*
X4898852Y3079501D01*
X4898701Y3078740D01*
X4898852Y3077979D01*
X4899283Y3077334D01*
X4899928Y3076903D01*
X4900689Y3076752D01*
X4901024Y3076819D01*
X4907671Y3070172D01*
X4907671Y3070172D01*
X4908035Y3069928D01*
X4908035Y3069928D01*
X4908035Y3069928D01*
D01*
X4908035Y3069928D01*
X4908035Y3069928D01*
X4908213Y3069893D01*
X4908437Y3069559D01*
X4909082Y3069128D01*
X4909843Y3068976D01*
X4910603Y3069128D01*
X4911248Y3069559D01*
X4911679Y3070204D01*
X4911831Y3070965D01*
X4911679Y3071725D01*
X4911248Y3072370D01*
X4910603Y3072801D01*
X4909843Y3072953D01*
X4909082Y3072801D01*
X4908561Y3072454D01*
X4902610Y3078405D01*
X4902677Y3078740D01*
X4902526Y3079501D01*
X4902095Y3080146D01*
X4901450Y3080577D01*
X4900689Y3080728D01*
D02*
G37*
G36*
X5056272Y3107029D02*
X5055664Y3106949D01*
X5054632Y3106521D01*
X5053745Y3105841D01*
X5053065Y3104955D01*
X5052637Y3103923D01*
X5052557Y3103315D01*
X5056272D01*
Y3107029D01*
D02*
G37*
G36*
X5052945Y3161508D02*
X5040244D01*
X5040367Y3159937D01*
X5040852Y3157916D01*
X5041647Y3155997D01*
X5042733Y3154225D01*
X5044082Y3152645D01*
X5045662Y3151296D01*
X5047434Y3150210D01*
X5049353Y3149415D01*
X5051374Y3148930D01*
X5052945Y3148806D01*
Y3161508D01*
D02*
G37*
G36*
X5066646D02*
X5053945D01*
Y3148806D01*
X5055516Y3148930D01*
X5057536Y3149415D01*
X5059456Y3150210D01*
X5061227Y3151296D01*
X5062807Y3152645D01*
X5064157Y3154225D01*
X5065242Y3155997D01*
X5066038Y3157916D01*
X5066523Y3159937D01*
X5066646Y3161508D01*
D02*
G37*
G36*
X4813181D02*
X4800480D01*
X4800603Y3159937D01*
X4801088Y3157916D01*
X4801883Y3155997D01*
X4802969Y3154225D01*
X4804318Y3152645D01*
X4805898Y3151296D01*
X4807670Y3150210D01*
X4809589Y3149415D01*
X4811610Y3148930D01*
X4813181Y3148806D01*
Y3161508D01*
D02*
G37*
G36*
X4826883D02*
X4814181D01*
Y3148806D01*
X4815752Y3148930D01*
X4817773Y3149415D01*
X4819692Y3150210D01*
X4821464Y3151296D01*
X4823044Y3152645D01*
X4824393Y3154225D01*
X4825479Y3155997D01*
X4826274Y3157916D01*
X4826759Y3159937D01*
X4826883Y3161508D01*
D02*
G37*
G36*
X5052945Y3175209D02*
X5051374Y3175086D01*
X5049353Y3174601D01*
X5047434Y3173805D01*
X5045662Y3172720D01*
X5044082Y3171371D01*
X5042733Y3169791D01*
X5041647Y3168019D01*
X5040852Y3166100D01*
X5040367Y3164079D01*
X5040244Y3162508D01*
X5052945D01*
Y3175209D01*
D02*
G37*
G36*
X5053945D02*
Y3162508D01*
X5066646D01*
X5066523Y3164079D01*
X5066038Y3166100D01*
X5065242Y3168019D01*
X5064157Y3169791D01*
X5062807Y3171371D01*
X5061227Y3172720D01*
X5059456Y3173805D01*
X5057536Y3174601D01*
X5055516Y3175086D01*
X5053945Y3175209D01*
D02*
G37*
G36*
X4813181D02*
X4811610Y3175086D01*
X4809589Y3174601D01*
X4807670Y3173805D01*
X4805898Y3172720D01*
X4804318Y3171371D01*
X4802969Y3169791D01*
X4801883Y3168019D01*
X4801088Y3166100D01*
X4800603Y3164079D01*
X4800480Y3162508D01*
X4813181D01*
Y3175209D01*
D02*
G37*
G36*
X4814181D02*
Y3162508D01*
X4826883D01*
X4826759Y3164079D01*
X4826274Y3166100D01*
X4825479Y3168019D01*
X4824393Y3169791D01*
X4823044Y3171371D01*
X4821464Y3172720D01*
X4819692Y3173805D01*
X4817773Y3174601D01*
X4815752Y3175086D01*
X4814181Y3175209D01*
D02*
G37*
G36*
X4883772Y3142146D02*
X4879992D01*
Y3141268D01*
X4880138Y3140160D01*
X4880565Y3139128D01*
X4881245Y3138241D01*
X4882132Y3137561D01*
X4883164Y3137134D01*
X4883772Y3137054D01*
Y3142146D01*
D02*
G37*
G36*
X4888552D02*
X4884772D01*
Y3137054D01*
X4885379Y3137134D01*
X4886412Y3137561D01*
X4887298Y3138241D01*
X4887978Y3139128D01*
X4888406Y3140160D01*
X4888552Y3141268D01*
Y3142146D01*
D02*
G37*
G36*
X4986898Y3142146D02*
X4983118D01*
Y3141268D01*
X4983263Y3140160D01*
X4983691Y3139128D01*
X4984371Y3138241D01*
X4985258Y3137561D01*
X4986290Y3137134D01*
X4986898Y3137054D01*
Y3142146D01*
D02*
G37*
G36*
X4991677D02*
X4987897D01*
Y3137054D01*
X4988506Y3137134D01*
X4989537Y3137561D01*
X4990424Y3138241D01*
X4991104Y3139128D01*
X4991532Y3140160D01*
X4991677Y3141268D01*
Y3142146D01*
D02*
G37*
G36*
X4883772Y3148238D02*
X4883164Y3148158D01*
X4882132Y3147730D01*
X4881245Y3147050D01*
X4880565Y3146164D01*
X4880138Y3145131D01*
X4879992Y3144024D01*
Y3143146D01*
X4883772D01*
Y3148238D01*
D02*
G37*
G36*
X4884772D02*
Y3143146D01*
X4888552D01*
Y3144024D01*
X4888406Y3145131D01*
X4887978Y3146164D01*
X4887298Y3147050D01*
X4886412Y3147730D01*
X4885379Y3148158D01*
X4884772Y3148238D01*
D02*
G37*
G36*
X4986898Y3148238D02*
X4986290Y3148158D01*
X4985258Y3147730D01*
X4984371Y3147050D01*
X4983691Y3146164D01*
X4983263Y3145131D01*
X4983118Y3144024D01*
Y3143146D01*
X4986898D01*
Y3148238D01*
D02*
G37*
G36*
X4987897D02*
Y3143146D01*
X4991677D01*
Y3144024D01*
X4991532Y3145131D01*
X4991104Y3146164D01*
X4990424Y3147050D01*
X4989537Y3147730D01*
X4988506Y3148158D01*
X4987897Y3148238D01*
D02*
G37*
G36*
X4873622Y3088405D02*
X4872861Y3088254D01*
X4872216Y3087823D01*
X4871785Y3087178D01*
X4871634Y3086417D01*
X4871785Y3085657D01*
X4872216Y3085011D01*
X4872501Y3084822D01*
Y3071752D01*
X4872501Y3071752D01*
X4872586Y3071323D01*
X4872829Y3070959D01*
X4891792Y3051996D01*
Y3023840D01*
X4891507Y3023650D01*
X4891077Y3023005D01*
X4890925Y3022244D01*
X4891077Y3021483D01*
X4891507Y3020838D01*
X4892152Y3020407D01*
X4892913Y3020256D01*
X4893674Y3020407D01*
X4894319Y3020838D01*
X4894750Y3021483D01*
X4894902Y3022244D01*
X4894750Y3023005D01*
X4894319Y3023650D01*
X4894035Y3023840D01*
Y3052461D01*
X4894035Y3052461D01*
X4893950Y3052890D01*
X4893707Y3053254D01*
X4874744Y3072216D01*
Y3084822D01*
X4875028Y3085011D01*
X4875459Y3085657D01*
X4875610Y3086417D01*
X4875459Y3087178D01*
X4875028Y3087823D01*
X4874383Y3088254D01*
X4873622Y3088405D01*
D02*
G37*
G36*
X4916536Y3067343D02*
X4915775Y3067191D01*
X4915129Y3066760D01*
X4914698Y3066115D01*
X4914547Y3065354D01*
X4914698Y3064594D01*
X4915129Y3063948D01*
X4915775Y3063518D01*
X4916536Y3063366D01*
X4917296Y3063518D01*
X4917941Y3063948D01*
X4918131Y3064233D01*
X4919811D01*
X4958853Y3025191D01*
X4958853Y3025191D01*
X4959216Y3024948D01*
X4959216Y3024948D01*
X4959217Y3024948D01*
D01*
X4959217Y3024948D01*
X4959217Y3024948D01*
X4959646Y3024863D01*
X4959646Y3024863D01*
X4969369D01*
X4969559Y3024578D01*
X4970204Y3024147D01*
X4970432Y3024102D01*
Y3023602D01*
X4970007Y3023518D01*
X4969362Y3023087D01*
X4969172Y3022802D01*
X4952411D01*
X4952221Y3023087D01*
X4951575Y3023518D01*
X4950814Y3023669D01*
X4950054Y3023518D01*
X4949409Y3023087D01*
X4948978Y3022442D01*
X4948826Y3021681D01*
X4948978Y3020920D01*
X4949409Y3020275D01*
X4950054Y3019844D01*
X4950517Y3019752D01*
Y3019252D01*
X4950054Y3019160D01*
X4949409Y3018729D01*
X4948978Y3018084D01*
X4948826Y3017323D01*
X4948978Y3016562D01*
X4949409Y3015917D01*
X4950054Y3015486D01*
X4950696Y3015358D01*
Y3014858D01*
X4950054Y3014731D01*
X4949409Y3014300D01*
X4948978Y3013655D01*
X4948826Y3012894D01*
X4948978Y3012133D01*
X4949409Y3011488D01*
X4950054Y3011057D01*
X4950814Y3010905D01*
X4951575Y3011057D01*
X4952221Y3011488D01*
X4952411Y3011772D01*
X4969172D01*
X4969362Y3011488D01*
X4970007Y3011057D01*
X4970768Y3010905D01*
X4971529Y3011057D01*
X4972174Y3011488D01*
X4972605Y3012133D01*
X4972756Y3012894D01*
X4972605Y3013655D01*
X4972174Y3014300D01*
X4971529Y3014731D01*
X4970887Y3014858D01*
Y3015358D01*
X4971529Y3015486D01*
X4972174Y3015917D01*
X4972605Y3016562D01*
X4972756Y3017323D01*
X4972605Y3018084D01*
X4972174Y3018729D01*
X4971529Y3019160D01*
X4971066Y3019252D01*
Y3019752D01*
X4971529Y3019844D01*
X4972174Y3020275D01*
X4972605Y3020920D01*
X4972756Y3021681D01*
X4972605Y3022442D01*
X4972174Y3023087D01*
X4971529Y3023518D01*
X4971301Y3023563D01*
Y3024063D01*
X4971725Y3024147D01*
X4972371Y3024578D01*
X4972802Y3025223D01*
X4972953Y3025984D01*
X4972802Y3026745D01*
X4972371Y3027390D01*
X4971725Y3027821D01*
X4970964Y3027972D01*
X4970204Y3027821D01*
X4969559Y3027390D01*
X4969369Y3027106D01*
X4960110D01*
X4921069Y3066147D01*
X4920705Y3066390D01*
X4920275Y3066476D01*
X4920275Y3066476D01*
X4918131D01*
X4917941Y3066760D01*
X4917296Y3067191D01*
X4916536Y3067343D01*
D02*
G37*
G36*
X5056272Y3022315D02*
X5052557D01*
X5052637Y3021707D01*
X5053065Y3020675D01*
X5053745Y3019789D01*
X5054632Y3019108D01*
X5055664Y3018681D01*
X5056272Y3018601D01*
Y3022315D01*
D02*
G37*
G36*
X5060986D02*
X5057272D01*
Y3018601D01*
X5057879Y3018681D01*
X5058912Y3019108D01*
X5059798Y3019789D01*
X5060478Y3020675D01*
X5060906Y3021707D01*
X5060986Y3022315D01*
D02*
G37*
G36*
X5046772Y3037095D02*
X5045664Y3036949D01*
X5044632Y3036522D01*
X5043745Y3035841D01*
X5043065Y3034955D01*
X5042638Y3033923D01*
X5042492Y3032815D01*
X5042638Y3031707D01*
X5043065Y3030675D01*
X5043745Y3029789D01*
X5044632Y3029108D01*
X5045664Y3028681D01*
X5046772Y3028535D01*
X5047879Y3028681D01*
X5048912Y3029108D01*
X5049798Y3029789D01*
X5050478Y3030675D01*
X5050906Y3031707D01*
X5051052Y3032815D01*
X5050906Y3033923D01*
X5050478Y3034955D01*
X5049798Y3035841D01*
X5048912Y3036522D01*
X5047879Y3036949D01*
X5046772Y3037095D01*
D02*
G37*
G36*
X5056272Y3032315D02*
X5052557D01*
X5052637Y3031707D01*
X5053065Y3030675D01*
X5053745Y3029789D01*
X5054632Y3029108D01*
X5055664Y3028681D01*
X5056272Y3028601D01*
Y3032315D01*
D02*
G37*
G36*
Y3027029D02*
X5055664Y3026949D01*
X5054632Y3026521D01*
X5053745Y3025841D01*
X5053065Y3024955D01*
X5052637Y3023923D01*
X5052557Y3023315D01*
X5056272D01*
Y3027029D01*
D02*
G37*
G36*
X5057272D02*
Y3023315D01*
X5060986D01*
X5060906Y3023923D01*
X5060478Y3024955D01*
X5059798Y3025841D01*
X5058912Y3026521D01*
X5057879Y3026949D01*
X5057272Y3027029D01*
D02*
G37*
G36*
X5052953Y2982718D02*
X5052665D01*
Y2979732D01*
X5056372D01*
X5056320Y2980134D01*
X5055972Y2980975D01*
X5055418Y2981697D01*
X5054696Y2982251D01*
X5053855Y2982599D01*
X5052953Y2982718D01*
D02*
G37*
G36*
Y2990592D02*
X5051378D01*
X5050476Y2990473D01*
X5049635Y2990125D01*
X5048913Y2989571D01*
X5048359Y2988849D01*
X5048186Y2988432D01*
X5045669D01*
X5045162Y2988331D01*
X5044732Y2988044D01*
X4999845Y2943156D01*
X4862979D01*
Y2955347D01*
X4863338D01*
Y2964621D01*
X4859969D01*
Y2955347D01*
X4860328D01*
Y2943156D01*
X4859042D01*
Y2955347D01*
X4859401D01*
Y2964621D01*
X4856033D01*
Y2955347D01*
X4856391D01*
Y2941831D01*
X4856492Y2941323D01*
X4856779Y2940894D01*
X4857209Y2940606D01*
X4857717Y2940505D01*
X5000394D01*
X5000901Y2940606D01*
X5001331Y2940894D01*
X5001331Y2940893D01*
X5001331Y2940894D01*
X5046218Y2985781D01*
X5048186D01*
X5048359Y2985363D01*
X5048913Y2984641D01*
X5049635Y2984088D01*
X5050476Y2983739D01*
X5051378Y2983621D01*
X5052953D01*
X5053855Y2983739D01*
X5054696Y2984088D01*
X5055418Y2984641D01*
X5055972Y2985363D01*
X5056320Y2986204D01*
X5056438Y2987106D01*
X5056320Y2988008D01*
X5055972Y2988849D01*
X5055418Y2989571D01*
X5054696Y2990125D01*
X5053855Y2990473D01*
X5052953Y2990592D01*
D02*
G37*
G36*
X5056372Y2978732D02*
X5052665D01*
Y2975747D01*
X5052953D01*
X5053855Y2975865D01*
X5054696Y2976214D01*
X5055418Y2976768D01*
X5055972Y2977489D01*
X5056320Y2978330D01*
X5056372Y2978732D01*
D02*
G37*
G36*
X5051665Y2982718D02*
X5051378D01*
X5050476Y2982599D01*
X5049635Y2982251D01*
X5048913Y2981697D01*
X5048359Y2980975D01*
X5048011Y2980134D01*
X5047958Y2979732D01*
X5051665D01*
Y2982718D01*
D02*
G37*
G36*
X4970768Y3010354D02*
X4970007Y3010203D01*
X4969362Y3009772D01*
X4969172Y3009488D01*
X4952411D01*
X4952221Y3009772D01*
X4951575Y3010203D01*
X4950814Y3010354D01*
X4950054Y3010203D01*
X4949409Y3009772D01*
X4948978Y3009127D01*
X4948826Y3008366D01*
X4948978Y3007605D01*
X4949409Y3006960D01*
X4950054Y3006529D01*
X4950814Y3006378D01*
X4951575Y3006529D01*
X4952221Y3006960D01*
X4952411Y3007245D01*
X4969172D01*
X4969362Y3006960D01*
X4970007Y3006529D01*
X4970768Y3006378D01*
X4971529Y3006529D01*
X4972174Y3006960D01*
X4972605Y3007605D01*
X4972756Y3008366D01*
X4972605Y3009127D01*
X4972174Y3009772D01*
X4971529Y3010203D01*
X4970768Y3010354D01*
D02*
G37*
G36*
X5046772Y3027095D02*
X5045664Y3026949D01*
X5044632Y3026521D01*
X5043745Y3025841D01*
X5043065Y3024955D01*
X5042638Y3023923D01*
X5042492Y3022815D01*
X5042638Y3021707D01*
X5043065Y3020675D01*
X5043745Y3019789D01*
X5044632Y3019108D01*
X5045664Y3018681D01*
X5046772Y3018535D01*
X5047879Y3018681D01*
X5048912Y3019108D01*
X5049798Y3019789D01*
X5050478Y3020675D01*
X5050906Y3021707D01*
X5051052Y3022815D01*
X5050906Y3023923D01*
X5050478Y3024955D01*
X5049798Y3025841D01*
X5048912Y3026521D01*
X5047879Y3026949D01*
X5046772Y3027095D01*
D02*
G37*
G36*
X4859941Y2994508D02*
X4859180Y2994357D01*
X4858535Y2993926D01*
X4858104Y2993280D01*
X4857953Y2992520D01*
X4858021Y2992177D01*
X4846992Y2981058D01*
X4846300Y2980366D01*
X4845964Y2980433D01*
X4845204Y2980282D01*
X4844559Y2979851D01*
X4844128Y2979206D01*
X4843976Y2978445D01*
X4844128Y2977684D01*
X4844559Y2977039D01*
X4845204Y2976608D01*
X4845964Y2976457D01*
X4846725Y2976608D01*
X4847371Y2977039D01*
X4847802Y2977684D01*
X4847953Y2978445D01*
X4847886Y2978780D01*
X4848579Y2979473D01*
X4848580Y2979475D01*
X4848582Y2979476D01*
X4859613Y2990597D01*
X4859941Y2990532D01*
X4860702Y2990683D01*
X4861347Y2991114D01*
X4861778Y2991759D01*
X4861929Y2992520D01*
X4861778Y2993280D01*
X4861347Y2993926D01*
X4860702Y2994357D01*
X4859941Y2994508D01*
D02*
G37*
G36*
X4945374Y3001693D02*
X4944613Y3001542D01*
X4943968Y3001111D01*
X4943537Y3000466D01*
X4943386Y2999705D01*
X4943537Y2998944D01*
X4943968Y2998299D01*
X4944613Y2997868D01*
X4945374Y2997717D01*
X4945684Y2997778D01*
X4945981Y2997376D01*
X4945793Y2997023D01*
X4945079Y2997165D01*
X4944318Y2997014D01*
X4943673Y2996583D01*
X4943242Y2995938D01*
X4943090Y2995177D01*
X4943242Y2994416D01*
X4943673Y2993771D01*
X4944318Y2993340D01*
X4945079Y2993189D01*
X4945414Y2993256D01*
X4965054Y2973616D01*
X4965054Y2973616D01*
X4965417Y2973373D01*
X4965417Y2973373D01*
X4965417Y2973373D01*
D01*
X4965417Y2973373D01*
X4965417Y2973373D01*
X4965846Y2973288D01*
X4965847Y2973288D01*
X5005589D01*
X5005779Y2973004D01*
X5006424Y2972573D01*
X5007185Y2972421D01*
X5007946Y2972573D01*
X5008591Y2973004D01*
X5009022Y2973649D01*
X5009173Y2974409D01*
X5009022Y2975170D01*
X5008591Y2975815D01*
X5007946Y2976246D01*
X5007185Y2976398D01*
X5006424Y2976246D01*
X5005779Y2975815D01*
X5005589Y2975531D01*
X4966311D01*
X4947000Y2994842D01*
X4947067Y2995177D01*
X4946925Y2995891D01*
X4947366Y2996127D01*
X4964266Y2979227D01*
X4964266Y2979227D01*
X4964630Y2978983D01*
X4964630Y2978983D01*
X4964630Y2978983D01*
D01*
X4964630Y2978983D01*
X4964630Y2978983D01*
X4965059Y2978898D01*
X4965059Y2978898D01*
X5005589D01*
X5005779Y2978614D01*
X5006424Y2978183D01*
X5007185Y2978032D01*
X5007946Y2978183D01*
X5008591Y2978614D01*
X5009022Y2979259D01*
X5009173Y2980020D01*
X5009022Y2980780D01*
X5008591Y2981426D01*
X5007946Y2981857D01*
X5007185Y2982008D01*
X5006424Y2981857D01*
X5005779Y2981426D01*
X5005589Y2981141D01*
X4965524D01*
X4947295Y2999369D01*
X4947362Y2999705D01*
X4947211Y3000466D01*
X4946780Y3001111D01*
X4946135Y3001542D01*
X4945374Y3001693D01*
D02*
G37*
G36*
X5057272Y3047029D02*
Y3043315D01*
X5060986D01*
X5060906Y3043923D01*
X5060478Y3044955D01*
X5059798Y3045841D01*
X5058912Y3046522D01*
X5057879Y3046949D01*
X5057272Y3047029D01*
D02*
G37*
G36*
X5046772Y3057095D02*
X5045664Y3056949D01*
X5044632Y3056521D01*
X5043745Y3055841D01*
X5043065Y3054955D01*
X5042638Y3053923D01*
X5042492Y3052815D01*
X5042638Y3051707D01*
X5043065Y3050675D01*
X5043745Y3049789D01*
X5044632Y3049108D01*
X5045664Y3048681D01*
X5046772Y3048535D01*
X5047879Y3048681D01*
X5048912Y3049108D01*
X5049798Y3049789D01*
X5050478Y3050675D01*
X5050906Y3051707D01*
X5051052Y3052815D01*
X5050906Y3053923D01*
X5050478Y3054955D01*
X5049798Y3055841D01*
X5048912Y3056521D01*
X5047879Y3056949D01*
X5046772Y3057095D01*
D02*
G37*
G36*
X5060986Y3042315D02*
X5057272D01*
Y3038601D01*
X5057879Y3038681D01*
X5058912Y3039108D01*
X5059798Y3039789D01*
X5060478Y3040675D01*
X5060906Y3041707D01*
X5060986Y3042315D01*
D02*
G37*
G36*
X5056272Y3047029D02*
X5055664Y3046949D01*
X5054632Y3046522D01*
X5053745Y3045841D01*
X5053065Y3044955D01*
X5052637Y3043923D01*
X5052557Y3043315D01*
X5056272D01*
Y3047029D01*
D02*
G37*
G36*
Y3057029D02*
X5055664Y3056949D01*
X5054632Y3056521D01*
X5053745Y3055841D01*
X5053065Y3054955D01*
X5052637Y3053923D01*
X5052557Y3053315D01*
X5056272D01*
Y3057029D01*
D02*
G37*
G36*
X5057272D02*
Y3053315D01*
X5060986D01*
X5060906Y3053923D01*
X5060478Y3054955D01*
X5059798Y3055841D01*
X5058912Y3056521D01*
X5057879Y3056949D01*
X5057272Y3057029D01*
D02*
G37*
G36*
X5056272Y3052315D02*
X5052557D01*
X5052637Y3051707D01*
X5053065Y3050675D01*
X5053745Y3049789D01*
X5054632Y3049108D01*
X5055664Y3048681D01*
X5056272Y3048601D01*
Y3052315D01*
D02*
G37*
G36*
X5060986D02*
X5057272D01*
Y3048601D01*
X5057879Y3048681D01*
X5058912Y3049108D01*
X5059798Y3049789D01*
X5060478Y3050675D01*
X5060906Y3051707D01*
X5060986Y3052315D01*
D02*
G37*
G36*
X5056272Y3037029D02*
X5055664Y3036949D01*
X5054632Y3036522D01*
X5053745Y3035841D01*
X5053065Y3034955D01*
X5052637Y3033923D01*
X5052557Y3033315D01*
X5056272D01*
Y3037029D01*
D02*
G37*
G36*
X5057272D02*
Y3033315D01*
X5060986D01*
X5060906Y3033923D01*
X5060478Y3034955D01*
X5059798Y3035841D01*
X5058912Y3036522D01*
X5057879Y3036949D01*
X5057272Y3037029D01*
D02*
G37*
G36*
X5060986Y3032315D02*
X5057272D01*
Y3028601D01*
X5057879Y3028681D01*
X5058912Y3029108D01*
X5059798Y3029789D01*
X5060478Y3030675D01*
X5060906Y3031707D01*
X5060986Y3032315D01*
D02*
G37*
G36*
X4841929Y3049921D02*
X4841168Y3049770D01*
X4840523Y3049339D01*
X4840092Y3048694D01*
X4839941Y3047933D01*
X4840092Y3047172D01*
X4840523Y3046527D01*
X4840808Y3046337D01*
Y3034864D01*
X4840523Y3034674D01*
X4840092Y3034029D01*
X4839941Y3033268D01*
X4840092Y3032507D01*
X4840523Y3031862D01*
X4841168Y3031431D01*
X4841929Y3031280D01*
X4842690Y3031431D01*
X4843335Y3031862D01*
X4843766Y3032507D01*
X4843917Y3033268D01*
X4843766Y3034029D01*
X4843335Y3034674D01*
X4843051Y3034864D01*
Y3046337D01*
X4843335Y3046527D01*
X4843766Y3047172D01*
X4843917Y3047933D01*
X4843766Y3048694D01*
X4843335Y3049339D01*
X4842690Y3049770D01*
X4841929Y3049921D01*
D02*
G37*
G36*
X5046772Y3047095D02*
X5045664Y3046949D01*
X5044632Y3046522D01*
X5043745Y3045841D01*
X5043065Y3044955D01*
X5042638Y3043923D01*
X5042492Y3042815D01*
X5042638Y3041707D01*
X5043065Y3040675D01*
X5043745Y3039789D01*
X5044632Y3039108D01*
X5045664Y3038681D01*
X5046772Y3038535D01*
X5047879Y3038681D01*
X5048912Y3039108D01*
X5049798Y3039789D01*
X5050478Y3040675D01*
X5050906Y3041707D01*
X5051052Y3042815D01*
X5050906Y3043923D01*
X5050478Y3044955D01*
X5049798Y3045841D01*
X5048912Y3046522D01*
X5047879Y3046949D01*
X5046772Y3047095D01*
D02*
G37*
G36*
X5056272Y3042315D02*
X5052557D01*
X5052637Y3041707D01*
X5053065Y3040675D01*
X5053745Y3039789D01*
X5054632Y3039108D01*
X5055664Y3038681D01*
X5056272Y3038601D01*
Y3042315D01*
D02*
G37*
G36*
X4845669Y3052283D02*
X4844909Y3052132D01*
X4844263Y3051701D01*
X4843832Y3051056D01*
X4843681Y3050295D01*
X4843832Y3049534D01*
X4844263Y3048889D01*
X4844548Y3048699D01*
Y3037423D01*
X4844263Y3037233D01*
X4843832Y3036588D01*
X4843681Y3035827D01*
X4843832Y3035066D01*
X4844263Y3034421D01*
X4844909Y3033990D01*
X4845669Y3033839D01*
X4846430Y3033990D01*
X4847075Y3034421D01*
X4847506Y3035066D01*
X4847657Y3035827D01*
X4847506Y3036588D01*
X4847075Y3037233D01*
X4846791Y3037423D01*
Y3048699D01*
X4847075Y3048889D01*
X4847506Y3049534D01*
X4847657Y3050295D01*
X4847506Y3051056D01*
X4847075Y3051701D01*
X4846430Y3052132D01*
X4845669Y3052283D01*
D02*
G37*
G36*
X4854232Y3054843D02*
X4853471Y3054691D01*
X4852826Y3054260D01*
X4852395Y3053615D01*
X4852244Y3052854D01*
X4852395Y3052094D01*
X4852826Y3051448D01*
X4853111Y3051258D01*
Y3041064D01*
X4852826Y3040874D01*
X4852395Y3040229D01*
X4852244Y3039469D01*
X4852343Y3038969D01*
X4851800Y3038426D01*
X4851322Y3038571D01*
X4851246Y3038950D01*
X4850815Y3039595D01*
X4850531Y3039785D01*
Y3051062D01*
X4850815Y3051252D01*
X4851246Y3051897D01*
X4851398Y3052658D01*
X4851246Y3053418D01*
X4850815Y3054063D01*
X4850170Y3054494D01*
X4849409Y3054646D01*
X4848648Y3054494D01*
X4848004Y3054063D01*
X4847573Y3053418D01*
X4847421Y3052658D01*
X4847573Y3051897D01*
X4848004Y3051252D01*
X4848288Y3051062D01*
Y3039785D01*
X4848004Y3039595D01*
X4847573Y3038950D01*
X4847421Y3038189D01*
X4847573Y3037428D01*
X4848004Y3036783D01*
X4848648Y3036352D01*
X4849028Y3036277D01*
X4849173Y3035798D01*
X4842691Y3029316D01*
X4842520Y3029350D01*
X4841759Y3029199D01*
X4841114Y3028768D01*
X4840683Y3028123D01*
X4840532Y3027362D01*
X4840683Y3026601D01*
X4841114Y3025956D01*
X4841759Y3025525D01*
X4842520Y3025374D01*
X4843280Y3025525D01*
X4843925Y3025956D01*
X4844357Y3026601D01*
X4844508Y3027362D01*
X4844408Y3027862D01*
X4854061Y3037514D01*
X4854232Y3037480D01*
X4854993Y3037632D01*
X4855638Y3038063D01*
X4856069Y3038708D01*
X4856221Y3039469D01*
X4856069Y3040229D01*
X4855638Y3040874D01*
X4855354Y3041064D01*
Y3051258D01*
X4855638Y3051448D01*
X4856069Y3052094D01*
X4856221Y3052854D01*
X4856069Y3053615D01*
X4855638Y3054260D01*
X4854993Y3054691D01*
X4854232Y3054843D01*
D02*
G37*
%LPD*%
D23*
X4879036Y3077658D02*
X4902362Y3054331D01*
X4879036Y3077658D02*
Y3092957D01*
X4983563Y2960122D02*
Y2969094D01*
X4964016Y2959984D02*
Y2967028D01*
X4918701Y2966634D02*
Y3054429D01*
X4898327Y3052461D02*
Y3055020D01*
X4877535Y3075811D02*
X4898327Y3055020D01*
X4914370Y3054429D02*
X4916772Y3052028D01*
X4920669Y3052067D02*
X4923032Y3054429D01*
X4912835Y2959984D02*
Y2968642D01*
X4913091Y2968898D01*
X4904961Y2959984D02*
Y2966693D01*
X4904626Y2967028D02*
X4904961Y2966693D01*
X4928642Y2981496D02*
Y2981535D01*
X4928583Y2981594D02*
X4928642Y2981535D01*
X4932520Y2959984D02*
Y2983858D01*
X4916772Y2959984D02*
Y3052028D01*
X4849409Y3038189D02*
Y3052658D01*
X4845669Y3035827D02*
Y3050295D01*
X4841929Y3033268D02*
Y3047933D01*
X4912106Y3103474D02*
Y3105512D01*
X4909715Y3101083D02*
X4912106Y3103474D01*
X4887161Y3101083D02*
X4909715D01*
X4879036Y3092957D02*
X4887161Y3101083D01*
X4845964Y2978445D02*
X4847786Y2980266D01*
X5059941Y3067815D02*
X5063386Y3064370D01*
X5051772Y3067815D02*
X5059941D01*
X5046772Y3072815D02*
X5051772Y3067815D01*
X4980583Y3043575D02*
X5019823Y3082815D01*
X4999902Y2873327D02*
Y2873524D01*
X5000197Y2890846D02*
X5011909Y2902559D01*
X5000098Y2890846D02*
X5000197D01*
X5000098Y2885072D02*
X5011778Y2896752D01*
X5000262Y2879298D02*
X5011909Y2890945D01*
X5000098Y2879298D02*
X5000262D01*
X5000197Y2873524D02*
X5011811Y2885138D01*
X4999902Y2873524D02*
X5000197D01*
X4829036Y2807087D02*
X4898819D01*
X4908464Y3070965D02*
X4909843D01*
X4900689Y3078740D02*
X4908464Y3070965D01*
X4881594Y3091339D02*
X4905709Y3067224D01*
X4911713D01*
X4913681Y3069193D01*
X4920866D01*
X4916536Y3065354D02*
X4920275D01*
X4959646Y3025984D01*
X4970964D01*
X4895177Y3082382D02*
X4935827D01*
X4920669Y2968307D02*
Y3052067D01*
Y2968307D02*
X4924646Y2964331D01*
X4945374Y2999705D02*
X4965059Y2980020D01*
X4945374Y2999114D02*
Y3000098D01*
X4965059Y2980020D02*
X5007185D01*
X4965846Y2974409D02*
X5007185D01*
X4945079Y2995177D02*
X4965846Y2974409D01*
X5000098Y2890846D02*
X5000197D01*
X5063386Y2973228D02*
Y3064370D01*
Y2973228D02*
X5063583Y2973031D01*
X5066020Y2976575D02*
Y3070866D01*
X5059130Y3077756D02*
X5066020Y3070866D01*
X5067225Y2969980D02*
X5069094Y2971850D01*
X5063779Y2966831D02*
X5069587D01*
X5072343Y2969587D01*
X5069094Y2971850D02*
Y3078642D01*
X5072343Y2969587D02*
Y3085728D01*
X5059843Y3087894D02*
X5069094Y3078642D01*
X5060532Y3097539D02*
X5072343Y3085728D01*
X4842323Y3027362D02*
X4854331Y3039370D01*
X4842323Y3027362D02*
X4842520D01*
X4854232Y3039469D02*
Y3052854D01*
X5051831Y3077756D02*
X5059130D01*
X5046772Y3082815D02*
X5051831Y3077756D01*
X5051693Y3087894D02*
X5059843D01*
X5046772Y3092815D02*
X5051693Y3087894D01*
X5052047Y3097539D02*
X5060532D01*
X5046772Y3102815D02*
X5052047Y3097539D01*
X5019823Y3082815D02*
X5046772D01*
X4954850Y3043575D02*
X4980583D01*
X5021063Y3072441D02*
X5046398D01*
X4950814Y3008366D02*
X4970768D01*
X4950814Y3012894D02*
X4970768D01*
X4950814Y3017323D02*
X4970768D01*
X4950814Y3021681D02*
X4970768D01*
X4924646Y2959984D02*
Y2964331D01*
X4920709Y2959984D02*
Y2964626D01*
X4918701Y2966634D02*
X4920709Y2964626D01*
X4979764Y2959984D02*
Y2967028D01*
X4975827Y2959984D02*
Y2968984D01*
X4971949Y2960044D02*
Y2967028D01*
X4967953Y2959984D02*
Y2968827D01*
X4847786Y2980266D02*
X4859941Y2992520D01*
X4940354Y2960024D02*
Y2988779D01*
X4936457Y2959984D02*
Y2986909D01*
X4928583Y2959984D02*
Y2981594D01*
X4908858Y2960024D02*
Y2967815D01*
X4944331Y2959984D02*
Y2979193D01*
X4948268Y2959984D02*
Y2976484D01*
X4952146Y2960043D02*
Y2973984D01*
X4956146Y2959988D02*
Y2971484D01*
X4960146Y2960051D02*
Y2968984D01*
X4877535Y3075811D02*
Y3093579D01*
X4889468Y3105512D01*
X4903149D01*
X4873622Y3071752D02*
Y3086417D01*
Y3071752D02*
X4892913Y3052461D01*
Y3022244D02*
Y3052461D01*
X4832775Y2919980D02*
Y2939075D01*
D24*
X4857717Y2941831D02*
X4861654D01*
X4857717D02*
Y2959984D01*
X4861654Y2941831D02*
X5000394D01*
X4861654D02*
Y2959984D01*
X5045669Y2987106D02*
X5052165D01*
X5000394Y2941831D02*
X5045669Y2987106D01*
D25*
X4885276Y2959984D02*
Y2986772D01*
X4885236Y2986811D02*
X4885276Y2986772D01*
X4889213Y2959984D02*
Y2984547D01*
X4893150Y2959984D02*
Y2982382D01*
X4897087Y2959984D02*
Y2980020D01*
X4865591Y2952008D02*
Y2959984D01*
X4869528Y2950098D02*
Y2959984D01*
X4873465Y2952224D02*
Y2959984D01*
X4877402Y2950098D02*
Y2959984D01*
X4881339Y2952126D02*
Y2959984D01*
D28*
X4967398Y3142646D02*
D03*
X4977398D02*
D03*
X4987398D02*
D03*
X4884272Y3142646D02*
D03*
X4874272D02*
D03*
X4864272D02*
D03*
D29*
X4992909Y3176661D02*
D03*
X4961886D02*
D03*
X4858760Y3176661D02*
D03*
X4889783D02*
D03*
D30*
X4813681Y2789370D02*
D03*
X5053445D02*
D03*
Y3162008D02*
D03*
X4813681D02*
D03*
D31*
X5052165Y2987106D02*
D03*
Y2979232D02*
D03*
Y2971358D02*
D03*
Y2963484D02*
D03*
D32*
X5046772Y3112815D02*
D03*
D33*
X5056771D02*
D03*
X5046772Y3102815D02*
D03*
X5056771D02*
D03*
X5046772Y3092815D02*
D03*
X5056771D02*
D03*
X5046772Y3082815D02*
D03*
X5056771D02*
D03*
X5046772Y3072815D02*
D03*
X5056771D02*
D03*
X5046772Y3062815D02*
D03*
X5056771D02*
D03*
X5046772Y3052815D02*
D03*
X5056771D02*
D03*
X5046772Y3042815D02*
D03*
X5056771D02*
D03*
X5046772Y3032815D02*
D03*
X5056771D02*
D03*
X5046772Y3022815D02*
D03*
X5056771D02*
D03*
D34*
X5033701Y3127898D02*
D03*
X4815591D02*
D03*
Y2824748D02*
D03*
D35*
X4902362Y3054331D02*
D03*
X4983563Y2969094D02*
D03*
X4964075Y2967028D02*
D03*
X4849508Y2959941D02*
D03*
X4900984Y2952362D02*
D03*
X4913091Y2968898D02*
D03*
X4885236Y2986811D02*
D03*
X4840256Y3060039D02*
D03*
X4855413Y3067224D02*
D03*
X4928642Y2981496D02*
D03*
X4932520Y2983858D02*
D03*
X4918701Y3054429D02*
D03*
X4849409Y3052658D02*
D03*
X4845669Y3050295D02*
D03*
X4849409Y3038189D02*
D03*
X4854232Y3039469D02*
D03*
X4845964Y2978445D02*
D03*
X4859941Y2992520D02*
D03*
X4850787Y2933071D02*
D03*
X4841043Y2796358D02*
D03*
X4829036Y2807087D02*
D03*
X5059941Y2978937D02*
D03*
X4993406Y3020177D02*
D03*
X4993504Y3004035D02*
D03*
X4915649Y3076575D02*
D03*
X4999902Y2873327D02*
D03*
X5051870Y3016437D02*
D03*
X5061516Y3107480D02*
D03*
X4899705Y2784842D02*
D03*
X5000098Y2879298D02*
D03*
X5011811Y2885138D02*
D03*
X4884055Y3132972D02*
D03*
X4987008Y3133169D02*
D03*
X4972835Y3100098D02*
D03*
X4940945Y3069390D02*
D03*
X4889862Y3018209D02*
D03*
X4988976Y3029528D02*
D03*
X5011909Y2989075D02*
D03*
X5026575Y2981201D02*
D03*
X5044685Y2978937D02*
D03*
X4899016Y2863681D02*
D03*
X4888878Y2863583D02*
D03*
X4883071Y2840748D02*
D03*
X4866240Y2840846D02*
D03*
X4927854Y2772342D02*
D03*
X4897835Y2773524D02*
D03*
X4888287Y2773622D02*
D03*
X4877067Y2773917D02*
D03*
X4866339Y2773721D02*
D03*
X4857087Y2773819D02*
D03*
X4950787Y2934449D02*
D03*
X4966634Y2935236D02*
D03*
X4982480Y2934842D02*
D03*
X4927165Y2987402D02*
D03*
X4926870Y2997835D02*
D03*
X4867618Y3024606D02*
D03*
X4889764Y3002264D02*
D03*
X4811614Y3033366D02*
D03*
X4811516Y3047736D02*
D03*
X4888386Y3072835D02*
D03*
X4875295Y3065059D02*
D03*
X4867618Y3057480D02*
D03*
X4903347Y3027362D02*
D03*
X4912697Y3032087D02*
D03*
X4911713Y3043898D02*
D03*
X4903051Y3040059D02*
D03*
X4898819Y2807284D02*
D03*
X4881594Y3091339D02*
D03*
X4920866Y3069193D02*
D03*
X4916536Y3065354D02*
D03*
X4970964Y3025984D02*
D03*
X4900689Y3078740D02*
D03*
X4895177Y3082382D02*
D03*
X4909843Y3070965D02*
D03*
X4945374Y2999705D02*
D03*
X4945079Y2995177D02*
D03*
X5007185Y2974409D02*
D03*
Y2980020D02*
D03*
X5011909Y2902559D02*
D03*
Y2896752D02*
D03*
Y2890945D02*
D03*
X5000098Y2885072D02*
D03*
Y2890846D02*
D03*
X5063583Y2973031D02*
D03*
X5067225Y2969980D02*
D03*
X5063779Y2966831D02*
D03*
X5066020Y2976575D02*
D03*
X4842520Y3027362D02*
D03*
X4892913Y3022244D02*
D03*
X4935827Y3082382D02*
D03*
X4954850Y3043575D02*
D03*
X5021063Y3072441D02*
D03*
X4970768Y3012894D02*
D03*
Y3021681D02*
D03*
X4923032Y3054429D02*
D03*
X4914370D02*
D03*
X4970768Y3008366D02*
D03*
Y3017323D02*
D03*
X4950814Y3021681D02*
D03*
Y3008366D02*
D03*
Y3017323D02*
D03*
Y3012894D02*
D03*
X4971949Y2967028D02*
D03*
X4968110Y2968984D02*
D03*
X4979764Y2967028D02*
D03*
X4975827Y2968984D02*
D03*
X4897087Y2980020D02*
D03*
X4893150Y2982382D02*
D03*
X4889213Y2984547D02*
D03*
X4881339Y2952126D02*
D03*
X4877402Y2950098D02*
D03*
X4873465Y2952224D02*
D03*
X4869528Y2950098D02*
D03*
X4865591Y2952008D02*
D03*
X4845669Y3035827D02*
D03*
X4841929Y3033268D02*
D03*
X4854232Y3052854D02*
D03*
X4904626Y2967028D02*
D03*
X4936516Y2986221D02*
D03*
X4940354Y2988779D02*
D03*
X4908858Y2967815D02*
D03*
X4841929Y3047933D02*
D03*
X4944331Y2979193D02*
D03*
X4948228Y2976476D02*
D03*
X4952146Y2973984D02*
D03*
X4956146Y2971484D02*
D03*
X4960146Y2968984D02*
D03*
X4898327Y3052461D02*
D03*
X4903149Y3105512D02*
D03*
X4912106D02*
D03*
X4873622Y3086417D02*
D03*
X4858169Y3125787D02*
D03*
X4961417Y3125984D02*
D03*
X4832775Y2939075D02*
D03*
Y2919980D02*
D03*
X4988287Y3060236D02*
D03*
X4855037Y2856022D02*
D03*
X4860632D02*
D03*
X4859063Y2784260D02*
D03*
Y2789996D02*
D03*
Y2795732D02*
D03*
Y2801468D02*
D03*
X4841032Y2818677D02*
D03*
Y2824413D02*
D03*
Y2830150D02*
D03*
Y2835886D02*
D03*
Y2841622D02*
D03*
X4871821Y2856022D02*
D03*
X4877415D02*
D03*
X4938091Y3006102D02*
D03*
X4875984Y2992716D02*
D03*
X4864764Y3010433D02*
D03*
X4824606Y3002461D02*
D03*
X4820374Y2963386D02*
D03*
X4801181Y2917618D02*
D03*
X4817913Y2895079D02*
D03*
X4801083Y2877559D02*
D03*
X4819685Y2854724D02*
D03*
X4799902Y2834350D02*
D03*
X4820275Y2808268D02*
D03*
X4835925Y2773327D02*
D03*
X4843209Y2913583D02*
D03*
X4863091Y2896555D02*
D03*
X4844193Y2883169D02*
D03*
X4864665Y2871752D02*
D03*
X4843898Y2855020D02*
D03*
X4887598Y2871457D02*
D03*
X4879725Y2887402D02*
D03*
X4873425Y2829331D02*
D03*
X4883464Y2801181D02*
D03*
X4869291Y2799213D02*
D03*
X4875098Y2785925D02*
D03*
X4860925Y2820177D02*
D03*
X4886417Y2818799D02*
D03*
X4934055Y2796457D02*
D03*
X4953445Y2815551D02*
D03*
X4972540Y2833268D02*
D03*
X4993012Y2856102D02*
D03*
X4920079Y2860138D02*
D03*
X4935040Y2875492D02*
D03*
X4947047Y2890846D02*
D03*
X4948425Y2913681D02*
D03*
X4924803Y2932776D02*
D03*
X4930709Y2949705D02*
D03*
X4894193Y2926673D02*
D03*
X4904036Y2902461D02*
D03*
X4926870Y2899016D02*
D03*
X4914665Y2921555D02*
D03*
X4967815Y2913287D02*
D03*
X4982874Y2902362D02*
D03*
X4997638Y2927165D02*
D03*
Y2903937D02*
D03*
X5022736Y2952559D02*
D03*
X5039468Y2946260D02*
D03*
X5020571Y2923917D02*
D03*
X5067126Y2920571D02*
D03*
X5068406Y2886713D02*
D03*
X5066831Y2836713D02*
D03*
X5052559Y2810925D02*
D03*
X5029725Y2776279D02*
D03*
X4999705Y2774508D02*
D03*
X4973622Y2773228D02*
D03*
X4945669Y2776772D02*
D03*
X4964665Y2795276D02*
D03*
X4985630Y2816535D02*
D03*
X5005413Y2837992D02*
D03*
X5020275Y2867716D02*
D03*
X5031988Y2891339D02*
D03*
X5051968Y2909547D02*
D03*
X5047933Y2882382D02*
D03*
X5053248Y2856988D02*
D03*
X5027165Y2848524D02*
D03*
X5010040Y2818012D02*
D03*
X5040453Y2829331D02*
D03*
X4995669Y2794784D02*
D03*
X5025394Y2798819D02*
D03*
X5034351Y3035335D02*
D03*
X5020866Y3048721D02*
D03*
X4963189Y3068898D02*
D03*
X4990847Y3118504D02*
D03*
X5020275Y3109252D02*
D03*
X5022047Y3167421D02*
D03*
X4944094Y3164469D02*
D03*
X4906496Y3163779D02*
D03*
X4865256Y3161221D02*
D03*
X4838779Y3150098D02*
D03*
X4804134Y3138386D02*
D03*
X4802460Y3101279D02*
D03*
X4825295Y3105709D02*
D03*
X4846457Y3095472D02*
D03*
X4845079Y3123425D02*
D03*
X4796161Y3061417D02*
D03*
Y3025394D02*
D03*
X4795768Y2981201D02*
D03*
X4796555Y2943307D02*
D03*
X4914665Y3141929D02*
D03*
X4932677Y3132480D02*
D03*
X4940354Y3107776D02*
D03*
X4882972Y3109547D02*
D03*
X4992225Y2990551D02*
D03*
X4952165Y2980020D02*
D03*
D36*
X5002559Y2969390D02*
D03*
D37*
X4853780Y2959984D02*
D03*
X4857717D02*
D03*
X4861654D02*
D03*
X4865591D02*
D03*
X4869528D02*
D03*
X4873465D02*
D03*
X4877402D02*
D03*
X4881339D02*
D03*
X4885276D02*
D03*
X4889213D02*
D03*
X4893150D02*
D03*
X4897087D02*
D03*
X4901024D02*
D03*
X4904961D02*
D03*
X4908898D02*
D03*
X4912835D02*
D03*
X4916772D02*
D03*
X4920709D02*
D03*
X4924646D02*
D03*
X4928583D02*
D03*
X4932520D02*
D03*
X4936457D02*
D03*
X4940394D02*
D03*
X4944331D02*
D03*
X4948268D02*
D03*
X4952205D02*
D03*
X4956142D02*
D03*
X4960079D02*
D03*
X4964016D02*
D03*
X4967953D02*
D03*
X4971890D02*
D03*
X4975827D02*
D03*
X4979764D02*
D03*
X4983701D02*
D03*
X4987638D02*
D03*
X4991575D02*
D03*
X4995512D02*
D03*
D38*
X4987638Y2969390D02*
X5002559D01*
X4987638Y2959984D02*
Y2969390D01*
X4991575Y2959984D02*
Y2969193D01*
M02*
