%FSLAX25Y25*%
%MOIN*%
G70*
G01*
G75*
G04 Layer_Color=8421504*
%ADD10R,0.03543X0.02362*%
%ADD11R,0.05906X0.07874*%
%ADD12R,0.14961X0.07874*%
%ADD13R,0.05118X0.02756*%
%ADD14R,0.02362X0.03543*%
%ADD15R,0.05709X0.02362*%
%ADD16R,0.03937X0.19685*%
%ADD17R,0.01181X0.04724*%
%ADD18R,0.04724X0.01181*%
%ADD19R,0.05512X0.08268*%
%ADD20R,0.03937X0.07874*%
%ADD21R,0.02835X0.02835*%
%ADD22R,0.02835X0.02835*%
%ADD23C,0.00800*%
%ADD24C,0.02000*%
%ADD25C,0.01000*%
%ADD26C,0.05000*%
%ADD27C,0.01200*%
%ADD28C,0.25000*%
%ADD29C,0.15748*%
%ADD30O,0.07087X0.09843*%
%ADD31C,0.05906*%
%ADD32O,0.07087X0.05512*%
%ADD33R,0.07087X0.07087*%
%ADD34C,0.07087*%
%ADD35C,0.02200*%
%ADD36C,0.03200*%
%ADD37R,0.01969X0.07874*%
%ADD38C,0.01400*%
%ADD39C,0.00984*%
%ADD40C,0.00787*%
D10*
X5033858Y2981201D02*
D03*
Y2987106D02*
D03*
X4843520Y2954221D02*
D03*
Y2948315D02*
D03*
X4884646Y2944221D02*
D03*
Y2938315D02*
D03*
X4878896Y2944221D02*
D03*
Y2938315D02*
D03*
X4873146Y2944221D02*
D03*
Y2938315D02*
D03*
X4867396Y2944221D02*
D03*
Y2938315D02*
D03*
X4861646Y2944221D02*
D03*
Y2938315D02*
D03*
X4923917Y3002559D02*
D03*
Y3008465D02*
D03*
X4938976Y3063878D02*
D03*
Y3057972D02*
D03*
X4873646Y3058437D02*
D03*
Y3052531D02*
D03*
X4893799Y3072933D02*
D03*
Y3067027D02*
D03*
X4894882Y3002461D02*
D03*
Y3008366D02*
D03*
X4879146Y3058437D02*
D03*
Y3052531D02*
D03*
X4929725Y3002559D02*
D03*
Y3008465D02*
D03*
X4841291Y2801335D02*
D03*
Y2807240D02*
D03*
X4888791Y2852835D02*
D03*
Y2858740D02*
D03*
X4919783Y2772539D02*
D03*
Y2778445D02*
D03*
X4899791Y2858740D02*
D03*
Y2852835D02*
D03*
X4911811Y2772539D02*
D03*
Y2778445D02*
D03*
X4915354Y3002559D02*
D03*
Y3008465D02*
D03*
X4811614Y3022146D02*
D03*
Y3028051D02*
D03*
X4811713Y3059646D02*
D03*
Y3053740D02*
D03*
X4901575Y3067126D02*
D03*
Y3073031D02*
D03*
X4894291Y2852835D02*
D03*
Y2858740D02*
D03*
X4918406Y3116043D02*
D03*
Y3110138D02*
D03*
X4895472Y3116142D02*
D03*
Y3110236D02*
D03*
X4903149Y3116142D02*
D03*
Y3110236D02*
D03*
X4912106Y3116043D02*
D03*
Y3110138D02*
D03*
D11*
X4993602Y3011909D02*
D03*
X5002657D02*
D03*
X5011713D02*
D03*
D12*
X5002657Y3036713D02*
D03*
D13*
X4983071Y3036909D02*
D03*
Y3029429D02*
D03*
X5011909Y3001575D02*
D03*
Y2994094D02*
D03*
X4946555Y3057972D02*
D03*
Y3065453D02*
D03*
D14*
X4961417Y3130906D02*
D03*
X4967323D02*
D03*
X4858366Y3131004D02*
D03*
X4864272D02*
D03*
X4881594Y3008268D02*
D03*
X4875689D02*
D03*
X4967323Y3125000D02*
D03*
X4973228D02*
D03*
X4870079Y3124508D02*
D03*
X4864173D02*
D03*
X4947441Y3051279D02*
D03*
X4941536D02*
D03*
X4872736Y3021850D02*
D03*
X4878642D02*
D03*
X4872736Y3027362D02*
D03*
X4878642D02*
D03*
X4991693Y3054984D02*
D03*
X4997599D02*
D03*
D15*
X4852646Y2938268D02*
D03*
X4843394Y2934528D02*
D03*
Y2942008D02*
D03*
D16*
X4828146Y3059685D02*
D03*
X4827752Y3022284D02*
D03*
D17*
X4895020Y3059858D02*
D03*
X4896988D02*
D03*
X4898957D02*
D03*
X4900925D02*
D03*
X4902894D02*
D03*
X4904862D02*
D03*
X4906831D02*
D03*
X4908799D02*
D03*
X4910768D02*
D03*
X4912736D02*
D03*
X4914705D02*
D03*
X4916673D02*
D03*
X4918642D02*
D03*
X4920610D02*
D03*
X4922579D02*
D03*
X4924547D02*
D03*
Y3014583D02*
D03*
X4922579D02*
D03*
X4920610D02*
D03*
X4918642D02*
D03*
X4916673D02*
D03*
X4914705D02*
D03*
X4912736D02*
D03*
X4910768D02*
D03*
X4908799D02*
D03*
X4906831D02*
D03*
X4904862D02*
D03*
X4902894D02*
D03*
X4900925D02*
D03*
X4898957D02*
D03*
X4896988D02*
D03*
X4895020D02*
D03*
D18*
X4932421Y3051984D02*
D03*
Y3050016D02*
D03*
Y3048047D02*
D03*
Y3046079D02*
D03*
Y3044110D02*
D03*
Y3042142D02*
D03*
Y3040173D02*
D03*
Y3038205D02*
D03*
Y3036236D02*
D03*
Y3034268D02*
D03*
Y3032299D02*
D03*
Y3030331D02*
D03*
Y3028362D02*
D03*
Y3026394D02*
D03*
Y3024425D02*
D03*
Y3022457D02*
D03*
X4887146D02*
D03*
Y3024425D02*
D03*
Y3026394D02*
D03*
Y3028362D02*
D03*
Y3030331D02*
D03*
Y3032299D02*
D03*
Y3034268D02*
D03*
Y3036236D02*
D03*
Y3038205D02*
D03*
Y3040173D02*
D03*
Y3042142D02*
D03*
Y3044110D02*
D03*
Y3046079D02*
D03*
Y3048047D02*
D03*
Y3050016D02*
D03*
Y3051984D02*
D03*
D19*
X4979787Y3064571D02*
D03*
Y3100398D02*
D03*
X4997504Y3064571D02*
D03*
Y3100398D02*
D03*
D20*
X5013779Y2943209D02*
D03*
X5005906D02*
D03*
X4998032D02*
D03*
X4990157D02*
D03*
X4982283D02*
D03*
X4974409D02*
D03*
X4966536D02*
D03*
X4958661D02*
D03*
X4950787D02*
D03*
X4942913D02*
D03*
D21*
X4899793Y2767788D02*
D03*
X4894199D02*
D03*
X4888604D02*
D03*
X4883010D02*
D03*
X4877415D02*
D03*
X4871821D02*
D03*
X4866226D02*
D03*
X4860632D02*
D03*
X4855037D02*
D03*
Y2846622D02*
D03*
X4860632D02*
D03*
X4866226D02*
D03*
X4871821D02*
D03*
X4877415D02*
D03*
X4883010D02*
D03*
X4888604D02*
D03*
X4894199D02*
D03*
X4899793D02*
D03*
D22*
X4850039Y2772787D02*
D03*
Y2778524D02*
D03*
Y2784260D02*
D03*
Y2789996D02*
D03*
Y2795732D02*
D03*
Y2801468D02*
D03*
Y2807205D02*
D03*
Y2812941D02*
D03*
Y2818677D02*
D03*
Y2824413D02*
D03*
Y2830150D02*
D03*
Y2835886D02*
D03*
Y2841622D02*
D03*
X4904791D02*
D03*
Y2835886D02*
D03*
Y2830150D02*
D03*
Y2824413D02*
D03*
Y2818677D02*
D03*
Y2812941D02*
D03*
Y2807205D02*
D03*
Y2801468D02*
D03*
Y2795732D02*
D03*
Y2789996D02*
D03*
Y2784260D02*
D03*
Y2778524D02*
D03*
Y2772787D02*
D03*
M02*
