%FSLAX25Y25*%
%MOIN*%
G70*
G01*
G75*
G04 Layer_Physical_Order=2*
G04 Layer_Color=16711680*
%ADD10R,0.02835X0.02835*%
%ADD11R,0.02835X0.02835*%
%ADD12R,0.03543X0.02362*%
%ADD13R,0.03937X0.07874*%
%ADD14R,0.05512X0.08268*%
%ADD15R,0.02362X0.03543*%
%ADD16R,0.04724X0.01181*%
%ADD17R,0.01181X0.04724*%
%ADD18R,0.03937X0.19685*%
%ADD19R,0.05709X0.02362*%
%ADD20R,0.05118X0.02756*%
%ADD21R,0.14961X0.07874*%
%ADD22R,0.05906X0.07874*%
%ADD23C,0.02000*%
%ADD24C,0.00800*%
%ADD25C,0.01200*%
%ADD26C,0.01000*%
%ADD27C,0.05000*%
%ADD28O,0.07087X0.09843*%
%ADD29C,0.15748*%
%ADD30C,0.07087*%
%ADD31R,0.07087X0.07087*%
%ADD32O,0.07087X0.05512*%
%ADD33C,0.05906*%
%ADD34C,0.25000*%
%ADD35C,0.02200*%
%ADD36C,0.03200*%
%ADD37R,0.01969X0.07874*%
%ADD38C,0.01400*%
G36*
X5076673Y2766240D02*
X4789862D01*
Y3185630D01*
X4857249D01*
X4857273Y3185131D01*
X4857079Y3185111D01*
X4855463Y3184621D01*
X4853973Y3183825D01*
X4852668Y3182754D01*
X4851596Y3181448D01*
X4850800Y3179958D01*
X4850310Y3178342D01*
X4850144Y3176661D01*
X4850310Y3174981D01*
X4850800Y3173364D01*
X4851596Y3171875D01*
X4852668Y3170569D01*
X4853973Y3169498D01*
X4855463Y3168702D01*
X4857079Y3168212D01*
X4858760Y3168046D01*
X4860440Y3168212D01*
X4862057Y3168702D01*
X4863546Y3169498D01*
X4864852Y3170569D01*
X4865923Y3171875D01*
X4866719Y3173364D01*
X4867210Y3174981D01*
X4867375Y3176661D01*
X4867210Y3178342D01*
X4866719Y3179958D01*
X4865923Y3181448D01*
X4864852Y3182754D01*
X4863546Y3183825D01*
X4862057Y3184621D01*
X4860440Y3185111D01*
X4860246Y3185131D01*
X4860271Y3185630D01*
X4888272D01*
X4888297Y3185131D01*
X4888103Y3185111D01*
X4886486Y3184621D01*
X4884997Y3183825D01*
X4883691Y3182754D01*
X4882620Y3181448D01*
X4881824Y3179958D01*
X4881334Y3178342D01*
X4881168Y3176661D01*
X4881334Y3174981D01*
X4881824Y3173364D01*
X4882620Y3171875D01*
X4883691Y3170569D01*
X4884997Y3169498D01*
X4886486Y3168702D01*
X4888103Y3168212D01*
X4889783Y3168046D01*
X4891464Y3168212D01*
X4893081Y3168702D01*
X4894570Y3169498D01*
X4895876Y3170569D01*
X4896947Y3171875D01*
X4897743Y3173364D01*
X4898233Y3174981D01*
X4898399Y3176661D01*
X4898233Y3178342D01*
X4897743Y3179958D01*
X4896947Y3181448D01*
X4895876Y3182754D01*
X4894570Y3183825D01*
X4893081Y3184621D01*
X4891464Y3185111D01*
X4891270Y3185131D01*
X4891294Y3185630D01*
X4960375D01*
X4960399Y3185131D01*
X4960205Y3185111D01*
X4958589Y3184621D01*
X4957099Y3183825D01*
X4955794Y3182754D01*
X4954722Y3181448D01*
X4953926Y3179958D01*
X4953436Y3178342D01*
X4953270Y3176661D01*
X4953436Y3174981D01*
X4953926Y3173364D01*
X4954722Y3171875D01*
X4955794Y3170569D01*
X4957099Y3169498D01*
X4958589Y3168702D01*
X4960205Y3168212D01*
X4961886Y3168046D01*
X4963567Y3168212D01*
X4965183Y3168702D01*
X4966672Y3169498D01*
X4967978Y3170569D01*
X4969049Y3171875D01*
X4969846Y3173364D01*
X4970336Y3174981D01*
X4970501Y3176661D01*
X4970336Y3178342D01*
X4969846Y3179958D01*
X4969049Y3181448D01*
X4967978Y3182754D01*
X4966672Y3183825D01*
X4965183Y3184621D01*
X4963567Y3185111D01*
X4963372Y3185131D01*
X4963397Y3185630D01*
X4991399D01*
X4991423Y3185131D01*
X4991228Y3185111D01*
X4989613Y3184621D01*
X4988123Y3183825D01*
X4986818Y3182754D01*
X4985746Y3181448D01*
X4984950Y3179958D01*
X4984460Y3178342D01*
X4984294Y3176661D01*
X4984460Y3174981D01*
X4984950Y3173364D01*
X4985746Y3171875D01*
X4986818Y3170569D01*
X4988123Y3169498D01*
X4989613Y3168702D01*
X4991228Y3168212D01*
X4992909Y3168046D01*
X4994590Y3168212D01*
X4996207Y3168702D01*
X4997696Y3169498D01*
X4999001Y3170569D01*
X5000073Y3171875D01*
X5000869Y3173364D01*
X5001360Y3174981D01*
X5001525Y3176661D01*
X5001360Y3178342D01*
X5000869Y3179958D01*
X5000073Y3181448D01*
X4999001Y3182754D01*
X4997696Y3183825D01*
X4996207Y3184621D01*
X4994590Y3185111D01*
X4994396Y3185131D01*
X4994420Y3185630D01*
X5076673D01*
Y2766240D01*
D02*
G37*
%LPC*%
G36*
X4940354Y2990615D02*
X4939652Y2990475D01*
X4939057Y2990077D01*
X4938659Y2989482D01*
X4938519Y2988779D01*
X4938659Y2988077D01*
X4939057Y2987482D01*
X4939233Y2987364D01*
Y2964621D01*
X4938709D01*
Y2955347D01*
X4942078D01*
Y2964621D01*
X4941476D01*
Y2987364D01*
X4941652Y2987482D01*
X4942050Y2988077D01*
X4942190Y2988779D01*
X4942050Y2989482D01*
X4941652Y2990077D01*
X4941056Y2990475D01*
X4940354Y2990615D01*
D02*
G37*
G36*
X4944331Y2981028D02*
X4943628Y2980889D01*
X4943033Y2980491D01*
X4942635Y2979895D01*
X4942495Y2979193D01*
X4942635Y2978491D01*
X4943033Y2977895D01*
X4943209Y2977777D01*
Y2964621D01*
X4942646D01*
Y2955347D01*
X4946015D01*
Y2964621D01*
X4945452D01*
Y2977777D01*
X4945628Y2977895D01*
X4946026Y2978491D01*
X4946166Y2979193D01*
X4946026Y2979895D01*
X4945628Y2980491D01*
X4945033Y2980889D01*
X4944331Y2981028D01*
D02*
G37*
G36*
X4932520Y2985694D02*
X4931817Y2985554D01*
X4931222Y2985156D01*
X4930824Y2984561D01*
X4930684Y2983858D01*
X4930824Y2983156D01*
X4931222Y2982561D01*
X4931398Y2982443D01*
Y2964621D01*
X4930835D01*
Y2955347D01*
X4934204D01*
Y2964621D01*
X4933641D01*
Y2982443D01*
X4933817Y2982561D01*
X4934215Y2983156D01*
X4934355Y2983858D01*
X4934215Y2984561D01*
X4933817Y2985156D01*
X4933222Y2985554D01*
X4932520Y2985694D01*
D02*
G37*
G36*
X4936516Y2988056D02*
X4935814Y2987916D01*
X4935218Y2987518D01*
X4934820Y2986923D01*
X4934681Y2986221D01*
X4934820Y2985518D01*
X4935218Y2984923D01*
X4935335Y2984845D01*
Y2964621D01*
X4934772D01*
Y2955347D01*
X4938141D01*
Y2964621D01*
X4937578D01*
Y2984766D01*
X4937814Y2984923D01*
X4938211Y2985518D01*
X4938351Y2986221D01*
X4938211Y2986923D01*
X4937814Y2987518D01*
X4937218Y2987916D01*
X4936516Y2988056D01*
D02*
G37*
G36*
X4956146Y2973319D02*
X4955443Y2973180D01*
X4954848Y2972782D01*
X4954450Y2972187D01*
X4954310Y2971484D01*
X4954450Y2970782D01*
X4954848Y2970186D01*
X4955024Y2970069D01*
Y2964621D01*
X4954457D01*
Y2955347D01*
X4957826D01*
Y2964621D01*
X4957267D01*
Y2970069D01*
X4957443Y2970186D01*
X4957841Y2970782D01*
X4957981Y2971484D01*
X4957841Y2972187D01*
X4957443Y2972782D01*
X4956848Y2973180D01*
X4956146Y2973319D01*
D02*
G37*
G36*
X4960146Y2970819D02*
X4959443Y2970680D01*
X4958848Y2970282D01*
X4958450Y2969687D01*
X4958310Y2968984D01*
X4958450Y2968282D01*
X4958848Y2967686D01*
X4959024Y2967569D01*
Y2964621D01*
X4958394D01*
Y2955347D01*
X4961763D01*
Y2964621D01*
X4961267D01*
Y2967569D01*
X4961443Y2967686D01*
X4961841Y2968282D01*
X4961981Y2968984D01*
X4961841Y2969687D01*
X4961443Y2970282D01*
X4960848Y2970680D01*
X4960146Y2970819D01*
D02*
G37*
G36*
X4948228Y2978312D02*
X4947526Y2978172D01*
X4946931Y2977774D01*
X4946533Y2977179D01*
X4946393Y2976476D01*
X4946533Y2975774D01*
X4946931Y2975179D01*
X4947146Y2975035D01*
Y2964621D01*
X4946584D01*
Y2955347D01*
X4949952D01*
Y2964621D01*
X4949389D01*
Y2975087D01*
X4949526Y2975179D01*
X4949924Y2975774D01*
X4950064Y2976476D01*
X4949924Y2977179D01*
X4949526Y2977774D01*
X4948931Y2978172D01*
X4948228Y2978312D01*
D02*
G37*
G36*
X4952146Y2975820D02*
X4951443Y2975680D01*
X4950848Y2975282D01*
X4950450Y2974687D01*
X4950311Y2973984D01*
X4950450Y2973282D01*
X4950848Y2972687D01*
X4951024Y2972569D01*
Y2964621D01*
X4950520D01*
Y2955347D01*
X4953889D01*
Y2964621D01*
X4953267D01*
Y2972569D01*
X4953444Y2972687D01*
X4953841Y2973282D01*
X4953981Y2973984D01*
X4953841Y2974687D01*
X4953444Y2975282D01*
X4952848Y2975680D01*
X4952146Y2975820D01*
D02*
G37*
G36*
X4889213Y2986382D02*
X4888510Y2986243D01*
X4887915Y2985845D01*
X4887517Y2985250D01*
X4887378Y2984547D01*
X4887517Y2983845D01*
X4887915Y2983249D01*
X4887989Y2983200D01*
Y2964621D01*
X4887528D01*
Y2955347D01*
X4890897D01*
Y2964621D01*
X4890436D01*
Y2983200D01*
X4890511Y2983249D01*
X4890908Y2983845D01*
X4891048Y2984547D01*
X4890908Y2985250D01*
X4890511Y2985845D01*
X4889915Y2986243D01*
X4889213Y2986382D01*
D02*
G37*
G36*
X4893150Y2984217D02*
X4892447Y2984077D01*
X4891852Y2983680D01*
X4891454Y2983084D01*
X4891314Y2982382D01*
X4891454Y2981680D01*
X4891852Y2981084D01*
X4891926Y2981035D01*
Y2964621D01*
X4891465D01*
Y2955347D01*
X4894834D01*
Y2964621D01*
X4894373D01*
Y2981035D01*
X4894447Y2981084D01*
X4894845Y2981680D01*
X4894985Y2982382D01*
X4894845Y2983084D01*
X4894447Y2983680D01*
X4893852Y2984077D01*
X4893150Y2984217D01*
D02*
G37*
G36*
X4855464Y2959484D02*
X4854280D01*
Y2955347D01*
X4855464D01*
Y2959484D01*
D02*
G37*
G36*
X4885276Y2987957D02*
X4884573Y2987818D01*
X4883978Y2987420D01*
X4883580Y2986824D01*
X4883440Y2986122D01*
X4883580Y2985420D01*
X4883978Y2984824D01*
X4884052Y2984775D01*
Y2964621D01*
X4883591D01*
Y2955347D01*
X4886960D01*
Y2964621D01*
X4886499D01*
Y2984775D01*
X4886573Y2984824D01*
X4886971Y2985420D01*
X4887111Y2986122D01*
X4886971Y2986824D01*
X4886573Y2987420D01*
X4885978Y2987818D01*
X4885276Y2987957D01*
D02*
G37*
G36*
X4902708Y2959484D02*
X4901524D01*
Y2955347D01*
X4902708D01*
Y2959484D01*
D02*
G37*
G36*
X4928583Y2983430D02*
X4927880Y2983290D01*
X4927285Y2982892D01*
X4926887Y2982297D01*
X4926748Y2981594D01*
X4926887Y2980892D01*
X4927285Y2980297D01*
X4927461Y2980179D01*
Y2964621D01*
X4926899D01*
Y2955347D01*
X4930267D01*
Y2964621D01*
X4929704D01*
Y2980179D01*
X4929881Y2980297D01*
X4930278Y2980892D01*
X4930418Y2981594D01*
X4930278Y2982297D01*
X4929881Y2982892D01*
X4929285Y2983290D01*
X4928583Y2983430D01*
D02*
G37*
G36*
X4897087Y2981855D02*
X4896384Y2981715D01*
X4895789Y2981317D01*
X4895391Y2980722D01*
X4895251Y2980020D01*
X4895391Y2979317D01*
X4895789Y2978722D01*
X4895863Y2978672D01*
Y2964621D01*
X4895403D01*
Y2955347D01*
X4898771D01*
Y2964621D01*
X4898310D01*
Y2978672D01*
X4898384Y2978722D01*
X4898782Y2979317D01*
X4898922Y2980020D01*
X4898782Y2980722D01*
X4898384Y2981317D01*
X4897789Y2981715D01*
X4897087Y2981855D01*
D02*
G37*
G36*
X4900524Y2959484D02*
X4899339D01*
Y2955347D01*
X4900524D01*
Y2959484D01*
D02*
G37*
G36*
X4964016Y2968320D02*
X4963313Y2968180D01*
X4962718Y2967782D01*
X4962320Y2967187D01*
X4962180Y2966484D01*
X4962320Y2965782D01*
X4962718Y2965187D01*
X4962848Y2965100D01*
X4962703Y2964621D01*
X4962331D01*
Y2955347D01*
X4965700D01*
Y2964621D01*
X4965329D01*
X4965184Y2965100D01*
X4965313Y2965187D01*
X4965711Y2965782D01*
X4965851Y2966484D01*
X4965711Y2967187D01*
X4965313Y2967782D01*
X4964718Y2968180D01*
X4964016Y2968320D01*
D02*
G37*
G36*
X4900524Y2964621D02*
X4899339D01*
Y2960484D01*
X4900524D01*
Y2964621D01*
D02*
G37*
G36*
X4902708D02*
X4901524D01*
Y2960484D01*
X4902708D01*
Y2964621D01*
D02*
G37*
G36*
X4853280D02*
X4852095D01*
Y2960484D01*
X4853280D01*
Y2964621D01*
D02*
G37*
G36*
X4855464D02*
X4854280D01*
Y2960484D01*
X4855464D01*
Y2964621D01*
D02*
G37*
G36*
X5002559Y2971735D02*
X5001662Y2971556D01*
X5000901Y2971048D01*
X5000747Y2970817D01*
X4987638D01*
X4987091Y2970708D01*
X4986628Y2970399D01*
X4986319Y2969936D01*
X4986210Y2969390D01*
Y2964621D01*
X4985954D01*
Y2955347D01*
X4989322D01*
Y2964621D01*
X4989065D01*
Y2967962D01*
X4990147D01*
Y2964621D01*
X4989890D01*
Y2955347D01*
X4993259D01*
Y2964621D01*
X4993002D01*
Y2967962D01*
X5000747D01*
X5000901Y2967732D01*
X5001662Y2967223D01*
X5002559Y2967045D01*
X5003456Y2967223D01*
X5004217Y2967732D01*
X5004726Y2968492D01*
X5004904Y2969390D01*
X5004726Y2970287D01*
X5004217Y2971048D01*
X5003456Y2971556D01*
X5002559Y2971735D01*
D02*
G37*
G36*
X5052953Y2974844D02*
X5051378D01*
X5050476Y2974725D01*
X5049635Y2974377D01*
X5048913Y2973823D01*
X5048359Y2973101D01*
X5048011Y2972260D01*
X5047892Y2971358D01*
X5048011Y2970456D01*
X5048359Y2969615D01*
X5048913Y2968893D01*
X5049635Y2968340D01*
X5050476Y2967991D01*
X5051378Y2967872D01*
X5052953D01*
X5053855Y2967991D01*
X5054696Y2968340D01*
X5055418Y2968893D01*
X5055972Y2969615D01*
X5056320Y2970456D01*
X5056438Y2971358D01*
X5056320Y2972260D01*
X5055972Y2973101D01*
X5055418Y2973823D01*
X5054696Y2974377D01*
X5053855Y2974725D01*
X5052953Y2974844D01*
D02*
G37*
G36*
X4995012Y2964621D02*
X4993827D01*
Y2960484D01*
X4995012D01*
Y2964621D01*
D02*
G37*
G36*
X4997196D02*
X4996012D01*
Y2960484D01*
X4997196D01*
Y2964621D01*
D02*
G37*
G36*
X4975827Y2970819D02*
X4975124Y2970680D01*
X4974529Y2970282D01*
X4974131Y2969687D01*
X4973991Y2968984D01*
X4974131Y2968282D01*
X4974529Y2967686D01*
X4974705Y2967569D01*
Y2964621D01*
X4974142D01*
Y2955347D01*
X4977511D01*
Y2964621D01*
X4976948D01*
Y2967569D01*
X4977124Y2967686D01*
X4977522Y2968282D01*
X4977662Y2968984D01*
X4977522Y2969687D01*
X4977124Y2970282D01*
X4976529Y2970680D01*
X4975827Y2970819D01*
D02*
G37*
G36*
X4979764Y2968320D02*
X4979061Y2968180D01*
X4978466Y2967782D01*
X4978068Y2967187D01*
X4977929Y2966484D01*
X4978068Y2965782D01*
X4978466Y2965187D01*
X4978596Y2965100D01*
X4978450Y2964621D01*
X4978079D01*
Y2955347D01*
X4981448D01*
Y2964621D01*
X4981077D01*
X4980932Y2965100D01*
X4981062Y2965187D01*
X4981459Y2965782D01*
X4981599Y2966484D01*
X4981459Y2967187D01*
X4981062Y2967782D01*
X4980466Y2968180D01*
X4979764Y2968320D01*
D02*
G37*
G36*
X4968110Y2970819D02*
X4967408Y2970680D01*
X4966813Y2970282D01*
X4966415Y2969687D01*
X4966275Y2968984D01*
X4966415Y2968282D01*
X4966813Y2967686D01*
X4966831Y2967674D01*
Y2964621D01*
X4966269D01*
Y2955347D01*
X4969637D01*
Y2964621D01*
X4969074D01*
Y2967463D01*
X4969408Y2967686D01*
X4969806Y2968282D01*
X4969946Y2968984D01*
X4969806Y2969687D01*
X4969408Y2970282D01*
X4968813Y2970680D01*
X4968110Y2970819D01*
D02*
G37*
G36*
X4971949Y2968320D02*
X4971246Y2968180D01*
X4970651Y2967782D01*
X4970253Y2967187D01*
X4970113Y2966484D01*
X4970253Y2965782D01*
X4970651Y2965187D01*
X4970781Y2965100D01*
X4970636Y2964621D01*
X4970205D01*
Y2955347D01*
X4973574D01*
Y2964621D01*
X4973262D01*
X4973117Y2965100D01*
X4973246Y2965187D01*
X4973644Y2965782D01*
X4973784Y2966484D01*
X4973644Y2967187D01*
X4973246Y2967782D01*
X4972651Y2968180D01*
X4971949Y2968320D01*
D02*
G37*
G36*
X4997196Y2959484D02*
X4996012D01*
Y2955347D01*
X4997196D01*
Y2959484D01*
D02*
G37*
G36*
X5052953Y2966970D02*
X5051378D01*
X5050476Y2966851D01*
X5049635Y2966503D01*
X5048913Y2965949D01*
X5048359Y2965227D01*
X5048011Y2964386D01*
X5047892Y2963484D01*
X5048011Y2962582D01*
X5048359Y2961741D01*
X5048913Y2961020D01*
X5049635Y2960465D01*
X5050476Y2960117D01*
X5051378Y2959999D01*
X5052953D01*
X5053855Y2960117D01*
X5054696Y2960465D01*
X5055418Y2961020D01*
X5055972Y2961741D01*
X5056320Y2962582D01*
X5056438Y2963484D01*
X5056320Y2964386D01*
X5055972Y2965227D01*
X5055418Y2965949D01*
X5054696Y2966503D01*
X5053855Y2966851D01*
X5052953Y2966970D01*
D02*
G37*
G36*
X4983563Y2970819D02*
X4982861Y2970680D01*
X4982265Y2970282D01*
X4981867Y2969687D01*
X4981728Y2968984D01*
X4981867Y2968282D01*
X4982265Y2967686D01*
X4982441Y2967569D01*
Y2964621D01*
X4982016D01*
Y2955347D01*
X4985385D01*
Y2964621D01*
X4984684D01*
Y2967569D01*
X4984861Y2967686D01*
X4985258Y2968282D01*
X4985398Y2968984D01*
X4985258Y2969687D01*
X4984861Y2970282D01*
X4984265Y2970680D01*
X4983563Y2970819D01*
D02*
G37*
G36*
X4995012Y2959484D02*
X4993827D01*
Y2955347D01*
X4995012D01*
Y2959484D01*
D02*
G37*
G36*
X4853280D02*
X4852095D01*
Y2955347D01*
X4853280D01*
Y2959484D01*
D02*
G37*
G36*
X4859063Y2797568D02*
X4858361Y2797428D01*
X4857766Y2797030D01*
X4857367Y2796435D01*
X4857228Y2795732D01*
X4857367Y2795030D01*
X4857766Y2794435D01*
X4858361Y2794037D01*
X4859063Y2793897D01*
X4859765Y2794037D01*
X4860361Y2794435D01*
X4860759Y2795030D01*
X4860899Y2795732D01*
X4860759Y2796435D01*
X4860361Y2797030D01*
X4859765Y2797428D01*
X4859063Y2797568D01*
D02*
G37*
G36*
Y2803304D02*
X4858361Y2803164D01*
X4857766Y2802766D01*
X4857367Y2802171D01*
X4857228Y2801468D01*
X4857367Y2800766D01*
X4857766Y2800171D01*
X4858361Y2799773D01*
X4859063Y2799633D01*
X4859765Y2799773D01*
X4860361Y2800171D01*
X4860759Y2800766D01*
X4860899Y2801468D01*
X4860759Y2802171D01*
X4860361Y2802766D01*
X4859765Y2803164D01*
X4859063Y2803304D01*
D02*
G37*
G36*
X5052945Y2802571D02*
X5051374Y2802448D01*
X5049353Y2801963D01*
X5047434Y2801168D01*
X5045662Y2800082D01*
X5044082Y2798733D01*
X5042733Y2797153D01*
X5041647Y2795381D01*
X5040852Y2793462D01*
X5040367Y2791441D01*
X5040244Y2789870D01*
X5052945D01*
Y2802571D01*
D02*
G37*
G36*
X5053945D02*
Y2789870D01*
X5066646D01*
X5066523Y2791441D01*
X5066038Y2793462D01*
X5065242Y2795381D01*
X5064157Y2797153D01*
X5062807Y2798733D01*
X5061227Y2800082D01*
X5059456Y2801168D01*
X5057536Y2801963D01*
X5055516Y2802448D01*
X5053945Y2802571D01*
D02*
G37*
G36*
X4815591Y2828432D02*
X4814637Y2828307D01*
X4813749Y2827939D01*
X4812985Y2827353D01*
X4812400Y2826590D01*
X4812032Y2825702D01*
X4811906Y2824748D01*
X4812032Y2823795D01*
X4812400Y2822906D01*
X4812985Y2822143D01*
X4813749Y2821557D01*
X4814637Y2821189D01*
X4815591Y2821064D01*
X4816544Y2821189D01*
X4817433Y2821557D01*
X4818196Y2822143D01*
X4818781Y2822906D01*
X4819149Y2823795D01*
X4819275Y2824748D01*
X4819149Y2825702D01*
X4818781Y2826590D01*
X4818196Y2827353D01*
X4817433Y2827939D01*
X4816544Y2828307D01*
X4815591Y2828432D01*
D02*
G37*
G36*
X4841032Y2826249D02*
X4840329Y2826109D01*
X4839734Y2825711D01*
X4839336Y2825116D01*
X4839196Y2824413D01*
X4839336Y2823711D01*
X4839734Y2823116D01*
X4840329Y2822718D01*
X4841032Y2822578D01*
X4841734Y2822718D01*
X4842329Y2823116D01*
X4842727Y2823711D01*
X4842867Y2824413D01*
X4842727Y2825116D01*
X4842329Y2825711D01*
X4841734Y2826109D01*
X4841032Y2826249D01*
D02*
G37*
G36*
X4898819Y2809119D02*
X4898117Y2808979D01*
X4897521Y2808581D01*
X4897272Y2808208D01*
X4830451D01*
X4830333Y2808384D01*
X4829738Y2808782D01*
X4829036Y2808922D01*
X4828333Y2808782D01*
X4827738Y2808384D01*
X4827340Y2807789D01*
X4827200Y2807087D01*
X4827340Y2806384D01*
X4827738Y2805789D01*
X4828333Y2805391D01*
X4829036Y2805251D01*
X4829738Y2805391D01*
X4830333Y2805789D01*
X4830451Y2805965D01*
X4897552D01*
X4898117Y2805588D01*
X4898819Y2805448D01*
X4899521Y2805588D01*
X4900117Y2805986D01*
X4900515Y2806581D01*
X4900654Y2807284D01*
X4900515Y2807986D01*
X4900117Y2808581D01*
X4899521Y2808979D01*
X4898819Y2809119D01*
D02*
G37*
G36*
X4841032Y2820513D02*
X4840329Y2820373D01*
X4839734Y2819975D01*
X4839336Y2819379D01*
X4839196Y2818677D01*
X4839336Y2817975D01*
X4839734Y2817380D01*
X4840329Y2816982D01*
X4841032Y2816842D01*
X4841734Y2816982D01*
X4842329Y2817380D01*
X4842727Y2817975D01*
X4842867Y2818677D01*
X4842727Y2819379D01*
X4842329Y2819975D01*
X4841734Y2820373D01*
X4841032Y2820513D01*
D02*
G37*
G36*
X5052945Y2788870D02*
X5040244D01*
X5040367Y2787299D01*
X5040852Y2785278D01*
X5041647Y2783359D01*
X5042733Y2781587D01*
X5044082Y2780007D01*
X5045662Y2778658D01*
X5047434Y2777572D01*
X5049353Y2776777D01*
X5051374Y2776292D01*
X5052945Y2776169D01*
Y2788870D01*
D02*
G37*
G36*
X5066646D02*
X5053945D01*
Y2776169D01*
X5055516Y2776292D01*
X5057536Y2776777D01*
X5059456Y2777572D01*
X5061227Y2778658D01*
X5062807Y2780007D01*
X5064157Y2781587D01*
X5065242Y2783359D01*
X5066038Y2785278D01*
X5066523Y2787299D01*
X5066646Y2788870D01*
D02*
G37*
G36*
X4813181D02*
X4800480D01*
X4800603Y2787299D01*
X4801088Y2785278D01*
X4801883Y2783359D01*
X4802969Y2781587D01*
X4804318Y2780007D01*
X4805898Y2778658D01*
X4807670Y2777572D01*
X4809589Y2776777D01*
X4811610Y2776292D01*
X4813181Y2776169D01*
Y2788870D01*
D02*
G37*
G36*
X4826883D02*
X4814181D01*
Y2776169D01*
X4815752Y2776292D01*
X4817773Y2776777D01*
X4819692Y2777572D01*
X4821464Y2778658D01*
X4823044Y2780007D01*
X4824393Y2781587D01*
X4825479Y2783359D01*
X4826274Y2785278D01*
X4826759Y2787299D01*
X4826883Y2788870D01*
D02*
G37*
G36*
X4813181Y2802571D02*
X4811610Y2802448D01*
X4809589Y2801963D01*
X4807670Y2801168D01*
X4805898Y2800082D01*
X4804318Y2798733D01*
X4802969Y2797153D01*
X4801883Y2795381D01*
X4801088Y2793462D01*
X4800603Y2791441D01*
X4800480Y2789870D01*
X4813181D01*
Y2802571D01*
D02*
G37*
G36*
X4814181D02*
Y2789870D01*
X4826883D01*
X4826759Y2791441D01*
X4826274Y2793462D01*
X4825479Y2795381D01*
X4824393Y2797153D01*
X4823044Y2798733D01*
X4821464Y2800082D01*
X4819692Y2801168D01*
X4817773Y2801963D01*
X4815752Y2802448D01*
X4814181Y2802571D01*
D02*
G37*
G36*
X4859063Y2786095D02*
X4858361Y2785955D01*
X4857766Y2785558D01*
X4857367Y2784962D01*
X4857228Y2784260D01*
X4857367Y2783558D01*
X4857766Y2782962D01*
X4858361Y2782564D01*
X4859063Y2782425D01*
X4859765Y2782564D01*
X4860361Y2782962D01*
X4860759Y2783558D01*
X4860899Y2784260D01*
X4860759Y2784962D01*
X4860361Y2785558D01*
X4859765Y2785955D01*
X4859063Y2786095D01*
D02*
G37*
G36*
Y2791831D02*
X4858361Y2791692D01*
X4857766Y2791294D01*
X4857367Y2790698D01*
X4857228Y2789996D01*
X4857367Y2789294D01*
X4857766Y2788698D01*
X4858361Y2788300D01*
X4859063Y2788161D01*
X4859765Y2788300D01*
X4860361Y2788698D01*
X4860759Y2789294D01*
X4860899Y2789996D01*
X4860759Y2790698D01*
X4860361Y2791294D01*
X4859765Y2791692D01*
X4859063Y2791831D01*
D02*
G37*
G36*
X4841032Y2831985D02*
X4840329Y2831845D01*
X4839734Y2831447D01*
X4839336Y2830852D01*
X4839196Y2830150D01*
X4839336Y2829447D01*
X4839734Y2828852D01*
X4840329Y2828454D01*
X4841032Y2828314D01*
X4841734Y2828454D01*
X4842329Y2828852D01*
X4842727Y2829447D01*
X4842867Y2830150D01*
X4842727Y2830852D01*
X4842329Y2831447D01*
X4841734Y2831845D01*
X4841032Y2831985D01*
D02*
G37*
G36*
X4832775Y2940910D02*
X4832073Y2940770D01*
X4831478Y2940372D01*
X4831080Y2939777D01*
X4830940Y2939075D01*
X4831080Y2938372D01*
X4831478Y2937777D01*
X4831654Y2937659D01*
Y2921396D01*
X4831478Y2921278D01*
X4831080Y2920683D01*
X4830940Y2919980D01*
X4831080Y2919278D01*
X4831478Y2918683D01*
X4832073Y2918285D01*
X4832775Y2918145D01*
X4833478Y2918285D01*
X4834073Y2918683D01*
X4834471Y2919278D01*
X4834611Y2919980D01*
X4834471Y2920683D01*
X4834073Y2921278D01*
X4833897Y2921396D01*
Y2937659D01*
X4834073Y2937777D01*
X4834471Y2938372D01*
X4834611Y2939075D01*
X4834471Y2939777D01*
X4834073Y2940372D01*
X4833478Y2940770D01*
X4832775Y2940910D01*
D02*
G37*
G36*
X4871212Y2964621D02*
X4867843D01*
Y2955347D01*
X4868304D01*
Y2951446D01*
X4868230Y2951396D01*
X4867832Y2950801D01*
X4867693Y2950098D01*
X4867832Y2949396D01*
X4868230Y2948801D01*
X4868825Y2948403D01*
X4869528Y2948263D01*
X4870230Y2948403D01*
X4870826Y2948801D01*
X4871223Y2949396D01*
X4871363Y2950098D01*
X4871223Y2950801D01*
X4870826Y2951396D01*
X4870751Y2951446D01*
Y2955347D01*
X4871212D01*
Y2964621D01*
D02*
G37*
G36*
X5011909Y2898587D02*
X5011207Y2898447D01*
X5010612Y2898050D01*
X5010214Y2897454D01*
X5010074Y2896752D01*
X5010094Y2896654D01*
X5000306Y2886866D01*
X5000098Y2886907D01*
X4999396Y2886768D01*
X4998801Y2886370D01*
X4998403Y2885774D01*
X4998263Y2885072D01*
X4998403Y2884370D01*
X4998801Y2883774D01*
X4999396Y2883377D01*
X5000098Y2883237D01*
X5000801Y2883377D01*
X5001396Y2883774D01*
X5001794Y2884370D01*
X5001934Y2885072D01*
X5001892Y2885280D01*
X5011592Y2894980D01*
X5011909Y2894917D01*
X5012612Y2895056D01*
X5013207Y2895454D01*
X5013605Y2896050D01*
X5013745Y2896752D01*
X5013605Y2897454D01*
X5013207Y2898050D01*
X5012612Y2898447D01*
X5011909Y2898587D01*
D02*
G37*
G36*
Y2904394D02*
X5011207Y2904255D01*
X5010612Y2903857D01*
X5010214Y2903261D01*
X5010074Y2902559D01*
X5010115Y2902351D01*
X5000388Y2892624D01*
X5000098Y2892682D01*
X4999396Y2892542D01*
X4998801Y2892144D01*
X4998403Y2891549D01*
X4998263Y2890846D01*
X4998403Y2890144D01*
X4998801Y2889549D01*
X4999396Y2889151D01*
X5000098Y2889011D01*
X5000801Y2889151D01*
X5001396Y2889549D01*
X5001794Y2890144D01*
X5001934Y2890846D01*
X5001909Y2890972D01*
X5011702Y2900765D01*
X5011909Y2900724D01*
X5012612Y2900863D01*
X5013207Y2901261D01*
X5013605Y2901857D01*
X5013745Y2902559D01*
X5013605Y2903261D01*
X5013207Y2903857D01*
X5012612Y2904255D01*
X5011909Y2904394D01*
D02*
G37*
G36*
X4883023Y2964621D02*
X4879654D01*
Y2955347D01*
X4880115D01*
Y2953473D01*
X4880041Y2953424D01*
X4879643Y2952828D01*
X4879503Y2952126D01*
X4879643Y2951424D01*
X4880041Y2950828D01*
X4880636Y2950430D01*
X4881339Y2950291D01*
X4882041Y2950430D01*
X4882636Y2950828D01*
X4883034Y2951424D01*
X4883174Y2952126D01*
X4883034Y2952828D01*
X4882636Y2953424D01*
X4882562Y2953473D01*
Y2955347D01*
X4883023D01*
Y2964621D01*
D02*
G37*
G36*
X4875149D02*
X4871780D01*
Y2955347D01*
X4872241D01*
Y2953572D01*
X4872167Y2953522D01*
X4871769Y2952927D01*
X4871629Y2952224D01*
X4871769Y2951522D01*
X4872167Y2950927D01*
X4872762Y2950529D01*
X4873465Y2950389D01*
X4874167Y2950529D01*
X4874762Y2950927D01*
X4875160Y2951522D01*
X4875300Y2952224D01*
X4875160Y2952927D01*
X4874762Y2953522D01*
X4874688Y2953572D01*
Y2955347D01*
X4875149D01*
Y2964621D01*
D02*
G37*
G36*
X4879086D02*
X4875718D01*
Y2955347D01*
X4876178D01*
Y2951446D01*
X4876104Y2951396D01*
X4875706Y2950801D01*
X4875566Y2950098D01*
X4875706Y2949396D01*
X4876104Y2948801D01*
X4876699Y2948403D01*
X4877402Y2948263D01*
X4878104Y2948403D01*
X4878699Y2948801D01*
X4879097Y2949396D01*
X4879237Y2950098D01*
X4879097Y2950801D01*
X4878699Y2951396D01*
X4878625Y2951446D01*
Y2955347D01*
X4879086D01*
Y2964621D01*
D02*
G37*
G36*
X4867275D02*
X4863906D01*
Y2955347D01*
X4864367D01*
Y2953355D01*
X4864293Y2953306D01*
X4863895Y2952710D01*
X4863755Y2952008D01*
X4863895Y2951306D01*
X4864293Y2950710D01*
X4864888Y2950312D01*
X4865591Y2950173D01*
X4866293Y2950312D01*
X4866888Y2950710D01*
X4867286Y2951306D01*
X4867426Y2952008D01*
X4867286Y2952710D01*
X4866888Y2953306D01*
X4866814Y2953355D01*
Y2955347D01*
X4867275D01*
Y2964621D01*
D02*
G37*
G36*
X4855037Y2857857D02*
X4854335Y2857717D01*
X4853740Y2857319D01*
X4853342Y2856724D01*
X4853202Y2856022D01*
X4853342Y2855319D01*
X4853740Y2854724D01*
X4854335Y2854326D01*
X4855037Y2854186D01*
X4855740Y2854326D01*
X4856335Y2854724D01*
X4856733Y2855319D01*
X4856873Y2856022D01*
X4856733Y2856724D01*
X4856335Y2857319D01*
X4855740Y2857717D01*
X4855037Y2857857D01*
D02*
G37*
G36*
X4860632D02*
X4859930Y2857717D01*
X4859334Y2857319D01*
X4858936Y2856724D01*
X4858797Y2856022D01*
X4858936Y2855319D01*
X4859334Y2854724D01*
X4859930Y2854326D01*
X4860632Y2854186D01*
X4861334Y2854326D01*
X4861930Y2854724D01*
X4862328Y2855319D01*
X4862467Y2856022D01*
X4862328Y2856724D01*
X4861930Y2857319D01*
X4861334Y2857717D01*
X4860632Y2857857D01*
D02*
G37*
G36*
X4841032Y2837721D02*
X4840329Y2837581D01*
X4839734Y2837184D01*
X4839336Y2836588D01*
X4839196Y2835886D01*
X4839336Y2835184D01*
X4839734Y2834588D01*
X4840329Y2834190D01*
X4841032Y2834051D01*
X4841734Y2834190D01*
X4842329Y2834588D01*
X4842727Y2835184D01*
X4842867Y2835886D01*
X4842727Y2836588D01*
X4842329Y2837184D01*
X4841734Y2837581D01*
X4841032Y2837721D01*
D02*
G37*
G36*
Y2843457D02*
X4840329Y2843318D01*
X4839734Y2842920D01*
X4839336Y2842324D01*
X4839196Y2841622D01*
X4839336Y2840920D01*
X4839734Y2840324D01*
X4840329Y2839926D01*
X4841032Y2839787D01*
X4841734Y2839926D01*
X4842329Y2840324D01*
X4842727Y2840920D01*
X4842867Y2841622D01*
X4842727Y2842324D01*
X4842329Y2842920D01*
X4841734Y2843318D01*
X4841032Y2843457D01*
D02*
G37*
G36*
X5011811Y2886973D02*
X5011109Y2886833D01*
X5010513Y2886436D01*
X5010115Y2885840D01*
X5009976Y2885138D01*
X5010017Y2884930D01*
X5000191Y2875104D01*
X4999902Y2875162D01*
X4999199Y2875022D01*
X4998604Y2874624D01*
X4998206Y2874029D01*
X4998066Y2873327D01*
X4998206Y2872625D01*
X4998604Y2872029D01*
X4999199Y2871631D01*
X4999902Y2871491D01*
X5000604Y2871631D01*
X5001199Y2872029D01*
X5001597Y2872625D01*
X5001737Y2873327D01*
X5001712Y2873453D01*
X5011603Y2883344D01*
X5011811Y2883302D01*
X5012513Y2883442D01*
X5013109Y2883840D01*
X5013507Y2884435D01*
X5013646Y2885138D01*
X5013507Y2885840D01*
X5013109Y2886436D01*
X5012513Y2886833D01*
X5011811Y2886973D01*
D02*
G37*
G36*
X5011909Y2892780D02*
X5011207Y2892640D01*
X5010612Y2892243D01*
X5010214Y2891647D01*
X5010074Y2890945D01*
X5010115Y2890737D01*
X5000443Y2881065D01*
X5000098Y2881133D01*
X4999396Y2880993D01*
X4998801Y2880596D01*
X4998403Y2880000D01*
X4998263Y2879298D01*
X4998403Y2878596D01*
X4998801Y2878000D01*
X4999396Y2877602D01*
X5000098Y2877463D01*
X5000801Y2877602D01*
X5001396Y2878000D01*
X5001794Y2878596D01*
X5001934Y2879298D01*
X5001920Y2879369D01*
X5011702Y2889151D01*
X5011909Y2889110D01*
X5012612Y2889249D01*
X5013207Y2889647D01*
X5013605Y2890243D01*
X5013745Y2890945D01*
X5013605Y2891647D01*
X5013207Y2892243D01*
X5012612Y2892640D01*
X5011909Y2892780D01*
D02*
G37*
G36*
X4871821Y2857857D02*
X4871119Y2857717D01*
X4870523Y2857319D01*
X4870126Y2856724D01*
X4869986Y2856022D01*
X4870126Y2855319D01*
X4870523Y2854724D01*
X4871119Y2854326D01*
X4871821Y2854186D01*
X4872523Y2854326D01*
X4873119Y2854724D01*
X4873516Y2855319D01*
X4873656Y2856022D01*
X4873516Y2856724D01*
X4873119Y2857319D01*
X4872523Y2857717D01*
X4871821Y2857857D01*
D02*
G37*
G36*
X4877415D02*
X4876713Y2857717D01*
X4876118Y2857319D01*
X4875720Y2856724D01*
X4875580Y2856022D01*
X4875720Y2855319D01*
X4876118Y2854724D01*
X4876713Y2854326D01*
X4877415Y2854186D01*
X4878118Y2854326D01*
X4878713Y2854724D01*
X4879111Y2855319D01*
X4879251Y2856022D01*
X4879111Y2856724D01*
X4878713Y2857319D01*
X4878118Y2857717D01*
X4877415Y2857857D01*
D02*
G37*
G36*
X5046772Y3107095D02*
X5045664Y3106949D01*
X5044632Y3106521D01*
X5043745Y3105841D01*
X5043065Y3104955D01*
X5042638Y3103923D01*
X5042492Y3102815D01*
X5042638Y3101707D01*
X5043065Y3100675D01*
X5043745Y3099789D01*
X5044632Y3099108D01*
X5045664Y3098681D01*
X5046772Y3098535D01*
X5047879Y3098681D01*
X5048898Y3099103D01*
X5051254Y3096746D01*
X5051254Y3096746D01*
X5051618Y3096503D01*
X5052047Y3096418D01*
X5052047Y3096418D01*
X5053719D01*
X5053880Y3095944D01*
X5053745Y3095841D01*
X5053065Y3094955D01*
X5052637Y3093923D01*
X5052557Y3093315D01*
X5060986D01*
X5060906Y3093923D01*
X5060478Y3094955D01*
X5059798Y3095841D01*
X5059664Y3095944D01*
X5059734Y3096151D01*
X5060221Y3096264D01*
X5071221Y3085264D01*
Y2970051D01*
X5069122Y2967952D01*
X5068290D01*
X5068145Y2968431D01*
X5068522Y2968683D01*
X5068920Y2969278D01*
X5069060Y2969980D01*
X5069018Y2970188D01*
X5069888Y2971057D01*
X5069888Y2971057D01*
X5070131Y2971421D01*
X5070216Y2971850D01*
Y3078642D01*
X5070216Y3078642D01*
X5070131Y3079071D01*
X5069888Y3079435D01*
X5069888Y3079435D01*
X5060636Y3088687D01*
X5060272Y3088930D01*
X5059843Y3089015D01*
X5059843Y3089015D01*
X5059568D01*
X5059407Y3089489D01*
X5059798Y3089789D01*
X5060478Y3090675D01*
X5060906Y3091707D01*
X5060986Y3092315D01*
X5052557D01*
X5052637Y3091707D01*
X5053065Y3090675D01*
X5053745Y3089789D01*
X5054136Y3089489D01*
X5053975Y3089015D01*
X5052158D01*
X5050484Y3090689D01*
X5050906Y3091707D01*
X5051052Y3092815D01*
X5050906Y3093923D01*
X5050478Y3094955D01*
X5049798Y3095841D01*
X5048912Y3096522D01*
X5047879Y3096949D01*
X5046772Y3097095D01*
X5045664Y3096949D01*
X5044632Y3096522D01*
X5043745Y3095841D01*
X5043065Y3094955D01*
X5042638Y3093923D01*
X5042492Y3092815D01*
X5042638Y3091707D01*
X5043065Y3090675D01*
X5043745Y3089789D01*
X5044632Y3089108D01*
X5045664Y3088681D01*
X5046772Y3088535D01*
X5047879Y3088681D01*
X5048898Y3089103D01*
X5050900Y3087101D01*
X5050900Y3087101D01*
X5051264Y3086857D01*
X5051264Y3086857D01*
X5051264Y3086857D01*
D01*
X5051264Y3086857D01*
X5051264Y3086857D01*
X5051693Y3086772D01*
X5054181D01*
X5054341Y3086299D01*
X5053745Y3085841D01*
X5053065Y3084955D01*
X5052637Y3083923D01*
X5052557Y3083315D01*
X5060986D01*
X5060906Y3083923D01*
X5060478Y3084955D01*
X5060440Y3085004D01*
X5060817Y3085334D01*
X5067973Y3078177D01*
Y2977753D01*
X5067495Y2977608D01*
X5067318Y2977872D01*
X5067141Y2977990D01*
Y3070866D01*
X5067141Y3070866D01*
X5067056Y3071295D01*
X5066813Y3071659D01*
X5066813Y3071659D01*
X5059923Y3078549D01*
X5059559Y3078792D01*
X5059312Y3078841D01*
X5059198Y3079328D01*
X5059798Y3079789D01*
X5060478Y3080675D01*
X5060906Y3081707D01*
X5060986Y3082315D01*
X5052557D01*
X5052637Y3081707D01*
X5053065Y3080675D01*
X5053745Y3079789D01*
X5054316Y3079351D01*
X5054155Y3078877D01*
X5052295D01*
X5050484Y3080689D01*
X5050906Y3081707D01*
X5051052Y3082815D01*
X5050906Y3083923D01*
X5050478Y3084955D01*
X5049798Y3085841D01*
X5048912Y3086522D01*
X5047879Y3086949D01*
X5046772Y3087095D01*
X5045664Y3086949D01*
X5044632Y3086522D01*
X5043745Y3085841D01*
X5043065Y3084955D01*
X5042643Y3083937D01*
X5019823D01*
X5019823Y3083937D01*
X5019394Y3083851D01*
X5019030Y3083608D01*
X5019030Y3083608D01*
X4980119Y3044697D01*
X4956265D01*
X4956148Y3044873D01*
X4955552Y3045271D01*
X4954850Y3045410D01*
X4954148Y3045271D01*
X4953552Y3044873D01*
X4953154Y3044278D01*
X4953015Y3043575D01*
X4953154Y3042873D01*
X4953552Y3042277D01*
X4954148Y3041880D01*
X4954850Y3041740D01*
X4955552Y3041880D01*
X4956148Y3042277D01*
X4956265Y3042454D01*
X4980583D01*
X4980583Y3042454D01*
X4981012Y3042539D01*
X4981376Y3042782D01*
X5020287Y3081693D01*
X5042643D01*
X5043065Y3080675D01*
X5043745Y3079789D01*
X5044632Y3079108D01*
X5045664Y3078681D01*
X5046772Y3078535D01*
X5047879Y3078681D01*
X5048898Y3079103D01*
X5051038Y3076963D01*
X5051038Y3076963D01*
X5051402Y3076720D01*
X5051402Y3076720D01*
X5051402Y3076720D01*
D01*
X5051402Y3076720D01*
X5051402Y3076720D01*
X5051831Y3076634D01*
X5051831Y3076634D01*
X5054001D01*
X5054162Y3076161D01*
X5053745Y3075841D01*
X5053065Y3074955D01*
X5052637Y3073923D01*
X5052557Y3073315D01*
X5056771D01*
Y3072315D01*
X5052557D01*
X5052637Y3071707D01*
X5053065Y3070675D01*
X5053745Y3069789D01*
X5054239Y3069410D01*
X5054078Y3068937D01*
X5052236D01*
X5050484Y3070689D01*
X5050906Y3071707D01*
X5051052Y3072815D01*
X5050906Y3073923D01*
X5050478Y3074955D01*
X5049798Y3075841D01*
X5048912Y3076521D01*
X5047879Y3076949D01*
X5046772Y3077095D01*
X5045664Y3076949D01*
X5044632Y3076521D01*
X5043745Y3075841D01*
X5043065Y3074955D01*
X5042638Y3073923D01*
X5042590Y3073562D01*
X5022478D01*
X5022361Y3073739D01*
X5021765Y3074137D01*
X5021063Y3074276D01*
X5020361Y3074137D01*
X5019765Y3073739D01*
X5019367Y3073143D01*
X5019228Y3072441D01*
X5019367Y3071739D01*
X5019765Y3071143D01*
X5020361Y3070745D01*
X5021063Y3070606D01*
X5021765Y3070745D01*
X5022361Y3071143D01*
X5022478Y3071319D01*
X5042798D01*
X5043065Y3070675D01*
X5043745Y3069789D01*
X5044632Y3069108D01*
X5045664Y3068681D01*
X5046772Y3068535D01*
X5047879Y3068681D01*
X5048898Y3069103D01*
X5050978Y3067022D01*
X5050978Y3067022D01*
X5051342Y3066779D01*
X5051342Y3066779D01*
X5051342Y3066779D01*
D01*
X5051342Y3066779D01*
X5051342Y3066779D01*
X5051772Y3066693D01*
X5051772Y3066693D01*
X5054078D01*
X5054239Y3066220D01*
X5053745Y3065841D01*
X5053065Y3064955D01*
X5052637Y3063923D01*
X5052557Y3063315D01*
X5060986D01*
X5060906Y3063923D01*
X5060478Y3064955D01*
X5060376Y3065089D01*
X5060751Y3065418D01*
X5062264Y3063906D01*
Y2974298D01*
X5061887Y2973734D01*
X5061747Y2973031D01*
X5061887Y2972329D01*
X5062285Y2971734D01*
X5062880Y2971336D01*
X5063583Y2971196D01*
X5064285Y2971336D01*
X5064880Y2971734D01*
X5065278Y2972329D01*
X5065418Y2973031D01*
X5065278Y2973734D01*
X5064880Y2974329D01*
X5064653Y2974481D01*
X5064677Y2974981D01*
X5064948Y2975126D01*
X5065318Y2974879D01*
X5066020Y2974739D01*
X5066722Y2974879D01*
X5067318Y2975277D01*
X5067495Y2975542D01*
X5067973Y2975397D01*
Y2972315D01*
X5067432Y2971774D01*
X5067225Y2971816D01*
X5066522Y2971676D01*
X5065927Y2971278D01*
X5065529Y2970683D01*
X5065389Y2969980D01*
X5065529Y2969278D01*
X5065927Y2968683D01*
X5066304Y2968431D01*
X5066159Y2967952D01*
X5065195D01*
X5065077Y2968128D01*
X5064482Y2968526D01*
X5063779Y2968666D01*
X5063077Y2968526D01*
X5062482Y2968128D01*
X5062084Y2967533D01*
X5061944Y2966831D01*
X5062084Y2966128D01*
X5062482Y2965533D01*
X5063077Y2965135D01*
X5063779Y2964995D01*
X5064482Y2965135D01*
X5065077Y2965533D01*
X5065195Y2965709D01*
X5069587D01*
X5069587Y2965709D01*
X5070016Y2965795D01*
X5070380Y2966038D01*
X5073135Y2968793D01*
X5073136Y2968793D01*
X5073379Y2969157D01*
X5073379Y2969157D01*
X5073379Y2969157D01*
X5073464Y2969587D01*
X5073464Y2969587D01*
Y3085728D01*
X5073464Y3085728D01*
X5073379Y3086157D01*
X5073136Y3086521D01*
X5073135Y3086521D01*
X5061324Y3098332D01*
X5060961Y3098576D01*
X5060532Y3098661D01*
X5060531Y3098661D01*
X5059106D01*
X5058945Y3099134D01*
X5059798Y3099789D01*
X5060478Y3100675D01*
X5060906Y3101707D01*
X5060986Y3102315D01*
X5052557D01*
X5052637Y3101707D01*
X5053065Y3100675D01*
X5053745Y3099789D01*
X5054598Y3099134D01*
X5054437Y3098661D01*
X5052512D01*
X5050484Y3100689D01*
X5050906Y3101707D01*
X5051052Y3102815D01*
X5050906Y3103923D01*
X5050478Y3104955D01*
X5049798Y3105841D01*
X5048912Y3106521D01*
X5047879Y3106949D01*
X5046772Y3107095D01*
D02*
G37*
G36*
X5051015Y3117058D02*
X5042528D01*
Y3108572D01*
X5051015D01*
Y3117058D01*
D02*
G37*
G36*
X4815591Y3131582D02*
X4814637Y3131456D01*
X4813749Y3131088D01*
X4812985Y3130503D01*
X4812400Y3129740D01*
X4812032Y3128851D01*
X4811906Y3127898D01*
X4812032Y3126944D01*
X4812400Y3126056D01*
X4812985Y3125293D01*
X4813749Y3124707D01*
X4814637Y3124339D01*
X4815591Y3124213D01*
X4816544Y3124339D01*
X4817433Y3124707D01*
X4818196Y3125293D01*
X4818781Y3126056D01*
X4819149Y3126944D01*
X4819275Y3127898D01*
X4819149Y3128851D01*
X4818781Y3129740D01*
X4818196Y3130503D01*
X4817433Y3131088D01*
X4816544Y3131456D01*
X4815591Y3131582D01*
D02*
G37*
G36*
X4903149Y3107347D02*
X4902447Y3107207D01*
X4901852Y3106809D01*
X4901734Y3106633D01*
X4889468D01*
X4889468Y3106633D01*
X4889039Y3106548D01*
X4888675Y3106305D01*
X4876743Y3094372D01*
X4876499Y3094008D01*
X4876414Y3093579D01*
X4876414Y3093579D01*
Y3075811D01*
X4876414Y3075811D01*
X4876499Y3075382D01*
X4876743Y3075018D01*
X4896533Y3055227D01*
X4896492Y3055020D01*
X4896631Y3054317D01*
X4897029Y3053722D01*
X4897625Y3053324D01*
X4898327Y3053184D01*
X4899029Y3053324D01*
X4899625Y3053722D01*
X4899996Y3054278D01*
X4900496D01*
X4900867Y3053722D01*
X4901463Y3053324D01*
X4902165Y3053184D01*
X4902868Y3053324D01*
X4903463Y3053722D01*
X4903861Y3054317D01*
X4904000Y3055020D01*
X4903861Y3055722D01*
X4903463Y3056317D01*
X4902868Y3056715D01*
X4902165Y3056855D01*
X4901579Y3056738D01*
X4880157Y3078160D01*
Y3089604D01*
X4880598Y3089840D01*
X4880892Y3089643D01*
X4881594Y3089503D01*
X4881802Y3089545D01*
X4904916Y3066431D01*
X4904916Y3066431D01*
X4905280Y3066188D01*
X4905280Y3066188D01*
X4905280Y3066188D01*
D01*
X4905280Y3066188D01*
X4905280Y3066188D01*
X4905709Y3066103D01*
X4905709Y3066103D01*
X4911713D01*
X4911713Y3066103D01*
X4912142Y3066188D01*
X4912506Y3066431D01*
X4914146Y3068071D01*
X4919451D01*
X4919568Y3067895D01*
X4920164Y3067497D01*
X4920866Y3067358D01*
X4921569Y3067497D01*
X4922164Y3067895D01*
X4922562Y3068491D01*
X4922701Y3069193D01*
X4922562Y3069895D01*
X4922164Y3070491D01*
X4921569Y3070889D01*
X4920866Y3071028D01*
X4920164Y3070889D01*
X4919568Y3070491D01*
X4919451Y3070314D01*
X4913681D01*
X4913681Y3070314D01*
X4913252Y3070229D01*
X4912888Y3069986D01*
X4911248Y3068346D01*
X4906173D01*
X4894283Y3080237D01*
X4894518Y3080678D01*
X4895177Y3080547D01*
X4895879Y3080686D01*
X4896475Y3081084D01*
X4896593Y3081260D01*
X4934411D01*
X4934529Y3081084D01*
X4935125Y3080686D01*
X4935827Y3080547D01*
X4936529Y3080686D01*
X4937125Y3081084D01*
X4937522Y3081680D01*
X4937662Y3082382D01*
X4937522Y3083084D01*
X4937125Y3083680D01*
X4936529Y3084077D01*
X4935827Y3084217D01*
X4935125Y3084077D01*
X4934529Y3083680D01*
X4934411Y3083503D01*
X4896593D01*
X4896475Y3083680D01*
X4895879Y3084077D01*
X4895177Y3084217D01*
X4894475Y3084077D01*
X4893879Y3083680D01*
X4893481Y3083084D01*
X4893342Y3082382D01*
X4893473Y3081723D01*
X4893032Y3081487D01*
X4883389Y3091131D01*
X4883430Y3091339D01*
X4883290Y3092041D01*
X4882892Y3092636D01*
X4882297Y3093034D01*
X4881594Y3093174D01*
X4881495Y3093154D01*
X4881259Y3093595D01*
X4889854Y3102190D01*
X4910582D01*
X4910809Y3101852D01*
X4911404Y3101454D01*
X4912106Y3101314D01*
X4912809Y3101454D01*
X4913404Y3101852D01*
X4913802Y3102447D01*
X4913942Y3103150D01*
X4913802Y3103852D01*
X4913404Y3104447D01*
X4912809Y3104845D01*
X4912106Y3104985D01*
X4911404Y3104845D01*
X4910809Y3104447D01*
X4910799Y3104433D01*
X4905164D01*
X4904847Y3104820D01*
X4904985Y3105512D01*
X4904845Y3106214D01*
X4904447Y3106809D01*
X4903852Y3107207D01*
X4903149Y3107347D01*
D02*
G37*
G36*
X5056771Y3117095D02*
X5055664Y3116949D01*
X5054632Y3116521D01*
X5053745Y3115841D01*
X5053065Y3114955D01*
X5052637Y3113923D01*
X5052492Y3112815D01*
X5052637Y3111707D01*
X5053065Y3110675D01*
X5053745Y3109789D01*
X5054632Y3109108D01*
X5055664Y3108681D01*
X5056771Y3108535D01*
X5057879Y3108681D01*
X5058912Y3109108D01*
X5059798Y3109789D01*
X5060478Y3110675D01*
X5060906Y3111707D01*
X5061052Y3112815D01*
X5060906Y3113923D01*
X5060478Y3114955D01*
X5059798Y3115841D01*
X5058912Y3116521D01*
X5057879Y3116949D01*
X5056771Y3117095D01*
D02*
G37*
G36*
X4977398Y3148304D02*
X4976290Y3148158D01*
X4975258Y3147730D01*
X4974371Y3147050D01*
X4973691Y3146164D01*
X4973264Y3145131D01*
X4973118Y3144024D01*
Y3141268D01*
X4973264Y3140160D01*
X4973691Y3139128D01*
X4974371Y3138241D01*
X4975258Y3137561D01*
X4976290Y3137134D01*
X4977398Y3136988D01*
X4978505Y3137134D01*
X4979538Y3137561D01*
X4980424Y3138241D01*
X4981104Y3139128D01*
X4981532Y3140160D01*
X4981678Y3141268D01*
Y3144024D01*
X4981532Y3145131D01*
X4981104Y3146164D01*
X4980424Y3147050D01*
X4979538Y3147730D01*
X4978505Y3148158D01*
X4977398Y3148304D01*
D02*
G37*
G36*
X4864272Y3148304D02*
X4863164Y3148158D01*
X4862132Y3147730D01*
X4861245Y3147050D01*
X4860565Y3146164D01*
X4860138Y3145131D01*
X4859992Y3144024D01*
Y3141268D01*
X4860138Y3140160D01*
X4860565Y3139128D01*
X4861245Y3138241D01*
X4862132Y3137561D01*
X4863164Y3137134D01*
X4864272Y3136988D01*
X4865379Y3137134D01*
X4866412Y3137561D01*
X4867298Y3138241D01*
X4867978Y3139128D01*
X4868406Y3140160D01*
X4868552Y3141268D01*
Y3144024D01*
X4868406Y3145131D01*
X4867978Y3146164D01*
X4867298Y3147050D01*
X4866412Y3147730D01*
X4865379Y3148158D01*
X4864272Y3148304D01*
D02*
G37*
G36*
X5033701Y3131582D02*
X5032747Y3131456D01*
X5031858Y3131088D01*
X5031096Y3130503D01*
X5030510Y3129740D01*
X5030142Y3128851D01*
X5030016Y3127898D01*
X5030142Y3126944D01*
X5030510Y3126056D01*
X5031096Y3125293D01*
X5031858Y3124707D01*
X5032747Y3124339D01*
X5033701Y3124213D01*
X5034654Y3124339D01*
X5035543Y3124707D01*
X5036306Y3125293D01*
X5036892Y3126056D01*
X5037260Y3126944D01*
X5037385Y3127898D01*
X5037260Y3128851D01*
X5036892Y3129740D01*
X5036306Y3130503D01*
X5035543Y3131088D01*
X5034654Y3131456D01*
X5033701Y3131582D01*
D02*
G37*
G36*
X4967398Y3148304D02*
X4966290Y3148158D01*
X4965258Y3147730D01*
X4964371Y3147050D01*
X4963691Y3146164D01*
X4963263Y3145131D01*
X4963118Y3144024D01*
Y3141268D01*
X4963263Y3140160D01*
X4963691Y3139128D01*
X4964371Y3138241D01*
X4965258Y3137561D01*
X4966290Y3137134D01*
X4967398Y3136988D01*
X4968505Y3137134D01*
X4969538Y3137561D01*
X4970424Y3138241D01*
X4971104Y3139128D01*
X4971532Y3140160D01*
X4971678Y3141268D01*
Y3144024D01*
X4971532Y3145131D01*
X4971104Y3146164D01*
X4970424Y3147050D01*
X4969538Y3147730D01*
X4968505Y3148158D01*
X4967398Y3148304D01*
D02*
G37*
G36*
X5046772Y3067095D02*
X5045664Y3066949D01*
X5044632Y3066521D01*
X5043745Y3065841D01*
X5043065Y3064955D01*
X5042638Y3063923D01*
X5042492Y3062815D01*
X5042638Y3061707D01*
X5043065Y3060675D01*
X5043745Y3059789D01*
X5044632Y3059108D01*
X5045664Y3058681D01*
X5046772Y3058535D01*
X5047879Y3058681D01*
X5048912Y3059108D01*
X5049798Y3059789D01*
X5050478Y3060675D01*
X5050906Y3061707D01*
X5051052Y3062815D01*
X5050906Y3063923D01*
X5050478Y3064955D01*
X5049798Y3065841D01*
X5048912Y3066521D01*
X5047879Y3066949D01*
X5046772Y3067095D01*
D02*
G37*
G36*
X5056272Y3062315D02*
X5052557D01*
X5052637Y3061707D01*
X5053065Y3060675D01*
X5053745Y3059789D01*
X5054632Y3059108D01*
X5055664Y3058681D01*
X5056272Y3058601D01*
Y3062315D01*
D02*
G37*
G36*
X5057272Y3057029D02*
Y3053315D01*
X5060986D01*
X5060906Y3053923D01*
X5060478Y3054955D01*
X5059798Y3055841D01*
X5058912Y3056521D01*
X5057879Y3056949D01*
X5057272Y3057029D01*
D02*
G37*
G36*
X4922736Y3056363D02*
X4922034Y3056223D01*
X4921439Y3055825D01*
X4921041Y3055230D01*
X4920969Y3054867D01*
X4920469D01*
X4920396Y3055230D01*
X4919999Y3055825D01*
X4919403Y3056223D01*
X4918701Y3056363D01*
X4917999Y3056223D01*
X4917403Y3055825D01*
X4917005Y3055230D01*
X4916933Y3054867D01*
X4916433D01*
X4916361Y3055230D01*
X4915963Y3055825D01*
X4915368Y3056223D01*
X4914665Y3056363D01*
X4913963Y3056223D01*
X4913367Y3055825D01*
X4912970Y3055230D01*
X4912830Y3054528D01*
X4912970Y3053825D01*
X4913367Y3053230D01*
X4913963Y3052832D01*
X4914665Y3052692D01*
X4914873Y3052734D01*
X4915650Y3051957D01*
Y2964621D01*
X4915088D01*
Y2955347D01*
X4918456D01*
Y2964621D01*
X4917893D01*
Y2965202D01*
X4918355Y2965393D01*
X4919054Y2964694D01*
X4919024Y2964621D01*
X4919024D01*
X4919024Y2964621D01*
Y2955347D01*
X4922393D01*
Y2964344D01*
X4922546Y2964407D01*
X4922961Y2964129D01*
Y2955347D01*
X4926330D01*
Y2964621D01*
X4925710D01*
X4925682Y2964760D01*
X4925439Y2965124D01*
X4921791Y2968772D01*
Y3051996D01*
X4922528Y3052734D01*
X4922736Y3052692D01*
X4923439Y3052832D01*
X4924034Y3053230D01*
X4924432Y3053825D01*
X4924572Y3054528D01*
X4924432Y3055230D01*
X4924034Y3055825D01*
X4923439Y3056223D01*
X4922736Y3056363D01*
D02*
G37*
G36*
X5056272Y3107029D02*
X5055664Y3106949D01*
X5054632Y3106521D01*
X5053745Y3105841D01*
X5053065Y3104955D01*
X5052637Y3103923D01*
X5052557Y3103315D01*
X5056272D01*
Y3107029D01*
D02*
G37*
G36*
X5057272D02*
Y3103315D01*
X5060986D01*
X5060906Y3103923D01*
X5060478Y3104955D01*
X5059798Y3105841D01*
X5058912Y3106521D01*
X5057879Y3106949D01*
X5057272Y3107029D01*
D02*
G37*
G36*
X5060986Y3062315D02*
X5057272D01*
Y3058601D01*
X5057879Y3058681D01*
X5058912Y3059108D01*
X5059798Y3059789D01*
X5060478Y3060675D01*
X5060906Y3061707D01*
X5060986Y3062315D01*
D02*
G37*
G36*
X4900689Y3080575D02*
X4899987Y3080436D01*
X4899391Y3080038D01*
X4898993Y3079442D01*
X4898854Y3078740D01*
X4898993Y3078038D01*
X4899391Y3077442D01*
X4899987Y3077045D01*
X4900689Y3076905D01*
X4900897Y3076946D01*
X4907671Y3070172D01*
X4907671Y3070172D01*
X4908035Y3069928D01*
X4908421Y3069852D01*
X4908545Y3069667D01*
X4909140Y3069269D01*
X4909843Y3069129D01*
X4910545Y3069269D01*
X4911140Y3069667D01*
X4911538Y3070262D01*
X4911678Y3070965D01*
X4911538Y3071667D01*
X4911140Y3072262D01*
X4910545Y3072660D01*
X4909843Y3072800D01*
X4909140Y3072660D01*
X4908670Y3072346D01*
X4902483Y3078532D01*
X4902524Y3078740D01*
X4902385Y3079442D01*
X4901987Y3080038D01*
X4901391Y3080436D01*
X4900689Y3080575D01*
D02*
G37*
G36*
X4874272Y3148304D02*
X4873164Y3148158D01*
X4872132Y3147730D01*
X4871245Y3147050D01*
X4870565Y3146164D01*
X4870138Y3145131D01*
X4869992Y3144024D01*
Y3141268D01*
X4870138Y3140160D01*
X4870565Y3139128D01*
X4871245Y3138241D01*
X4872132Y3137561D01*
X4873164Y3137134D01*
X4874272Y3136988D01*
X4875380Y3137134D01*
X4876411Y3137561D01*
X4877298Y3138241D01*
X4877978Y3139128D01*
X4878406Y3140160D01*
X4878551Y3141268D01*
Y3144024D01*
X4878406Y3145131D01*
X4877978Y3146164D01*
X4877298Y3147050D01*
X4876411Y3147730D01*
X4875380Y3148158D01*
X4874272Y3148304D01*
D02*
G37*
G36*
X5052945Y3161508D02*
X5040244D01*
X5040367Y3159937D01*
X5040852Y3157916D01*
X5041647Y3155997D01*
X5042733Y3154225D01*
X5044082Y3152645D01*
X5045662Y3151296D01*
X5047434Y3150210D01*
X5049353Y3149415D01*
X5051374Y3148930D01*
X5052945Y3148806D01*
Y3161508D01*
D02*
G37*
G36*
X5066646D02*
X5053945D01*
Y3148806D01*
X5055516Y3148930D01*
X5057536Y3149415D01*
X5059456Y3150210D01*
X5061227Y3151296D01*
X5062807Y3152645D01*
X5064157Y3154225D01*
X5065242Y3155997D01*
X5066038Y3157916D01*
X5066523Y3159937D01*
X5066646Y3161508D01*
D02*
G37*
G36*
X4813181D02*
X4800480D01*
X4800603Y3159937D01*
X4801088Y3157916D01*
X4801883Y3155997D01*
X4802969Y3154225D01*
X4804318Y3152645D01*
X4805898Y3151296D01*
X4807670Y3150210D01*
X4809589Y3149415D01*
X4811610Y3148930D01*
X4813181Y3148806D01*
Y3161508D01*
D02*
G37*
G36*
X4826883D02*
X4814181D01*
Y3148806D01*
X4815752Y3148930D01*
X4817773Y3149415D01*
X4819692Y3150210D01*
X4821464Y3151296D01*
X4823044Y3152645D01*
X4824393Y3154225D01*
X4825479Y3155997D01*
X4826274Y3157916D01*
X4826759Y3159937D01*
X4826883Y3161508D01*
D02*
G37*
G36*
X5052945Y3175209D02*
X5051374Y3175086D01*
X5049353Y3174601D01*
X5047434Y3173805D01*
X5045662Y3172720D01*
X5044082Y3171371D01*
X5042733Y3169791D01*
X5041647Y3168019D01*
X5040852Y3166100D01*
X5040367Y3164079D01*
X5040244Y3162508D01*
X5052945D01*
Y3175209D01*
D02*
G37*
G36*
X5053945D02*
Y3162508D01*
X5066646D01*
X5066523Y3164079D01*
X5066038Y3166100D01*
X5065242Y3168019D01*
X5064157Y3169791D01*
X5062807Y3171371D01*
X5061227Y3172720D01*
X5059456Y3173805D01*
X5057536Y3174601D01*
X5055516Y3175086D01*
X5053945Y3175209D01*
D02*
G37*
G36*
X4813181D02*
X4811610Y3175086D01*
X4809589Y3174601D01*
X4807670Y3173805D01*
X4805898Y3172720D01*
X4804318Y3171371D01*
X4802969Y3169791D01*
X4801883Y3168019D01*
X4801088Y3166100D01*
X4800603Y3164079D01*
X4800480Y3162508D01*
X4813181D01*
Y3175209D01*
D02*
G37*
G36*
X4814181D02*
Y3162508D01*
X4826883D01*
X4826759Y3164079D01*
X4826274Y3166100D01*
X4825479Y3168019D01*
X4824393Y3169791D01*
X4823044Y3171371D01*
X4821464Y3172720D01*
X4819692Y3173805D01*
X4817773Y3174601D01*
X4815752Y3175086D01*
X4814181Y3175209D01*
D02*
G37*
G36*
X4883772Y3142146D02*
X4879992D01*
Y3141268D01*
X4880138Y3140160D01*
X4880565Y3139128D01*
X4881245Y3138241D01*
X4882132Y3137561D01*
X4883164Y3137134D01*
X4883772Y3137054D01*
Y3142146D01*
D02*
G37*
G36*
X4888552D02*
X4884772D01*
Y3137054D01*
X4885379Y3137134D01*
X4886412Y3137561D01*
X4887298Y3138241D01*
X4887978Y3139128D01*
X4888406Y3140160D01*
X4888552Y3141268D01*
Y3142146D01*
D02*
G37*
G36*
X4986898Y3142146D02*
X4983118D01*
Y3141268D01*
X4983263Y3140160D01*
X4983691Y3139128D01*
X4984371Y3138241D01*
X4985258Y3137561D01*
X4986290Y3137134D01*
X4986898Y3137054D01*
Y3142146D01*
D02*
G37*
G36*
X4991677D02*
X4987897D01*
Y3137054D01*
X4988506Y3137134D01*
X4989537Y3137561D01*
X4990424Y3138241D01*
X4991104Y3139128D01*
X4991532Y3140160D01*
X4991677Y3141268D01*
Y3142146D01*
D02*
G37*
G36*
X4883772Y3148238D02*
X4883164Y3148158D01*
X4882132Y3147730D01*
X4881245Y3147050D01*
X4880565Y3146164D01*
X4880138Y3145131D01*
X4879992Y3144024D01*
Y3143146D01*
X4883772D01*
Y3148238D01*
D02*
G37*
G36*
X4884772D02*
Y3143146D01*
X4888552D01*
Y3144024D01*
X4888406Y3145131D01*
X4887978Y3146164D01*
X4887298Y3147050D01*
X4886412Y3147730D01*
X4885379Y3148158D01*
X4884772Y3148238D01*
D02*
G37*
G36*
X4986898Y3148238D02*
X4986290Y3148158D01*
X4985258Y3147730D01*
X4984371Y3147050D01*
X4983691Y3146164D01*
X4983263Y3145131D01*
X4983118Y3144024D01*
Y3143146D01*
X4986898D01*
Y3148238D01*
D02*
G37*
G36*
X4987897D02*
Y3143146D01*
X4991677D01*
Y3144024D01*
X4991532Y3145131D01*
X4991104Y3146164D01*
X4990424Y3147050D01*
X4989537Y3147730D01*
X4988506Y3148158D01*
X4987897Y3148238D01*
D02*
G37*
G36*
X5056272Y3057029D02*
X5055664Y3056949D01*
X5054632Y3056521D01*
X5053745Y3055841D01*
X5053065Y3054955D01*
X5052637Y3053923D01*
X5052557Y3053315D01*
X5056272D01*
Y3057029D01*
D02*
G37*
G36*
X4970768Y3019158D02*
X4970065Y3019018D01*
X4969470Y3018621D01*
X4969352Y3018444D01*
X4952230D01*
X4952112Y3018621D01*
X4951517Y3019018D01*
X4950814Y3019158D01*
X4950112Y3019018D01*
X4949517Y3018621D01*
X4949119Y3018025D01*
X4948979Y3017323D01*
X4949119Y3016620D01*
X4949517Y3016025D01*
X4950112Y3015627D01*
X4950814Y3015488D01*
X4951517Y3015627D01*
X4952112Y3016025D01*
X4952230Y3016201D01*
X4969352D01*
X4969470Y3016025D01*
X4970065Y3015627D01*
X4970768Y3015488D01*
X4971470Y3015627D01*
X4972065Y3016025D01*
X4972463Y3016620D01*
X4972603Y3017323D01*
X4972463Y3018025D01*
X4972065Y3018621D01*
X4971470Y3019018D01*
X4970768Y3019158D01*
D02*
G37*
G36*
X5046772Y3027095D02*
X5045664Y3026949D01*
X5044632Y3026521D01*
X5043745Y3025841D01*
X5043065Y3024955D01*
X5042638Y3023923D01*
X5042492Y3022815D01*
X5042638Y3021707D01*
X5043065Y3020675D01*
X5043745Y3019789D01*
X5044632Y3019108D01*
X5045664Y3018681D01*
X5046772Y3018535D01*
X5047879Y3018681D01*
X5048912Y3019108D01*
X5049798Y3019789D01*
X5050478Y3020675D01*
X5050906Y3021707D01*
X5051052Y3022815D01*
X5050906Y3023923D01*
X5050478Y3024955D01*
X5049798Y3025841D01*
X5048912Y3026521D01*
X5047879Y3026949D01*
X5046772Y3027095D01*
D02*
G37*
G36*
X4970768Y3010201D02*
X4970065Y3010062D01*
X4969470Y3009664D01*
X4969352Y3009488D01*
X4952230D01*
X4952112Y3009664D01*
X4951517Y3010062D01*
X4950814Y3010201D01*
X4950112Y3010062D01*
X4949517Y3009664D01*
X4949119Y3009068D01*
X4948979Y3008366D01*
X4949119Y3007664D01*
X4949517Y3007068D01*
X4950112Y3006671D01*
X4950814Y3006531D01*
X4951517Y3006671D01*
X4952112Y3007068D01*
X4952230Y3007245D01*
X4969352D01*
X4969470Y3007068D01*
X4970065Y3006671D01*
X4970768Y3006531D01*
X4971470Y3006671D01*
X4972065Y3007068D01*
X4972463Y3007664D01*
X4972603Y3008366D01*
X4972463Y3009068D01*
X4972065Y3009664D01*
X4971470Y3010062D01*
X4970768Y3010201D01*
D02*
G37*
G36*
Y3014729D02*
X4970065Y3014589D01*
X4969470Y3014191D01*
X4969352Y3014015D01*
X4952230D01*
X4952112Y3014191D01*
X4951517Y3014589D01*
X4950814Y3014729D01*
X4950112Y3014589D01*
X4949517Y3014191D01*
X4949119Y3013596D01*
X4948979Y3012894D01*
X4949119Y3012191D01*
X4949517Y3011596D01*
X4950112Y3011198D01*
X4950814Y3011058D01*
X4951517Y3011198D01*
X4952112Y3011596D01*
X4952230Y3011772D01*
X4969352D01*
X4969470Y3011596D01*
X4970065Y3011198D01*
X4970768Y3011058D01*
X4971470Y3011198D01*
X4972065Y3011596D01*
X4972463Y3012191D01*
X4972603Y3012894D01*
X4972463Y3013596D01*
X4972065Y3014191D01*
X4971470Y3014589D01*
X4970768Y3014729D01*
D02*
G37*
G36*
X4873622Y3088253D02*
X4872920Y3088113D01*
X4872324Y3087715D01*
X4871926Y3087120D01*
X4871787Y3086417D01*
X4871926Y3085715D01*
X4872324Y3085120D01*
X4872501Y3085002D01*
Y3071752D01*
X4872501Y3071752D01*
X4872586Y3071323D01*
X4872829Y3070959D01*
X4891792Y3051996D01*
Y3023660D01*
X4891616Y3023542D01*
X4891218Y3022946D01*
X4891078Y3022244D01*
X4891218Y3021542D01*
X4891616Y3020946D01*
X4892211Y3020548D01*
X4892913Y3020409D01*
X4893616Y3020548D01*
X4894211Y3020946D01*
X4894609Y3021542D01*
X4894749Y3022244D01*
X4894609Y3022946D01*
X4894211Y3023542D01*
X4894035Y3023660D01*
Y3052461D01*
X4894035Y3052461D01*
X4893950Y3052890D01*
X4893707Y3053254D01*
X4874744Y3072216D01*
Y3085002D01*
X4874920Y3085120D01*
X4875318Y3085715D01*
X4875457Y3086417D01*
X4875318Y3087120D01*
X4874920Y3087715D01*
X4874324Y3088113D01*
X4873622Y3088253D01*
D02*
G37*
G36*
X4970768Y3023516D02*
X4970065Y3023376D01*
X4969470Y3022979D01*
X4969352Y3022802D01*
X4952230D01*
X4952112Y3022979D01*
X4951517Y3023376D01*
X4950814Y3023516D01*
X4950112Y3023376D01*
X4949517Y3022979D01*
X4949119Y3022383D01*
X4948979Y3021681D01*
X4949119Y3020978D01*
X4949517Y3020383D01*
X4950112Y3019985D01*
X4950814Y3019846D01*
X4951517Y3019985D01*
X4952112Y3020383D01*
X4952230Y3020559D01*
X4969352D01*
X4969470Y3020383D01*
X4970065Y3019985D01*
X4970768Y3019846D01*
X4971470Y3019985D01*
X4972065Y3020383D01*
X4972463Y3020978D01*
X4972603Y3021681D01*
X4972463Y3022383D01*
X4972065Y3022979D01*
X4971470Y3023376D01*
X4970768Y3023516D01*
D02*
G37*
G36*
X5056272Y3022315D02*
X5052557D01*
X5052637Y3021707D01*
X5053065Y3020675D01*
X5053745Y3019789D01*
X5054632Y3019108D01*
X5055664Y3018681D01*
X5056272Y3018601D01*
Y3022315D01*
D02*
G37*
G36*
X5060986D02*
X5057272D01*
Y3018601D01*
X5057879Y3018681D01*
X5058912Y3019108D01*
X5059798Y3019789D01*
X5060478Y3020675D01*
X5060906Y3021707D01*
X5060986Y3022315D01*
D02*
G37*
G36*
X5056372Y2978732D02*
X5052665D01*
Y2975747D01*
X5052953D01*
X5053855Y2975865D01*
X5054696Y2976214D01*
X5055418Y2976768D01*
X5055972Y2977489D01*
X5056320Y2978330D01*
X5056372Y2978732D01*
D02*
G37*
G36*
X5051665Y2982718D02*
X5051378D01*
X5050476Y2982599D01*
X5049635Y2982251D01*
X5048913Y2981697D01*
X5048359Y2980975D01*
X5048011Y2980134D01*
X5047958Y2979732D01*
X5051665D01*
Y2982718D01*
D02*
G37*
G36*
X4912795Y2970831D02*
X4912093Y2970692D01*
X4911497Y2970294D01*
X4911100Y2969698D01*
X4910960Y2968996D01*
X4911036Y2968613D01*
X4910554Y2968517D01*
Y2968517D01*
X4910156Y2969113D01*
X4909561Y2969510D01*
X4908858Y2969650D01*
X4908156Y2969510D01*
X4907560Y2969113D01*
X4907163Y2968517D01*
X4907023Y2967815D01*
X4907025Y2967805D01*
X4906563Y2967613D01*
X4906219Y2968128D01*
X4905624Y2968526D01*
X4904921Y2968666D01*
X4904219Y2968526D01*
X4903624Y2968128D01*
X4903226Y2967533D01*
X4903086Y2966831D01*
X4903226Y2966128D01*
X4903624Y2965533D01*
X4903800Y2965415D01*
Y2964621D01*
X4903276D01*
Y2955347D01*
X4906645D01*
Y2964621D01*
X4906043D01*
Y2965415D01*
X4906219Y2965533D01*
X4906617Y2966128D01*
X4906757Y2966831D01*
X4906755Y2966841D01*
X4907216Y2967032D01*
X4907560Y2966517D01*
X4907737Y2966400D01*
Y2964621D01*
X4907213D01*
Y2955347D01*
X4910582D01*
Y2964621D01*
X4909980D01*
Y2966400D01*
X4910156Y2966517D01*
X4910554Y2967113D01*
X4910693Y2967815D01*
X4910617Y2968198D01*
X4911100Y2968294D01*
Y2968294D01*
X4911497Y2967698D01*
X4911674Y2967581D01*
Y2964621D01*
X4911150D01*
Y2955347D01*
X4914519D01*
Y2964621D01*
X4913917D01*
Y2967581D01*
X4914093Y2967698D01*
X4914491Y2968294D01*
X4914631Y2968996D01*
X4914491Y2969698D01*
X4914093Y2970294D01*
X4913498Y2970692D01*
X4912795Y2970831D01*
D02*
G37*
G36*
X5051665Y2978732D02*
X5047958D01*
X5048011Y2978330D01*
X5048359Y2977489D01*
X5048913Y2976768D01*
X5049635Y2976214D01*
X5050476Y2975865D01*
X5051378Y2975747D01*
X5051665D01*
Y2978732D01*
D02*
G37*
G36*
X4857677Y2991993D02*
X4856975Y2991853D01*
X4856379Y2991455D01*
X4855981Y2990860D01*
X4855842Y2990158D01*
X4855883Y2989950D01*
X4847993Y2982060D01*
X4847786Y2982101D01*
X4847083Y2981961D01*
X4846488Y2981564D01*
X4846090Y2980968D01*
X4845950Y2980266D01*
X4846090Y2979563D01*
X4846488Y2978968D01*
X4847083Y2978570D01*
X4847786Y2978431D01*
X4848488Y2978570D01*
X4849083Y2978968D01*
X4849481Y2979563D01*
X4849621Y2980266D01*
X4849579Y2980474D01*
X4857470Y2988364D01*
X4857677Y2988322D01*
X4858379Y2988462D01*
X4858975Y2988860D01*
X4859373Y2989455D01*
X4859512Y2990158D01*
X4859373Y2990860D01*
X4858975Y2991455D01*
X4858379Y2991853D01*
X4857677Y2991993D01*
D02*
G37*
G36*
X4945374Y3001540D02*
X4944672Y3001400D01*
X4944076Y3001002D01*
X4943679Y3000407D01*
X4943539Y2999705D01*
X4943679Y2999002D01*
X4944076Y2998407D01*
X4944672Y2998009D01*
X4945374Y2997869D01*
X4945582Y2997911D01*
X4946505Y2996987D01*
X4946370Y2996822D01*
X4946370Y2996822D01*
X4946188Y2996601D01*
X4945781Y2996873D01*
X4945079Y2997012D01*
X4944376Y2996873D01*
X4943781Y2996475D01*
X4943383Y2995880D01*
X4943243Y2995177D01*
X4943383Y2994475D01*
X4943781Y2993879D01*
X4944376Y2993482D01*
X4945079Y2993342D01*
X4945287Y2993383D01*
X4965054Y2973616D01*
X4965054Y2973616D01*
X4965417Y2973373D01*
X4965417Y2973373D01*
X4965417Y2973373D01*
D01*
X4965417Y2973373D01*
X4965417Y2973373D01*
X4965846Y2973288D01*
X4965847Y2973288D01*
X5005770D01*
X5005887Y2973112D01*
X5006483Y2972714D01*
X5007185Y2972574D01*
X5007887Y2972714D01*
X5008483Y2973112D01*
X5008881Y2973707D01*
X5009020Y2974409D01*
X5008881Y2975112D01*
X5008483Y2975707D01*
X5007887Y2976105D01*
X5007185Y2976245D01*
X5006483Y2976105D01*
X5005887Y2975707D01*
X5005770Y2975531D01*
X4966311D01*
X4946873Y2994969D01*
X4946914Y2995177D01*
X4946774Y2995880D01*
X4946502Y2996287D01*
X4946724Y2996469D01*
X4946724Y2996469D01*
X4946889Y2996604D01*
X4964266Y2979227D01*
X4964266Y2979227D01*
X4964630Y2978983D01*
X4964630Y2978983D01*
X4964630Y2978983D01*
D01*
X4964630Y2978983D01*
X4964630Y2978983D01*
X4965059Y2978898D01*
X4965059Y2978898D01*
X5005770D01*
X5005887Y2978722D01*
X5006483Y2978324D01*
X5007185Y2978184D01*
X5007887Y2978324D01*
X5008483Y2978722D01*
X5008881Y2979317D01*
X5009020Y2980020D01*
X5008881Y2980722D01*
X5008483Y2981317D01*
X5007887Y2981715D01*
X5007185Y2981855D01*
X5006483Y2981715D01*
X5005887Y2981317D01*
X5005770Y2981141D01*
X4965524D01*
X4947168Y2999497D01*
X4947209Y2999705D01*
X4947070Y3000407D01*
X4946672Y3001002D01*
X4946076Y3001400D01*
X4945374Y3001540D01*
D02*
G37*
G36*
X5052953Y2982718D02*
X5052665D01*
Y2979732D01*
X5056372D01*
X5056320Y2980134D01*
X5055972Y2980975D01*
X5055418Y2981697D01*
X5054696Y2982251D01*
X5053855Y2982599D01*
X5052953Y2982718D01*
D02*
G37*
G36*
Y2990592D02*
X5051378D01*
X5050476Y2990473D01*
X5049635Y2990125D01*
X5048913Y2989571D01*
X5048359Y2988849D01*
X5048186Y2988432D01*
X5045669D01*
X5045162Y2988331D01*
X5044732Y2988044D01*
X4999845Y2943156D01*
X4862979D01*
Y2955347D01*
X4863338D01*
Y2964621D01*
X4859969D01*
Y2955347D01*
X4860328D01*
Y2943156D01*
X4859042D01*
Y2955347D01*
X4859401D01*
Y2964621D01*
X4856033D01*
Y2955347D01*
X4856391D01*
Y2941831D01*
X4856492Y2941323D01*
X4856779Y2940894D01*
X4857209Y2940606D01*
X4857717Y2940505D01*
X5000394D01*
X5000901Y2940606D01*
X5001331Y2940894D01*
X5001331Y2940893D01*
X5001331Y2940894D01*
X5046218Y2985781D01*
X5048186D01*
X5048359Y2985363D01*
X5048913Y2984641D01*
X5049635Y2984088D01*
X5050476Y2983739D01*
X5051378Y2983621D01*
X5052953D01*
X5053855Y2983739D01*
X5054696Y2984088D01*
X5055418Y2984641D01*
X5055972Y2985363D01*
X5056320Y2986204D01*
X5056438Y2987106D01*
X5056320Y2988008D01*
X5055972Y2988849D01*
X5055418Y2989571D01*
X5054696Y2990125D01*
X5053855Y2990473D01*
X5052953Y2990592D01*
D02*
G37*
G36*
X5056272Y3027029D02*
X5055664Y3026949D01*
X5054632Y3026521D01*
X5053745Y3025841D01*
X5053065Y3024955D01*
X5052637Y3023923D01*
X5052557Y3023315D01*
X5056272D01*
Y3027029D01*
D02*
G37*
G36*
X5060986Y3042315D02*
X5057272D01*
Y3038601D01*
X5057879Y3038681D01*
X5058912Y3039108D01*
X5059798Y3039789D01*
X5060478Y3040675D01*
X5060906Y3041707D01*
X5060986Y3042315D01*
D02*
G37*
G36*
X5056272Y3047029D02*
X5055664Y3046949D01*
X5054632Y3046522D01*
X5053745Y3045841D01*
X5053065Y3044955D01*
X5052637Y3043923D01*
X5052557Y3043315D01*
X5056272D01*
Y3047029D01*
D02*
G37*
G36*
X5046772Y3047095D02*
X5045664Y3046949D01*
X5044632Y3046522D01*
X5043745Y3045841D01*
X5043065Y3044955D01*
X5042638Y3043923D01*
X5042492Y3042815D01*
X5042638Y3041707D01*
X5043065Y3040675D01*
X5043745Y3039789D01*
X5044632Y3039108D01*
X5045664Y3038681D01*
X5046772Y3038535D01*
X5047879Y3038681D01*
X5048912Y3039108D01*
X5049798Y3039789D01*
X5050478Y3040675D01*
X5050906Y3041707D01*
X5051052Y3042815D01*
X5050906Y3043923D01*
X5050478Y3044955D01*
X5049798Y3045841D01*
X5048912Y3046522D01*
X5047879Y3046949D01*
X5046772Y3047095D01*
D02*
G37*
G36*
X5056272Y3042315D02*
X5052557D01*
X5052637Y3041707D01*
X5053065Y3040675D01*
X5053745Y3039789D01*
X5054632Y3039108D01*
X5055664Y3038681D01*
X5056272Y3038601D01*
Y3042315D01*
D02*
G37*
G36*
Y3052315D02*
X5052557D01*
X5052637Y3051707D01*
X5053065Y3050675D01*
X5053745Y3049789D01*
X5054632Y3049108D01*
X5055664Y3048681D01*
X5056272Y3048601D01*
Y3052315D01*
D02*
G37*
G36*
X5060986D02*
X5057272D01*
Y3048601D01*
X5057879Y3048681D01*
X5058912Y3049108D01*
X5059798Y3049789D01*
X5060478Y3050675D01*
X5060906Y3051707D01*
X5060986Y3052315D01*
D02*
G37*
G36*
X5057272Y3047029D02*
Y3043315D01*
X5060986D01*
X5060906Y3043923D01*
X5060478Y3044955D01*
X5059798Y3045841D01*
X5058912Y3046522D01*
X5057879Y3046949D01*
X5057272Y3047029D01*
D02*
G37*
G36*
X5046772Y3057095D02*
X5045664Y3056949D01*
X5044632Y3056521D01*
X5043745Y3055841D01*
X5043065Y3054955D01*
X5042638Y3053923D01*
X5042492Y3052815D01*
X5042638Y3051707D01*
X5043065Y3050675D01*
X5043745Y3049789D01*
X5044632Y3049108D01*
X5045664Y3048681D01*
X5046772Y3048535D01*
X5047879Y3048681D01*
X5048912Y3049108D01*
X5049798Y3049789D01*
X5050478Y3050675D01*
X5050906Y3051707D01*
X5051052Y3052815D01*
X5050906Y3053923D01*
X5050478Y3054955D01*
X5049798Y3055841D01*
X5048912Y3056521D01*
X5047879Y3056949D01*
X5046772Y3057095D01*
D02*
G37*
G36*
Y3037095D02*
X5045664Y3036949D01*
X5044632Y3036522D01*
X5043745Y3035841D01*
X5043065Y3034955D01*
X5042638Y3033923D01*
X5042492Y3032815D01*
X5042638Y3031707D01*
X5043065Y3030675D01*
X5043745Y3029789D01*
X5044632Y3029108D01*
X5045664Y3028681D01*
X5046772Y3028535D01*
X5047879Y3028681D01*
X5048912Y3029108D01*
X5049798Y3029789D01*
X5050478Y3030675D01*
X5050906Y3031707D01*
X5051052Y3032815D01*
X5050906Y3033923D01*
X5050478Y3034955D01*
X5049798Y3035841D01*
X5048912Y3036522D01*
X5047879Y3036949D01*
X5046772Y3037095D01*
D02*
G37*
G36*
X5056272Y3032315D02*
X5052557D01*
X5052637Y3031707D01*
X5053065Y3030675D01*
X5053745Y3029789D01*
X5054632Y3029108D01*
X5055664Y3028681D01*
X5056272Y3028601D01*
Y3032315D01*
D02*
G37*
G36*
X5057272Y3027029D02*
Y3023315D01*
X5060986D01*
X5060906Y3023923D01*
X5060478Y3024955D01*
X5059798Y3025841D01*
X5058912Y3026521D01*
X5057879Y3026949D01*
X5057272Y3027029D01*
D02*
G37*
G36*
X4916536Y3067190D02*
X4915833Y3067050D01*
X4915238Y3066652D01*
X4914840Y3066057D01*
X4914700Y3065354D01*
X4914840Y3064652D01*
X4915238Y3064057D01*
X4915833Y3063659D01*
X4916536Y3063519D01*
X4917238Y3063659D01*
X4917833Y3064057D01*
X4917951Y3064233D01*
X4919811D01*
X4958853Y3025191D01*
X4958853Y3025191D01*
X4959216Y3024948D01*
X4959216Y3024948D01*
X4959217Y3024948D01*
D01*
X4959217Y3024948D01*
X4959217Y3024948D01*
X4959646Y3024863D01*
X4959646Y3024863D01*
X4969549D01*
X4969667Y3024686D01*
X4970262Y3024289D01*
X4970964Y3024149D01*
X4971667Y3024289D01*
X4972262Y3024686D01*
X4972660Y3025282D01*
X4972800Y3025984D01*
X4972660Y3026687D01*
X4972262Y3027282D01*
X4971667Y3027680D01*
X4970964Y3027819D01*
X4970262Y3027680D01*
X4969667Y3027282D01*
X4969549Y3027106D01*
X4960110D01*
X4921069Y3066147D01*
X4920705Y3066390D01*
X4920275Y3066476D01*
X4920275Y3066476D01*
X4917951D01*
X4917833Y3066652D01*
X4917238Y3067050D01*
X4916536Y3067190D01*
D02*
G37*
G36*
X5057272Y3037029D02*
Y3033315D01*
X5060986D01*
X5060906Y3033923D01*
X5060478Y3034955D01*
X5059798Y3035841D01*
X5058912Y3036522D01*
X5057879Y3036949D01*
X5057272Y3037029D01*
D02*
G37*
G36*
X4852559Y3054690D02*
X4851857Y3054550D01*
X4851261Y3054152D01*
X4850864Y3053557D01*
X4850724Y3052854D01*
X4850864Y3052152D01*
X4851261Y3051557D01*
X4851437Y3051439D01*
Y3040884D01*
X4851261Y3040766D01*
X4850864Y3040171D01*
X4850724Y3039469D01*
X4850864Y3038766D01*
X4851261Y3038171D01*
X4851287Y3037912D01*
X4850669Y3037294D01*
X4850228Y3037530D01*
X4850359Y3038189D01*
X4850219Y3038891D01*
X4849821Y3039487D01*
X4849645Y3039604D01*
Y3049962D01*
X4849821Y3050080D01*
X4850219Y3050676D01*
X4850359Y3051378D01*
X4850219Y3052080D01*
X4849821Y3052676D01*
X4849226Y3053074D01*
X4848524Y3053213D01*
X4847821Y3053074D01*
X4847226Y3052676D01*
X4846828Y3052080D01*
X4846688Y3051378D01*
X4846053Y3051252D01*
X4845978Y3051302D01*
X4845275Y3051442D01*
X4844573Y3051302D01*
X4843978Y3050904D01*
X4843580Y3050309D01*
X4843440Y3049606D01*
X4842843Y3049487D01*
X4842632Y3049629D01*
X4841929Y3049768D01*
X4841227Y3049629D01*
X4840631Y3049231D01*
X4840234Y3048635D01*
X4840094Y3047933D01*
X4840234Y3047231D01*
X4840631Y3046635D01*
X4840808Y3046518D01*
Y3034683D01*
X4840631Y3034565D01*
X4840234Y3033970D01*
X4840094Y3033268D01*
X4840234Y3032565D01*
X4840631Y3031970D01*
X4841227Y3031572D01*
X4841929Y3031432D01*
X4842632Y3031572D01*
X4843227Y3031970D01*
X4843625Y3032565D01*
X4843764Y3033268D01*
X4843625Y3033970D01*
X4843227Y3034565D01*
X4843051Y3034683D01*
Y3035235D01*
X4843548Y3035284D01*
X4843580Y3035125D01*
X4843978Y3034529D01*
X4844573Y3034131D01*
X4845275Y3033991D01*
X4845978Y3034131D01*
X4846573Y3034529D01*
X4846971Y3035125D01*
X4847111Y3035827D01*
X4846976Y3036502D01*
X4847392Y3036780D01*
X4847821Y3036493D01*
X4848524Y3036354D01*
X4849183Y3036485D01*
X4849418Y3036044D01*
X4842563Y3029189D01*
X4842520Y3029198D01*
X4841817Y3029058D01*
X4841222Y3028660D01*
X4840824Y3028065D01*
X4840685Y3027362D01*
X4840824Y3026660D01*
X4841222Y3026064D01*
X4841817Y3025667D01*
X4842520Y3025527D01*
X4843222Y3025667D01*
X4843818Y3026064D01*
X4844215Y3026660D01*
X4844355Y3027362D01*
X4844281Y3027734D01*
X4853352Y3036805D01*
X4853352Y3036805D01*
X4853595Y3037169D01*
X4853595Y3037169D01*
X4853595Y3037169D01*
X4853680Y3037598D01*
X4853680Y3037598D01*
Y3038053D01*
X4853857Y3038171D01*
X4854255Y3038766D01*
X4854394Y3039469D01*
X4854255Y3040171D01*
X4853857Y3040766D01*
X4853680Y3040884D01*
Y3051439D01*
X4853857Y3051557D01*
X4854255Y3052152D01*
X4854394Y3052854D01*
X4854255Y3053557D01*
X4853857Y3054152D01*
X4853262Y3054550D01*
X4852559Y3054690D01*
D02*
G37*
G36*
X5060986Y3032315D02*
X5057272D01*
Y3028601D01*
X5057879Y3028681D01*
X5058912Y3029108D01*
X5059798Y3029789D01*
X5060478Y3030675D01*
X5060906Y3031707D01*
X5060986Y3032315D01*
D02*
G37*
G36*
X5056272Y3037029D02*
X5055664Y3036949D01*
X5054632Y3036522D01*
X5053745Y3035841D01*
X5053065Y3034955D01*
X5052637Y3033923D01*
X5052557Y3033315D01*
X5056272D01*
Y3037029D01*
D02*
G37*
%LPD*%
D24*
X4832775Y2919980D02*
Y2939075D01*
X4892913Y3022244D02*
Y3052461D01*
X4873622Y3071752D02*
X4892913Y3052461D01*
X4873622Y3071752D02*
Y3086417D01*
X4889390Y3103312D02*
X4911944D01*
X4879036Y3092957D02*
X4889390Y3103312D01*
X4879036Y3077696D02*
Y3092957D01*
X4889468Y3105512D02*
X4903149D01*
X4877535Y3093579D02*
X4889468Y3105512D01*
X4877535Y3075811D02*
Y3093579D01*
Y3075811D02*
X4898327Y3055020D01*
X4879036Y3077696D02*
X4901712Y3055020D01*
X4902165D01*
X4964016Y2959984D02*
Y2966484D01*
X4960146Y2960051D02*
Y2968984D01*
X4956146Y2959988D02*
Y2971484D01*
X4952146Y2960043D02*
Y2973984D01*
X4948268Y2959984D02*
Y2976484D01*
X4944331Y2959984D02*
Y2979193D01*
X4904921Y2960024D02*
Y2966831D01*
X4912795Y2960024D02*
Y2968996D01*
X4908858Y2960024D02*
Y2967815D01*
X4928583Y2959984D02*
Y2981594D01*
X4932520Y2959984D02*
Y2983858D01*
X4936457Y2959984D02*
Y2986909D01*
X4940354Y2960024D02*
Y2988779D01*
X4916772Y2959984D02*
Y3052421D01*
X4841929Y3033268D02*
Y3047933D01*
X4845275Y3035827D02*
Y3049606D01*
X4848524Y3037992D02*
Y3051378D01*
X4847786Y2980266D02*
X4857677Y2990158D01*
X4967953Y2959984D02*
Y2968827D01*
X4971949Y2960044D02*
Y2966484D01*
X4975827Y2959984D02*
Y2968984D01*
X4979764Y2959984D02*
Y2966484D01*
X4983563Y2960122D02*
Y2968984D01*
X4914665Y3054528D02*
X4916772Y3052421D01*
X4918701Y2966634D02*
Y3054528D01*
Y2966634D02*
X4920709Y2964626D01*
Y2959984D02*
Y2964626D01*
X4924646Y2959984D02*
Y2964331D01*
X4950814Y3021681D02*
X4970768D01*
X4950814Y3017323D02*
X4970768D01*
X4950814Y3012894D02*
X4970768D01*
X4950814Y3008366D02*
X4970768D01*
X5021063Y3072441D02*
X5046398D01*
X4954850Y3043575D02*
X4980583D01*
X5019823Y3082815D02*
X5046772D01*
Y3102815D02*
X5052047Y3097539D01*
X5060532D01*
X5046772Y3092815D02*
X5051693Y3087894D01*
X5059843D01*
X5046772Y3082815D02*
X5051831Y3077756D01*
X5059130D01*
X4852559Y3037598D02*
Y3039469D01*
Y3052854D01*
X4842323Y3027362D02*
X4842520D01*
X4842323D02*
X4852559Y3037598D01*
X5060532Y3097539D02*
X5072343Y3085728D01*
X5059843Y3087894D02*
X5069094Y3078642D01*
X5072343Y2969587D02*
Y3085728D01*
X5069094Y2971850D02*
Y3078642D01*
X5069587Y2966831D02*
X5072343Y2969587D01*
X5063779Y2966831D02*
X5069587D01*
X5067225Y2969980D02*
X5069094Y2971850D01*
X5059130Y3077756D02*
X5066020Y3070866D01*
Y2976575D02*
Y3070866D01*
X5063386Y2973228D02*
X5063583Y2973031D01*
X5063386Y2973228D02*
Y3064370D01*
X5000098Y2890846D02*
X5000197D01*
X4945079Y2995177D02*
X4965846Y2974409D01*
X5007185D01*
X4965059Y2980020D02*
X5007185D01*
X4945374Y2999114D02*
Y3000098D01*
Y2999705D02*
X4965059Y2980020D01*
X4920669Y2968307D02*
X4924646Y2964331D01*
X4920669Y2968307D02*
Y3052461D01*
X4922736Y3054528D01*
X4895177Y3082382D02*
X4935827D01*
X4959646Y3025984D02*
X4970964D01*
X4920275Y3065354D02*
X4959646Y3025984D01*
X4916536Y3065354D02*
X4920275D01*
X4913681Y3069193D02*
X4920866D01*
X4911713Y3067224D02*
X4913681Y3069193D01*
X4905709Y3067224D02*
X4911713D01*
X4881594Y3091339D02*
X4905709Y3067224D01*
X4900689Y3078740D02*
X4908464Y3070965D01*
X4909843D01*
X4829036Y2807087D02*
X4898819D01*
X4999902Y2873524D02*
X5000197D01*
X5011811Y2885138D01*
X5000098Y2879298D02*
X5000262D01*
X5011909Y2890945D01*
X5000098Y2885072D02*
X5011778Y2896752D01*
X5000098Y2890846D02*
X5000197D01*
X5011909Y2902559D01*
X4999902Y2873327D02*
Y2873524D01*
X4980583Y3043575D02*
X5019823Y3082815D01*
X5046772Y3072815D02*
X5051772Y3067815D01*
X5059941D01*
X5063386Y3064370D01*
D25*
X5000394Y2941831D02*
X5045669Y2987106D01*
X5052165D01*
X4861654Y2941831D02*
Y2959984D01*
Y2941831D02*
X5000394D01*
X4857717D02*
Y2959984D01*
Y2941831D02*
X4861654D01*
D26*
X4881339Y2952126D02*
Y2959984D01*
X4877402Y2950098D02*
Y2959984D01*
X4873465Y2952224D02*
Y2959984D01*
X4869528Y2950098D02*
Y2959984D01*
X4865591Y2952008D02*
Y2959984D01*
X4897087D02*
Y2980020D01*
X4893150Y2959984D02*
Y2982382D01*
X4889213Y2959984D02*
Y2984547D01*
X4885276Y2959984D02*
Y2986122D01*
D28*
X4967398Y3142646D02*
D03*
X4977398D02*
D03*
X4987398D02*
D03*
X4864272Y3142646D02*
D03*
X4874272D02*
D03*
X4884272D02*
D03*
D29*
X4992909Y3176661D02*
D03*
X4961886D02*
D03*
X4889783Y3176661D02*
D03*
X4858760D02*
D03*
D30*
X5056771Y3022815D02*
D03*
X5046772D02*
D03*
X5056771Y3032815D02*
D03*
X5046772D02*
D03*
X5056771Y3042815D02*
D03*
X5046772D02*
D03*
X5056771Y3052815D02*
D03*
X5046772D02*
D03*
X5056771Y3062815D02*
D03*
X5046772D02*
D03*
X5056771Y3072815D02*
D03*
X5046772D02*
D03*
X5056771Y3082815D02*
D03*
X5046772D02*
D03*
X5056771Y3092815D02*
D03*
X5046772D02*
D03*
X5056771Y3102815D02*
D03*
X5046772D02*
D03*
X5056771Y3112815D02*
D03*
D31*
X5046772D02*
D03*
D32*
X5052165Y2963484D02*
D03*
Y2971358D02*
D03*
Y2979232D02*
D03*
Y2987106D02*
D03*
D33*
X4815591Y2824748D02*
D03*
Y3127898D02*
D03*
X5033701D02*
D03*
D34*
X4813681Y3162008D02*
D03*
X5053445D02*
D03*
Y2789370D02*
D03*
X4813681D02*
D03*
D35*
X4952165Y2980020D02*
D03*
X4992225Y2990551D02*
D03*
X4882972Y3109547D02*
D03*
X4940354Y3107776D02*
D03*
X4932677Y3132480D02*
D03*
X4914665Y3141929D02*
D03*
X4796555Y2943307D02*
D03*
X4795768Y2981201D02*
D03*
X4796161Y3025394D02*
D03*
Y3061417D02*
D03*
X4845079Y3123425D02*
D03*
X4846457Y3095472D02*
D03*
X4825295Y3105709D02*
D03*
X4802460Y3101279D02*
D03*
X4804134Y3138386D02*
D03*
X4838779Y3150098D02*
D03*
X4865256Y3161221D02*
D03*
X4906496Y3163779D02*
D03*
X4944094Y3164469D02*
D03*
X5022047Y3167421D02*
D03*
X5020275Y3109252D02*
D03*
X4990847Y3118504D02*
D03*
X4963189Y3068898D02*
D03*
X5020866Y3048721D02*
D03*
X5034351Y3035335D02*
D03*
X5025394Y2798819D02*
D03*
X4995669Y2794784D02*
D03*
X5040453Y2829331D02*
D03*
X5010040Y2818012D02*
D03*
X5027165Y2848524D02*
D03*
X5053248Y2856988D02*
D03*
X5047933Y2882382D02*
D03*
X5051968Y2909547D02*
D03*
X5031988Y2891339D02*
D03*
X5020275Y2867716D02*
D03*
X5005413Y2837992D02*
D03*
X4985630Y2816535D02*
D03*
X4964665Y2795276D02*
D03*
X4945669Y2776772D02*
D03*
X4973622Y2773228D02*
D03*
X4999705Y2774508D02*
D03*
X5029725Y2776279D02*
D03*
X5052559Y2810925D02*
D03*
X5066831Y2836713D02*
D03*
X5068406Y2886713D02*
D03*
X5067126Y2920571D02*
D03*
X5020571Y2923917D02*
D03*
X5039468Y2946260D02*
D03*
X5022736Y2952559D02*
D03*
X4997638Y2903937D02*
D03*
Y2927165D02*
D03*
X4982874Y2902362D02*
D03*
X4967815Y2913287D02*
D03*
X4914665Y2921555D02*
D03*
X4926870Y2899016D02*
D03*
X4904036Y2902461D02*
D03*
X4894193Y2926673D02*
D03*
X4913583Y2951870D02*
D03*
X4924803Y2932776D02*
D03*
X4948425Y2913681D02*
D03*
X4947047Y2890846D02*
D03*
X4935040Y2875492D02*
D03*
X4920079Y2860138D02*
D03*
X4993012Y2856102D02*
D03*
X4972540Y2833268D02*
D03*
X4953445Y2815551D02*
D03*
X4934055Y2796457D02*
D03*
X4886417Y2818799D02*
D03*
X4860925Y2820177D02*
D03*
X4875098Y2785925D02*
D03*
X4869291Y2799213D02*
D03*
X4883464Y2801181D02*
D03*
X4873425Y2829331D02*
D03*
X4879725Y2887402D02*
D03*
X4887598Y2871457D02*
D03*
X4843898Y2855020D02*
D03*
X4864665Y2871752D02*
D03*
X4844193Y2883169D02*
D03*
X4863091Y2896555D02*
D03*
X4843209Y2913583D02*
D03*
X4835925Y2773327D02*
D03*
X4820275Y2808268D02*
D03*
X4799902Y2834350D02*
D03*
X4819685Y2854724D02*
D03*
X4801083Y2877559D02*
D03*
X4817913Y2895079D02*
D03*
X4801181Y2917618D02*
D03*
X4820374Y2963386D02*
D03*
X4824606Y3002461D02*
D03*
X4864764Y3010433D02*
D03*
X4875984Y2992716D02*
D03*
X4938091Y3006102D02*
D03*
X4877415Y2856022D02*
D03*
X4871821D02*
D03*
X4841032Y2841622D02*
D03*
Y2835886D02*
D03*
Y2830150D02*
D03*
Y2824413D02*
D03*
Y2818677D02*
D03*
X4859063Y2801468D02*
D03*
Y2795732D02*
D03*
Y2789996D02*
D03*
Y2784260D02*
D03*
X4860632Y2856022D02*
D03*
X4855037D02*
D03*
X4988287Y3060236D02*
D03*
X4832775Y2919980D02*
D03*
Y2939075D02*
D03*
X4961417Y3125984D02*
D03*
X4858169Y3125787D02*
D03*
X4873622Y3086417D02*
D03*
X4912106Y3103150D02*
D03*
X4903149Y3105512D02*
D03*
X4902165Y3055020D02*
D03*
X4898327D02*
D03*
X4964016Y2966484D02*
D03*
X4960146Y2968984D02*
D03*
X4956146Y2971484D02*
D03*
X4952146Y2973984D02*
D03*
X4948228Y2976476D02*
D03*
X4944331Y2979193D02*
D03*
X4848524Y3051378D02*
D03*
X4845275Y3049606D02*
D03*
X4841929Y3047933D02*
D03*
X4912795Y2968996D02*
D03*
X4908858Y2967815D02*
D03*
X4928583Y2981594D02*
D03*
X4932520Y2983858D02*
D03*
X4940354Y2988779D02*
D03*
X4936516Y2986221D02*
D03*
X4904921Y2966831D02*
D03*
X4852559Y3052854D02*
D03*
X4841929Y3033268D02*
D03*
X4845275Y3035827D02*
D03*
X4852559Y3039469D02*
D03*
X4848524Y3038189D02*
D03*
X4865591Y2952008D02*
D03*
X4869528Y2950098D02*
D03*
X4873465Y2952224D02*
D03*
X4877402Y2950098D02*
D03*
X4881339Y2952126D02*
D03*
X4885276Y2986122D02*
D03*
X4889213Y2984547D02*
D03*
X4893150Y2982382D02*
D03*
X4897087Y2980020D02*
D03*
X4857677Y2990158D02*
D03*
X4847786Y2980266D02*
D03*
X4975827Y2968984D02*
D03*
X4979764Y2966484D02*
D03*
X4968110Y2968984D02*
D03*
X4971949Y2966484D02*
D03*
X4983563Y2968984D02*
D03*
X4950814Y3012894D02*
D03*
Y3017323D02*
D03*
Y3008366D02*
D03*
Y3021681D02*
D03*
X4970768Y3017323D02*
D03*
Y3008366D02*
D03*
X4918701Y3054528D02*
D03*
X4914665D02*
D03*
X4922736D02*
D03*
X4970768Y3021681D02*
D03*
Y3012894D02*
D03*
X5021063Y3072441D02*
D03*
X4954850Y3043575D02*
D03*
X4935827Y3082382D02*
D03*
X4892913Y3022244D02*
D03*
X4842520Y3027362D02*
D03*
X5066020Y2976575D02*
D03*
X5063779Y2966831D02*
D03*
X5067225Y2969980D02*
D03*
X5063583Y2973031D02*
D03*
X5000098Y2890846D02*
D03*
Y2885072D02*
D03*
X5011909Y2890945D02*
D03*
Y2896752D02*
D03*
Y2902559D02*
D03*
X5007185Y2980020D02*
D03*
Y2974409D02*
D03*
X4945079Y2995177D02*
D03*
X4945374Y2999705D02*
D03*
X4909843Y3070965D02*
D03*
X4895177Y3082382D02*
D03*
X4900689Y3078740D02*
D03*
X4970964Y3025984D02*
D03*
X4916536Y3065354D02*
D03*
X4920866Y3069193D02*
D03*
X4881594Y3091339D02*
D03*
X4898819Y2807284D02*
D03*
X4901968Y3046358D02*
D03*
X4912500Y3046555D02*
D03*
X4901476Y3032382D02*
D03*
X4912697Y3032087D02*
D03*
X4906102Y3021752D02*
D03*
X4867618Y3057480D02*
D03*
X4875295Y3065059D02*
D03*
X4888386Y3071457D02*
D03*
X4811516Y3047736D02*
D03*
X4811614Y3033366D02*
D03*
X4889764Y3002264D02*
D03*
X4867618Y3024606D02*
D03*
X4926870Y2997835D02*
D03*
X4927165Y2987402D02*
D03*
X4982480Y2934842D02*
D03*
X4966634Y2935236D02*
D03*
X4950787Y2934449D02*
D03*
X4857087Y2773819D02*
D03*
X4866339Y2773721D02*
D03*
X4877067Y2773917D02*
D03*
X4888287Y2773622D02*
D03*
X4897835Y2773524D02*
D03*
X4927854Y2772342D02*
D03*
X4866240Y2840846D02*
D03*
X4883071Y2840748D02*
D03*
X4888878Y2863583D02*
D03*
X4899016Y2863681D02*
D03*
X5044685Y2978937D02*
D03*
X5026575Y2981201D02*
D03*
X5011909Y2989075D02*
D03*
X4988976Y3029528D02*
D03*
X4889862Y3018209D02*
D03*
X4940945Y3069390D02*
D03*
X4972835Y3100098D02*
D03*
X4987008Y3133169D02*
D03*
X4884055Y3132972D02*
D03*
X5011811Y2885138D02*
D03*
X5000098Y2879298D02*
D03*
X4899705Y2784842D02*
D03*
X5061516Y3107480D02*
D03*
X5051870Y3016437D02*
D03*
X4999902Y2873327D02*
D03*
X4915649Y3076575D02*
D03*
X4993504Y3004035D02*
D03*
X4993406Y3020177D02*
D03*
X5059941Y2978937D02*
D03*
X4829036Y2807087D02*
D03*
X4841043Y2796358D02*
D03*
X4850787Y2933071D02*
D03*
D36*
X5002559Y2969390D02*
D03*
D37*
X4853780Y2959984D02*
D03*
X4857717D02*
D03*
X4861654D02*
D03*
X4865591D02*
D03*
X4869528D02*
D03*
X4873465D02*
D03*
X4877402D02*
D03*
X4881339D02*
D03*
X4885276D02*
D03*
X4889213D02*
D03*
X4893150D02*
D03*
X4897087D02*
D03*
X4901024D02*
D03*
X4904961D02*
D03*
X4908898D02*
D03*
X4912835D02*
D03*
X4916772D02*
D03*
X4920709D02*
D03*
X4924646D02*
D03*
X4928583D02*
D03*
X4932520D02*
D03*
X4936457D02*
D03*
X4940394D02*
D03*
X4944331D02*
D03*
X4948268D02*
D03*
X4952205D02*
D03*
X4956142D02*
D03*
X4960079D02*
D03*
X4964016D02*
D03*
X4967953D02*
D03*
X4971890D02*
D03*
X4975827D02*
D03*
X4979764D02*
D03*
X4983701D02*
D03*
X4987638D02*
D03*
X4991575D02*
D03*
X4995512D02*
D03*
D38*
X4991575D02*
Y2969193D01*
X4987638Y2959984D02*
Y2969390D01*
X5002559D01*
M02*
