%FSLAX25Y25*%
%MOIN*%
G70*
G01*
G75*
G04 Layer_Color=8388736*
%ADD10R,0.07874X0.21654*%
%ADD11R,0.03543X0.02362*%
%ADD12R,0.02362X0.03543*%
%ADD13R,0.02362X0.01969*%
%ADD14R,0.05118X0.02756*%
%ADD15R,0.01181X0.04724*%
%ADD16R,0.04724X0.01181*%
%ADD17R,0.11811X0.06299*%
%ADD18R,0.24410X0.22835*%
%ADD19R,0.02835X0.02835*%
%ADD20R,0.02835X0.02835*%
%ADD21R,0.02756X0.05118*%
%ADD22R,0.05512X0.08268*%
%ADD23C,0.01000*%
%ADD24C,0.00800*%
%ADD25R,0.05906X0.05906*%
%ADD26C,0.05906*%
%ADD27R,0.05906X0.05906*%
%ADD28C,0.02200*%
%ADD29C,0.00787*%
%ADD30R,0.08674X0.22453*%
%ADD31R,0.04343X0.03162*%
%ADD32R,0.03162X0.04343*%
%ADD33R,0.03162X0.02769*%
%ADD34R,0.05918X0.03556*%
%ADD35R,0.01981X0.05524*%
%ADD36R,0.05524X0.01981*%
%ADD37R,0.12611X0.07099*%
%ADD38R,0.25210X0.23635*%
%ADD39R,0.03635X0.03635*%
%ADD40R,0.03635X0.03635*%
%ADD41R,0.03556X0.05918*%
%ADD42R,0.06312X0.09068*%
%ADD43R,0.06706X0.06706*%
%ADD44C,0.06706*%
%ADD45R,0.06706X0.06706*%
%ADD46C,0.03000*%
D30*
X848106Y1105299D02*
D03*
X848500Y1142701D02*
D03*
D31*
X1036500Y1161453D02*
D03*
Y1155547D02*
D03*
X921000Y1108047D02*
D03*
Y1113953D02*
D03*
X955500Y1176547D02*
D03*
Y1182453D02*
D03*
X874500Y1163453D02*
D03*
Y1157547D02*
D03*
X894500Y1177453D02*
D03*
Y1171547D02*
D03*
X899000Y1108047D02*
D03*
Y1113953D02*
D03*
X880000Y1163453D02*
D03*
Y1157547D02*
D03*
X927000Y1108047D02*
D03*
Y1113953D02*
D03*
X1013500Y1196547D02*
D03*
Y1202453D02*
D03*
D32*
X944953Y1153500D02*
D03*
X939047D02*
D03*
X873047Y1129500D02*
D03*
X878953D02*
D03*
X944953Y1159500D02*
D03*
X939047D02*
D03*
X873047Y1135000D02*
D03*
X878953D02*
D03*
X967953Y1248000D02*
D03*
X962047D02*
D03*
X1047953Y1276500D02*
D03*
X1042047D02*
D03*
X962047Y1259000D02*
D03*
X967953D02*
D03*
X962047Y1253500D02*
D03*
X967953D02*
D03*
X1047953Y1271000D02*
D03*
X1042047D02*
D03*
X985047Y1143500D02*
D03*
X990953D02*
D03*
X984047Y1163500D02*
D03*
X989953D02*
D03*
D33*
X848500Y1156531D02*
D03*
Y1160469D02*
D03*
X848000Y1091469D02*
D03*
Y1087532D02*
D03*
D34*
X891000Y1106760D02*
D03*
Y1114240D02*
D03*
X856000Y1211740D02*
D03*
Y1204260D02*
D03*
D35*
X895374Y1165374D02*
D03*
X897343D02*
D03*
X899311D02*
D03*
X901280D02*
D03*
X903248D02*
D03*
X905217D02*
D03*
X907185D02*
D03*
X909154D02*
D03*
X911122D02*
D03*
X913091D02*
D03*
X915059D02*
D03*
X917028D02*
D03*
X918996D02*
D03*
X920965D02*
D03*
X922933D02*
D03*
X924902D02*
D03*
Y1120098D02*
D03*
X922933D02*
D03*
X920965D02*
D03*
X918996D02*
D03*
X917028D02*
D03*
X915059D02*
D03*
X913091D02*
D03*
X911122D02*
D03*
X909154D02*
D03*
X907185D02*
D03*
X905217D02*
D03*
X903248D02*
D03*
X901280D02*
D03*
X899311D02*
D03*
X897343D02*
D03*
X895374D02*
D03*
D36*
X932776Y1157500D02*
D03*
Y1155532D02*
D03*
Y1153563D02*
D03*
Y1151595D02*
D03*
Y1149626D02*
D03*
Y1147658D02*
D03*
Y1145689D02*
D03*
Y1143721D02*
D03*
Y1141752D02*
D03*
Y1139784D02*
D03*
Y1137815D02*
D03*
Y1135847D02*
D03*
Y1133878D02*
D03*
Y1131910D02*
D03*
Y1129941D02*
D03*
Y1127973D02*
D03*
X887500D02*
D03*
Y1129941D02*
D03*
Y1131910D02*
D03*
Y1133878D02*
D03*
Y1135847D02*
D03*
Y1137815D02*
D03*
Y1139784D02*
D03*
Y1141752D02*
D03*
Y1143721D02*
D03*
Y1145689D02*
D03*
Y1147658D02*
D03*
Y1149626D02*
D03*
Y1151595D02*
D03*
Y1153563D02*
D03*
Y1155532D02*
D03*
Y1157500D02*
D03*
D37*
X868000Y1200008D02*
D03*
Y1218000D02*
D03*
D38*
X896268Y1209004D02*
D03*
D39*
X1053000Y1259002D02*
D03*
Y1253407D02*
D03*
Y1247813D02*
D03*
Y1242219D02*
D03*
Y1236624D02*
D03*
Y1231030D02*
D03*
Y1225435D02*
D03*
Y1219841D02*
D03*
Y1214246D02*
D03*
X974166D02*
D03*
Y1219841D02*
D03*
Y1225435D02*
D03*
Y1231030D02*
D03*
Y1236624D02*
D03*
Y1242219D02*
D03*
Y1247813D02*
D03*
Y1253407D02*
D03*
Y1259002D02*
D03*
D40*
X1048000Y1209248D02*
D03*
X1042264D02*
D03*
X1036528D02*
D03*
X1030791D02*
D03*
X1025055D02*
D03*
X1019319D02*
D03*
X1013583D02*
D03*
X1007846D02*
D03*
X1002110D02*
D03*
X996374D02*
D03*
X990638D02*
D03*
X984902D02*
D03*
X979165D02*
D03*
Y1264000D02*
D03*
X984902D02*
D03*
X990638D02*
D03*
X996374D02*
D03*
X1002110D02*
D03*
X1007846D02*
D03*
X1013583D02*
D03*
X1019319D02*
D03*
X1025055D02*
D03*
X1030791D02*
D03*
X1036528D02*
D03*
X1042264D02*
D03*
X1048000D02*
D03*
D41*
X875760Y1227500D02*
D03*
X883240D02*
D03*
D42*
X955358Y1225913D02*
D03*
Y1190087D02*
D03*
X937642Y1225913D02*
D03*
Y1190087D02*
D03*
D43*
X925500Y1266000D02*
D03*
X1047000Y1007000D02*
D03*
D44*
X925500Y1256000D02*
D03*
X915500Y1266000D02*
D03*
Y1256000D02*
D03*
X905500Y1266000D02*
D03*
Y1256000D02*
D03*
X895500Y1266000D02*
D03*
Y1256000D02*
D03*
X885500Y1266000D02*
D03*
Y1256000D02*
D03*
X875500Y1266000D02*
D03*
Y1256000D02*
D03*
X865500Y1266000D02*
D03*
Y1256000D02*
D03*
X855500Y1266000D02*
D03*
Y1256000D02*
D03*
X845500Y1266000D02*
D03*
Y1256000D02*
D03*
X835500Y1266000D02*
D03*
Y1256000D02*
D03*
X856500Y1060961D02*
D03*
X866500D02*
D03*
X876500D02*
D03*
X886500D02*
D03*
X896500D02*
D03*
X906500D02*
D03*
X916500D02*
D03*
X926500D02*
D03*
X936500D02*
D03*
X946500D02*
D03*
X956500D02*
D03*
X966500D02*
D03*
X976500D02*
D03*
X986500D02*
D03*
X996500D02*
D03*
X1006500D02*
D03*
X1016500D02*
D03*
X1026500D02*
D03*
X1036500D02*
D03*
X1046500D02*
D03*
X856500Y1050961D02*
D03*
X866500D02*
D03*
X876500D02*
D03*
X886500D02*
D03*
X896500D02*
D03*
X906500D02*
D03*
X916500D02*
D03*
X926500D02*
D03*
X936500D02*
D03*
X946500D02*
D03*
X956500D02*
D03*
X966500D02*
D03*
X976500D02*
D03*
X986500D02*
D03*
X996500D02*
D03*
X1006500D02*
D03*
X1016500D02*
D03*
X1026500D02*
D03*
X1036500D02*
D03*
X897000Y1017000D02*
D03*
Y1007000D02*
D03*
X907000Y1017000D02*
D03*
Y1007000D02*
D03*
X917000Y1017000D02*
D03*
Y1007000D02*
D03*
X927000Y1017000D02*
D03*
Y1007000D02*
D03*
X937000Y1017000D02*
D03*
Y1007000D02*
D03*
X947000Y1017000D02*
D03*
Y1007000D02*
D03*
X957000Y1017000D02*
D03*
Y1007000D02*
D03*
X967000Y1017000D02*
D03*
Y1007000D02*
D03*
X977000Y1017000D02*
D03*
Y1007000D02*
D03*
X987000Y1017000D02*
D03*
Y1007000D02*
D03*
X997000Y1017000D02*
D03*
Y1007000D02*
D03*
X1007000Y1017000D02*
D03*
Y1007000D02*
D03*
X1017000Y1017000D02*
D03*
Y1007000D02*
D03*
X1027000Y1017000D02*
D03*
Y1007000D02*
D03*
X1037000Y1017000D02*
D03*
Y1007000D02*
D03*
X1047000Y1017000D02*
D03*
X1000000Y1143500D02*
D03*
Y1153500D02*
D03*
Y1163500D02*
D03*
X836500Y1224000D02*
D03*
Y1214000D02*
D03*
Y1204000D02*
D03*
X1037500Y1127500D02*
D03*
X1047500D02*
D03*
X1037500Y1117500D02*
D03*
X1047500D02*
D03*
X1037500Y1107500D02*
D03*
X1047500D02*
D03*
X1037500Y1097500D02*
D03*
X1049000Y1163500D02*
D03*
Y1173500D02*
D03*
X1023000Y1163500D02*
D03*
Y1173500D02*
D03*
D45*
X1046500Y1050961D02*
D03*
X1000000Y1173500D02*
D03*
X836500Y1194000D02*
D03*
X1047500Y1097500D02*
D03*
X1049000Y1153500D02*
D03*
X1023000D02*
D03*
D46*
X1037500Y1278000D02*
D03*
X1047000Y1042000D02*
D03*
Y1025000D02*
D03*
X1044000Y1081000D02*
D03*
X1025500Y1092000D02*
D03*
X849500Y1208500D02*
D03*
X846500Y1194000D02*
D03*
X974500Y1174000D02*
D03*
X896000Y1126500D02*
D03*
X932000Y1164000D02*
D03*
X888500Y1163500D02*
D03*
X889000Y1184000D02*
D03*
X870000Y1230500D02*
D03*
X935000Y1238500D02*
D03*
X942000Y1249500D02*
D03*
X963000Y1234000D02*
D03*
X962000Y1209000D02*
D03*
X971000Y1196500D02*
D03*
X989500Y1195000D02*
D03*
X1035500Y1173000D02*
D03*
X1034000Y1190500D02*
D03*
X1048500Y1196000D02*
D03*
X1021500Y1253000D02*
D03*
X1042500Y1253500D02*
D03*
X1044500Y1223500D02*
D03*
X1031500Y1233500D02*
D03*
X1021500Y1225000D02*
D03*
X1004500Y1237000D02*
D03*
X990500Y1254500D02*
D03*
X990000Y1225500D02*
D03*
X970400Y1003600D02*
D03*
X915500Y1098500D02*
D03*
X908000Y1089000D02*
D03*
X912000Y1109000D02*
D03*
X885500Y1122000D02*
D03*
X873500Y1112500D02*
D03*
X880000Y1094000D02*
D03*
X863500Y1079000D02*
D03*
X939700Y1124800D02*
D03*
X917100Y1178600D02*
D03*
X1008828Y1186928D02*
D03*
X886740Y1235500D02*
D03*
X906448Y1173100D02*
D03*
X920228Y1140000D02*
D03*
X981500D02*
D03*
X883300Y1143300D02*
D03*
X988624Y1136500D02*
D03*
X891556Y1141756D02*
D03*
X874204Y1140300D02*
D03*
X982900Y1136900D02*
D03*
X891700Y1148100D02*
D03*
X979900Y1147100D02*
D03*
X923950Y1103500D02*
D03*
X996700Y1078000D02*
D03*
X978700Y1102100D02*
D03*
X911122Y1126800D02*
D03*
X980300Y1092500D02*
D03*
X988900Y1046808D02*
D03*
X953500Y1086900D02*
D03*
X928600Y1139300D02*
D03*
X971400D02*
D03*
X955800Y1169600D02*
D03*
X915428D02*
D03*
X896200Y1144100D02*
D03*
X907900Y1146100D02*
D03*
X915000Y1143800D02*
D03*
X872600Y1148400D02*
D03*
X855100D02*
D03*
X927550Y1153200D02*
D03*
X947900Y1151300D02*
D03*
X953900Y1243700D02*
D03*
X1030791D02*
D03*
X1033991Y1271409D02*
D03*
X1030978Y1269922D02*
D03*
X1009883Y1260300D02*
D03*
X949700Y1214000D02*
D03*
X942000Y1156700D02*
D03*
X930600Y1092500D02*
D03*
X1005096Y1081056D02*
D03*
X973500Y1034800D02*
D03*
Y1021200D02*
D03*
X908960Y1177940D02*
D03*
X969600Y1167000D02*
D03*
X974300Y1154300D02*
D03*
X899811Y1161300D02*
D03*
X962400Y1048500D02*
D03*
X919365Y1125100D02*
D03*
X930204Y1104404D02*
D03*
X934200Y1065600D02*
D03*
X949700Y1221900D02*
D03*
X1035512Y1216000D02*
D03*
X953500Y1156800D02*
D03*
X907700Y1137500D02*
D03*
X897000Y1104000D02*
D03*
X1012800Y1135000D02*
D03*
X1018800Y1122900D02*
D03*
X878011Y1144300D02*
D03*
X926800Y1076200D02*
D03*
X863500Y1122600D02*
D03*
X914150Y1130800D02*
D03*
X909200Y1129100D02*
D03*
X959200Y1128134D02*
D03*
X903248Y1132300D02*
D03*
X913928Y1125200D02*
D03*
X915059Y1116000D02*
D03*
X942000Y1113800D02*
D03*
X974900Y1084100D02*
D03*
X928900Y1119600D02*
D03*
X964800Y1118000D02*
D03*
X960000Y1172000D02*
D03*
X919000D02*
D03*
X936200Y1081600D02*
D03*
X921700Y1161300D02*
D03*
X967400D02*
D03*
X966100Y1026800D02*
D03*
X1036528Y1202300D02*
D03*
X905600Y1177600D02*
D03*
X981900Y1270200D02*
D03*
M02*
