%FSLAX25Y25*%
%MOIN*%
G70*
G01*
G75*
G04 Layer_Physical_Order=1*
G04 Layer_Color=255*
%ADD10R,0.07874X0.21654*%
%ADD11R,0.03543X0.02362*%
%ADD12R,0.02362X0.03543*%
%ADD13R,0.02362X0.01969*%
%ADD14R,0.05118X0.02756*%
%ADD15R,0.01181X0.04724*%
%ADD16R,0.04724X0.01181*%
%ADD17R,0.11811X0.06299*%
%ADD18R,0.24410X0.22835*%
%ADD19R,0.02835X0.02835*%
%ADD20R,0.02835X0.02835*%
%ADD21R,0.02756X0.05118*%
%ADD22R,0.05512X0.08268*%
%ADD23C,0.01000*%
%ADD24C,0.00800*%
%ADD25R,0.05906X0.05906*%
%ADD26C,0.05906*%
%ADD27R,0.05906X0.05906*%
%ADD28C,0.02200*%
G36*
X1055500Y1261119D02*
X1055117D01*
Y1261119D01*
X1053500D01*
Y1259002D01*
Y1256885D01*
X1055117D01*
Y1256885D01*
X1055146D01*
X1055500Y1256531D01*
Y1255525D01*
X1055117D01*
Y1255525D01*
X1053500D01*
Y1253407D01*
Y1251290D01*
X1055117D01*
Y1251290D01*
X1055146D01*
X1055500Y1250937D01*
Y1249930D01*
X1055117D01*
Y1249930D01*
X1053500D01*
Y1247813D01*
Y1245696D01*
X1055117D01*
Y1245696D01*
X1055146D01*
X1055500Y1245342D01*
Y1244336D01*
X1055117D01*
Y1244336D01*
X1053500D01*
Y1242219D01*
Y1240101D01*
X1055117D01*
Y1240101D01*
X1055146D01*
X1055500Y1239748D01*
Y1238741D01*
X1055117D01*
Y1238741D01*
X1053500D01*
Y1236624D01*
Y1234507D01*
X1055117D01*
Y1234507D01*
X1055146D01*
X1055500Y1234153D01*
Y1233147D01*
X1055117D01*
Y1233147D01*
X1053500D01*
Y1231030D01*
Y1228912D01*
X1055117D01*
Y1228912D01*
X1055146D01*
X1055500Y1228559D01*
Y1227552D01*
X1055117D01*
Y1227552D01*
X1053500D01*
Y1225435D01*
Y1223318D01*
X1055117D01*
Y1223318D01*
X1055146D01*
X1055500Y1222964D01*
Y1221958D01*
X1055117D01*
Y1221958D01*
X1053500D01*
Y1219841D01*
Y1217723D01*
X1055117D01*
Y1217723D01*
X1055146D01*
X1055500Y1217370D01*
Y1216363D01*
X1055117D01*
Y1216363D01*
X1053500D01*
Y1214246D01*
Y1212129D01*
X1055117D01*
Y1212129D01*
X1055146D01*
X1055500Y1211775D01*
Y995500D01*
X825000D01*
Y1229000D01*
Y1282500D01*
X1055500D01*
Y1261119D01*
D02*
G37*
%LPC*%
G36*
X1047500Y1208748D02*
X1045883D01*
Y1207131D01*
X1047500D01*
Y1208748D01*
D02*
G37*
G36*
X1050117D02*
X1048500D01*
Y1207131D01*
X1050117D01*
Y1208748D01*
D02*
G37*
G36*
X998491Y1211365D02*
X994257D01*
Y1207131D01*
X998491D01*
Y1211365D01*
D02*
G37*
G36*
X987019D02*
X982784D01*
Y1207131D01*
X987019D01*
Y1211365D01*
D02*
G37*
G36*
X992755D02*
X988521D01*
Y1207131D01*
X992755D01*
Y1211365D01*
D02*
G37*
G36*
X855500Y1211240D02*
X852741D01*
Y1209662D01*
X855500D01*
Y1211240D01*
D02*
G37*
G36*
X836500Y1217684D02*
X835546Y1217559D01*
X834658Y1217191D01*
X833895Y1216605D01*
X833309Y1215842D01*
X832941Y1214954D01*
X832816Y1214000D01*
X832941Y1213046D01*
X833309Y1212158D01*
X833895Y1211395D01*
X834658Y1210809D01*
X835546Y1210441D01*
X836500Y1210316D01*
X837454Y1210441D01*
X838342Y1210809D01*
X839105Y1211395D01*
X839691Y1212158D01*
X840059Y1213046D01*
X840184Y1214000D01*
X840059Y1214954D01*
X839691Y1215842D01*
X839105Y1216605D01*
X838342Y1217191D01*
X837454Y1217559D01*
X836500Y1217684D01*
D02*
G37*
G36*
X976283Y1216363D02*
X972048D01*
Y1212129D01*
X976283D01*
Y1216363D01*
D02*
G37*
G36*
X1050117Y1211365D02*
X1048500D01*
Y1209748D01*
X1050117D01*
Y1211365D01*
D02*
G37*
G36*
X859259Y1211240D02*
X856500D01*
Y1209662D01*
X859259D01*
Y1211240D01*
D02*
G37*
G36*
X1047500Y1211365D02*
X1045883D01*
Y1209748D01*
X1047500D01*
Y1211365D01*
D02*
G37*
G36*
X941098Y1194921D02*
X934186D01*
Y1185253D01*
X941098D01*
Y1194921D01*
D02*
G37*
G36*
X1015972Y1196047D02*
X1014000D01*
Y1194666D01*
X1015972D01*
Y1196047D01*
D02*
G37*
G36*
X894000Y1179334D02*
X892028D01*
Y1177953D01*
X894000D01*
Y1179334D01*
D02*
G37*
G36*
X955000Y1178428D02*
X953028D01*
Y1177047D01*
X955000D01*
Y1178428D01*
D02*
G37*
G36*
X957972D02*
X956000D01*
Y1177047D01*
X957972D01*
Y1178428D01*
D02*
G37*
G36*
X859259Y1206338D02*
X852741D01*
Y1205483D01*
X846760D01*
X846292Y1205390D01*
X845895Y1205125D01*
X838422Y1197653D01*
X832847D01*
Y1190347D01*
X840153D01*
Y1195922D01*
X847267Y1203036D01*
X852741D01*
Y1202182D01*
X859259D01*
Y1202417D01*
X859721Y1202608D01*
X861395Y1200935D01*
Y1196158D01*
X874605D01*
Y1203857D01*
X861933D01*
X860665Y1205125D01*
X860268Y1205390D01*
X859800Y1205483D01*
X859259D01*
Y1206338D01*
D02*
G37*
G36*
X837000Y1207618D02*
Y1204500D01*
X840118D01*
X840059Y1204954D01*
X839691Y1205842D01*
X839105Y1206605D01*
X838342Y1207191D01*
X837454Y1207559D01*
X837000Y1207618D01*
D02*
G37*
G36*
X981283Y1211365D02*
X977048D01*
Y1207131D01*
X981283D01*
Y1211365D01*
D02*
G37*
G36*
X836000Y1207618D02*
X835546Y1207559D01*
X834658Y1207191D01*
X833895Y1206605D01*
X833309Y1205842D01*
X832941Y1204954D01*
X832882Y1204500D01*
X836000D01*
Y1207618D01*
D02*
G37*
G36*
Y1203500D02*
X832882D01*
X832941Y1203046D01*
X833309Y1202158D01*
X833895Y1201395D01*
X834658Y1200809D01*
X835546Y1200441D01*
X836000Y1200382D01*
Y1203500D01*
D02*
G37*
G36*
X840118D02*
X837000D01*
Y1200382D01*
X837454Y1200441D01*
X838342Y1200809D01*
X839105Y1201395D01*
X839691Y1202158D01*
X840059Y1203046D01*
X840118Y1203500D01*
D02*
G37*
G36*
X973666Y1224935D02*
X972048D01*
Y1223318D01*
X973666D01*
Y1224935D01*
D02*
G37*
G36*
X976283D02*
X974666D01*
Y1223318D01*
X976283D01*
Y1224935D01*
D02*
G37*
G36*
X958814Y1225413D02*
X955858D01*
Y1221080D01*
X958814D01*
Y1225413D01*
D02*
G37*
G36*
X1052500Y1221958D02*
X1050882D01*
Y1220341D01*
X1052500D01*
Y1221958D01*
D02*
G37*
G36*
X941098Y1230747D02*
X934186D01*
Y1221080D01*
X941098D01*
Y1230747D01*
D02*
G37*
G36*
X1052500Y1224935D02*
X1050882D01*
Y1223318D01*
X1052500D01*
Y1224935D01*
D02*
G37*
G36*
X976283Y1227552D02*
X974666D01*
Y1225935D01*
X976283D01*
Y1227552D01*
D02*
G37*
G36*
X1052500D02*
X1050882D01*
Y1225935D01*
X1052500D01*
Y1227552D01*
D02*
G37*
G36*
X973666D02*
X972048D01*
Y1225935D01*
X973666D01*
Y1227552D01*
D02*
G37*
G36*
X875260Y1227000D02*
X873682D01*
Y1224241D01*
X875260D01*
Y1227000D01*
D02*
G37*
G36*
X877838D02*
X876260D01*
Y1224241D01*
X877838D01*
Y1227000D01*
D02*
G37*
G36*
X867500Y1217500D02*
X861395D01*
Y1214150D01*
X867500D01*
Y1217500D01*
D02*
G37*
G36*
X874605D02*
X868500D01*
Y1214150D01*
X874605D01*
Y1217500D01*
D02*
G37*
G36*
X859259Y1213818D02*
X856500D01*
Y1212240D01*
X859259D01*
Y1213818D01*
D02*
G37*
G36*
X1052500Y1213746D02*
X1050882D01*
Y1212129D01*
X1052500D01*
Y1213746D01*
D02*
G37*
G36*
X855500Y1213818D02*
X852741D01*
Y1212240D01*
X855500D01*
Y1213818D01*
D02*
G37*
G36*
X1052500Y1216363D02*
X1050882D01*
Y1214746D01*
X1052500D01*
Y1216363D01*
D02*
G37*
G36*
X874605Y1221850D02*
X868500D01*
Y1218500D01*
X874605D01*
Y1221850D01*
D02*
G37*
G36*
X836500Y1227684D02*
X835546Y1227559D01*
X834658Y1227191D01*
X833895Y1226605D01*
X833309Y1225842D01*
X832941Y1224954D01*
X832816Y1224000D01*
X832941Y1223046D01*
X833309Y1222158D01*
X833895Y1221395D01*
X834658Y1220809D01*
X835546Y1220441D01*
X836500Y1220316D01*
X837454Y1220441D01*
X838342Y1220809D01*
X839105Y1221395D01*
X839691Y1222158D01*
X840059Y1223046D01*
X840184Y1224000D01*
X840059Y1224954D01*
X839691Y1225842D01*
X839105Y1226605D01*
X838342Y1227191D01*
X837454Y1227559D01*
X836500Y1227684D01*
D02*
G37*
G36*
X867500Y1221850D02*
X861395D01*
Y1218500D01*
X867500D01*
Y1221850D01*
D02*
G37*
G36*
X976283Y1221958D02*
X972048D01*
Y1217723D01*
X976283D01*
Y1221958D01*
D02*
G37*
G36*
X1052500Y1219341D02*
X1050882D01*
Y1217723D01*
X1052500D01*
Y1219341D01*
D02*
G37*
G36*
X1047500Y1121184D02*
X1046546Y1121059D01*
X1045658Y1120691D01*
X1044895Y1120105D01*
X1044309Y1119342D01*
X1043941Y1118454D01*
X1043816Y1117500D01*
X1043941Y1116546D01*
X1044309Y1115658D01*
X1044895Y1114895D01*
X1045658Y1114309D01*
X1046546Y1113941D01*
X1047500Y1113816D01*
X1048454Y1113941D01*
X1049342Y1114309D01*
X1050105Y1114895D01*
X1050691Y1115658D01*
X1051059Y1116546D01*
X1051184Y1117500D01*
X1051059Y1118454D01*
X1050691Y1119342D01*
X1050105Y1120105D01*
X1049342Y1120691D01*
X1048454Y1121059D01*
X1047500Y1121184D01*
D02*
G37*
G36*
X896843Y1123161D02*
X894083D01*
Y1117036D01*
X896843D01*
Y1120098D01*
Y1123161D01*
D02*
G37*
G36*
X1047500Y1111184D02*
X1046546Y1111059D01*
X1045658Y1110691D01*
X1044895Y1110105D01*
X1044309Y1109342D01*
X1043941Y1108454D01*
X1043816Y1107500D01*
X1043941Y1106546D01*
X1044309Y1105658D01*
X1044895Y1104895D01*
X1045658Y1104309D01*
X1046546Y1103941D01*
X1047500Y1103816D01*
X1048454Y1103941D01*
X1049342Y1104309D01*
X1050105Y1104895D01*
X1050691Y1105658D01*
X1051059Y1106546D01*
X1051184Y1107500D01*
X1051059Y1108454D01*
X1050691Y1109342D01*
X1050105Y1110105D01*
X1049342Y1110691D01*
X1048454Y1111059D01*
X1047500Y1111184D01*
D02*
G37*
G36*
X1038000Y1101118D02*
Y1098000D01*
X1041118D01*
X1041059Y1098454D01*
X1040691Y1099342D01*
X1040105Y1100105D01*
X1039342Y1100691D01*
X1038454Y1101059D01*
X1038000Y1101118D01*
D02*
G37*
G36*
X1037500Y1111184D02*
X1036546Y1111059D01*
X1035658Y1110691D01*
X1034895Y1110105D01*
X1034309Y1109342D01*
X1033941Y1108454D01*
X1033816Y1107500D01*
X1033941Y1106546D01*
X1034309Y1105658D01*
X1034895Y1104895D01*
X1035658Y1104309D01*
X1036546Y1103941D01*
X1037500Y1103816D01*
X1038454Y1103941D01*
X1039342Y1104309D01*
X1040105Y1104895D01*
X1040691Y1105658D01*
X1041059Y1106546D01*
X1041184Y1107500D01*
X1041059Y1108454D01*
X1040691Y1109342D01*
X1040105Y1110105D01*
X1039342Y1110691D01*
X1038454Y1111059D01*
X1037500Y1111184D01*
D02*
G37*
G36*
X1047500Y1131184D02*
X1046546Y1131059D01*
X1045658Y1130691D01*
X1044895Y1130105D01*
X1044309Y1129342D01*
X1043941Y1128454D01*
X1043816Y1127500D01*
X1043941Y1126546D01*
X1044309Y1125658D01*
X1044895Y1124895D01*
X1045658Y1124309D01*
X1046546Y1123941D01*
X1047500Y1123816D01*
X1048454Y1123941D01*
X1049342Y1124309D01*
X1050105Y1124895D01*
X1050691Y1125658D01*
X1051059Y1126546D01*
X1051184Y1127500D01*
X1051059Y1128454D01*
X1050691Y1129342D01*
X1050105Y1130105D01*
X1049342Y1130691D01*
X1048454Y1131059D01*
X1047500Y1131184D01*
D02*
G37*
G36*
X850381Y1159969D02*
X849000D01*
Y1158784D01*
X850381D01*
Y1159969D01*
D02*
G37*
G36*
X944453Y1161972D02*
X943072D01*
Y1160000D01*
X944453D01*
Y1161972D01*
D02*
G37*
G36*
X848000Y1159969D02*
X846619D01*
Y1158784D01*
X848000D01*
Y1159969D01*
D02*
G37*
G36*
X984547Y1145972D02*
X983166D01*
Y1144000D01*
X984547D01*
Y1145972D01*
D02*
G37*
G36*
X986928D02*
X985547D01*
Y1144000D01*
X986928D01*
Y1145972D01*
D02*
G37*
G36*
X1050618Y1016500D02*
X1047500D01*
Y1013382D01*
X1047954Y1013441D01*
X1048842Y1013809D01*
X1049605Y1014395D01*
X1050191Y1015158D01*
X1050559Y1016046D01*
X1050618Y1016500D01*
D02*
G37*
G36*
X1047500Y1020618D02*
Y1017500D01*
X1050618D01*
X1050559Y1017954D01*
X1050191Y1018842D01*
X1049605Y1019605D01*
X1048842Y1020191D01*
X1047954Y1020559D01*
X1047500Y1020618D01*
D02*
G37*
G36*
X957000Y1020684D02*
X956046Y1020559D01*
X955158Y1020191D01*
X954395Y1019605D01*
X953809Y1018842D01*
X953441Y1017954D01*
X953316Y1017000D01*
X953441Y1016046D01*
X953809Y1015158D01*
X954395Y1014395D01*
X955158Y1013809D01*
X956046Y1013441D01*
X957000Y1013316D01*
X957954Y1013441D01*
X958842Y1013809D01*
X959605Y1014395D01*
X960191Y1015158D01*
X960559Y1016046D01*
X960684Y1017000D01*
X960559Y1017954D01*
X960191Y1018842D01*
X959605Y1019605D01*
X958842Y1020191D01*
X957954Y1020559D01*
X957000Y1020684D01*
D02*
G37*
G36*
Y1010684D02*
X956046Y1010559D01*
X955158Y1010191D01*
X954395Y1009605D01*
X953809Y1008842D01*
X953441Y1007954D01*
X953316Y1007000D01*
X953441Y1006046D01*
X953809Y1005158D01*
X954395Y1004395D01*
X955158Y1003809D01*
X956046Y1003441D01*
X957000Y1003316D01*
X957954Y1003441D01*
X958842Y1003809D01*
X959605Y1004395D01*
X960191Y1005158D01*
X960559Y1006046D01*
X960684Y1007000D01*
X960559Y1007954D01*
X960191Y1008842D01*
X959605Y1009605D01*
X958842Y1010191D01*
X957954Y1010559D01*
X957000Y1010684D01*
D02*
G37*
G36*
X1050653Y1010653D02*
X1043347D01*
Y1003347D01*
X1050653D01*
Y1010653D01*
D02*
G37*
G36*
X1050153Y1050461D02*
X1047000D01*
Y1047308D01*
X1050153D01*
Y1050461D01*
D02*
G37*
G36*
X1041118Y1097000D02*
X1038000D01*
Y1093882D01*
X1038454Y1093941D01*
X1039342Y1094309D01*
X1040105Y1094895D01*
X1040691Y1095658D01*
X1041059Y1096546D01*
X1041118Y1097000D01*
D02*
G37*
G36*
X1037000Y1101118D02*
X1036546Y1101059D01*
X1035658Y1100691D01*
X1034895Y1100105D01*
X1034309Y1099342D01*
X1033941Y1098454D01*
X1033882Y1098000D01*
X1037000D01*
Y1101118D01*
D02*
G37*
G36*
Y1097000D02*
X1033882D01*
X1033941Y1096546D01*
X1034309Y1095658D01*
X1034895Y1094895D01*
X1035658Y1094309D01*
X1036546Y1093941D01*
X1037000Y1093882D01*
Y1097000D01*
D02*
G37*
G36*
X1050153Y1054613D02*
X1047000D01*
Y1051461D01*
X1050153D01*
Y1054613D01*
D02*
G37*
G36*
X1051153Y1101153D02*
X1043847D01*
Y1093847D01*
X1051153D01*
Y1101153D01*
D02*
G37*
G36*
X1000000Y1167184D02*
X999046Y1167059D01*
X998158Y1166691D01*
X997395Y1166105D01*
X996809Y1165342D01*
X996553Y1164723D01*
X991834D01*
Y1165972D01*
X988072D01*
Y1161028D01*
X991834D01*
Y1162276D01*
X996553D01*
X996809Y1161658D01*
X997395Y1160895D01*
X998158Y1160309D01*
X999046Y1159941D01*
X1000000Y1159816D01*
X1000954Y1159941D01*
X1001842Y1160309D01*
X1002605Y1160895D01*
X1003191Y1161658D01*
X1003559Y1162546D01*
X1003684Y1163500D01*
X1003559Y1164454D01*
X1003191Y1165342D01*
X1002605Y1166105D01*
X1001842Y1166691D01*
X1000954Y1167059D01*
X1000000Y1167184D01*
D02*
G37*
G36*
X1022500Y1173000D02*
X1019382D01*
X1019441Y1172546D01*
X1019809Y1171658D01*
X1020395Y1170895D01*
X1021158Y1170309D01*
X1022046Y1169941D01*
X1022500Y1169882D01*
Y1173000D01*
D02*
G37*
G36*
X985928Y1165972D02*
X984547D01*
Y1164000D01*
X985928D01*
Y1165972D01*
D02*
G37*
G36*
X882472Y1165334D02*
X880500D01*
Y1163953D01*
X882472D01*
Y1165334D01*
D02*
G37*
G36*
X983547Y1165972D02*
X982166D01*
Y1164000D01*
X983547D01*
Y1165972D01*
D02*
G37*
G36*
X1022500Y1177118D02*
X1022046Y1177059D01*
X1021158Y1176691D01*
X1020395Y1176105D01*
X1019809Y1175342D01*
X1019441Y1174454D01*
X1019382Y1174000D01*
X1022500D01*
Y1177118D01*
D02*
G37*
G36*
X957972Y1176047D02*
X956000D01*
Y1174666D01*
X957972D01*
Y1176047D01*
D02*
G37*
G36*
X894000Y1176953D02*
X892028D01*
Y1175572D01*
X894000D01*
Y1176953D01*
D02*
G37*
G36*
X955000Y1176047D02*
X953028D01*
Y1174666D01*
X955000D01*
Y1176047D01*
D02*
G37*
G36*
X1048500Y1177118D02*
X1048046Y1177059D01*
X1047158Y1176691D01*
X1046395Y1176105D01*
X1045809Y1175342D01*
X1045441Y1174454D01*
X1045382Y1174000D01*
X1048500D01*
Y1177118D01*
D02*
G37*
G36*
X1049500D02*
Y1174000D01*
X1052618D01*
X1052559Y1174454D01*
X1052191Y1175342D01*
X1051605Y1176105D01*
X1050842Y1176691D01*
X1049954Y1177059D01*
X1049500Y1177118D01*
D02*
G37*
G36*
X985928Y1163000D02*
X984547D01*
Y1161028D01*
X985928D01*
Y1163000D01*
D02*
G37*
G36*
X874000Y1162953D02*
X872028D01*
Y1161572D01*
X874000D01*
Y1162953D01*
D02*
G37*
G36*
X983547Y1163000D02*
X982166D01*
Y1161028D01*
X983547D01*
Y1163000D01*
D02*
G37*
G36*
X848000Y1162153D02*
X846619D01*
Y1160969D01*
X848000D01*
Y1162153D01*
D02*
G37*
G36*
X850381D02*
X849000D01*
Y1160969D01*
X850381D01*
Y1162153D01*
D02*
G37*
G36*
X876972Y1162953D02*
X875000D01*
Y1161572D01*
X876972D01*
Y1162953D01*
D02*
G37*
G36*
Y1165334D02*
X875000D01*
Y1163953D01*
X876972D01*
Y1165334D01*
D02*
G37*
G36*
X879500D02*
X877528D01*
Y1163953D01*
X879500D01*
Y1165334D01*
D02*
G37*
G36*
X874000D02*
X872028D01*
Y1163953D01*
X874000D01*
Y1165334D01*
D02*
G37*
G36*
X879500Y1162953D02*
X877528D01*
Y1161572D01*
X879500D01*
Y1162953D01*
D02*
G37*
G36*
X882472D02*
X880500D01*
Y1161572D01*
X882472D01*
Y1162953D01*
D02*
G37*
G36*
X954858Y1230747D02*
X951902D01*
Y1226413D01*
X954858D01*
Y1230747D01*
D02*
G37*
G36*
X1047453Y1276000D02*
X1046072D01*
Y1274028D01*
X1047453D01*
Y1276000D01*
D02*
G37*
G36*
X1049834Y1273472D02*
X1048453D01*
Y1271500D01*
X1049834D01*
Y1273472D01*
D02*
G37*
G36*
X876000Y1259618D02*
Y1256500D01*
X879118D01*
X879059Y1256954D01*
X878691Y1257842D01*
X878105Y1258605D01*
X877342Y1259191D01*
X876454Y1259559D01*
X876000Y1259618D01*
D02*
G37*
G36*
X866000D02*
Y1256500D01*
X869118D01*
X869059Y1256954D01*
X868691Y1257842D01*
X868105Y1258605D01*
X867342Y1259191D01*
X866454Y1259559D01*
X866000Y1259618D01*
D02*
G37*
G36*
X875000D02*
X874546Y1259559D01*
X873658Y1259191D01*
X872895Y1258605D01*
X872309Y1257842D01*
X871941Y1256954D01*
X871882Y1256500D01*
X875000D01*
Y1259618D01*
D02*
G37*
G36*
X961547Y1258500D02*
X960166D01*
Y1256528D01*
X961547D01*
Y1258500D01*
D02*
G37*
G36*
X963928D02*
X962547D01*
Y1256528D01*
X963928D01*
Y1258500D01*
D02*
G37*
G36*
X916000Y1259618D02*
Y1256500D01*
X919118D01*
X919059Y1256954D01*
X918691Y1257842D01*
X918105Y1258605D01*
X917342Y1259191D01*
X916454Y1259559D01*
X916000Y1259618D01*
D02*
G37*
G36*
X1047453Y1273472D02*
X1046072D01*
Y1271500D01*
X1047453D01*
Y1273472D01*
D02*
G37*
G36*
X915000Y1259618D02*
X914546Y1259559D01*
X913658Y1259191D01*
X912895Y1258605D01*
X912309Y1257842D01*
X911941Y1256954D01*
X911882Y1256500D01*
X915000D01*
Y1259618D01*
D02*
G37*
G36*
X835000D02*
X834546Y1259559D01*
X833658Y1259191D01*
X832895Y1258605D01*
X832309Y1257842D01*
X831941Y1256954D01*
X831882Y1256500D01*
X835000D01*
Y1259618D01*
D02*
G37*
G36*
X836000D02*
Y1256500D01*
X839118D01*
X839059Y1256954D01*
X838691Y1257842D01*
X838105Y1258605D01*
X837342Y1259191D01*
X836454Y1259559D01*
X836000Y1259618D01*
D02*
G37*
G36*
X963928Y1255972D02*
X962547D01*
Y1254000D01*
X963928D01*
Y1255972D01*
D02*
G37*
G36*
X1052500Y1255525D02*
X1050882D01*
Y1253907D01*
X1052500D01*
Y1255525D01*
D02*
G37*
G36*
X961547Y1255972D02*
X960166D01*
Y1254000D01*
X961547D01*
Y1255972D01*
D02*
G37*
G36*
X856000Y1259618D02*
Y1256500D01*
X859118D01*
X859059Y1256954D01*
X858691Y1257842D01*
X858105Y1258605D01*
X857342Y1259191D01*
X856454Y1259559D01*
X856000Y1259618D01*
D02*
G37*
G36*
X865000D02*
X864546Y1259559D01*
X863658Y1259191D01*
X862895Y1258605D01*
X862309Y1257842D01*
X861941Y1256954D01*
X861882Y1256500D01*
X865000D01*
Y1259618D01*
D02*
G37*
G36*
X855000D02*
X854546Y1259559D01*
X853658Y1259191D01*
X852895Y1258605D01*
X852309Y1257842D01*
X851941Y1256954D01*
X851882Y1256500D01*
X855000D01*
Y1259618D01*
D02*
G37*
G36*
X845000D02*
X844546Y1259559D01*
X843658Y1259191D01*
X842895Y1258605D01*
X842309Y1257842D01*
X841941Y1256954D01*
X841882Y1256500D01*
X845000D01*
Y1259618D01*
D02*
G37*
G36*
X846000D02*
Y1256500D01*
X849118D01*
X849059Y1256954D01*
X848691Y1257842D01*
X848105Y1258605D01*
X847342Y1259191D01*
X846454Y1259559D01*
X846000Y1259618D01*
D02*
G37*
G36*
X1052500Y1258502D02*
X1050882D01*
Y1256885D01*
X1052500D01*
Y1258502D01*
D02*
G37*
G36*
X1050117Y1266117D02*
X1048500D01*
Y1264500D01*
X1050117D01*
Y1266117D01*
D02*
G37*
G36*
X1047500D02*
X1045883D01*
Y1264500D01*
X1047500D01*
Y1266117D01*
D02*
G37*
G36*
X835500Y1269684D02*
X834546Y1269559D01*
X833658Y1269191D01*
X832895Y1268605D01*
X832309Y1267842D01*
X831941Y1266954D01*
X831816Y1266000D01*
X831941Y1265046D01*
X832309Y1264158D01*
X832895Y1263395D01*
X833658Y1262809D01*
X834546Y1262441D01*
X835500Y1262316D01*
X836454Y1262441D01*
X837342Y1262809D01*
X838105Y1263395D01*
X838691Y1264158D01*
X839059Y1265046D01*
X839184Y1266000D01*
X839059Y1266954D01*
X838691Y1267842D01*
X838105Y1268605D01*
X837342Y1269191D01*
X836454Y1269559D01*
X835500Y1269684D01*
D02*
G37*
G36*
X1047500Y1263500D02*
X1045883D01*
Y1261883D01*
X1047500D01*
Y1263500D01*
D02*
G37*
G36*
X1050117D02*
X1048500D01*
Y1261883D01*
X1050117D01*
Y1263500D01*
D02*
G37*
G36*
X845500Y1269684D02*
X844546Y1269559D01*
X843658Y1269191D01*
X842895Y1268605D01*
X842309Y1267842D01*
X841941Y1266954D01*
X841816Y1266000D01*
X841941Y1265046D01*
X842309Y1264158D01*
X842895Y1263395D01*
X843658Y1262809D01*
X844546Y1262441D01*
X845500Y1262316D01*
X846454Y1262441D01*
X847342Y1262809D01*
X848105Y1263395D01*
X848691Y1264158D01*
X849059Y1265046D01*
X849184Y1266000D01*
X849059Y1266954D01*
X848691Y1267842D01*
X848105Y1268605D01*
X847342Y1269191D01*
X846454Y1269559D01*
X845500Y1269684D01*
D02*
G37*
G36*
X855500D02*
X854546Y1269559D01*
X853658Y1269191D01*
X852895Y1268605D01*
X852309Y1267842D01*
X851941Y1266954D01*
X851816Y1266000D01*
X851941Y1265046D01*
X852309Y1264158D01*
X852895Y1263395D01*
X853658Y1262809D01*
X854546Y1262441D01*
X855500Y1262316D01*
X856454Y1262441D01*
X857342Y1262809D01*
X858105Y1263395D01*
X858691Y1264158D01*
X859059Y1265046D01*
X859184Y1266000D01*
X859059Y1266954D01*
X858691Y1267842D01*
X858105Y1268605D01*
X857342Y1269191D01*
X856454Y1269559D01*
X855500Y1269684D01*
D02*
G37*
G36*
X865500D02*
X864546Y1269559D01*
X863658Y1269191D01*
X862895Y1268605D01*
X862309Y1267842D01*
X861941Y1266954D01*
X861816Y1266000D01*
X861941Y1265046D01*
X862309Y1264158D01*
X862895Y1263395D01*
X863658Y1262809D01*
X864546Y1262441D01*
X865500Y1262316D01*
X866454Y1262441D01*
X867342Y1262809D01*
X868105Y1263395D01*
X868691Y1264158D01*
X869059Y1265046D01*
X869184Y1266000D01*
X869059Y1266954D01*
X868691Y1267842D01*
X868105Y1268605D01*
X867342Y1269191D01*
X866454Y1269559D01*
X865500Y1269684D01*
D02*
G37*
G36*
X1038645Y1266117D02*
X1037028D01*
Y1264500D01*
X1038645D01*
Y1266117D01*
D02*
G37*
G36*
X875500Y1269684D02*
X874546Y1269559D01*
X873658Y1269191D01*
X872895Y1268605D01*
X872309Y1267842D01*
X871941Y1266954D01*
X871816Y1266000D01*
X871941Y1265046D01*
X872309Y1264158D01*
X872895Y1263395D01*
X873658Y1262809D01*
X874546Y1262441D01*
X875500Y1262316D01*
X876454Y1262441D01*
X877342Y1262809D01*
X878105Y1263395D01*
X878691Y1264158D01*
X879059Y1265046D01*
X879184Y1266000D01*
X879059Y1266954D01*
X878691Y1267842D01*
X878105Y1268605D01*
X877342Y1269191D01*
X876454Y1269559D01*
X875500Y1269684D01*
D02*
G37*
G36*
X987019Y1266117D02*
X982784D01*
Y1261883D01*
X987019D01*
Y1266117D01*
D02*
G37*
G36*
X992755D02*
X988521D01*
Y1261883D01*
X992755D01*
Y1266117D01*
D02*
G37*
G36*
X981283D02*
X977048D01*
Y1261883D01*
X981283D01*
Y1266117D01*
D02*
G37*
G36*
X1052500Y1261119D02*
X1050882D01*
Y1259502D01*
X1052500D01*
Y1261119D01*
D02*
G37*
G36*
X1043928Y1278972D02*
X1040166D01*
Y1275224D01*
X980300D01*
X979832Y1275130D01*
X979435Y1274865D01*
X973301Y1268731D01*
X973035Y1268334D01*
X972942Y1267866D01*
Y1261119D01*
X972048D01*
Y1260225D01*
X971002D01*
X970992Y1260223D01*
X969834D01*
Y1261472D01*
X966072D01*
X966072Y1261472D01*
Y1261472D01*
X966063Y1261468D01*
X964065Y1263465D01*
X963668Y1263730D01*
X963200Y1263824D01*
X932100D01*
X931632Y1263730D01*
X931235Y1263465D01*
X927185Y1259416D01*
X926723Y1259607D01*
Y1262347D01*
X929153D01*
Y1269653D01*
X921847D01*
Y1262347D01*
X924277D01*
Y1259447D01*
X923658Y1259191D01*
X922895Y1258605D01*
X922309Y1257842D01*
X921941Y1256954D01*
X921816Y1256000D01*
X921941Y1255046D01*
X922309Y1254158D01*
X922895Y1253395D01*
X923658Y1252809D01*
X924546Y1252441D01*
X925500Y1252316D01*
X926454Y1252441D01*
X927342Y1252809D01*
X928105Y1253395D01*
X928691Y1254158D01*
X929059Y1255046D01*
X929184Y1256000D01*
X929059Y1256954D01*
X928802Y1257572D01*
X932607Y1261376D01*
X960166D01*
Y1259500D01*
X963957D01*
X964390Y1259679D01*
X966072Y1257998D01*
Y1256528D01*
X966729D01*
Y1255972D01*
X966072D01*
Y1251028D01*
X969834D01*
Y1255972D01*
X969176D01*
Y1256528D01*
X969834D01*
Y1257777D01*
X971000D01*
X971010Y1257778D01*
X972048D01*
Y1256885D01*
X972942D01*
Y1255525D01*
X972048D01*
Y1251290D01*
X976283D01*
Y1254501D01*
X976745Y1254692D01*
X1006623Y1224815D01*
Y1211365D01*
X1005729D01*
Y1208861D01*
X1004690Y1207821D01*
X1004228Y1208013D01*
Y1211365D01*
X999993D01*
Y1207131D01*
X1003345D01*
X1003537Y1206669D01*
X999135Y1202267D01*
X998870Y1201870D01*
X998777Y1201402D01*
Y1177153D01*
X996347D01*
Y1169847D01*
X1001923D01*
X1004629Y1167140D01*
Y1159860D01*
X1001572Y1156802D01*
X1000954Y1157059D01*
X1000000Y1157184D01*
X999046Y1157059D01*
X998158Y1156691D01*
X997395Y1156105D01*
X996809Y1155342D01*
X996441Y1154454D01*
X996316Y1153500D01*
X996441Y1152546D01*
X996809Y1151658D01*
X997395Y1150895D01*
X998158Y1150309D01*
X999046Y1149941D01*
X1000000Y1149816D01*
X1000954Y1149941D01*
X1001842Y1150309D01*
X1002605Y1150895D01*
X1003191Y1151658D01*
X1003559Y1152546D01*
X1003684Y1153500D01*
X1003559Y1154454D01*
X1003302Y1155072D01*
X1006718Y1158488D01*
X1006983Y1158885D01*
X1007076Y1159353D01*
X1007076Y1159353D01*
X1007076Y1159353D01*
Y1159353D01*
Y1167647D01*
X1006983Y1168115D01*
X1006718Y1168512D01*
X1003653Y1171577D01*
Y1177153D01*
X1001223D01*
Y1200895D01*
X1007459Y1207131D01*
X1009276D01*
Y1202807D01*
X1007963Y1201493D01*
X1007698Y1201097D01*
X1007605Y1200628D01*
Y1188276D01*
X1007530Y1188226D01*
X1007133Y1187630D01*
X1006993Y1186928D01*
X1007133Y1186226D01*
X1007530Y1185631D01*
X1008126Y1185233D01*
X1008828Y1185093D01*
X1009531Y1185233D01*
X1010126Y1185631D01*
X1010524Y1186226D01*
X1010664Y1186928D01*
X1010524Y1187630D01*
X1010126Y1188226D01*
X1010052Y1188276D01*
Y1191265D01*
X1010514Y1191456D01*
X1011576Y1190393D01*
Y1136347D01*
X1011502Y1136298D01*
X1011104Y1135702D01*
X1010965Y1135000D01*
X1011104Y1134298D01*
X1011502Y1133702D01*
X1012098Y1133304D01*
X1012800Y1133165D01*
X1013502Y1133304D01*
X1014098Y1133702D01*
X1014496Y1134298D01*
X1014635Y1135000D01*
X1014496Y1135702D01*
X1014098Y1136298D01*
X1014023Y1136347D01*
Y1190900D01*
X1013930Y1191368D01*
X1013665Y1191765D01*
X1011752Y1193679D01*
Y1194666D01*
X1013000D01*
Y1196547D01*
X1013500D01*
Y1197047D01*
X1015972D01*
Y1197773D01*
X1016097Y1197798D01*
X1016494Y1198063D01*
X1017565Y1199135D01*
X1017830Y1199532D01*
X1017924Y1200000D01*
X1017924Y1200000D01*
X1017924Y1200000D01*
Y1200000D01*
Y1207131D01*
X1019706D01*
X1025976Y1200860D01*
Y1176385D01*
X1025528Y1176164D01*
X1024842Y1176691D01*
X1023954Y1177059D01*
X1023500Y1177118D01*
Y1173500D01*
Y1169882D01*
X1023824Y1169924D01*
X1024045Y1169476D01*
X1023493Y1168923D01*
X1020800D01*
X1020332Y1168830D01*
X1019935Y1168565D01*
X1017935Y1166565D01*
X1017670Y1166168D01*
X1017577Y1165700D01*
Y1124247D01*
X1017502Y1124198D01*
X1017104Y1123602D01*
X1016965Y1122900D01*
X1017104Y1122198D01*
X1017502Y1121602D01*
X1018098Y1121204D01*
X1018800Y1121065D01*
X1019502Y1121204D01*
X1020098Y1121602D01*
X1020496Y1122198D01*
X1020635Y1122900D01*
X1020496Y1123602D01*
X1020098Y1124198D01*
X1020024Y1124247D01*
Y1149847D01*
X1026653D01*
Y1152277D01*
X1028700D01*
X1029168Y1152370D01*
X1029565Y1152635D01*
X1029565Y1152635D01*
X1029565Y1152635D01*
X1029988Y1153058D01*
X1030429Y1152822D01*
X1030424Y1152794D01*
Y1078453D01*
X1030424Y1078453D01*
X1030424D01*
X1030517Y1077985D01*
X1030782Y1077588D01*
X1039474Y1068895D01*
X1039453Y1063863D01*
X1039004Y1063643D01*
X1038342Y1064151D01*
X1037454Y1064519D01*
X1036500Y1064645D01*
X1035546Y1064519D01*
X1034928Y1064263D01*
X989847Y1109344D01*
Y1135153D01*
X989921Y1135202D01*
X990319Y1135798D01*
X990459Y1136500D01*
X990319Y1137202D01*
X989921Y1137798D01*
X989326Y1138196D01*
X988907Y1138279D01*
X988956Y1138776D01*
X990153D01*
X990621Y1138870D01*
X991018Y1139135D01*
X991018Y1139135D01*
X991018Y1139135D01*
X991818Y1139935D01*
X992083Y1140332D01*
X992176Y1140800D01*
Y1140800D01*
X992176Y1140800D01*
X992633Y1141028D01*
X992834D01*
Y1142276D01*
X996553D01*
X996809Y1141658D01*
X997395Y1140895D01*
X998158Y1140309D01*
X999046Y1139941D01*
X1000000Y1139816D01*
X1000954Y1139941D01*
X1001842Y1140309D01*
X1002605Y1140895D01*
X1003191Y1141658D01*
X1003559Y1142546D01*
X1003684Y1143500D01*
X1003559Y1144454D01*
X1003191Y1145342D01*
X1002605Y1146105D01*
X1001842Y1146691D01*
X1000954Y1147059D01*
X1000000Y1147184D01*
X999046Y1147059D01*
X998158Y1146691D01*
X997395Y1146105D01*
X996809Y1145342D01*
X996553Y1144724D01*
X992834D01*
Y1145972D01*
X989072D01*
Y1141224D01*
X986928D01*
Y1143000D01*
X983166D01*
Y1141582D01*
X982725Y1141346D01*
X982202Y1141696D01*
X981500Y1141835D01*
X980798Y1141696D01*
X980764Y1141673D01*
X980324Y1141909D01*
Y1145349D01*
X980602Y1145404D01*
X981198Y1145802D01*
X981596Y1146398D01*
X981735Y1147100D01*
X981596Y1147802D01*
X981198Y1148398D01*
X980602Y1148796D01*
X979900Y1148935D01*
X979198Y1148796D01*
X978998Y1148662D01*
X978557Y1148898D01*
Y1159266D01*
X978464Y1159734D01*
X978199Y1160131D01*
X971418Y1166912D01*
X971435Y1167000D01*
X971296Y1167702D01*
X970898Y1168298D01*
X970302Y1168696D01*
X969600Y1168835D01*
X968898Y1168696D01*
X968302Y1168298D01*
X967904Y1167702D01*
X967765Y1167000D01*
X967904Y1166298D01*
X968302Y1165702D01*
X968898Y1165304D01*
X968802Y1164824D01*
X966400D01*
X965932Y1164730D01*
X965535Y1164465D01*
X963935Y1162865D01*
X963670Y1162468D01*
X963577Y1162000D01*
Y1119514D01*
X963175Y1119217D01*
X962924Y1119293D01*
Y1170300D01*
X962830Y1170768D01*
X962565Y1171165D01*
X961818Y1171912D01*
X961835Y1172000D01*
X961696Y1172702D01*
X961298Y1173298D01*
X960702Y1173696D01*
X960000Y1173835D01*
X959298Y1173696D01*
X958702Y1173298D01*
X958304Y1172702D01*
X958165Y1172000D01*
X958304Y1171298D01*
X958702Y1170702D01*
X959298Y1170304D01*
X960000Y1170165D01*
X960088Y1170182D01*
X960476Y1169793D01*
Y1129976D01*
X960036Y1129741D01*
X959902Y1129830D01*
X959200Y1129969D01*
X958498Y1129830D01*
X957902Y1129432D01*
X957504Y1128836D01*
X957024Y1128932D01*
Y1168253D01*
X957098Y1168302D01*
X957496Y1168898D01*
X957635Y1169600D01*
X957496Y1170302D01*
X957098Y1170898D01*
X956502Y1171296D01*
X955800Y1171435D01*
X955098Y1171296D01*
X954502Y1170898D01*
X954104Y1170302D01*
X953965Y1169600D01*
X954104Y1168898D01*
X954502Y1168302D01*
X954576Y1168253D01*
Y1158815D01*
X954190Y1158498D01*
X953500Y1158635D01*
X952798Y1158496D01*
X952202Y1158098D01*
X951936Y1157699D01*
X951458Y1157844D01*
Y1185253D01*
X951902D01*
Y1185253D01*
X954276D01*
Y1184334D01*
X953028D01*
Y1180572D01*
X957972D01*
Y1184334D01*
X956723D01*
Y1185253D01*
X958814D01*
Y1194921D01*
X954624D01*
Y1218200D01*
X954530Y1218668D01*
X954265Y1219065D01*
X952713Y1220618D01*
X952904Y1221080D01*
X954858D01*
Y1225413D01*
X951902D01*
Y1222605D01*
X951405Y1222556D01*
X951396Y1222602D01*
X950998Y1223198D01*
X950402Y1223596D01*
X949700Y1223735D01*
X949010Y1223598D01*
X948623Y1223915D01*
Y1236693D01*
X953812Y1241882D01*
X953900Y1241865D01*
X954602Y1242004D01*
X955198Y1242402D01*
X955596Y1242998D01*
X955735Y1243700D01*
X955596Y1244402D01*
X955198Y1244998D01*
X954602Y1245396D01*
X953900Y1245535D01*
X953198Y1245396D01*
X952602Y1244998D01*
X952204Y1244402D01*
X952065Y1243700D01*
X952082Y1243612D01*
X946535Y1238065D01*
X946270Y1237668D01*
X946177Y1237200D01*
Y1161972D01*
X945453D01*
Y1159500D01*
X944953D01*
Y1159000D01*
X943072D01*
Y1158716D01*
X942685Y1158399D01*
X942000Y1158535D01*
X941315Y1158399D01*
X940928Y1158716D01*
Y1161972D01*
X937166D01*
Y1159349D01*
X936540Y1158724D01*
X935838D01*
Y1158791D01*
X929713D01*
Y1158724D01*
X928100D01*
X927632Y1158630D01*
X927322Y1158424D01*
X904020D01*
X903552Y1158330D01*
X903393Y1158224D01*
X903155Y1158065D01*
X901235Y1156145D01*
X900970Y1155748D01*
X900877Y1155280D01*
Y1139740D01*
X898446Y1137309D01*
X898181Y1136912D01*
X898088Y1136444D01*
Y1132800D01*
Y1123161D01*
X897843D01*
Y1120098D01*
Y1117036D01*
X898088D01*
Y1115834D01*
X896528D01*
Y1115176D01*
X894259D01*
Y1116318D01*
X887741D01*
Y1115176D01*
X883594D01*
X877724Y1121047D01*
Y1127028D01*
X880834D01*
Y1128277D01*
X881600D01*
X882068Y1128370D01*
X882465Y1128635D01*
X883976Y1130146D01*
X884438Y1129954D01*
Y1128650D01*
Y1126682D01*
X890562D01*
Y1128650D01*
Y1130619D01*
Y1132587D01*
Y1132654D01*
X890622D01*
X891090Y1132748D01*
X891487Y1133013D01*
X899365Y1140891D01*
X899630Y1141288D01*
X899724Y1141756D01*
X899724Y1141756D01*
X899724Y1141756D01*
Y1141756D01*
Y1150100D01*
X899630Y1150568D01*
X899365Y1150965D01*
X891965Y1158365D01*
X891568Y1158630D01*
X891100Y1158724D01*
X890562D01*
Y1158791D01*
X884438D01*
Y1158724D01*
X883937D01*
X883700Y1158771D01*
X882472D01*
Y1159428D01*
X877528D01*
Y1158771D01*
X876972D01*
Y1159428D01*
X872028D01*
Y1158771D01*
X862386D01*
X861918Y1158678D01*
X861521Y1158412D01*
X858435Y1155326D01*
X858170Y1154929D01*
X858076Y1154461D01*
Y1135332D01*
X852643Y1129898D01*
X846332D01*
X845518Y1130712D01*
X845710Y1131174D01*
X853137D01*
Y1147176D01*
X853753D01*
X853802Y1147102D01*
X854398Y1146704D01*
X855100Y1146565D01*
X855802Y1146704D01*
X856398Y1147102D01*
X856796Y1147698D01*
X856935Y1148400D01*
X856796Y1149102D01*
X856398Y1149698D01*
X855802Y1150096D01*
X855100Y1150235D01*
X854398Y1150096D01*
X853802Y1149698D01*
X853753Y1149623D01*
X853137D01*
Y1154228D01*
X849724D01*
Y1154847D01*
X850381D01*
Y1158216D01*
X846619D01*
Y1154847D01*
X847276D01*
Y1154228D01*
X844524D01*
Y1167093D01*
X863847Y1186417D01*
X880000D01*
X880468Y1186510D01*
X880865Y1186775D01*
X884105Y1190015D01*
X884371Y1190412D01*
X884371Y1190412D01*
X884371Y1190412D01*
X884464Y1190880D01*
Y1196887D01*
X895044D01*
Y1194032D01*
X895044Y1194032D01*
X895044D01*
X895137Y1193564D01*
X895403Y1193167D01*
X896424Y1192145D01*
Y1179334D01*
X895000D01*
Y1177453D01*
Y1175572D01*
X896141D01*
X896332Y1175110D01*
X894651Y1173428D01*
X892028D01*
Y1169666D01*
X894151D01*
Y1168436D01*
X894083D01*
Y1162312D01*
X896843D01*
Y1165374D01*
Y1168436D01*
X896597D01*
Y1169666D01*
X896972D01*
Y1172289D01*
X898513Y1173830D01*
X898778Y1174227D01*
X898872Y1174695D01*
Y1192652D01*
X898778Y1193120D01*
X898513Y1193517D01*
X897491Y1194539D01*
Y1196887D01*
X909173D01*
Y1219844D01*
X909634Y1220035D01*
X910577Y1219093D01*
Y1179555D01*
X910135Y1179319D01*
X909662Y1179636D01*
X908960Y1179776D01*
X908872Y1179758D01*
X907815Y1180815D01*
X907418Y1181080D01*
X906950Y1181174D01*
X901648D01*
X901180Y1181080D01*
X900783Y1180815D01*
X900414Y1180447D01*
X900149Y1180050D01*
X900056Y1179582D01*
Y1168436D01*
X897843D01*
Y1165374D01*
Y1162312D01*
X898088D01*
Y1161862D01*
X897976Y1161300D01*
X898115Y1160598D01*
X898513Y1160002D01*
X899109Y1159604D01*
X899811Y1159465D01*
X900513Y1159604D01*
X901109Y1160002D01*
X901507Y1160598D01*
X901646Y1161300D01*
X901522Y1161925D01*
X901839Y1162312D01*
X919741D01*
Y1162035D01*
X919834Y1161567D01*
X919899Y1161471D01*
X919865Y1161300D01*
X920004Y1160598D01*
X920402Y1160002D01*
X920998Y1159604D01*
X921700Y1159465D01*
X922402Y1159604D01*
X922998Y1160002D01*
X923396Y1160598D01*
X923535Y1161300D01*
X923411Y1161925D01*
X923728Y1162312D01*
X926192D01*
Y1168436D01*
X926125D01*
Y1236551D01*
X926032Y1237019D01*
X925767Y1237416D01*
X910876Y1252307D01*
Y1268240D01*
X911338Y1268431D01*
X912197Y1267572D01*
X911941Y1266954D01*
X911816Y1266000D01*
X911941Y1265046D01*
X912309Y1264158D01*
X912895Y1263395D01*
X913658Y1262809D01*
X914546Y1262441D01*
X915500Y1262316D01*
X916454Y1262441D01*
X917342Y1262809D01*
X918105Y1263395D01*
X918691Y1264158D01*
X919059Y1265046D01*
X919184Y1266000D01*
X919059Y1266954D01*
X918691Y1267842D01*
X918105Y1268605D01*
X917342Y1269191D01*
X916454Y1269559D01*
X915500Y1269684D01*
X914546Y1269559D01*
X913928Y1269302D01*
X910512Y1272718D01*
X910115Y1272983D01*
X909647Y1273076D01*
X884353D01*
X883885Y1272983D01*
X883488Y1272718D01*
X880435Y1269665D01*
X880170Y1269268D01*
X880077Y1268800D01*
Y1250100D01*
X880077Y1250100D01*
X880077D01*
X880170Y1249632D01*
X880435Y1249235D01*
X908086Y1221583D01*
X907895Y1221121D01*
X884464D01*
Y1224241D01*
X885318D01*
Y1230759D01*
X884464D01*
Y1231493D01*
X886653Y1233682D01*
X886740Y1233665D01*
X887442Y1233804D01*
X888038Y1234202D01*
X888436Y1234798D01*
X888575Y1235500D01*
X888436Y1236202D01*
X888038Y1236798D01*
X887442Y1237196D01*
X886740Y1237335D01*
X886038Y1237196D01*
X885443Y1236798D01*
X885045Y1236202D01*
X884905Y1235500D01*
X884922Y1235412D01*
X882375Y1232865D01*
X882110Y1232468D01*
X882017Y1232000D01*
Y1230759D01*
X881162D01*
Y1224241D01*
X882017D01*
Y1209004D01*
Y1191387D01*
X879493Y1188864D01*
X863340D01*
X862872Y1188771D01*
X862475Y1188505D01*
X842435Y1168465D01*
X842170Y1168068D01*
X842076Y1167600D01*
Y1131200D01*
X842076Y1131200D01*
X842076D01*
X842170Y1130732D01*
X842435Y1130335D01*
X844960Y1127810D01*
X844960Y1127810D01*
X844960D01*
X844960Y1127810D01*
X844960D01*
X844960Y1127810D01*
Y1127810D01*
Y1127810D01*
D01*
D01*
X844960D01*
Y1127810D01*
X845357Y1127545D01*
X845825Y1127452D01*
X853150D01*
X853618Y1127545D01*
X854015Y1127810D01*
X860165Y1133960D01*
X860430Y1134357D01*
X860430Y1134357D01*
X860430Y1134357D01*
X860524Y1134825D01*
Y1153954D01*
X862893Y1156324D01*
X866240D01*
X866432Y1155862D01*
X861735Y1151165D01*
X861470Y1150768D01*
X861376Y1150300D01*
Y1130107D01*
X857493Y1126223D01*
X851100D01*
X850632Y1126130D01*
X850235Y1125865D01*
X842035Y1117665D01*
X841770Y1117268D01*
X841677Y1116800D01*
Y1001600D01*
X841677Y1001600D01*
X841677D01*
X841770Y1001132D01*
X842035Y1000735D01*
X844635Y998135D01*
X844873Y997976D01*
X845032Y997870D01*
X845500Y997777D01*
X938600D01*
X939068Y997870D01*
X939465Y998135D01*
X939465Y998135D01*
X939465Y998135D01*
X942065Y1000735D01*
X942224Y1000973D01*
X942330Y1001132D01*
X942424Y1001600D01*
Y1046261D01*
X942330Y1046729D01*
X942065Y1047126D01*
X939802Y1049388D01*
X940059Y1050007D01*
X940184Y1050961D01*
X940059Y1051914D01*
X939691Y1052803D01*
X939105Y1053566D01*
X938342Y1054151D01*
X937454Y1054519D01*
X936500Y1054645D01*
X935546Y1054519D01*
X934658Y1054151D01*
X933895Y1053566D01*
X933309Y1052803D01*
X932941Y1051914D01*
X932922Y1051771D01*
X932423Y1051804D01*
Y1056261D01*
X932330Y1056729D01*
X932065Y1057126D01*
X929803Y1059388D01*
X930059Y1060007D01*
X930184Y1060961D01*
X930059Y1061914D01*
X929691Y1062803D01*
X929105Y1063566D01*
X928342Y1064151D01*
X927454Y1064519D01*
X926500Y1064645D01*
X925546Y1064519D01*
X924658Y1064151D01*
X923972Y1063625D01*
X923524Y1063846D01*
Y1071193D01*
X926712Y1074382D01*
X926800Y1074365D01*
X927502Y1074504D01*
X928098Y1074902D01*
X928496Y1075498D01*
X928635Y1076200D01*
X928496Y1076902D01*
X928098Y1077498D01*
X927502Y1077896D01*
X926874Y1078020D01*
X926729Y1078499D01*
X934515Y1086284D01*
X934976Y1086093D01*
Y1082947D01*
X934902Y1082898D01*
X934504Y1082302D01*
X934365Y1081600D01*
X934504Y1080898D01*
X934902Y1080302D01*
X935498Y1079904D01*
X936200Y1079765D01*
X936902Y1079904D01*
X937136Y1080060D01*
X937576Y1079825D01*
Y1070707D01*
X934288Y1067418D01*
X934200Y1067435D01*
X933498Y1067296D01*
X932902Y1066898D01*
X932504Y1066302D01*
X932365Y1065600D01*
X932504Y1064898D01*
X932902Y1064302D01*
X933498Y1063904D01*
X933603Y1063883D01*
X933780Y1063416D01*
X933309Y1062803D01*
X932941Y1061914D01*
X932816Y1060961D01*
X932941Y1060007D01*
X933309Y1059118D01*
X933895Y1058355D01*
X934658Y1057770D01*
X935546Y1057402D01*
X936500Y1057276D01*
X937454Y1057402D01*
X938342Y1057770D01*
X939105Y1058355D01*
X939691Y1059118D01*
X940059Y1060007D01*
X940184Y1060961D01*
X940059Y1061914D01*
X939802Y1062533D01*
X940615Y1063345D01*
X941076Y1063153D01*
Y1055161D01*
X941170Y1054692D01*
X941435Y1054295D01*
X943198Y1052533D01*
X942941Y1051914D01*
X942816Y1050961D01*
X942941Y1050007D01*
X943309Y1049119D01*
X943895Y1048355D01*
X944658Y1047770D01*
X945546Y1047402D01*
X946500Y1047276D01*
X947454Y1047402D01*
X948342Y1047770D01*
X949105Y1048355D01*
X949691Y1049119D01*
X950059Y1050007D01*
X950184Y1050961D01*
X950059Y1051914D01*
X949691Y1052803D01*
X949105Y1053566D01*
X948342Y1054151D01*
X947454Y1054519D01*
X946500Y1054645D01*
X945546Y1054519D01*
X944928Y1054263D01*
X943524Y1055667D01*
Y1058075D01*
X943972Y1058296D01*
X944658Y1057770D01*
X945546Y1057402D01*
X946500Y1057276D01*
X947454Y1057402D01*
X948342Y1057770D01*
X949105Y1058355D01*
X949691Y1059118D01*
X950059Y1060007D01*
X950184Y1060961D01*
X950059Y1061914D01*
X949691Y1062803D01*
X949105Y1063566D01*
X948342Y1064151D01*
X947723Y1064408D01*
Y1069993D01*
X950615Y1072884D01*
X951077Y1072693D01*
Y1055161D01*
X951170Y1054692D01*
X951435Y1054295D01*
X953197Y1052533D01*
X952941Y1051914D01*
X952816Y1050961D01*
X952941Y1050007D01*
X953309Y1049119D01*
X953895Y1048355D01*
X954658Y1047770D01*
X955546Y1047402D01*
X956500Y1047276D01*
X957454Y1047402D01*
X958342Y1047770D01*
X959105Y1048355D01*
X959691Y1049119D01*
X960059Y1050007D01*
X960184Y1050961D01*
X960059Y1051914D01*
X959691Y1052803D01*
X959105Y1053566D01*
X958342Y1054151D01*
X957454Y1054519D01*
X956500Y1054645D01*
X955546Y1054519D01*
X954928Y1054263D01*
X953524Y1055667D01*
Y1058075D01*
X953972Y1058296D01*
X954658Y1057770D01*
X955546Y1057402D01*
X956500Y1057276D01*
X957454Y1057402D01*
X958342Y1057770D01*
X959105Y1058355D01*
X959691Y1059118D01*
X960059Y1060007D01*
X960184Y1060961D01*
X960059Y1061914D01*
X959691Y1062803D01*
X959105Y1063566D01*
X958496Y1064034D01*
X958463Y1064532D01*
X965665Y1071735D01*
X965698Y1071784D01*
X966177Y1071639D01*
Y1070807D01*
X961435Y1066065D01*
X961170Y1065668D01*
X961077Y1065200D01*
Y1055161D01*
X961077Y1055161D01*
X961077D01*
X961170Y1054692D01*
X961435Y1054295D01*
X963198Y1052533D01*
X962941Y1051914D01*
X962816Y1050961D01*
X962855Y1050659D01*
X962490Y1050317D01*
X962400Y1050335D01*
X961698Y1050196D01*
X961102Y1049798D01*
X960704Y1049202D01*
X960565Y1048500D01*
X960582Y1048412D01*
X946135Y1033965D01*
X945870Y1033568D01*
X945776Y1033100D01*
Y1020447D01*
X945158Y1020191D01*
X944395Y1019605D01*
X943809Y1018842D01*
X943441Y1017954D01*
X943316Y1017000D01*
X943441Y1016046D01*
X943809Y1015158D01*
X944395Y1014395D01*
X945158Y1013809D01*
X946046Y1013441D01*
X947000Y1013316D01*
X947954Y1013441D01*
X948842Y1013809D01*
X949605Y1014395D01*
X950191Y1015158D01*
X950559Y1016046D01*
X950684Y1017000D01*
X950559Y1017954D01*
X950191Y1018842D01*
X949605Y1019605D01*
X948842Y1020191D01*
X948223Y1020447D01*
Y1032593D01*
X962312Y1046682D01*
X962400Y1046665D01*
X963102Y1046804D01*
X963698Y1047202D01*
X964071Y1047760D01*
X964564Y1047842D01*
X964658Y1047770D01*
X964979Y1047637D01*
X965076Y1047147D01*
X961935Y1044006D01*
X961670Y1043609D01*
X961576Y1043140D01*
Y1004800D01*
X961576Y1004800D01*
X961576D01*
X961670Y1004332D01*
X961935Y1003935D01*
X965184Y1000685D01*
X964993Y1000224D01*
X955507D01*
X950303Y1005428D01*
X950559Y1006046D01*
X950684Y1007000D01*
X950559Y1007954D01*
X950191Y1008842D01*
X949605Y1009605D01*
X948842Y1010191D01*
X947954Y1010559D01*
X947000Y1010684D01*
X946046Y1010559D01*
X945158Y1010191D01*
X944395Y1009605D01*
X943809Y1008842D01*
X943441Y1007954D01*
X943316Y1007000D01*
X943441Y1006046D01*
X943809Y1005158D01*
X944395Y1004395D01*
X945158Y1003809D01*
X946046Y1003441D01*
X947000Y1003316D01*
X947954Y1003441D01*
X948572Y1003697D01*
X954135Y998135D01*
X954532Y997870D01*
X955000Y997777D01*
X1019700D01*
X1020168Y997870D01*
X1020565Y998135D01*
X1020565Y998135D01*
X1020565Y998135D01*
X1022065Y999635D01*
X1022330Y1000032D01*
X1022423Y1000500D01*
X1022423Y1000500D01*
X1022423Y1000500D01*
Y1000500D01*
Y1019193D01*
X1022456Y1019207D01*
X1022962Y1019307D01*
X1023697Y1018572D01*
X1023441Y1017954D01*
X1023316Y1017000D01*
X1023441Y1016046D01*
X1023809Y1015158D01*
X1024395Y1014395D01*
X1025158Y1013809D01*
X1026046Y1013441D01*
X1027000Y1013316D01*
X1027954Y1013441D01*
X1028842Y1013809D01*
X1029528Y1014336D01*
X1029976Y1014114D01*
Y1011707D01*
X1028572Y1010303D01*
X1027954Y1010559D01*
X1027000Y1010684D01*
X1026046Y1010559D01*
X1025158Y1010191D01*
X1024395Y1009605D01*
X1023809Y1008842D01*
X1023441Y1007954D01*
X1023316Y1007000D01*
X1023441Y1006046D01*
X1023809Y1005158D01*
X1024395Y1004395D01*
X1025158Y1003809D01*
X1026046Y1003441D01*
X1027000Y1003316D01*
X1027954Y1003441D01*
X1028842Y1003809D01*
X1029605Y1004395D01*
X1030191Y1005158D01*
X1030559Y1006046D01*
X1030684Y1007000D01*
X1030559Y1007954D01*
X1030303Y1008572D01*
X1032065Y1010335D01*
X1032330Y1010732D01*
X1032423Y1011200D01*
Y1021200D01*
X1032330Y1021668D01*
X1032065Y1022065D01*
X1023524Y1030607D01*
Y1048075D01*
X1023972Y1048296D01*
X1024658Y1047770D01*
X1025546Y1047402D01*
X1026500Y1047276D01*
X1027454Y1047402D01*
X1028342Y1047770D01*
X1029105Y1048355D01*
X1029691Y1049119D01*
X1030059Y1050007D01*
X1030178Y1050910D01*
X1030178D01*
X1030178Y1050910D01*
X1030311Y1050901D01*
Y1050901D01*
X1030449Y1050892D01*
X1030676Y1050679D01*
Y1036500D01*
X1030676Y1036500D01*
X1030676D01*
X1030770Y1036032D01*
X1031035Y1035635D01*
X1035777Y1030893D01*
Y1020447D01*
X1035158Y1020191D01*
X1034395Y1019605D01*
X1033809Y1018842D01*
X1033441Y1017954D01*
X1033316Y1017000D01*
X1033441Y1016046D01*
X1033809Y1015158D01*
X1034395Y1014395D01*
X1035158Y1013809D01*
X1036046Y1013441D01*
X1037000Y1013316D01*
X1037954Y1013441D01*
X1038842Y1013809D01*
X1039605Y1014395D01*
X1040191Y1015158D01*
X1040559Y1016046D01*
X1040625Y1016548D01*
X1041124Y1016515D01*
Y1012854D01*
X1038572Y1010303D01*
X1037954Y1010559D01*
X1037000Y1010684D01*
X1036046Y1010559D01*
X1035158Y1010191D01*
X1034395Y1009605D01*
X1033809Y1008842D01*
X1033441Y1007954D01*
X1033316Y1007000D01*
X1033441Y1006046D01*
X1033809Y1005158D01*
X1034395Y1004395D01*
X1035158Y1003809D01*
X1036046Y1003441D01*
X1037000Y1003316D01*
X1037954Y1003441D01*
X1038842Y1003809D01*
X1039605Y1004395D01*
X1040191Y1005158D01*
X1040559Y1006046D01*
X1040684Y1007000D01*
X1040559Y1007954D01*
X1040302Y1008572D01*
X1043212Y1011482D01*
X1043478Y1011879D01*
X1043571Y1012347D01*
Y1014691D01*
X1044044Y1014852D01*
X1044395Y1014395D01*
X1045158Y1013809D01*
X1046046Y1013441D01*
X1046500Y1013382D01*
Y1017000D01*
Y1020618D01*
X1046046Y1020559D01*
X1045158Y1020191D01*
X1044395Y1019605D01*
X1044044Y1019148D01*
X1043571Y1019309D01*
Y1047308D01*
X1046000D01*
Y1050961D01*
Y1054613D01*
X1044244D01*
X1044053Y1055075D01*
X1044965Y1055988D01*
X1045230Y1056385D01*
X1045230Y1056385D01*
X1045230Y1056385D01*
X1045323Y1056853D01*
Y1057052D01*
X1045699Y1057382D01*
X1046500Y1057276D01*
X1047454Y1057402D01*
X1048342Y1057770D01*
X1049105Y1058355D01*
X1049691Y1059118D01*
X1050059Y1060007D01*
X1050184Y1060961D01*
X1050059Y1061914D01*
X1049691Y1062803D01*
X1049105Y1063566D01*
X1048342Y1064151D01*
X1047454Y1064519D01*
X1046500Y1064645D01*
X1045546Y1064519D01*
X1044658Y1064151D01*
X1043895Y1063566D01*
X1043309Y1062803D01*
X1042941Y1061914D01*
X1042816Y1060961D01*
X1042941Y1060007D01*
X1043202Y1059377D01*
X1042970Y1059029D01*
X1042877Y1058561D01*
Y1057360D01*
X1042333Y1056816D01*
X1041871Y1057008D01*
X1041924Y1069395D01*
X1041923Y1069397D01*
X1041924Y1069400D01*
X1041877Y1069632D01*
X1041832Y1069864D01*
X1041831Y1069866D01*
X1041830Y1069868D01*
X1041699Y1070065D01*
X1041569Y1070261D01*
X1041567Y1070263D01*
X1041565Y1070265D01*
X1032871Y1078960D01*
Y1119746D01*
X1033333Y1119937D01*
X1034198Y1119072D01*
X1033941Y1118454D01*
X1033816Y1117500D01*
X1033941Y1116546D01*
X1034309Y1115658D01*
X1034895Y1114895D01*
X1035658Y1114309D01*
X1036546Y1113941D01*
X1037500Y1113816D01*
X1038454Y1113941D01*
X1039342Y1114309D01*
X1040105Y1114895D01*
X1040691Y1115658D01*
X1041059Y1116546D01*
X1041184Y1117500D01*
X1041059Y1118454D01*
X1040691Y1119342D01*
X1040105Y1120105D01*
X1039342Y1120691D01*
X1038454Y1121059D01*
X1037500Y1121184D01*
X1036546Y1121059D01*
X1035928Y1120802D01*
X1034571Y1122160D01*
Y1124578D01*
X1035019Y1124799D01*
X1035658Y1124309D01*
X1036546Y1123941D01*
X1037500Y1123816D01*
X1038454Y1123941D01*
X1039342Y1124309D01*
X1040105Y1124895D01*
X1040691Y1125658D01*
X1041059Y1126546D01*
X1041184Y1127500D01*
X1041059Y1128454D01*
X1040691Y1129342D01*
X1040105Y1130105D01*
X1039342Y1130691D01*
X1038454Y1131059D01*
X1037500Y1131184D01*
X1037367Y1131167D01*
X1037145Y1131615D01*
X1054065Y1148535D01*
X1054330Y1148932D01*
X1054424Y1149400D01*
X1054424Y1149400D01*
X1054424Y1149400D01*
Y1149400D01*
Y1166500D01*
X1054330Y1166968D01*
X1054065Y1167365D01*
X1052065Y1169365D01*
X1051668Y1169630D01*
X1051200Y1169724D01*
X1050709D01*
X1050612Y1170214D01*
X1050842Y1170309D01*
X1051605Y1170895D01*
X1052191Y1171658D01*
X1052559Y1172546D01*
X1052618Y1173000D01*
X1045382D01*
X1045441Y1172546D01*
X1045809Y1171658D01*
X1046242Y1171093D01*
X1046223Y1171077D01*
D01*
X1045866Y1170764D01*
X1043324Y1173307D01*
Y1192203D01*
X1043230Y1192671D01*
X1042965Y1193068D01*
X1035940Y1200094D01*
X1036175Y1200535D01*
X1036528Y1200465D01*
X1037230Y1200604D01*
X1037825Y1201002D01*
X1038223Y1201598D01*
X1038363Y1202300D01*
X1038223Y1203002D01*
X1037825Y1203598D01*
X1037751Y1203647D01*
Y1207131D01*
X1038645D01*
Y1210483D01*
X1039107Y1210675D01*
X1040147Y1209635D01*
Y1207131D01*
X1044381D01*
Y1211365D01*
X1041877D01*
X1037330Y1215912D01*
X1037347Y1216000D01*
X1037207Y1216702D01*
X1036810Y1217298D01*
X1036214Y1217696D01*
X1035512Y1217835D01*
X1034809Y1217696D01*
X1034214Y1217298D01*
X1033816Y1216702D01*
X1033677Y1216000D01*
X1033816Y1215298D01*
X1034214Y1214702D01*
X1034809Y1214304D01*
X1035512Y1214165D01*
X1035599Y1214182D01*
X1037954Y1211827D01*
X1037763Y1211365D01*
X1034410D01*
Y1207131D01*
X1035304D01*
Y1203647D01*
X1035230Y1203598D01*
X1034832Y1203002D01*
X1034692Y1202300D01*
X1034762Y1201948D01*
X1034321Y1201712D01*
X1029365Y1206669D01*
X1029556Y1207131D01*
X1032909D01*
Y1211365D01*
X1031796D01*
X1031657Y1211574D01*
X1030465Y1212765D01*
X1030068Y1213030D01*
X1029600Y1213124D01*
X1016700D01*
X1016232Y1213030D01*
X1015835Y1212765D01*
X1015570Y1212368D01*
X1015477Y1211900D01*
Y1211365D01*
X1011724D01*
Y1254674D01*
X1018932Y1261883D01*
X1021436D01*
Y1266117D01*
X1017202D01*
Y1263613D01*
X1016162Y1262573D01*
X1015700Y1262764D01*
Y1266117D01*
X1011465D01*
Y1263613D01*
X1010426Y1262573D01*
X1009964Y1262765D01*
Y1266117D01*
X1007459D01*
X1002512Y1271065D01*
X1002115Y1271330D01*
X1001646Y1271424D01*
X983247D01*
X983198Y1271498D01*
X982602Y1271896D01*
X981900Y1272035D01*
X981198Y1271896D01*
X980602Y1271498D01*
X980204Y1270902D01*
X980065Y1270200D01*
X980204Y1269498D01*
X980602Y1268902D01*
X981198Y1268504D01*
X981900Y1268365D01*
X982602Y1268504D01*
X983198Y1268902D01*
X983247Y1268976D01*
X1001140D01*
X1003537Y1266579D01*
X1003345Y1266117D01*
X999993D01*
Y1261883D01*
X1004228D01*
Y1265235D01*
X1004690Y1265427D01*
X1005729Y1264387D01*
Y1261883D01*
X1008245D01*
X1008481Y1261442D01*
X1008187Y1261002D01*
X1008047Y1260300D01*
X1008187Y1259598D01*
X1008585Y1259002D01*
X1009180Y1258604D01*
X1009883Y1258465D01*
X1010585Y1258604D01*
X1011180Y1259002D01*
X1011578Y1259598D01*
X1011718Y1260300D01*
X1011700Y1260388D01*
X1013196Y1261883D01*
X1014818D01*
X1015009Y1261421D01*
X1009635Y1256046D01*
X1009370Y1255649D01*
X1009276Y1255181D01*
Y1226202D01*
X1008798Y1226057D01*
X1008712Y1226186D01*
X976283Y1258615D01*
Y1261119D01*
X975389D01*
Y1267359D01*
X980807Y1272777D01*
X1032210D01*
X1032446Y1272336D01*
X1032296Y1272111D01*
X1032225Y1271754D01*
X1031763Y1271562D01*
X1031680Y1271618D01*
X1030978Y1271758D01*
X1030275Y1271618D01*
X1029680Y1271220D01*
X1029282Y1270625D01*
X1029142Y1269922D01*
X1029160Y1269835D01*
X1025442Y1266117D01*
X1022938D01*
Y1261883D01*
X1027172D01*
Y1264387D01*
X1028212Y1265427D01*
X1028674Y1265235D01*
Y1261883D01*
X1029568D01*
Y1245047D01*
X1029494Y1244998D01*
X1029096Y1244402D01*
X1028956Y1243700D01*
X1029096Y1242998D01*
X1029494Y1242402D01*
X1030089Y1242004D01*
X1030791Y1241865D01*
X1031494Y1242004D01*
X1032089Y1242402D01*
X1032487Y1242998D01*
X1032627Y1243700D01*
X1032487Y1244402D01*
X1032089Y1244998D01*
X1032015Y1245047D01*
Y1261883D01*
X1032909D01*
Y1264387D01*
X1033948Y1265427D01*
X1034410Y1265235D01*
Y1264500D01*
X1036028D01*
Y1266117D01*
X1035242D01*
X1035006Y1266558D01*
X1035122Y1266732D01*
X1035215Y1267200D01*
Y1270061D01*
X1035289Y1270111D01*
X1035687Y1270706D01*
X1035827Y1271409D01*
X1035687Y1272111D01*
X1035537Y1272336D01*
X1035773Y1272777D01*
X1040166D01*
Y1268528D01*
X1040824D01*
Y1267517D01*
X1040917Y1267048D01*
X1041040Y1266864D01*
Y1266117D01*
X1040147D01*
Y1261883D01*
X1044381D01*
Y1266117D01*
X1043487D01*
Y1267300D01*
X1043394Y1267768D01*
X1043271Y1267953D01*
Y1268528D01*
X1043928D01*
Y1273472D01*
X1043271D01*
Y1274028D01*
X1043928D01*
Y1278972D01*
D02*
G37*
G36*
X1049834Y1270500D02*
X1048453D01*
Y1268528D01*
X1049834D01*
Y1270500D01*
D02*
G37*
G36*
X1047453D02*
X1046072D01*
Y1268528D01*
X1047453D01*
Y1270500D01*
D02*
G37*
G36*
X1038645Y1263500D02*
X1037028D01*
Y1261883D01*
X1038645D01*
Y1263500D01*
D02*
G37*
G36*
X998491Y1266117D02*
X994257D01*
Y1261883D01*
X998491D01*
Y1266117D01*
D02*
G37*
G36*
X1036028Y1263500D02*
X1034410D01*
Y1261883D01*
X1036028D01*
Y1263500D01*
D02*
G37*
G36*
X919118Y1255500D02*
X916000D01*
Y1252382D01*
X916454Y1252441D01*
X917342Y1252809D01*
X918105Y1253395D01*
X918691Y1254158D01*
X919059Y1255046D01*
X919118Y1255500D01*
D02*
G37*
G36*
X1052500Y1244336D02*
X1050882D01*
Y1242719D01*
X1052500D01*
Y1244336D01*
D02*
G37*
G36*
X961547Y1247500D02*
X960166D01*
Y1245528D01*
X961547D01*
Y1247500D01*
D02*
G37*
G36*
X976283Y1244336D02*
X974666D01*
Y1242719D01*
X976283D01*
Y1244336D01*
D02*
G37*
G36*
X1052500Y1241719D02*
X1050882D01*
Y1240101D01*
X1052500D01*
Y1241719D01*
D02*
G37*
G36*
X973666Y1244336D02*
X972048D01*
Y1242719D01*
X973666D01*
Y1244336D01*
D02*
G37*
G36*
X1052500Y1249930D02*
X1050882D01*
Y1248313D01*
X1052500D01*
Y1249930D01*
D02*
G37*
G36*
X961547Y1250472D02*
X960166D01*
Y1248500D01*
X961547D01*
Y1250472D01*
D02*
G37*
G36*
X1052500Y1247313D02*
X1050882D01*
Y1245696D01*
X1052500D01*
Y1247313D01*
D02*
G37*
G36*
X963928Y1247500D02*
X962547D01*
Y1245528D01*
X963928D01*
Y1247500D01*
D02*
G37*
G36*
X969834Y1250472D02*
X966072D01*
Y1245528D01*
X969834D01*
Y1246300D01*
X970220Y1246617D01*
X970359Y1246589D01*
X972048D01*
Y1245696D01*
X976283D01*
Y1249930D01*
X972048D01*
Y1249037D01*
X970780D01*
X970640Y1249130D01*
X970172Y1249224D01*
X969834D01*
Y1250472D01*
D02*
G37*
G36*
X976283Y1241719D02*
X974666D01*
Y1240101D01*
X976283D01*
Y1241719D01*
D02*
G37*
G36*
Y1233147D02*
X972048D01*
Y1228912D01*
X976283D01*
Y1233147D01*
D02*
G37*
G36*
X1052500Y1230530D02*
X1050882D01*
Y1228912D01*
X1052500D01*
Y1230530D01*
D02*
G37*
G36*
X877838Y1230759D02*
X876260D01*
Y1228000D01*
X877838D01*
Y1230759D01*
D02*
G37*
G36*
X958814Y1230747D02*
X955858D01*
Y1226413D01*
X958814D01*
Y1230747D01*
D02*
G37*
G36*
X875260Y1230759D02*
X873682D01*
Y1228000D01*
X875260D01*
Y1230759D01*
D02*
G37*
G36*
X1052500Y1238741D02*
X1050882D01*
Y1237124D01*
X1052500D01*
Y1238741D01*
D02*
G37*
G36*
X973666Y1241719D02*
X972048D01*
Y1240101D01*
X973666D01*
Y1241719D01*
D02*
G37*
G36*
X1052500Y1236124D02*
X1050882D01*
Y1234507D01*
X1052500D01*
Y1236124D01*
D02*
G37*
G36*
Y1233147D02*
X1050882D01*
Y1231530D01*
X1052500D01*
Y1233147D01*
D02*
G37*
G36*
X976283Y1238741D02*
X972048D01*
Y1234507D01*
X976283D01*
Y1238741D01*
D02*
G37*
G36*
X869118Y1255500D02*
X866000D01*
Y1252382D01*
X866454Y1252441D01*
X867342Y1252809D01*
X868105Y1253395D01*
X868691Y1254158D01*
X869059Y1255046D01*
X869118Y1255500D01*
D02*
G37*
G36*
X875000D02*
X871882D01*
X871941Y1255046D01*
X872309Y1254158D01*
X872895Y1253395D01*
X873658Y1252809D01*
X874546Y1252441D01*
X875000Y1252382D01*
Y1255500D01*
D02*
G37*
G36*
X865000D02*
X861882D01*
X861941Y1255046D01*
X862309Y1254158D01*
X862895Y1253395D01*
X863658Y1252809D01*
X864546Y1252441D01*
X865000Y1252382D01*
Y1255500D01*
D02*
G37*
G36*
X855000D02*
X851882D01*
X851941Y1255046D01*
X852309Y1254158D01*
X852895Y1253395D01*
X853658Y1252809D01*
X854546Y1252441D01*
X855000Y1252382D01*
Y1255500D01*
D02*
G37*
G36*
X859118D02*
X856000D01*
Y1252382D01*
X856454Y1252441D01*
X857342Y1252809D01*
X858105Y1253395D01*
X858691Y1254158D01*
X859059Y1255046D01*
X859118Y1255500D01*
D02*
G37*
G36*
X1049834Y1276000D02*
X1048453D01*
Y1274028D01*
X1049834D01*
Y1276000D01*
D02*
G37*
G36*
X915000Y1255500D02*
X911882D01*
X911941Y1255046D01*
X912309Y1254158D01*
X912895Y1253395D01*
X913658Y1252809D01*
X914546Y1252441D01*
X915000Y1252382D01*
Y1255500D01*
D02*
G37*
G36*
X1047453Y1278972D02*
X1046072D01*
Y1277000D01*
X1047453D01*
Y1278972D01*
D02*
G37*
G36*
X879118Y1255500D02*
X876000D01*
Y1252382D01*
X876454Y1252441D01*
X877342Y1252809D01*
X878105Y1253395D01*
X878691Y1254158D01*
X879059Y1255046D01*
X879118Y1255500D01*
D02*
G37*
G36*
X1049834Y1278972D02*
X1048453D01*
Y1277000D01*
X1049834D01*
Y1278972D01*
D02*
G37*
G36*
X835000Y1255500D02*
X831882D01*
X831941Y1255046D01*
X832309Y1254158D01*
X832895Y1253395D01*
X833658Y1252809D01*
X834546Y1252441D01*
X835000Y1252382D01*
Y1255500D01*
D02*
G37*
G36*
X839118D02*
X836000D01*
Y1252382D01*
X836454Y1252441D01*
X837342Y1252809D01*
X838105Y1253395D01*
X838691Y1254158D01*
X839059Y1255046D01*
X839118Y1255500D01*
D02*
G37*
G36*
X961547Y1253000D02*
X960166D01*
Y1251028D01*
X961547D01*
Y1253000D01*
D02*
G37*
G36*
X1052500Y1252907D02*
X1050882D01*
Y1251290D01*
X1052500D01*
Y1252907D01*
D02*
G37*
G36*
X963928Y1253000D02*
X962547D01*
Y1251028D01*
X963928D01*
Y1253000D01*
D02*
G37*
G36*
X845000Y1255500D02*
X841882D01*
X841941Y1255046D01*
X842309Y1254158D01*
X842895Y1253395D01*
X843658Y1252809D01*
X844546Y1252441D01*
X845000Y1252382D01*
Y1255500D01*
D02*
G37*
G36*
X963928Y1250472D02*
X962547D01*
Y1248500D01*
X963928D01*
Y1250472D01*
D02*
G37*
G36*
X849118Y1255500D02*
X846000D01*
Y1252382D01*
X846454Y1252441D01*
X847342Y1252809D01*
X848105Y1253395D01*
X848691Y1254158D01*
X849059Y1255046D01*
X849118Y1255500D01*
D02*
G37*
%LPD*%
G36*
X883658Y1262809D02*
X884546Y1262441D01*
X885500Y1262316D01*
X886454Y1262441D01*
X887072Y1262698D01*
X888835Y1260935D01*
X889232Y1260670D01*
X889700Y1260577D01*
X897600D01*
X898068Y1260670D01*
X898465Y1260935D01*
X899653Y1262123D01*
X900094Y1261887D01*
X900076Y1261800D01*
Y1245300D01*
X900076Y1245300D01*
X900076D01*
X900170Y1244832D01*
X900435Y1244435D01*
X921710Y1223160D01*
Y1168436D01*
X920220D01*
Y1170650D01*
X920298Y1170702D01*
X920696Y1171298D01*
X920835Y1172000D01*
X920696Y1172702D01*
X920298Y1173298D01*
X919702Y1173696D01*
X919000Y1173835D01*
X918298Y1173696D01*
X917702Y1173298D01*
X917304Y1172702D01*
X917165Y1172000D01*
X917304Y1171298D01*
X917636Y1170801D01*
X917527Y1170440D01*
X917432Y1170298D01*
X917311Y1170247D01*
X917093Y1170465D01*
X916951Y1170560D01*
X916725Y1170898D01*
X916130Y1171296D01*
X915428Y1171435D01*
X914725Y1171296D01*
X914314Y1171515D01*
Y1174084D01*
X917012Y1176782D01*
X917100Y1176765D01*
X917802Y1176904D01*
X918398Y1177302D01*
X918796Y1177898D01*
X918935Y1178600D01*
X918796Y1179302D01*
X918398Y1179898D01*
X917802Y1180296D01*
X917100Y1180435D01*
X916398Y1180296D01*
X915802Y1179898D01*
X915404Y1179302D01*
X915265Y1178600D01*
X915282Y1178512D01*
X913485Y1176716D01*
X913023Y1176907D01*
Y1219600D01*
X912930Y1220068D01*
X912665Y1220465D01*
X882524Y1250607D01*
Y1253115D01*
X882972Y1253336D01*
X883658Y1252809D01*
X884546Y1252441D01*
X885000Y1252382D01*
Y1256000D01*
Y1259618D01*
X884546Y1259559D01*
X883658Y1259191D01*
X882972Y1258664D01*
X882524Y1258885D01*
Y1263114D01*
X882972Y1263336D01*
X883658Y1262809D01*
D02*
G37*
G36*
X1040876Y1191696D02*
Y1172800D01*
X1040876Y1172800D01*
X1040876D01*
X1040970Y1172332D01*
X1041235Y1171935D01*
X1045535Y1167635D01*
X1045932Y1167370D01*
X1046400Y1167276D01*
X1047291D01*
X1047388Y1166786D01*
X1047158Y1166691D01*
X1046395Y1166105D01*
X1045809Y1165342D01*
X1045553Y1164723D01*
X1043747D01*
X1043279Y1164630D01*
X1042882Y1164365D01*
X1041193Y1162676D01*
X1038972D01*
Y1163334D01*
X1034028D01*
Y1162676D01*
X1031254D01*
X1029565Y1164365D01*
X1029168Y1164630D01*
X1028700Y1164723D01*
X1026447D01*
X1026191Y1165342D01*
X1025605Y1166105D01*
X1025087Y1166503D01*
X1025074Y1166523D01*
X1025042Y1167011D01*
X1028065Y1170035D01*
X1028330Y1170432D01*
X1028424Y1170900D01*
Y1201367D01*
X1028330Y1201835D01*
X1028065Y1202232D01*
X1023629Y1206669D01*
X1023820Y1207131D01*
X1025442D01*
X1040876Y1191696D01*
D02*
G37*
G36*
X913353Y1116650D02*
X913224Y1116000D01*
X913363Y1115298D01*
X913761Y1114702D01*
X914357Y1114304D01*
X915059Y1114165D01*
X915761Y1114304D01*
X916335Y1114688D01*
X916547Y1114575D01*
X916776Y1114422D01*
Y1111300D01*
X916870Y1110832D01*
X917135Y1110435D01*
X917532Y1110170D01*
X918000Y1110077D01*
X918528D01*
Y1110077D01*
Y1109928D01*
X918528Y1109723D01*
X918528Y1109723D01*
X918528D01*
Y1108547D01*
X923472D01*
Y1109723D01*
X923472Y1109723D01*
D01*
D01*
X923472Y1109928D01*
D01*
X923620Y1110077D01*
X924528D01*
Y1109928D01*
X924528D01*
Y1108547D01*
X927000D01*
Y1108047D01*
X927500D01*
Y1106166D01*
X928596D01*
X928906Y1105702D01*
X928508Y1105106D01*
X928368Y1104404D01*
X928508Y1103701D01*
X928906Y1103106D01*
X928980Y1103057D01*
Y1099711D01*
X910635Y1081365D01*
X910370Y1080968D01*
X910277Y1080500D01*
Y1062670D01*
X909786Y1062572D01*
X909691Y1062803D01*
X909105Y1063566D01*
X908342Y1064151D01*
X907454Y1064519D01*
X906500Y1064645D01*
X905546Y1064519D01*
X905239Y1064392D01*
X904823Y1064670D01*
Y1103293D01*
X905285Y1103484D01*
X906135Y1102635D01*
X906135Y1102635D01*
X906135D01*
X906135Y1102635D01*
X906135D01*
X906135Y1102635D01*
Y1102635D01*
Y1102635D01*
D01*
D01*
X906135D01*
Y1102635D01*
X906532Y1102370D01*
X907000Y1102277D01*
X922603D01*
X922652Y1102202D01*
X923248Y1101804D01*
X923950Y1101665D01*
X924652Y1101804D01*
X925248Y1102202D01*
X925646Y1102798D01*
X925785Y1103500D01*
X925646Y1104202D01*
X925248Y1104798D01*
X924652Y1105196D01*
X923950Y1105335D01*
X923248Y1105196D01*
X922652Y1104798D01*
X922603Y1104723D01*
X907507D01*
X906524Y1105707D01*
Y1111593D01*
X910019Y1115088D01*
X910284Y1115485D01*
X910377Y1115954D01*
Y1117036D01*
X913036D01*
X913353Y1116650D01*
D02*
G37*
G36*
X906000Y1252382D02*
X906454Y1252441D01*
X907342Y1252809D01*
X907981Y1253299D01*
X908429Y1253078D01*
Y1251800D01*
X908522Y1251332D01*
X908788Y1250935D01*
X923678Y1236044D01*
Y1225305D01*
X923216Y1225114D01*
X902524Y1245807D01*
Y1253115D01*
X902972Y1253336D01*
X903658Y1252809D01*
X904546Y1252441D01*
X905000Y1252382D01*
Y1256000D01*
X906000D01*
Y1252382D01*
D02*
G37*
G36*
X872433Y1140626D02*
X872368Y1140300D01*
X872508Y1139598D01*
X872906Y1139002D01*
X873501Y1138604D01*
X874204Y1138465D01*
X874701Y1138564D01*
X874720Y1138560D01*
X884438D01*
Y1138493D01*
Y1136524D01*
Y1136347D01*
X887500D01*
Y1135347D01*
X884438D01*
Y1135168D01*
Y1135102D01*
X883864D01*
X880834Y1135814D01*
Y1137472D01*
X877072D01*
Y1135578D01*
X876832Y1135530D01*
X876435Y1135265D01*
X875635Y1134465D01*
X875407Y1134124D01*
X874928Y1134269D01*
Y1134500D01*
X873547D01*
Y1132528D01*
X874923D01*
X874923Y1132528D01*
Y1132528D01*
X874928Y1132528D01*
X875276Y1132180D01*
Y1131972D01*
X875276D01*
X874928D01*
X874923Y1131972D01*
X874923Y1131972D01*
Y1131972D01*
X873547D01*
Y1129500D01*
Y1127028D01*
X874923D01*
X874923Y1127028D01*
Y1127028D01*
X874928Y1127028D01*
X875276Y1126680D01*
Y1120540D01*
X875276Y1120540D01*
X875276D01*
X875370Y1120072D01*
X875635Y1119675D01*
X882222Y1113088D01*
X882619Y1112822D01*
X883087Y1112729D01*
X887741D01*
Y1112162D01*
X894259D01*
Y1112729D01*
X896528D01*
Y1112072D01*
X901472D01*
Y1115834D01*
X900535D01*
Y1117036D01*
X903993D01*
Y1115407D01*
X902735Y1114149D01*
X902470Y1113752D01*
X902376Y1113283D01*
Y1063861D01*
X902376Y1063861D01*
X902376D01*
X902470Y1063392D01*
X902735Y1062995D01*
X903197Y1062533D01*
X902941Y1061914D01*
X902816Y1060961D01*
X902941Y1060007D01*
X903309Y1059118D01*
X903895Y1058355D01*
X904658Y1057770D01*
X905546Y1057402D01*
X906500Y1057276D01*
X907454Y1057402D01*
X908342Y1057770D01*
X909105Y1058355D01*
X909691Y1059118D01*
X909786Y1059349D01*
X910277Y1059251D01*
Y1056467D01*
X908072Y1054263D01*
X907454Y1054519D01*
X906500Y1054645D01*
X905546Y1054519D01*
X904658Y1054151D01*
X903895Y1053566D01*
X903309Y1052803D01*
X903214Y1052572D01*
X902724Y1052670D01*
Y1055961D01*
X902630Y1056429D01*
X902365Y1056826D01*
X899802Y1059388D01*
X900059Y1060007D01*
X900184Y1060961D01*
X900059Y1061914D01*
X899691Y1062803D01*
X899105Y1063566D01*
X898342Y1064151D01*
X897454Y1064519D01*
X896500Y1064645D01*
X895546Y1064519D01*
X894658Y1064151D01*
X893972Y1063625D01*
X893524Y1063846D01*
Y1098793D01*
X896912Y1102182D01*
X897000Y1102165D01*
X897702Y1102304D01*
X898298Y1102702D01*
X898696Y1103298D01*
X898835Y1104000D01*
X898696Y1104702D01*
X898298Y1105298D01*
X897714Y1105688D01*
X897859Y1106166D01*
X898500D01*
Y1107547D01*
X896528D01*
Y1106166D01*
X896528D01*
Y1105741D01*
X896298Y1105696D01*
X895702Y1105298D01*
X895304Y1104702D01*
X895165Y1104000D01*
X895182Y1103912D01*
X891435Y1100165D01*
X891170Y1099768D01*
X891076Y1099300D01*
Y1059707D01*
X889764Y1058394D01*
X889388Y1058724D01*
X889691Y1059118D01*
X890059Y1060007D01*
X890184Y1060961D01*
X890059Y1061914D01*
X889691Y1062803D01*
X889105Y1063566D01*
X888342Y1064151D01*
X887454Y1064519D01*
X886500Y1064645D01*
X885546Y1064519D01*
X884928Y1064263D01*
X879826Y1069365D01*
X879429Y1069630D01*
X878961Y1069724D01*
X876800D01*
X876332Y1069630D01*
X875935Y1069365D01*
X871435Y1064865D01*
X871170Y1064468D01*
X871076Y1064000D01*
Y1013502D01*
X871076Y1013502D01*
X871076D01*
X871170Y1013033D01*
X871435Y1012636D01*
X883386Y1000685D01*
X883195Y1000224D01*
X846007D01*
X844123Y1002107D01*
Y1093772D01*
X846455D01*
X846611Y1093614D01*
X846418Y1093153D01*
X846119D01*
Y1089784D01*
X849881D01*
Y1093153D01*
X849606D01*
X849450Y1093311D01*
X849643Y1093772D01*
X852743D01*
Y1109177D01*
X862800D01*
X863268Y1109270D01*
X863665Y1109535D01*
X866865Y1112735D01*
X867130Y1113132D01*
X867223Y1113600D01*
Y1136093D01*
X871992Y1140862D01*
X872433Y1140626D01*
D02*
G37*
%LPC*%
G36*
X856500Y1064645D02*
X855546Y1064519D01*
X854658Y1064151D01*
X853895Y1063566D01*
X853309Y1062803D01*
X852941Y1061914D01*
X852816Y1060961D01*
X852941Y1060007D01*
X853309Y1059118D01*
X853895Y1058355D01*
X854658Y1057770D01*
X855546Y1057402D01*
X856500Y1057276D01*
X857454Y1057402D01*
X858342Y1057770D01*
X859105Y1058355D01*
X859691Y1059118D01*
X860059Y1060007D01*
X860184Y1060961D01*
X860059Y1061914D01*
X859691Y1062803D01*
X859105Y1063566D01*
X858342Y1064151D01*
X857454Y1064519D01*
X856500Y1064645D01*
D02*
G37*
G36*
X866500D02*
X865546Y1064519D01*
X864658Y1064151D01*
X863895Y1063566D01*
X863309Y1062803D01*
X862941Y1061914D01*
X862816Y1060961D01*
X862941Y1060007D01*
X863309Y1059118D01*
X863895Y1058355D01*
X864658Y1057770D01*
X865546Y1057402D01*
X866500Y1057276D01*
X867454Y1057402D01*
X868342Y1057770D01*
X869105Y1058355D01*
X869691Y1059118D01*
X870059Y1060007D01*
X870184Y1060961D01*
X870059Y1061914D01*
X869691Y1062803D01*
X869105Y1063566D01*
X868342Y1064151D01*
X867454Y1064519D01*
X866500Y1064645D01*
D02*
G37*
G36*
Y1054645D02*
X865546Y1054519D01*
X864658Y1054151D01*
X863895Y1053566D01*
X863309Y1052803D01*
X862941Y1051914D01*
X862816Y1050961D01*
X862941Y1050007D01*
X863309Y1049119D01*
X863895Y1048355D01*
X864658Y1047770D01*
X865546Y1047402D01*
X866500Y1047276D01*
X867454Y1047402D01*
X868342Y1047770D01*
X869105Y1048355D01*
X869691Y1049119D01*
X870059Y1050007D01*
X870184Y1050961D01*
X870059Y1051914D01*
X869691Y1052803D01*
X869105Y1053566D01*
X868342Y1054151D01*
X867454Y1054519D01*
X866500Y1054645D01*
D02*
G37*
G36*
X856500D02*
X855546Y1054519D01*
X854658Y1054151D01*
X853895Y1053566D01*
X853309Y1052803D01*
X852941Y1051914D01*
X852816Y1050961D01*
X852941Y1050007D01*
X853309Y1049119D01*
X853895Y1048355D01*
X854658Y1047770D01*
X855546Y1047402D01*
X856500Y1047276D01*
X857454Y1047402D01*
X858342Y1047770D01*
X859105Y1048355D01*
X859691Y1049119D01*
X860059Y1050007D01*
X860184Y1050961D01*
X860059Y1051914D01*
X859691Y1052803D01*
X859105Y1053566D01*
X858342Y1054151D01*
X857454Y1054519D01*
X856500Y1054645D01*
D02*
G37*
G36*
X847500Y1089216D02*
X846119D01*
Y1088032D01*
X847500D01*
Y1089216D01*
D02*
G37*
G36*
X849881D02*
X848500D01*
Y1088032D01*
X849881D01*
Y1089216D01*
D02*
G37*
G36*
X847500Y1087032D02*
X846119D01*
Y1085847D01*
X847500D01*
Y1087032D01*
D02*
G37*
G36*
X849881D02*
X848500D01*
Y1085847D01*
X849881D01*
Y1087032D01*
D02*
G37*
G36*
X874928Y1137472D02*
X873547D01*
Y1135500D01*
X874928D01*
Y1137472D01*
D02*
G37*
G36*
X896000Y1259618D02*
Y1256500D01*
X899118D01*
X899059Y1256954D01*
X898691Y1257842D01*
X898105Y1258605D01*
X897342Y1259191D01*
X896454Y1259559D01*
X896000Y1259618D01*
D02*
G37*
G36*
X872547Y1137472D02*
X871166D01*
Y1135500D01*
X872547D01*
Y1137472D01*
D02*
G37*
G36*
Y1131972D02*
X871166D01*
Y1130000D01*
X872547D01*
Y1131972D01*
D02*
G37*
G36*
Y1134500D02*
X871166D01*
Y1132528D01*
X872547D01*
Y1134500D01*
D02*
G37*
G36*
X895000Y1255500D02*
X891882D01*
X891941Y1255046D01*
X892309Y1254158D01*
X892895Y1253395D01*
X893658Y1252809D01*
X894546Y1252441D01*
X895000Y1252382D01*
Y1255500D01*
D02*
G37*
G36*
X889118D02*
X886000D01*
Y1252382D01*
X886454Y1252441D01*
X887342Y1252809D01*
X888105Y1253395D01*
X888691Y1254158D01*
X889059Y1255046D01*
X889118Y1255500D01*
D02*
G37*
G36*
X899118D02*
X896000D01*
Y1252382D01*
X896454Y1252441D01*
X897342Y1252809D01*
X898105Y1253395D01*
X898691Y1254158D01*
X899059Y1255046D01*
X899118Y1255500D01*
D02*
G37*
G36*
X895000Y1259618D02*
X894546Y1259559D01*
X893658Y1259191D01*
X892895Y1258605D01*
X892309Y1257842D01*
X891941Y1256954D01*
X891882Y1256500D01*
X895000D01*
Y1259618D01*
D02*
G37*
G36*
X886000D02*
Y1256500D01*
X889118D01*
X889059Y1256954D01*
X888691Y1257842D01*
X888105Y1258605D01*
X887342Y1259191D01*
X886454Y1259559D01*
X886000Y1259618D01*
D02*
G37*
G36*
X872547Y1129000D02*
X871166D01*
Y1127028D01*
X872547D01*
Y1129000D01*
D02*
G37*
G36*
X920500Y1107547D02*
X918528D01*
Y1106166D01*
X920500D01*
Y1107547D01*
D02*
G37*
G36*
X923472D02*
X921500D01*
Y1106166D01*
X923472D01*
Y1107547D01*
D02*
G37*
G36*
X901472D02*
X899500D01*
Y1106166D01*
X901472D01*
Y1107547D01*
D02*
G37*
G36*
X890500Y1106260D02*
X887741D01*
Y1104682D01*
X890500D01*
Y1106260D01*
D02*
G37*
G36*
X894259D02*
X891500D01*
Y1104682D01*
X894259D01*
Y1106260D01*
D02*
G37*
G36*
X898500Y1109928D02*
X896528D01*
Y1108547D01*
X898500D01*
Y1109928D01*
D02*
G37*
G36*
X901472D02*
X899500D01*
Y1108547D01*
X901472D01*
Y1109928D01*
D02*
G37*
G36*
X894259Y1108838D02*
X891500D01*
Y1107260D01*
X894259D01*
Y1108838D01*
D02*
G37*
G36*
X926500Y1107547D02*
X924528D01*
Y1106166D01*
X926500D01*
Y1107547D01*
D02*
G37*
G36*
X890500Y1108838D02*
X887741D01*
Y1107260D01*
X890500D01*
Y1108838D01*
D02*
G37*
%LPD*%
D10*
X848106Y1105299D02*
D03*
X848500Y1142701D02*
D03*
D11*
X1036500Y1161453D02*
D03*
Y1155547D02*
D03*
X921000Y1108047D02*
D03*
Y1113953D02*
D03*
X955500Y1176547D02*
D03*
Y1182453D02*
D03*
X874500Y1163453D02*
D03*
Y1157547D02*
D03*
X894500Y1177453D02*
D03*
Y1171547D02*
D03*
X899000Y1108047D02*
D03*
Y1113953D02*
D03*
X880000Y1163453D02*
D03*
Y1157547D02*
D03*
X927000Y1108047D02*
D03*
Y1113953D02*
D03*
X1013500Y1196547D02*
D03*
Y1202453D02*
D03*
D12*
X944953Y1153500D02*
D03*
X939047D02*
D03*
X873047Y1129500D02*
D03*
X878953D02*
D03*
X944953Y1159500D02*
D03*
X939047D02*
D03*
X873047Y1135000D02*
D03*
X878953D02*
D03*
X967953Y1248000D02*
D03*
X962047D02*
D03*
X1047953Y1276500D02*
D03*
X1042047D02*
D03*
X962047Y1259000D02*
D03*
X967953D02*
D03*
X962047Y1253500D02*
D03*
X967953D02*
D03*
X1047953Y1271000D02*
D03*
X1042047D02*
D03*
X985047Y1143500D02*
D03*
X990953D02*
D03*
X984047Y1163500D02*
D03*
X989953D02*
D03*
D13*
X848500Y1156531D02*
D03*
Y1160469D02*
D03*
X848000Y1091469D02*
D03*
Y1087532D02*
D03*
D14*
X891000Y1106760D02*
D03*
Y1114240D02*
D03*
X856000Y1211740D02*
D03*
Y1204260D02*
D03*
D15*
X895374Y1165374D02*
D03*
X897343D02*
D03*
X899311D02*
D03*
X901280D02*
D03*
X903248D02*
D03*
X905217D02*
D03*
X907185D02*
D03*
X909154D02*
D03*
X911122D02*
D03*
X913091D02*
D03*
X915059D02*
D03*
X917028D02*
D03*
X918996D02*
D03*
X920965D02*
D03*
X922933D02*
D03*
X924902D02*
D03*
Y1120098D02*
D03*
X922933D02*
D03*
X920965D02*
D03*
X918996D02*
D03*
X917028D02*
D03*
X915059D02*
D03*
X913091D02*
D03*
X911122D02*
D03*
X909154D02*
D03*
X907185D02*
D03*
X905217D02*
D03*
X903248D02*
D03*
X901280D02*
D03*
X899311D02*
D03*
X897343D02*
D03*
X895374D02*
D03*
D16*
X932776Y1157500D02*
D03*
Y1155532D02*
D03*
Y1153563D02*
D03*
Y1151595D02*
D03*
Y1149626D02*
D03*
Y1147658D02*
D03*
Y1145689D02*
D03*
Y1143721D02*
D03*
Y1141752D02*
D03*
Y1139784D02*
D03*
Y1137815D02*
D03*
Y1135847D02*
D03*
Y1133878D02*
D03*
Y1131910D02*
D03*
Y1129941D02*
D03*
Y1127973D02*
D03*
X887500D02*
D03*
Y1129941D02*
D03*
Y1131910D02*
D03*
Y1133878D02*
D03*
Y1135847D02*
D03*
Y1137815D02*
D03*
Y1139784D02*
D03*
Y1141752D02*
D03*
Y1143721D02*
D03*
Y1145689D02*
D03*
Y1147658D02*
D03*
Y1149626D02*
D03*
Y1151595D02*
D03*
Y1153563D02*
D03*
Y1155532D02*
D03*
Y1157500D02*
D03*
D17*
X868000Y1200008D02*
D03*
Y1218000D02*
D03*
D18*
X896268Y1209004D02*
D03*
D19*
X1053000Y1259002D02*
D03*
Y1253407D02*
D03*
Y1247813D02*
D03*
Y1242219D02*
D03*
Y1236624D02*
D03*
Y1231030D02*
D03*
Y1225435D02*
D03*
Y1219841D02*
D03*
Y1214246D02*
D03*
X974166D02*
D03*
Y1219841D02*
D03*
Y1225435D02*
D03*
Y1231030D02*
D03*
Y1236624D02*
D03*
Y1242219D02*
D03*
Y1247813D02*
D03*
Y1253407D02*
D03*
Y1259002D02*
D03*
D20*
X1048000Y1209248D02*
D03*
X1042264D02*
D03*
X1036528D02*
D03*
X1030791D02*
D03*
X1025055D02*
D03*
X1019319D02*
D03*
X1013583D02*
D03*
X1007846D02*
D03*
X1002110D02*
D03*
X996374D02*
D03*
X990638D02*
D03*
X984902D02*
D03*
X979165D02*
D03*
Y1264000D02*
D03*
X984902D02*
D03*
X990638D02*
D03*
X996374D02*
D03*
X1002110D02*
D03*
X1007846D02*
D03*
X1013583D02*
D03*
X1019319D02*
D03*
X1025055D02*
D03*
X1030791D02*
D03*
X1036528D02*
D03*
X1042264D02*
D03*
X1048000D02*
D03*
D21*
X875760Y1227500D02*
D03*
X883240D02*
D03*
D22*
X955358Y1225913D02*
D03*
Y1190087D02*
D03*
X937642Y1225913D02*
D03*
Y1190087D02*
D03*
D23*
X980300Y1274000D02*
X1042047D01*
X974166Y1267866D02*
X980300Y1274000D01*
X894500Y1171547D02*
X895374Y1170673D01*
X938600Y999000D02*
X941200Y1001600D01*
X845500Y999000D02*
X938600D01*
X842900Y1001600D02*
X845500Y999000D01*
X1019700D02*
X1021200Y1000500D01*
X955000Y999000D02*
X1019700D01*
X947000Y1007000D02*
X955000Y999000D01*
X981000Y1001000D02*
X987000Y1007000D01*
X966600Y1001000D02*
X981000D01*
X962800Y1004800D02*
X966600Y1001000D01*
X938800Y1070200D02*
Y1120700D01*
X934200Y1065600D02*
X938800Y1070200D01*
X937400Y1122100D02*
X938800Y1120700D01*
X937400Y1122100D02*
Y1132926D01*
X940600Y1070400D02*
X955800Y1085600D01*
X940600Y1065061D02*
Y1070400D01*
X942300Y1069300D02*
X957500Y1084500D01*
X942300Y1055161D02*
Y1069300D01*
X932776Y1123724D02*
X936200Y1120300D01*
Y1081600D02*
Y1120300D01*
X929700Y1111300D02*
X932800Y1108200D01*
Y1098772D02*
Y1108200D01*
X930600Y1096572D02*
X932800Y1098772D01*
X929200Y1124388D02*
X934500Y1119088D01*
Y1088000D02*
Y1119088D01*
X930204Y1099204D02*
Y1104404D01*
X911500Y1080500D02*
X930204Y1099204D01*
X911500Y1055961D02*
Y1080500D01*
X932776Y1123724D02*
Y1127973D01*
X936448Y1133878D02*
X937400Y1132926D01*
X952000Y1088400D02*
Y1132700D01*
Y1088400D02*
X953500Y1086900D01*
X944916Y1139784D02*
X952000Y1132700D01*
X954000Y1091160D02*
X955800Y1089360D01*
X954000Y1091160D02*
Y1134100D01*
X955800Y1092549D02*
X957500Y1090849D01*
X955800Y1092549D02*
Y1169600D01*
X957500Y1084500D02*
Y1090849D01*
X955800Y1085600D02*
Y1089360D01*
X944379Y1143721D02*
X954000Y1134100D01*
X907000Y1103500D02*
X923950D01*
X905300Y1105200D02*
X907000Y1103500D01*
X905300Y1105200D02*
Y1112100D01*
X937047Y1157500D02*
X939047Y1159500D01*
X932776Y1157500D02*
X937047D01*
X937016Y1155532D02*
X939047Y1153500D01*
X932776Y1155532D02*
X937016D01*
X899311Y1114264D02*
Y1120098D01*
X876500Y1120540D02*
X883087Y1113953D01*
X924902Y1116051D02*
X927000Y1113953D01*
X924902Y1116051D02*
Y1120098D01*
X922933Y1115886D02*
Y1120098D01*
X921000Y1113953D02*
X922933Y1115886D01*
X1026500Y1060961D02*
Y1066000D01*
X982900Y1109600D02*
X1026500Y1066000D01*
X982900Y1109600D02*
Y1136900D01*
X942000Y1113800D02*
Y1135521D01*
X939706Y1137815D02*
X942000Y1135521D01*
X961700Y1082200D02*
Y1170300D01*
X952300Y1072800D02*
X961700Y1082200D01*
X952300Y1055161D02*
Y1072800D01*
X959200Y1083200D02*
Y1128134D01*
X946500Y1070500D02*
X959200Y1083200D01*
X946500Y1060961D02*
Y1070500D01*
X918000Y1111300D02*
Y1115718D01*
X918996Y1116714D02*
Y1120098D01*
X918000Y1115718D02*
X918996Y1116714D01*
X939700Y1124800D02*
Y1133800D01*
X937653Y1135847D02*
X939700Y1133800D01*
X932776Y1135847D02*
X937653D01*
X932776Y1137815D02*
X939706D01*
X980700Y1055200D02*
Y1087800D01*
X973000Y1095500D02*
X980700Y1087800D01*
X973000Y1095500D02*
Y1137700D01*
X986500Y1060961D02*
Y1086300D01*
X980300Y1092500D02*
X986500Y1086300D01*
X975300Y1101100D02*
X992000Y1084400D01*
Y1055461D02*
Y1084400D01*
Y1055461D02*
X996500Y1050961D01*
X978700Y1102100D02*
X994000Y1086800D01*
Y1072300D02*
Y1086800D01*
Y1072300D02*
X996500Y1069800D01*
X999000Y1075454D02*
Y1085815D01*
X977334Y1107481D02*
X999000Y1085815D01*
X963200Y1262600D02*
X967953Y1257847D01*
X974166Y1259002D02*
Y1267866D01*
X967953Y1257847D02*
Y1259000D01*
X1030747Y1155547D02*
X1034400D01*
X883240Y1209004D02*
Y1227500D01*
Y1190880D02*
Y1209004D01*
X899311Y1132800D02*
Y1136444D01*
X877300Y1134400D02*
X878953D01*
X980700Y1055161D02*
Y1055200D01*
X931900Y1155500D02*
Y1155532D01*
X848106Y1110400D02*
X862800D01*
X848500Y1148400D02*
X855100D01*
X848500D02*
Y1156531D01*
X964800Y1118000D02*
Y1162000D01*
Y1072600D02*
Y1118000D01*
X881500Y1056000D02*
X889100D01*
X881461D02*
X881500D01*
X953400Y1190087D02*
Y1218200D01*
X913091Y1165374D02*
Y1174591D01*
X917100Y1178600D01*
X1008828Y1186928D02*
Y1200628D01*
X1010500Y1202300D01*
Y1255181D01*
X1019319Y1264000D01*
X967953Y1253500D02*
Y1257847D01*
X932100Y1262600D02*
X963200D01*
X925500Y1256000D02*
X932100Y1262600D01*
X1000000Y1173500D02*
Y1201402D01*
X1007846Y1209248D01*
X1036500Y1050961D02*
X1040647Y1055108D01*
Y1056813D01*
X1040700Y1069400D01*
X1031647Y1078453D02*
X1040700Y1069400D01*
X1031647Y1078453D02*
Y1152794D01*
X1034400Y1155547D01*
X1036500D01*
X883240Y1227500D02*
Y1232000D01*
X886740Y1235500D01*
X883722Y1133878D02*
X887500D01*
X878953Y1135000D02*
X883722Y1133878D01*
X862386Y1157547D02*
X874500D01*
X859300Y1154461D02*
X862386Y1157547D01*
X859300Y1134825D02*
Y1154461D01*
X853150Y1128675D02*
X859300Y1134825D01*
X845825Y1128675D02*
X853150D01*
X843300Y1131200D02*
X845825Y1128675D01*
X843300Y1131200D02*
Y1167600D01*
X863340Y1187640D01*
X880000D01*
X883240Y1190880D01*
X887500Y1157500D02*
X891100D01*
X898500Y1150100D01*
Y1141756D02*
Y1150100D01*
X890622Y1133878D02*
X898500Y1141756D01*
X887500Y1133878D02*
X890622D01*
X903248Y1165374D02*
Y1169900D01*
X906448Y1173100D01*
X917028Y1120098D02*
Y1136800D01*
X920228Y1140000D01*
X981500D02*
X990153D01*
X990953Y1140800D01*
Y1143500D01*
X883721Y1143721D02*
X887500D01*
X883300Y1143300D02*
X883721Y1143721D01*
X1044100Y1058561D02*
X1046500Y1060961D01*
X1044100Y1056853D02*
Y1058561D01*
X1042347Y1055100D02*
X1044100Y1056853D01*
X1042347Y1012347D02*
Y1055100D01*
X1037000Y1007000D02*
X1042347Y1012347D01*
X988624Y1108837D02*
X1036500Y1060961D01*
X988624Y1108837D02*
Y1136500D01*
X891552Y1141752D02*
X891556Y1141756D01*
X887500Y1141752D02*
X891552D01*
X874720Y1139784D02*
X887500D01*
X874204Y1140300D02*
X874720Y1139784D01*
X887500Y1137815D02*
X891100D01*
X893900Y1140615D01*
Y1145900D01*
X891700Y1148100D02*
X893900Y1145900D01*
X979100Y1146300D02*
X979900Y1147100D01*
X979100Y1109440D02*
Y1146300D01*
Y1109440D02*
X1000700Y1087840D01*
Y1076761D02*
Y1087840D01*
Y1076761D02*
X1016500Y1060961D01*
X1012300Y1031700D02*
X1027000Y1017000D01*
X1012300Y1031700D02*
Y1056761D01*
X1016500Y1060961D01*
X909154Y1115954D02*
Y1120098D01*
X905300Y1112100D02*
X909154Y1115954D01*
X996700Y1074031D02*
Y1078000D01*
Y1074031D02*
X1006500Y1064231D01*
Y1060961D02*
Y1064231D01*
X996500Y1060961D02*
Y1069800D01*
X911122Y1120098D02*
Y1126800D01*
X1002000Y1012000D02*
X1007000Y1007000D01*
X993700Y1012000D02*
X1002000D01*
X992200Y1013500D02*
X993700Y1012000D01*
X992200Y1013500D02*
Y1029800D01*
X988900Y1033100D02*
X992200Y1029800D01*
X988900Y1033100D02*
Y1046808D01*
X932776Y1139784D02*
X944916D01*
X997000Y1017000D02*
Y1030600D01*
X991753Y1035847D02*
X997000Y1030600D01*
X991753Y1035847D02*
Y1052800D01*
X989353Y1055200D02*
X991753Y1052800D01*
X980700Y1055200D02*
X989353D01*
X976500Y1050961D02*
X980700Y1055200D01*
X929552Y1141752D02*
X932776D01*
X928600Y1139300D02*
X929552Y1141752D01*
X971400Y1139300D02*
X973000Y1137700D01*
X976500Y1050961D02*
X980700Y1055161D01*
X942300D02*
X946500Y1050961D01*
X915428Y1169600D02*
X916228D01*
X917028Y1168800D01*
Y1165374D02*
Y1168800D01*
X887500Y1151595D02*
X892805D01*
X896200Y1148200D01*
Y1144100D02*
Y1148200D01*
X931900Y1155532D02*
X932776D01*
X911400Y1155500D02*
X931900D01*
X907900Y1152000D02*
X911400Y1155500D01*
X907900Y1146100D02*
Y1152000D01*
X915000Y1143800D02*
X916500Y1142300D01*
X921600D01*
X922600Y1141300D01*
Y1125233D02*
Y1141300D01*
Y1125233D02*
X922933Y1124900D01*
Y1120098D02*
Y1124900D01*
X848106Y1098406D02*
Y1105299D01*
X848000Y1091469D02*
X848106Y1098406D01*
X873826Y1149626D02*
X887500D01*
X872600Y1148400D02*
X873826Y1149626D01*
X848500Y1142701D02*
Y1148400D01*
X911122Y1165374D02*
Y1176022D01*
X911800Y1176700D01*
Y1219600D01*
X881300Y1250100D02*
X911800Y1219600D01*
X881300Y1250100D02*
Y1268800D01*
X884353Y1271853D01*
X909647D01*
X915500Y1266000D01*
X927913Y1153563D02*
X932776D01*
X927550Y1153200D02*
X927913Y1153563D01*
X947400Y1151800D02*
X947900Y1151300D01*
X947400Y1151800D02*
Y1237200D01*
X953900Y1243700D01*
X1030791D02*
Y1264000D01*
X1033991Y1267200D02*
Y1271409D01*
X1030791Y1264000D02*
X1033991Y1267200D01*
X1025055Y1264000D02*
X1030978Y1269922D01*
X1009883Y1260300D02*
X1013583Y1264000D01*
X932776Y1147658D02*
X948975D01*
X950234Y1148916D01*
Y1213466D01*
X949700Y1214000D02*
X950234Y1213466D01*
X942000Y1151626D02*
Y1156700D01*
X940000Y1149626D02*
X942000Y1151626D01*
X932776Y1149626D02*
X940000D01*
X918000Y1111300D02*
X929700D01*
X930600Y1092500D02*
Y1096572D01*
X1005096Y1081056D02*
X1020653Y1065500D01*
Y1056800D02*
Y1065500D01*
X1018900Y1055047D02*
X1020653Y1056800D01*
X1018900Y1053361D02*
Y1055047D01*
X1016500Y1050961D02*
X1018900Y1053361D01*
X973500Y1021200D02*
Y1034800D01*
X901280Y1165374D02*
Y1179582D01*
X901648Y1179950D01*
X906950D01*
X908960Y1177940D01*
X969600Y1167000D02*
X977334Y1159266D01*
Y1107481D02*
Y1159266D01*
X999000Y1075454D02*
X1010653Y1063801D01*
Y1059200D02*
Y1063801D01*
X1006500Y1055047D02*
X1010653Y1059200D01*
X1006500Y1050961D02*
Y1055047D01*
Y1033900D02*
Y1050961D01*
Y1033900D02*
X1021200Y1019200D01*
Y1000500D02*
Y1019200D01*
X975300Y1101100D02*
Y1153300D01*
X974300Y1154300D02*
X975300Y1153300D01*
X899311Y1161800D02*
X899811Y1161300D01*
X899311Y1161800D02*
Y1165374D01*
X947000Y1017000D02*
Y1033100D01*
X962400Y1048500D01*
X920965Y1120098D02*
Y1123500D01*
X919365Y1125100D02*
X920965Y1123500D01*
X906500Y1050961D02*
X911500Y1055961D01*
X932776Y1133878D02*
X936448D01*
X881500Y1032500D02*
X897000Y1017000D01*
X881500Y1032500D02*
Y1056000D01*
X876500Y1060961D02*
X881500Y1056000D01*
X949700Y1221900D02*
X953400Y1218200D01*
X1035512Y1216000D02*
X1042264Y1209248D01*
X1025055D02*
X1042100Y1192203D01*
Y1172800D02*
Y1192203D01*
Y1172800D02*
X1046400Y1168500D01*
X1051200D01*
X1053200Y1166500D01*
Y1149400D02*
Y1166500D01*
X1033347Y1129547D02*
X1053200Y1149400D01*
X1033347Y1121653D02*
Y1129547D01*
Y1121653D02*
X1037500Y1117500D01*
X905217Y1114900D02*
Y1120098D01*
X903600Y1113283D02*
X905217Y1114900D01*
X903600Y1063861D02*
Y1113283D01*
Y1063861D02*
X906500Y1060961D01*
X932776Y1145689D02*
X950400D01*
X953500Y1148789D01*
Y1156800D01*
X924902Y1120098D02*
Y1142400D01*
X921202Y1146100D02*
X924902Y1142400D01*
X913600Y1146100D02*
X921202D01*
X912000Y1144500D02*
X913600Y1146100D01*
X912000Y1138400D02*
Y1144500D01*
X908800Y1135200D02*
X912000Y1138400D01*
X901711Y1135200D02*
X908800D01*
X899311Y1132800D02*
X901711Y1135200D01*
X899311Y1120098D02*
Y1132800D01*
X929200Y1151595D02*
X932776D01*
X925405Y1147800D02*
X929200Y1151595D01*
X911200Y1147800D02*
X925405D01*
X910300Y1146900D02*
X911200Y1147800D01*
X910300Y1140100D02*
Y1146900D01*
X907700Y1137500D02*
X910300Y1140100D01*
X892300Y1099300D02*
X897000Y1104000D01*
X892300Y1059200D02*
Y1099300D01*
X889100Y1056000D02*
X892300Y1059200D01*
X876500Y1060961D02*
X881461Y1056000D01*
X1030791Y1209248D02*
Y1210709D01*
X1029600Y1211900D02*
X1030791Y1210709D01*
X1016700Y1211900D02*
X1029600D01*
X1016700Y1200000D02*
Y1211900D01*
X1015628Y1198928D02*
X1016700Y1200000D01*
X1010528Y1198928D02*
X1015628D01*
X1010528Y1193172D02*
Y1198928D01*
Y1193172D02*
X1012800Y1190900D01*
Y1135000D02*
Y1190900D01*
X1019319Y1209248D02*
X1027200Y1201367D01*
Y1170900D02*
Y1201367D01*
X1024000Y1167700D02*
X1027200Y1170900D01*
X1020800Y1167700D02*
X1024000D01*
X1018800Y1165700D02*
X1020800Y1167700D01*
X1018800Y1122900D02*
Y1165700D01*
X953400Y1190087D02*
X955358D01*
X878011Y1144300D02*
X879400Y1145689D01*
X887500D01*
X877058Y1147658D02*
X887500D01*
X866000Y1136600D02*
X877058Y1147658D01*
X866000Y1113600D02*
Y1136600D01*
X862800Y1110400D02*
X866000Y1113600D01*
X848106Y1105299D02*
Y1110400D01*
X884332Y1155532D02*
X887500D01*
X883960Y1155160D02*
X884332Y1155532D01*
X867460Y1155160D02*
X883960D01*
X862600Y1150300D02*
X867460Y1155160D01*
X862600Y1129600D02*
Y1150300D01*
X858000Y1125000D02*
X862600Y1129600D01*
X851100Y1125000D02*
X858000D01*
X842900Y1116800D02*
X851100Y1125000D01*
X842900Y1001600D02*
Y1116800D01*
X941200Y1001600D02*
Y1046261D01*
X936500Y1050961D02*
X941200Y1046261D01*
X926500Y1050961D02*
Y1054000D01*
X922300Y1058200D02*
X926500Y1054000D01*
X922300Y1058200D02*
Y1071700D01*
X926800Y1076200D01*
X863500Y1122600D02*
X864300Y1123400D01*
Y1148300D01*
X869400Y1153400D01*
X885537D01*
X885700Y1153563D01*
X887500D01*
X913050Y1131900D02*
X914150Y1130800D01*
X908717Y1131900D02*
X913050D01*
X905217Y1128400D02*
X908717Y1131900D01*
X905217Y1120098D02*
Y1128400D01*
X907185Y1127085D02*
X909200Y1129100D01*
X907185Y1120098D02*
Y1127085D01*
X878953Y1134400D02*
Y1135000D01*
X876500Y1133600D02*
X877300Y1134400D01*
X876500Y1120540D02*
Y1133600D01*
X878953Y1129500D02*
X881600D01*
X884010Y1131910D01*
X887500D01*
X903248Y1120098D02*
Y1132300D01*
X913091Y1124363D02*
X913928Y1125200D01*
X913091Y1120098D02*
Y1124363D01*
X928100Y1157500D02*
X932776D01*
X927800Y1157200D02*
X928100Y1157500D01*
X904020Y1157200D02*
X927800D01*
X902100Y1155280D02*
X904020Y1157200D01*
X902100Y1139233D02*
Y1155280D01*
X899311Y1136444D02*
X902100Y1139233D01*
X915059Y1116000D02*
Y1120098D01*
X974900Y1084100D02*
X976500Y1082500D01*
Y1060961D02*
Y1082500D01*
X927500Y1131910D02*
X932776D01*
X927500Y1121000D02*
Y1131910D01*
Y1121000D02*
X928900Y1119600D01*
X956500Y1064300D02*
X964800Y1072600D01*
X952300Y1055161D02*
X956500Y1050961D01*
X960000Y1172000D02*
X961700Y1170300D01*
X918996Y1171996D02*
X919000Y1172000D01*
X918996Y1165374D02*
Y1171996D01*
X916500Y1060961D02*
Y1070000D01*
X934500Y1088000D01*
X929200Y1124388D02*
Y1129941D01*
X932776D01*
X920965Y1162035D02*
Y1165374D01*
Y1162035D02*
X921700Y1161300D01*
X967400Y1070300D02*
Y1161300D01*
X962300Y1065200D02*
X967400Y1070300D01*
X962300Y1055161D02*
Y1065200D01*
Y1055161D02*
X966500Y1050961D01*
X922933Y1165374D02*
Y1223667D01*
X901300Y1245300D02*
X922933Y1223667D01*
X901300Y1245300D02*
Y1261800D01*
X905500Y1266000D01*
X924902Y1165374D02*
Y1236551D01*
X909653Y1251800D02*
X924902Y1236551D01*
X909653Y1251800D02*
Y1269300D01*
X908800Y1270153D02*
X909653Y1269300D01*
X902400Y1270153D02*
X908800D01*
X901347Y1269100D02*
X902400Y1270153D01*
X901347Y1265547D02*
Y1269100D01*
X897600Y1261800D02*
X901347Y1265547D01*
X889700Y1261800D02*
X897600D01*
X885500Y1266000D02*
X889700Y1261800D01*
X921500Y1022500D02*
X927000Y1017000D01*
X921500Y1022500D02*
Y1055961D01*
X916500Y1060961D02*
X921500Y1055961D01*
X932776Y1143721D02*
X944379D01*
X936500Y1060961D02*
X940600Y1065061D01*
X967000Y1017000D02*
Y1025900D01*
X966100Y1026800D02*
X967000Y1025900D01*
X1002300Y1056761D02*
X1006500Y1060961D01*
X1002300Y1030100D02*
Y1056761D01*
Y1030100D02*
X1011200Y1021200D01*
Y1012800D02*
Y1021200D01*
Y1012800D02*
X1017000Y1007000D01*
X956500Y1060961D02*
Y1064300D01*
X964800Y1162000D02*
X966400Y1163600D01*
X970500D01*
X970690Y1163410D01*
Y1143190D02*
Y1163410D01*
X969100Y1141600D02*
X970690Y1143190D01*
X969100Y1133000D02*
Y1141600D01*
Y1133000D02*
X971200Y1130900D01*
Y1004400D02*
Y1130900D01*
X970400Y1003600D02*
X971200Y1004400D01*
X896268Y1194032D02*
Y1209004D01*
Y1194032D02*
X897648Y1192652D01*
Y1174695D02*
Y1192652D01*
X894500Y1171547D02*
X897648Y1174695D01*
X1036528Y1202300D02*
Y1209248D01*
X905600Y1177600D02*
X909154Y1174046D01*
Y1165374D02*
Y1174046D01*
X962800Y1004800D02*
Y1043140D01*
X966500Y1046840D01*
Y1050961D01*
X1022353Y1056813D02*
X1026500Y1060961D01*
X1022353Y1055161D02*
Y1056813D01*
X1022300Y1055108D02*
X1022353Y1055161D01*
X1022300Y1030100D02*
Y1055108D01*
Y1030100D02*
X1031200Y1021200D01*
Y1011200D02*
Y1021200D01*
X1027000Y1007000D02*
X1031200Y1011200D01*
X883087Y1113953D02*
X899000D01*
X927000Y1007000D02*
X931200Y1011200D01*
Y1056261D01*
X926500Y1060961D02*
X931200Y1056261D01*
X1007846Y1209248D02*
Y1225321D01*
X974166Y1259002D02*
X1007846Y1225321D01*
X878961Y1068500D02*
X886500Y1060961D01*
X876800Y1068500D02*
X878961D01*
X872300Y1064000D02*
X876800Y1068500D01*
X872300Y1013502D02*
Y1064000D01*
Y1013502D02*
X884602Y1001200D01*
X911200D01*
X917000Y1007000D01*
X1001646Y1270200D02*
X1007846Y1264000D01*
X981900Y1270200D02*
X1001646D01*
X883240Y1209004D02*
X896268D01*
X1042047Y1271000D02*
Y1276500D01*
X1037000Y1017000D02*
Y1031400D01*
X1031900Y1036500D02*
X1037000Y1031400D01*
X1031900Y1036500D02*
Y1056361D01*
X1036500Y1060961D01*
X846760Y1204260D02*
X856000D01*
X836500Y1194000D02*
X846760Y1204260D01*
X970359Y1247813D02*
X974166D01*
X970172Y1248000D02*
X970359Y1247813D01*
X967953Y1248000D02*
X970172D01*
X994064Y1009936D02*
X997000Y1007000D01*
X993211Y1009936D02*
X994064D01*
X991147Y1012000D02*
X993211Y1009936D01*
X985200Y1012000D02*
X991147D01*
X982800Y1014400D02*
X985200Y1012000D01*
X982800Y1014400D02*
Y1047261D01*
X986500Y1050961D01*
X1000000Y1153500D02*
X1005853Y1159353D01*
Y1167647D01*
X1000000Y1173500D02*
X1005853Y1167647D01*
X901500Y1012500D02*
X907000Y1007000D01*
X901500Y1012500D02*
Y1055961D01*
X896500Y1060961D02*
X901500Y1055961D01*
X1042047Y1267517D02*
Y1271000D01*
Y1267517D02*
X1042264Y1267300D01*
Y1264000D02*
Y1267300D01*
X925500Y1256000D02*
Y1266000D01*
X971002Y1259002D02*
X974166D01*
X971000Y1259000D02*
X971002Y1259002D01*
X967953Y1259000D02*
X971000D01*
X974166Y1253407D02*
Y1259002D01*
X1028700Y1153500D02*
X1030747Y1155547D01*
X1023000Y1153500D02*
X1028700D01*
X1043747D02*
X1049000D01*
X1041700Y1155547D02*
X1043747Y1153500D01*
X1036500Y1155547D02*
X1041700D01*
X895374Y1165374D02*
Y1170673D01*
X883747Y1157500D02*
X887500D01*
X883700Y1157547D02*
X883747Y1157500D01*
X880000Y1157547D02*
X883700D01*
X874500D02*
X880000D01*
X864052Y1200008D02*
X868000D01*
X859800Y1204260D02*
X864052Y1200008D01*
X856000Y1204260D02*
X859800D01*
X989953Y1163500D02*
X1000000D01*
X990953Y1143500D02*
X1000000D01*
X1013583Y1205883D02*
Y1209248D01*
X1013500Y1205800D02*
X1013583Y1205883D01*
X1013500Y1202453D02*
Y1205800D01*
X955358Y1186242D02*
Y1190087D01*
Y1186242D02*
X955500Y1186100D01*
Y1182453D02*
Y1186100D01*
X1030747Y1161453D02*
X1036500D01*
X1028700Y1163500D02*
X1030747Y1161453D01*
X1023000Y1163500D02*
X1028700D01*
X1043747D02*
X1049000D01*
X1041700Y1161453D02*
X1043747Y1163500D01*
X1036500Y1161453D02*
X1041700D01*
D24*
X944953Y1153500D02*
Y1159500D01*
D25*
X925500Y1266000D02*
D03*
X1047000Y1007000D02*
D03*
D26*
X925500Y1256000D02*
D03*
X915500Y1266000D02*
D03*
Y1256000D02*
D03*
X905500Y1266000D02*
D03*
Y1256000D02*
D03*
X895500Y1266000D02*
D03*
Y1256000D02*
D03*
X885500Y1266000D02*
D03*
Y1256000D02*
D03*
X875500Y1266000D02*
D03*
Y1256000D02*
D03*
X865500Y1266000D02*
D03*
Y1256000D02*
D03*
X855500Y1266000D02*
D03*
Y1256000D02*
D03*
X845500Y1266000D02*
D03*
Y1256000D02*
D03*
X835500Y1266000D02*
D03*
Y1256000D02*
D03*
X856500Y1060961D02*
D03*
X866500D02*
D03*
X876500D02*
D03*
X886500D02*
D03*
X896500D02*
D03*
X906500D02*
D03*
X916500D02*
D03*
X926500D02*
D03*
X936500D02*
D03*
X946500D02*
D03*
X956500D02*
D03*
X966500D02*
D03*
X976500D02*
D03*
X986500D02*
D03*
X996500D02*
D03*
X1006500D02*
D03*
X1016500D02*
D03*
X1026500D02*
D03*
X1036500D02*
D03*
X1046500D02*
D03*
X856500Y1050961D02*
D03*
X866500D02*
D03*
X876500D02*
D03*
X886500D02*
D03*
X896500D02*
D03*
X906500D02*
D03*
X916500D02*
D03*
X926500D02*
D03*
X936500D02*
D03*
X946500D02*
D03*
X956500D02*
D03*
X966500D02*
D03*
X976500D02*
D03*
X986500D02*
D03*
X996500D02*
D03*
X1006500D02*
D03*
X1016500D02*
D03*
X1026500D02*
D03*
X1036500D02*
D03*
X897000Y1017000D02*
D03*
Y1007000D02*
D03*
X907000Y1017000D02*
D03*
Y1007000D02*
D03*
X917000Y1017000D02*
D03*
Y1007000D02*
D03*
X927000Y1017000D02*
D03*
Y1007000D02*
D03*
X937000Y1017000D02*
D03*
Y1007000D02*
D03*
X947000Y1017000D02*
D03*
Y1007000D02*
D03*
X957000Y1017000D02*
D03*
Y1007000D02*
D03*
X967000Y1017000D02*
D03*
Y1007000D02*
D03*
X977000Y1017000D02*
D03*
Y1007000D02*
D03*
X987000Y1017000D02*
D03*
Y1007000D02*
D03*
X997000Y1017000D02*
D03*
Y1007000D02*
D03*
X1007000Y1017000D02*
D03*
Y1007000D02*
D03*
X1017000Y1017000D02*
D03*
Y1007000D02*
D03*
X1027000Y1017000D02*
D03*
Y1007000D02*
D03*
X1037000Y1017000D02*
D03*
Y1007000D02*
D03*
X1047000Y1017000D02*
D03*
X1000000Y1143500D02*
D03*
Y1153500D02*
D03*
Y1163500D02*
D03*
X836500Y1224000D02*
D03*
Y1214000D02*
D03*
Y1204000D02*
D03*
X1037500Y1127500D02*
D03*
X1047500D02*
D03*
X1037500Y1117500D02*
D03*
X1047500D02*
D03*
X1037500Y1107500D02*
D03*
X1047500D02*
D03*
X1037500Y1097500D02*
D03*
X1049000Y1163500D02*
D03*
Y1173500D02*
D03*
X1023000Y1163500D02*
D03*
Y1173500D02*
D03*
D27*
X1046500Y1050961D02*
D03*
X1000000Y1173500D02*
D03*
X836500Y1194000D02*
D03*
X1047500Y1097500D02*
D03*
X1049000Y1153500D02*
D03*
X1023000D02*
D03*
D28*
X1037500Y1278000D02*
D03*
X1047000Y1042000D02*
D03*
Y1025000D02*
D03*
X1044000Y1081000D02*
D03*
X1025500Y1092000D02*
D03*
X849500Y1208500D02*
D03*
X846500Y1194000D02*
D03*
X974500Y1174000D02*
D03*
X896000Y1126500D02*
D03*
X932000Y1164000D02*
D03*
X888500Y1163500D02*
D03*
X889000Y1184000D02*
D03*
X870000Y1230500D02*
D03*
X935000Y1238500D02*
D03*
X942000Y1249500D02*
D03*
X963000Y1234000D02*
D03*
X962000Y1209000D02*
D03*
X971000Y1196500D02*
D03*
X989500Y1195000D02*
D03*
X1035500Y1173000D02*
D03*
X1034000Y1190500D02*
D03*
X1048500Y1196000D02*
D03*
X1021500Y1253000D02*
D03*
X1042500Y1253500D02*
D03*
X1044500Y1223500D02*
D03*
X1031500Y1233500D02*
D03*
X1021500Y1225000D02*
D03*
X1004500Y1237000D02*
D03*
X990500Y1254500D02*
D03*
X990000Y1225500D02*
D03*
X970400Y1003600D02*
D03*
X915500Y1098500D02*
D03*
X908000Y1089000D02*
D03*
X912000Y1109000D02*
D03*
X885500Y1122000D02*
D03*
X873500Y1112500D02*
D03*
X880000Y1094000D02*
D03*
X863500Y1079000D02*
D03*
X939700Y1124800D02*
D03*
X917100Y1178600D02*
D03*
X1008828Y1186928D02*
D03*
X886740Y1235500D02*
D03*
X906448Y1173100D02*
D03*
X920228Y1140000D02*
D03*
X981500D02*
D03*
X883300Y1143300D02*
D03*
X988624Y1136500D02*
D03*
X891556Y1141756D02*
D03*
X874204Y1140300D02*
D03*
X982900Y1136900D02*
D03*
X891700Y1148100D02*
D03*
X979900Y1147100D02*
D03*
X923950Y1103500D02*
D03*
X996700Y1078000D02*
D03*
X978700Y1102100D02*
D03*
X911122Y1126800D02*
D03*
X980300Y1092500D02*
D03*
X988900Y1046808D02*
D03*
X953500Y1086900D02*
D03*
X928600Y1139300D02*
D03*
X971400D02*
D03*
X955800Y1169600D02*
D03*
X915428D02*
D03*
X896200Y1144100D02*
D03*
X907900Y1146100D02*
D03*
X915000Y1143800D02*
D03*
X872600Y1148400D02*
D03*
X855100D02*
D03*
X927550Y1153200D02*
D03*
X947900Y1151300D02*
D03*
X953900Y1243700D02*
D03*
X1030791D02*
D03*
X1033991Y1271409D02*
D03*
X1030978Y1269922D02*
D03*
X1009883Y1260300D02*
D03*
X949700Y1214000D02*
D03*
X942000Y1156700D02*
D03*
X930600Y1092500D02*
D03*
X1005096Y1081056D02*
D03*
X973500Y1034800D02*
D03*
Y1021200D02*
D03*
X908960Y1177940D02*
D03*
X969600Y1167000D02*
D03*
X974300Y1154300D02*
D03*
X899811Y1161300D02*
D03*
X962400Y1048500D02*
D03*
X919365Y1125100D02*
D03*
X930204Y1104404D02*
D03*
X934200Y1065600D02*
D03*
X949700Y1221900D02*
D03*
X1035512Y1216000D02*
D03*
X953500Y1156800D02*
D03*
X907700Y1137500D02*
D03*
X897000Y1104000D02*
D03*
X1012800Y1135000D02*
D03*
X1018800Y1122900D02*
D03*
X878011Y1144300D02*
D03*
X926800Y1076200D02*
D03*
X863500Y1122600D02*
D03*
X914150Y1130800D02*
D03*
X909200Y1129100D02*
D03*
X959200Y1128134D02*
D03*
X903248Y1132300D02*
D03*
X913928Y1125200D02*
D03*
X915059Y1116000D02*
D03*
X942000Y1113800D02*
D03*
X974900Y1084100D02*
D03*
X928900Y1119600D02*
D03*
X964800Y1118000D02*
D03*
X960000Y1172000D02*
D03*
X919000D02*
D03*
X936200Y1081600D02*
D03*
X921700Y1161300D02*
D03*
X967400D02*
D03*
X966100Y1026800D02*
D03*
X1036528Y1202300D02*
D03*
X905600Y1177600D02*
D03*
X981900Y1270200D02*
D03*
M02*
